<svg width="406" height="239" viewBox="0 0 406 239" fill="none" xmlns="http://www.w3.org/2000/svg">
<g filter="url(#filter0_d)">
<rect width="374" height="207" transform="translate(16 12)" fill="white"/>
<path d="M209 88.5C209 121.913 181.913 149 148.5 149C115.087 149 88 121.913 88 88.5C88 55.0868 115.087 28 148.5 28C181.913 28 209 55.0868 209 88.5Z" fill="#E7E7E7"/>
<path d="M306 138.5C306 171.913 278.913 199 245.5 199C212.087 199 185 171.913 185 138.5C185 105.087 212.087 78 245.5 78C278.913 78 306 105.087 306 138.5Z" fill="#E7E7E7"/>
<path fill-rule="evenodd" clip-rule="evenodd" d="M208.975 90.2656C208.431 109.236 199.155 126.018 185.025 136.734C185.569 117.764 194.845 100.982 208.975 90.2656Z" fill="white"/>
<path fill-rule="evenodd" clip-rule="evenodd" d="M148.5 148C181.361 148 208 121.361 208 88.5C208 55.6391 181.361 29 148.5 29C115.639 29 89 55.6391 89 88.5C89 121.361 115.639 148 148.5 148ZM148.5 149C181.913 149 209 121.913 209 88.5C209 55.0868 181.913 28 148.5 28C115.087 28 88 55.0868 88 88.5C88 121.913 115.087 149 148.5 149Z" fill="black"/>
<path fill-rule="evenodd" clip-rule="evenodd" d="M245.5 198C278.361 198 305 171.361 305 138.5C305 105.639 278.361 79 245.5 79C212.639 79 186 105.639 186 138.5C186 171.361 212.639 198 245.5 198ZM245.5 199C278.913 199 306 171.913 306 138.5C306 105.087 278.913 78 245.5 78C212.087 78 185 105.087 185 138.5C185 171.913 212.087 199 245.5 199Z" fill="black"/>
<path d="M144.5 85L151.5 92M144.5 92L151.5 85" stroke="#BE2626" stroke-linecap="round"/>
<path d="M242.5 135L249.5 142M242.5 142L249.5 135" stroke="#BE2626" stroke-linecap="round"/>
<path d="M26 27L378 206" stroke="#808080" stroke-linecap="round" stroke-dasharray="4 3"/>
<path d="M188 109.5L219 49" stroke="#808080" stroke-width="0.3" stroke-linecap="round"/>
<path d="M254 169L265 148.5" stroke="#808080" stroke-width="0.3" stroke-linecap="round"/>
<path d="M219 49L179 29" stroke="#808080" stroke-width="0.3" stroke-linecap="round"/>
<path d="M254 169L235 159.5" stroke="#808080" stroke-width="0.3" stroke-linecap="round"/>
<path d="M219 49L210.34 48.9087L214.591 56.4539L219 49ZM148.368 89.6534L213.487 52.9666L212.751 51.6598L147.632 88.3466L148.368 89.6534Z" fill="#0000D0"/>
<path d="M254 169L256.251 160.638L247.884 162.869L254 169ZM245.275 139.193L251.536 162.671L252.985 162.285L246.725 138.807L245.275 139.193Z" fill="#0000D0"/>
<path d="M179 29L175.112 31.4936L179.216 33.6138L179 29ZM148.355 89.1836L177.703 32.3819L176.992 32.0147L147.645 88.8164L148.355 89.1836Z" fill="#0000D0"/>
<path d="M235 159.5L238.926 157.067L234.856 154.883L235 159.5ZM245.648 138.811L236.35 156.139L237.055 156.517L246.352 139.189L245.648 138.811Z" fill="#0000D0"/>
<path d="M188 109.5L185.494 105.62L183.387 109.731L188 109.5ZM147.818 89.356L184.614 108.214L184.979 107.502L148.182 88.644L147.818 89.356Z" fill="#0000D0"/>
<path d="M244 142L241.487 138.125L239.387 142.239L244 142ZM145.818 92.3563L240.611 140.72L240.975 140.008L146.182 91.6437L145.818 92.3563Z" fill="#BE2626"/>
<path d="M168 106L165.522 102.102L163.385 106.197L168 106ZM144.815 94.3546L164.623 104.689L164.993 103.98L145.185 93.6454L144.815 94.3546Z" fill="#BE2626"/>
<path d="M265 148.5L262.455 144.646L260.389 148.777L265 148.5ZM245.821 139.358L261.601 147.248L261.959 146.532L246.179 138.642L245.821 139.358Z" fill="#0000D0"/>
<path d="M264.484 166.512C264.484 166.68 264.456 166.928 264.4 167.256C264.344 167.584 264.248 167.976 264.112 168.432C263.976 168.88 263.808 169.304 263.608 169.704C263.416 170.096 263.16 170.432 262.84 170.712C262.528 170.984 262.184 171.12 261.808 171.12C261.336 171.12 260.956 170.996 260.668 170.748C260.396 170.5 260.26 170.136 260.26 169.656C260.26 169.216 260.452 168.484 260.836 167.46C261.044 166.932 261.148 166.56 261.148 166.344C261.148 166.224 261.128 166.132 261.088 166.068C261.048 166.004 261.008 165.968 260.968 165.96C260.936 165.952 260.892 165.948 260.836 165.948C260.596 165.948 260.368 166.072 260.152 166.32C259.936 166.568 259.76 166.94 259.624 167.436C259.6 167.532 259.576 167.592 259.552 167.616C259.536 167.64 259.504 167.652 259.456 167.652C259.368 167.652 259.324 167.616 259.324 167.544C259.324 167.496 259.352 167.384 259.408 167.208C259.472 167.032 259.56 166.828 259.672 166.596C259.792 166.364 259.956 166.16 260.164 165.984C260.38 165.8 260.616 165.708 260.872 165.708C261.152 165.708 261.38 165.804 261.556 165.996C261.732 166.18 261.82 166.404 261.82 166.668C261.82 166.828 261.74 167.112 261.58 167.52C261.18 168.584 260.98 169.352 260.98 169.824C260.98 170.528 261.272 170.88 261.856 170.88C262.192 170.88 262.504 170.736 262.792 170.448C263.088 170.152 263.316 169.808 263.476 169.416C263.644 169.016 263.776 168.648 263.872 168.312C263.968 167.968 264.016 167.72 264.016 167.568C264.016 167.12 263.872 166.768 263.584 166.512C263.496 166.424 263.452 166.332 263.452 166.236C263.452 166.116 263.508 166 263.62 165.888C263.74 165.768 263.868 165.708 264.004 165.708C264.06 165.708 264.116 165.72 264.172 165.744C264.236 165.768 264.304 165.848 264.376 165.984C264.448 166.112 264.484 166.288 264.484 166.512Z" fill="#0000D0"/>
<path d="M267.1 170.598L266.542 172.818C266.47 173.098 266.324 173.318 266.104 173.478C265.884 173.642 265.66 173.724 265.432 173.724C265.296 173.724 265.176 173.694 265.072 173.634C264.972 173.578 264.922 173.492 264.922 173.376C264.922 173.288 264.952 173.214 265.012 173.154C265.072 173.094 265.142 173.064 265.222 173.064C265.286 173.064 265.336 173.082 265.372 173.118C265.408 173.158 265.426 173.204 265.426 173.256C265.426 173.328 265.4 173.39 265.348 173.442C265.3 173.494 265.24 173.528 265.168 173.544C265.244 173.584 265.332 173.604 265.432 173.604C265.592 173.604 265.738 173.53 265.87 173.382C266.002 173.238 266.098 173.052 266.158 172.824L266.728 170.562C266.756 170.438 266.77 170.334 266.77 170.25C266.77 170.066 266.706 169.974 266.578 169.974C266.45 169.974 266.318 170.036 266.182 170.16C266.046 170.28 265.922 170.474 265.81 170.742C265.774 170.794 265.746 170.822 265.726 170.826C265.686 170.826 265.666 170.808 265.666 170.772C265.666 170.76 265.678 170.724 265.702 170.664C265.726 170.6 265.764 170.522 265.816 170.43C265.872 170.338 265.934 170.25 266.002 170.166C266.074 170.078 266.162 170.004 266.266 169.944C266.374 169.884 266.484 169.854 266.596 169.854C266.74 169.854 266.864 169.904 266.968 170.004C267.072 170.1 267.124 170.23 267.124 170.394C267.124 170.466 267.116 170.534 267.1 170.598ZM267.346 168.756C267.346 168.832 267.314 168.9 267.25 168.96C267.19 169.016 267.124 169.044 267.052 169.044C266.992 169.044 266.942 169.024 266.902 168.984C266.866 168.94 266.848 168.894 266.848 168.846C266.848 168.778 266.878 168.714 266.938 168.654C266.998 168.59 267.068 168.558 267.148 168.558C267.196 168.558 267.24 168.574 267.28 168.606C267.324 168.638 267.346 168.688 267.346 168.756Z" fill="#0000D0"/>
<path d="M259 163.5H266M266 163.5L264.5 162M266 163.5L264.5 165" stroke="#0000D0" stroke-width="0.6"/>
<path d="M263.484 136.512C263.484 136.68 263.456 136.928 263.4 137.256C263.344 137.584 263.248 137.976 263.112 138.432C262.976 138.88 262.808 139.304 262.608 139.704C262.416 140.096 262.16 140.432 261.84 140.712C261.528 140.984 261.184 141.12 260.808 141.12C260.336 141.12 259.956 140.996 259.668 140.748C259.396 140.5 259.26 140.136 259.26 139.656C259.26 139.216 259.452 138.484 259.836 137.46C260.044 136.932 260.148 136.56 260.148 136.344C260.148 136.224 260.128 136.132 260.088 136.068C260.048 136.004 260.008 135.968 259.968 135.96C259.936 135.952 259.892 135.948 259.836 135.948C259.596 135.948 259.368 136.072 259.152 136.32C258.936 136.568 258.76 136.94 258.624 137.436C258.6 137.532 258.576 137.592 258.552 137.616C258.536 137.64 258.504 137.652 258.456 137.652C258.368 137.652 258.324 137.616 258.324 137.544C258.324 137.496 258.352 137.384 258.408 137.208C258.472 137.032 258.56 136.828 258.672 136.596C258.792 136.364 258.956 136.16 259.164 135.984C259.38 135.8 259.616 135.708 259.872 135.708C260.152 135.708 260.38 135.804 260.556 135.996C260.732 136.18 260.82 136.404 260.82 136.668C260.82 136.828 260.74 137.112 260.58 137.52C260.18 138.584 259.98 139.352 259.98 139.824C259.98 140.528 260.272 140.88 260.856 140.88C261.192 140.88 261.504 140.736 261.792 140.448C262.088 140.152 262.316 139.808 262.476 139.416C262.644 139.016 262.776 138.648 262.872 138.312C262.968 137.968 263.016 137.72 263.016 137.568C263.016 137.12 262.872 136.768 262.584 136.512C262.496 136.424 262.452 136.332 262.452 136.236C262.452 136.116 262.508 136 262.62 135.888C262.74 135.768 262.868 135.708 263.004 135.708C263.06 135.708 263.116 135.72 263.172 135.744C263.236 135.768 263.304 135.848 263.376 135.984C263.448 136.112 263.484 136.288 263.484 136.512Z" fill="#0000D0"/>
<path d="M266.1 140.598L265.542 142.818C265.47 143.098 265.324 143.318 265.104 143.478C264.884 143.642 264.66 143.724 264.432 143.724C264.296 143.724 264.176 143.694 264.072 143.634C263.972 143.578 263.922 143.492 263.922 143.376C263.922 143.288 263.952 143.214 264.012 143.154C264.072 143.094 264.142 143.064 264.222 143.064C264.286 143.064 264.336 143.082 264.372 143.118C264.408 143.158 264.426 143.204 264.426 143.256C264.426 143.328 264.4 143.39 264.348 143.442C264.3 143.494 264.24 143.528 264.168 143.544C264.244 143.584 264.332 143.604 264.432 143.604C264.592 143.604 264.738 143.53 264.87 143.382C265.002 143.238 265.098 143.052 265.158 142.824L265.728 140.562C265.756 140.438 265.77 140.334 265.77 140.25C265.77 140.066 265.706 139.974 265.578 139.974C265.45 139.974 265.318 140.036 265.182 140.16C265.046 140.28 264.922 140.474 264.81 140.742C264.774 140.794 264.746 140.822 264.726 140.826C264.686 140.826 264.666 140.808 264.666 140.772C264.666 140.76 264.678 140.724 264.702 140.664C264.726 140.6 264.764 140.522 264.816 140.43C264.872 140.338 264.934 140.25 265.002 140.166C265.074 140.078 265.162 140.004 265.266 139.944C265.374 139.884 265.484 139.854 265.596 139.854C265.74 139.854 265.864 139.904 265.968 140.004C266.072 140.1 266.124 140.23 266.124 140.394C266.124 140.466 266.116 140.534 266.1 140.598ZM266.346 138.756C266.346 138.832 266.314 138.9 266.25 138.96C266.19 139.016 266.124 139.044 266.052 139.044C265.992 139.044 265.942 139.024 265.902 138.984C265.866 138.94 265.848 138.894 265.848 138.846C265.848 138.778 265.878 138.714 265.938 138.654C265.998 138.59 266.068 138.558 266.148 138.558C266.196 138.558 266.24 138.574 266.28 138.606C266.324 138.638 266.346 138.688 266.346 138.756ZM267.602 142.524C267.602 142.732 267.562 142.928 267.482 143.112C267.402 143.3 267.322 143.438 267.242 143.526C267.166 143.614 267.116 143.658 267.092 143.658C267.052 143.658 267.032 143.638 267.032 143.598C267.032 143.582 267.054 143.55 267.098 143.502C267.354 143.214 267.482 142.888 267.482 142.524C267.482 142.448 267.478 142.41 267.47 142.41C267.462 142.41 267.454 142.414 267.446 142.422C267.394 142.474 267.328 142.5 267.248 142.5C267.152 142.5 267.078 142.47 267.026 142.41C266.978 142.35 266.954 142.282 266.954 142.206C266.954 142.134 266.98 142.068 267.032 142.008C267.084 141.948 267.154 141.918 267.242 141.918C267.362 141.918 267.452 141.974 267.512 142.086C267.572 142.194 267.602 142.34 267.602 142.524ZM269.867 141.786L270.161 140.61C270.177 140.578 270.185 140.546 270.185 140.514C270.185 140.478 270.175 140.424 270.155 140.352C270.135 140.276 270.085 140.194 270.005 140.106C269.929 140.018 269.831 139.974 269.711 139.974C269.591 139.974 269.465 140.03 269.333 140.142C269.205 140.25 269.091 140.406 268.991 140.61C268.927 140.75 268.861 140.956 268.793 141.228C268.725 141.496 268.691 141.708 268.691 141.864C268.691 142.044 268.725 142.186 268.793 142.29C268.861 142.39 268.955 142.44 269.075 142.44C269.303 142.44 269.529 142.298 269.753 142.014C269.805 141.942 269.843 141.866 269.867 141.786ZM270.251 140.25C270.283 140.062 270.367 139.968 270.503 139.968C270.547 139.968 270.583 139.982 270.611 140.01C270.643 140.038 270.659 140.074 270.659 140.118C270.659 140.142 270.567 140.526 270.383 141.27C270.367 141.326 270.347 141.404 270.323 141.504C270.299 141.6 270.279 141.674 270.263 141.726C270.215 141.934 270.191 142.08 270.191 142.164C270.191 142.348 270.253 142.44 270.377 142.44C270.453 142.44 270.521 142.4 270.581 142.32C270.645 142.24 270.693 142.156 270.725 142.068C270.757 141.976 270.791 141.856 270.827 141.708C270.839 141.656 270.849 141.624 270.857 141.612C270.869 141.596 270.887 141.588 270.911 141.588C270.951 141.588 270.971 141.606 270.971 141.642C270.971 141.654 270.963 141.694 270.947 141.762C270.931 141.826 270.907 141.906 270.875 142.002C270.847 142.098 270.819 142.176 270.791 142.236C270.683 142.452 270.539 142.56 270.359 142.56C270.247 142.56 270.139 142.524 270.035 142.452C269.931 142.38 269.865 142.264 269.837 142.104C269.581 142.408 269.321 142.56 269.057 142.56C268.845 142.56 268.665 142.476 268.517 142.308C268.373 142.136 268.301 141.906 268.301 141.618C268.301 141.178 268.449 140.774 268.745 140.406C269.045 140.038 269.367 139.854 269.711 139.854C269.959 139.854 270.139 139.986 270.251 140.25Z" fill="#0000D0"/>
<path d="M258 133.5H265M265 133.5L263.5 132M265 133.5L263.5 135" stroke="#0000D0" stroke-width="0.6"/>
<path d="M174.484 93.512C174.484 93.68 174.456 93.928 174.4 94.256C174.344 94.584 174.248 94.976 174.112 95.432C173.976 95.88 173.808 96.304 173.608 96.704C173.416 97.096 173.16 97.432 172.84 97.712C172.528 97.984 172.184 98.12 171.808 98.12C171.336 98.12 170.956 97.996 170.668 97.748C170.396 97.5 170.26 97.136 170.26 96.656C170.26 96.216 170.452 95.484 170.836 94.46C171.044 93.932 171.148 93.56 171.148 93.344C171.148 93.224 171.128 93.132 171.088 93.068C171.048 93.004 171.008 92.968 170.968 92.96C170.936 92.952 170.892 92.948 170.836 92.948C170.596 92.948 170.368 93.072 170.152 93.32C169.936 93.568 169.76 93.94 169.624 94.436C169.6 94.532 169.576 94.592 169.552 94.616C169.536 94.64 169.504 94.652 169.456 94.652C169.368 94.652 169.324 94.616 169.324 94.544C169.324 94.496 169.352 94.384 169.408 94.208C169.472 94.032 169.56 93.828 169.672 93.596C169.792 93.364 169.956 93.16 170.164 92.984C170.38 92.8 170.616 92.708 170.872 92.708C171.152 92.708 171.38 92.804 171.556 92.996C171.732 93.18 171.82 93.404 171.82 93.668C171.82 93.828 171.74 94.112 171.58 94.52C171.18 95.584 170.98 96.352 170.98 96.824C170.98 97.528 171.272 97.88 171.856 97.88C172.192 97.88 172.504 97.736 172.792 97.448C173.088 97.152 173.316 96.808 173.476 96.416C173.644 96.016 173.776 95.648 173.872 95.312C173.968 94.968 174.016 94.72 174.016 94.568C174.016 94.12 173.872 93.768 173.584 93.512C173.496 93.424 173.452 93.332 173.452 93.236C173.452 93.116 173.508 93 173.62 92.888C173.74 92.768 173.868 92.708 174.004 92.708C174.06 92.708 174.116 92.72 174.172 92.744C174.236 92.768 174.304 92.848 174.376 92.984C174.448 93.112 174.484 93.288 174.484 93.512Z" fill="#0000D0"/>
<path d="M176.698 98.642C176.698 98.662 176.682 98.716 176.65 98.804C176.622 98.892 176.58 98.996 176.524 99.116C176.468 99.232 176.386 99.336 176.278 99.428C176.174 99.516 176.058 99.56 175.93 99.56C175.79 99.56 175.676 99.514 175.588 99.422C175.5 99.33 175.456 99.214 175.456 99.074C175.456 99.002 175.48 98.902 175.528 98.774L175.948 97.658C176.032 97.426 176.074 97.264 176.074 97.172C176.074 97.04 176.022 96.974 175.918 96.974C175.798 96.974 175.684 97.038 175.576 97.166C175.468 97.29 175.38 97.474 175.312 97.718C175.3 97.766 175.288 97.796 175.276 97.808C175.268 97.82 175.252 97.826 175.228 97.826C175.184 97.826 175.162 97.808 175.162 97.772C175.162 97.748 175.176 97.692 175.204 97.604C175.236 97.516 175.28 97.414 175.336 97.298C175.396 97.182 175.478 97.08 175.582 96.992C175.69 96.9 175.808 96.854 175.936 96.854C176.076 96.854 176.19 96.902 176.278 96.998C176.366 97.09 176.41 97.202 176.41 97.334C176.41 97.406 176.39 97.496 176.35 97.604L175.93 98.72C175.838 98.972 175.792 99.146 175.792 99.242C175.792 99.374 175.844 99.44 175.948 99.44C176.06 99.44 176.17 99.382 176.278 99.266C176.386 99.146 176.476 98.96 176.548 98.708C176.56 98.668 176.568 98.642 176.572 98.63C176.58 98.618 176.588 98.608 176.596 98.6C176.604 98.592 176.618 98.588 176.638 98.588C176.678 98.588 176.698 98.606 176.698 98.642ZM176.65 95.756C176.65 95.824 176.62 95.89 176.56 95.954C176.5 96.014 176.43 96.044 176.35 96.044C176.302 96.044 176.256 96.028 176.212 95.996C176.172 95.964 176.152 95.914 176.152 95.846C176.152 95.77 176.182 95.704 176.242 95.648C176.306 95.588 176.374 95.558 176.446 95.558C176.506 95.558 176.554 95.58 176.59 95.624C176.63 95.664 176.65 95.708 176.65 95.756ZM178.174 99.524C178.174 99.732 178.134 99.928 178.054 100.112C177.974 100.3 177.894 100.438 177.814 100.526C177.738 100.614 177.688 100.658 177.664 100.658C177.624 100.658 177.604 100.638 177.604 100.598C177.604 100.582 177.626 100.55 177.67 100.502C177.926 100.214 178.054 99.888 178.054 99.524C178.054 99.448 178.05 99.41 178.042 99.41C178.034 99.41 178.026 99.414 178.018 99.422C177.966 99.474 177.9 99.5 177.82 99.5C177.724 99.5 177.65 99.47 177.598 99.41C177.55 99.35 177.526 99.282 177.526 99.206C177.526 99.134 177.552 99.068 177.604 99.008C177.656 98.948 177.726 98.918 177.814 98.918C177.934 98.918 178.024 98.974 178.084 99.086C178.144 99.194 178.174 99.34 178.174 99.524ZM180.439 98.786L180.733 97.61C180.749 97.578 180.757 97.546 180.757 97.514C180.757 97.478 180.747 97.424 180.727 97.352C180.707 97.276 180.657 97.194 180.577 97.106C180.501 97.018 180.403 96.974 180.283 96.974C180.163 96.974 180.037 97.03 179.905 97.142C179.777 97.25 179.663 97.406 179.563 97.61C179.499 97.75 179.433 97.956 179.365 98.228C179.297 98.496 179.263 98.708 179.263 98.864C179.263 99.044 179.297 99.186 179.365 99.29C179.433 99.39 179.527 99.44 179.647 99.44C179.875 99.44 180.101 99.298 180.325 99.014C180.377 98.942 180.415 98.866 180.439 98.786ZM180.823 97.25C180.855 97.062 180.939 96.968 181.075 96.968C181.119 96.968 181.155 96.982 181.183 97.01C181.215 97.038 181.231 97.074 181.231 97.118C181.231 97.142 181.139 97.526 180.955 98.27C180.939 98.326 180.919 98.404 180.895 98.504C180.871 98.6 180.851 98.674 180.835 98.726C180.787 98.934 180.763 99.08 180.763 99.164C180.763 99.348 180.825 99.44 180.949 99.44C181.025 99.44 181.093 99.4 181.153 99.32C181.217 99.24 181.265 99.156 181.297 99.068C181.329 98.976 181.363 98.856 181.399 98.708C181.411 98.656 181.421 98.624 181.429 98.612C181.441 98.596 181.459 98.588 181.483 98.588C181.523 98.588 181.543 98.606 181.543 98.642C181.543 98.654 181.535 98.694 181.519 98.762C181.503 98.826 181.479 98.906 181.447 99.002C181.419 99.098 181.391 99.176 181.363 99.236C181.255 99.452 181.111 99.56 180.931 99.56C180.819 99.56 180.711 99.524 180.607 99.452C180.503 99.38 180.437 99.264 180.409 99.104C180.153 99.408 179.893 99.56 179.629 99.56C179.417 99.56 179.237 99.476 179.089 99.308C178.945 99.136 178.873 98.906 178.873 98.618C178.873 98.178 179.021 97.774 179.317 97.406C179.617 97.038 179.939 96.854 180.283 96.854C180.531 96.854 180.711 96.986 180.823 97.25Z" fill="#0000D0"/>
<path d="M169 90.5H176M176 90.5L174.5 89M176 90.5L174.5 92" stroke="#0000D0" stroke-width="0.6"/>
<path d="M151.612 108.572L152.2 106.22C152.232 106.156 152.248 106.092 152.248 106.028C152.248 105.956 152.228 105.848 152.188 105.704C152.148 105.552 152.048 105.388 151.888 105.212C151.736 105.036 151.54 104.948 151.3 104.948C151.06 104.948 150.808 105.06 150.544 105.284C150.288 105.5 150.06 105.812 149.86 106.22C149.732 106.5 149.6 106.912 149.464 107.456C149.328 107.992 149.26 108.416 149.26 108.728C149.26 109.088 149.328 109.372 149.464 109.58C149.6 109.78 149.788 109.88 150.028 109.88C150.484 109.88 150.936 109.596 151.384 109.028C151.488 108.884 151.564 108.732 151.612 108.572ZM152.38 105.5C152.444 105.124 152.612 104.936 152.884 104.936C152.972 104.936 153.044 104.964 153.1 105.02C153.164 105.076 153.196 105.148 153.196 105.236C153.196 105.284 153.012 106.052 152.644 107.54C152.612 107.652 152.572 107.808 152.524 108.008C152.476 108.2 152.436 108.348 152.404 108.452C152.308 108.868 152.26 109.16 152.26 109.328C152.26 109.696 152.384 109.88 152.632 109.88C152.784 109.88 152.92 109.8 153.04 109.64C153.168 109.48 153.264 109.312 153.328 109.136C153.392 108.952 153.46 108.712 153.532 108.416C153.556 108.312 153.576 108.248 153.592 108.224C153.616 108.192 153.652 108.176 153.7 108.176C153.78 108.176 153.82 108.212 153.82 108.284C153.82 108.308 153.804 108.388 153.772 108.524C153.74 108.652 153.692 108.812 153.628 109.004C153.572 109.196 153.516 109.352 153.46 109.472C153.244 109.904 152.956 110.12 152.596 110.12C152.372 110.12 152.156 110.048 151.948 109.904C151.74 109.76 151.608 109.528 151.552 109.208C151.04 109.816 150.52 110.12 149.992 110.12C149.568 110.12 149.208 109.952 148.912 109.616C148.624 109.272 148.48 108.812 148.48 108.236C148.48 107.356 148.776 106.548 149.368 105.812C149.968 105.076 150.612 104.708 151.3 104.708C151.796 104.708 152.156 104.972 152.38 105.5Z" fill="#BE2626"/>
<path d="M148 102.5H155M155 102.5L153.5 101M155 102.5L153.5 104" stroke="#BE2626" stroke-width="0.6"/>
<path d="M209.036 130.972L207.344 137.692C207.288 137.916 207.26 138.128 207.26 138.328C207.26 138.696 207.384 138.88 207.632 138.88C207.784 138.88 207.92 138.8 208.04 138.64C208.168 138.48 208.264 138.312 208.328 138.136C208.392 137.952 208.46 137.712 208.532 137.416C208.556 137.312 208.576 137.248 208.592 137.224C208.616 137.192 208.652 137.176 208.7 137.176C208.78 137.176 208.82 137.212 208.82 137.284C208.82 137.308 208.804 137.388 208.772 137.524C208.74 137.652 208.692 137.812 208.628 138.004C208.572 138.196 208.516 138.352 208.46 138.472C208.244 138.904 207.956 139.12 207.596 139.12C207.372 139.12 207.156 139.048 206.948 138.904C206.74 138.76 206.608 138.528 206.552 138.208C206.04 138.816 205.52 139.12 204.992 139.12C204.568 139.12 204.208 138.952 203.912 138.616C203.624 138.272 203.48 137.812 203.48 137.236C203.48 136.356 203.776 135.548 204.368 134.812C204.968 134.076 205.612 133.708 206.3 133.708C206.796 133.708 207.156 133.972 207.38 134.5L208.112 131.584C208.136 131.512 208.148 131.444 208.148 131.38C208.148 131.332 208.14 131.296 208.124 131.272C208.108 131.24 208.052 131.212 207.956 131.188C207.868 131.164 207.732 131.152 207.548 131.152C207.372 131.152 207.284 131.112 207.284 131.032C207.284 130.928 207.308 130.864 207.356 130.84C207.404 130.816 207.508 130.796 207.668 130.78C207.74 130.772 207.84 130.764 207.968 130.756C208.104 130.74 208.204 130.732 208.268 130.732C208.468 130.692 208.688 130.672 208.928 130.672C209.024 130.672 209.072 130.712 209.072 130.792C209.072 130.816 209.06 130.876 209.036 130.972ZM206.612 137.572L207.2 135.22C207.232 135.156 207.248 135.092 207.248 135.028C207.248 134.956 207.228 134.848 207.188 134.704C207.148 134.552 207.048 134.388 206.888 134.212C206.736 134.036 206.54 133.948 206.3 133.948C206.06 133.948 205.808 134.06 205.544 134.284C205.288 134.5 205.06 134.812 204.86 135.22C204.732 135.5 204.6 135.912 204.464 136.456C204.328 136.992 204.26 137.416 204.26 137.728C204.26 138.088 204.328 138.372 204.464 138.58C204.6 138.78 204.788 138.88 205.028 138.88C205.484 138.88 205.936 138.596 206.384 138.028C206.488 137.884 206.564 137.732 206.612 137.572Z" fill="#BE2626"/>
<path d="M203 128.5H210M210 128.5L208.5 127M210 128.5L208.5 130" stroke="#BE2626" stroke-width="0.6"/>
<path d="M150.484 54.512C150.484 54.68 150.456 54.928 150.4 55.256C150.344 55.584 150.248 55.976 150.112 56.432C149.976 56.88 149.808 57.304 149.608 57.704C149.416 58.096 149.16 58.432 148.84 58.712C148.528 58.984 148.184 59.12 147.808 59.12C147.336 59.12 146.956 58.996 146.668 58.748C146.396 58.5 146.26 58.136 146.26 57.656C146.26 57.216 146.452 56.484 146.836 55.46C147.044 54.932 147.148 54.56 147.148 54.344C147.148 54.224 147.128 54.132 147.088 54.068C147.048 54.004 147.008 53.968 146.968 53.96C146.936 53.952 146.892 53.948 146.836 53.948C146.596 53.948 146.368 54.072 146.152 54.32C145.936 54.568 145.76 54.94 145.624 55.436C145.6 55.532 145.576 55.592 145.552 55.616C145.536 55.64 145.504 55.652 145.456 55.652C145.368 55.652 145.324 55.616 145.324 55.544C145.324 55.496 145.352 55.384 145.408 55.208C145.472 55.032 145.56 54.828 145.672 54.596C145.792 54.364 145.956 54.16 146.164 53.984C146.38 53.8 146.616 53.708 146.872 53.708C147.152 53.708 147.38 53.804 147.556 53.996C147.732 54.18 147.82 54.404 147.82 54.668C147.82 54.828 147.74 55.112 147.58 55.52C147.18 56.584 146.98 57.352 146.98 57.824C146.98 58.528 147.272 58.88 147.856 58.88C148.192 58.88 148.504 58.736 148.792 58.448C149.088 58.152 149.316 57.808 149.476 57.416C149.644 57.016 149.776 56.648 149.872 56.312C149.968 55.968 150.016 55.72 150.016 55.568C150.016 55.12 149.872 54.768 149.584 54.512C149.496 54.424 149.452 54.332 149.452 54.236C149.452 54.116 149.508 54 149.62 53.888C149.74 53.768 149.868 53.708 150.004 53.708C150.06 53.708 150.116 53.72 150.172 53.744C150.236 53.768 150.304 53.848 150.376 53.984C150.448 54.112 150.484 54.288 150.484 54.512Z" fill="#0000D0"/>
<path d="M152.698 59.642C152.698 59.662 152.682 59.716 152.65 59.804C152.622 59.892 152.58 59.996 152.524 60.116C152.468 60.232 152.386 60.336 152.278 60.428C152.174 60.516 152.058 60.56 151.93 60.56C151.79 60.56 151.676 60.514 151.588 60.422C151.5 60.33 151.456 60.214 151.456 60.074C151.456 60.002 151.48 59.902 151.528 59.774L151.948 58.658C152.032 58.426 152.074 58.264 152.074 58.172C152.074 58.04 152.022 57.974 151.918 57.974C151.798 57.974 151.684 58.038 151.576 58.166C151.468 58.29 151.38 58.474 151.312 58.718C151.3 58.766 151.288 58.796 151.276 58.808C151.268 58.82 151.252 58.826 151.228 58.826C151.184 58.826 151.162 58.808 151.162 58.772C151.162 58.748 151.176 58.692 151.204 58.604C151.236 58.516 151.28 58.414 151.336 58.298C151.396 58.182 151.478 58.08 151.582 57.992C151.69 57.9 151.808 57.854 151.936 57.854C152.076 57.854 152.19 57.902 152.278 57.998C152.366 58.09 152.41 58.202 152.41 58.334C152.41 58.406 152.39 58.496 152.35 58.604L151.93 59.72C151.838 59.972 151.792 60.146 151.792 60.242C151.792 60.374 151.844 60.44 151.948 60.44C152.06 60.44 152.17 60.382 152.278 60.266C152.386 60.146 152.476 59.96 152.548 59.708C152.56 59.668 152.568 59.642 152.572 59.63C152.58 59.618 152.588 59.608 152.596 59.6C152.604 59.592 152.618 59.588 152.638 59.588C152.678 59.588 152.698 59.606 152.698 59.642ZM152.65 56.756C152.65 56.824 152.62 56.89 152.56 56.954C152.5 57.014 152.43 57.044 152.35 57.044C152.302 57.044 152.256 57.028 152.212 56.996C152.172 56.964 152.152 56.914 152.152 56.846C152.152 56.77 152.182 56.704 152.242 56.648C152.306 56.588 152.374 56.558 152.446 56.558C152.506 56.558 152.554 56.58 152.59 56.624C152.63 56.664 152.65 56.708 152.65 56.756ZM154.174 60.524C154.174 60.732 154.134 60.928 154.054 61.112C153.974 61.3 153.894 61.438 153.814 61.526C153.738 61.614 153.688 61.658 153.664 61.658C153.624 61.658 153.604 61.638 153.604 61.598C153.604 61.582 153.626 61.55 153.67 61.502C153.926 61.214 154.054 60.888 154.054 60.524C154.054 60.448 154.05 60.41 154.042 60.41C154.034 60.41 154.026 60.414 154.018 60.422C153.966 60.474 153.9 60.5 153.82 60.5C153.724 60.5 153.65 60.47 153.598 60.41C153.55 60.35 153.526 60.282 153.526 60.206C153.526 60.134 153.552 60.068 153.604 60.008C153.656 59.948 153.726 59.918 153.814 59.918C153.934 59.918 154.024 59.974 154.084 60.086C154.144 60.194 154.174 60.34 154.174 60.524ZM156.019 56.486L155.581 58.232C155.821 57.98 156.057 57.854 156.289 57.854C156.513 57.854 156.695 57.942 156.835 58.118C156.979 58.294 157.051 58.52 157.051 58.796C157.051 59.232 156.901 59.636 156.601 60.008C156.305 60.376 155.983 60.56 155.635 60.56C155.427 60.56 155.253 60.478 155.113 60.314C154.973 60.15 154.903 59.922 154.903 59.63C154.903 59.51 154.913 59.4 154.933 59.3C154.941 59.264 155.083 58.694 155.359 57.59L155.503 57.014C155.507 56.99 155.515 56.952 155.527 56.9C155.543 56.844 155.555 56.798 155.563 56.762C155.571 56.726 155.575 56.702 155.575 56.69C155.575 56.662 155.571 56.642 155.563 56.63C155.559 56.618 155.533 56.606 155.485 56.594C155.437 56.582 155.365 56.576 155.269 56.576C155.189 56.576 155.149 56.556 155.149 56.516C155.149 56.464 155.159 56.432 155.179 56.42C155.203 56.408 155.255 56.398 155.335 56.39C155.371 56.386 155.421 56.382 155.485 56.378C155.553 56.37 155.603 56.366 155.635 56.366C155.815 56.346 155.925 56.336 155.965 56.336C156.013 56.336 156.037 56.356 156.037 56.396C156.037 56.408 156.031 56.438 156.019 56.486ZM155.641 60.44C155.773 60.44 155.903 60.382 156.031 60.266C156.159 60.146 156.263 60 156.343 59.828C156.419 59.672 156.491 59.456 156.559 59.18C156.627 58.904 156.661 58.694 156.661 58.55C156.661 58.382 156.627 58.244 156.559 58.136C156.495 58.028 156.401 57.974 156.277 57.974C156.157 57.974 156.033 58.022 155.905 58.118C155.777 58.21 155.679 58.3 155.611 58.388C155.547 58.472 155.511 58.528 155.503 58.556C155.467 58.672 155.421 58.852 155.365 59.096C155.281 59.424 155.239 59.668 155.239 59.828C155.239 60.044 155.277 60.2 155.353 60.296C155.433 60.392 155.529 60.44 155.641 60.44Z" fill="#0000D0"/>
<path d="M145 51.5H152M152 51.5L150.5 50M152 51.5L150.5 53" stroke="#0000D0" stroke-width="0.6"/>
<path d="M224.484 59.512C224.484 59.68 224.456 59.928 224.4 60.256C224.344 60.584 224.248 60.976 224.112 61.432C223.976 61.88 223.808 62.304 223.608 62.704C223.416 63.096 223.16 63.432 222.84 63.712C222.528 63.984 222.184 64.12 221.808 64.12C221.336 64.12 220.956 63.996 220.668 63.748C220.396 63.5 220.26 63.136 220.26 62.656C220.26 62.216 220.452 61.484 220.836 60.46C221.044 59.932 221.148 59.56 221.148 59.344C221.148 59.224 221.128 59.132 221.088 59.068C221.048 59.004 221.008 58.968 220.968 58.96C220.936 58.952 220.892 58.948 220.836 58.948C220.596 58.948 220.368 59.072 220.152 59.32C219.936 59.568 219.76 59.94 219.624 60.436C219.6 60.532 219.576 60.592 219.552 60.616C219.536 60.64 219.504 60.652 219.456 60.652C219.368 60.652 219.324 60.616 219.324 60.544C219.324 60.496 219.352 60.384 219.408 60.208C219.472 60.032 219.56 59.828 219.672 59.596C219.792 59.364 219.956 59.16 220.164 58.984C220.38 58.8 220.616 58.708 220.872 58.708C221.152 58.708 221.38 58.804 221.556 58.996C221.732 59.18 221.82 59.404 221.82 59.668C221.82 59.828 221.74 60.112 221.58 60.52C221.18 61.584 220.98 62.352 220.98 62.824C220.98 63.528 221.272 63.88 221.856 63.88C222.192 63.88 222.504 63.736 222.792 63.448C223.088 63.152 223.316 62.808 223.476 62.416C223.644 62.016 223.776 61.648 223.872 61.312C223.968 60.968 224.016 60.72 224.016 60.568C224.016 60.12 223.872 59.768 223.584 59.512C223.496 59.424 223.452 59.332 223.452 59.236C223.452 59.116 223.508 59 223.62 58.888C223.74 58.768 223.868 58.708 224.004 58.708C224.06 58.708 224.116 58.72 224.172 58.744C224.236 58.768 224.304 58.848 224.376 58.984C224.448 59.112 224.484 59.288 224.484 59.512Z" fill="#0000D0"/>
<path d="M226.698 64.642C226.698 64.662 226.682 64.716 226.65 64.804C226.622 64.892 226.58 64.996 226.524 65.116C226.468 65.232 226.386 65.336 226.278 65.428C226.174 65.516 226.058 65.56 225.93 65.56C225.79 65.56 225.676 65.514 225.588 65.422C225.5 65.33 225.456 65.214 225.456 65.074C225.456 65.002 225.48 64.902 225.528 64.774L225.948 63.658C226.032 63.426 226.074 63.264 226.074 63.172C226.074 63.04 226.022 62.974 225.918 62.974C225.798 62.974 225.684 63.038 225.576 63.166C225.468 63.29 225.38 63.474 225.312 63.718C225.3 63.766 225.288 63.796 225.276 63.808C225.268 63.82 225.252 63.826 225.228 63.826C225.184 63.826 225.162 63.808 225.162 63.772C225.162 63.748 225.176 63.692 225.204 63.604C225.236 63.516 225.28 63.414 225.336 63.298C225.396 63.182 225.478 63.08 225.582 62.992C225.69 62.9 225.808 62.854 225.936 62.854C226.076 62.854 226.19 62.902 226.278 62.998C226.366 63.09 226.41 63.202 226.41 63.334C226.41 63.406 226.39 63.496 226.35 63.604L225.93 64.72C225.838 64.972 225.792 65.146 225.792 65.242C225.792 65.374 225.844 65.44 225.948 65.44C226.06 65.44 226.17 65.382 226.278 65.266C226.386 65.146 226.476 64.96 226.548 64.708C226.56 64.668 226.568 64.642 226.572 64.63C226.58 64.618 226.588 64.608 226.596 64.6C226.604 64.592 226.618 64.588 226.638 64.588C226.678 64.588 226.698 64.606 226.698 64.642ZM226.65 61.756C226.65 61.824 226.62 61.89 226.56 61.954C226.5 62.014 226.43 62.044 226.35 62.044C226.302 62.044 226.256 62.028 226.212 61.996C226.172 61.964 226.152 61.914 226.152 61.846C226.152 61.77 226.182 61.704 226.242 61.648C226.306 61.588 226.374 61.558 226.446 61.558C226.506 61.558 226.554 61.58 226.59 61.624C226.63 61.664 226.65 61.708 226.65 61.756Z" fill="#0000D0"/>
<path d="M219 56.5H226M226 56.5L224.5 55M226 56.5L224.5 58" stroke="#0000D0" stroke-width="0.6"/>
<path d="M226.484 146.512C226.484 146.68 226.456 146.928 226.4 147.256C226.344 147.584 226.248 147.976 226.112 148.432C225.976 148.88 225.808 149.304 225.608 149.704C225.416 150.096 225.16 150.432 224.84 150.712C224.528 150.984 224.184 151.12 223.808 151.12C223.336 151.12 222.956 150.996 222.668 150.748C222.396 150.5 222.26 150.136 222.26 149.656C222.26 149.216 222.452 148.484 222.836 147.46C223.044 146.932 223.148 146.56 223.148 146.344C223.148 146.224 223.128 146.132 223.088 146.068C223.048 146.004 223.008 145.968 222.968 145.96C222.936 145.952 222.892 145.948 222.836 145.948C222.596 145.948 222.368 146.072 222.152 146.32C221.936 146.568 221.76 146.94 221.624 147.436C221.6 147.532 221.576 147.592 221.552 147.616C221.536 147.64 221.504 147.652 221.456 147.652C221.368 147.652 221.324 147.616 221.324 147.544C221.324 147.496 221.352 147.384 221.408 147.208C221.472 147.032 221.56 146.828 221.672 146.596C221.792 146.364 221.956 146.16 222.164 145.984C222.38 145.8 222.616 145.708 222.872 145.708C223.152 145.708 223.38 145.804 223.556 145.996C223.732 146.18 223.82 146.404 223.82 146.668C223.82 146.828 223.74 147.112 223.58 147.52C223.18 148.584 222.98 149.352 222.98 149.824C222.98 150.528 223.272 150.88 223.856 150.88C224.192 150.88 224.504 150.736 224.792 150.448C225.088 150.152 225.316 149.808 225.476 149.416C225.644 149.016 225.776 148.648 225.872 148.312C225.968 147.968 226.016 147.72 226.016 147.568C226.016 147.12 225.872 146.768 225.584 146.512C225.496 146.424 225.452 146.332 225.452 146.236C225.452 146.116 225.508 146 225.62 145.888C225.74 145.768 225.868 145.708 226.004 145.708C226.06 145.708 226.116 145.72 226.172 145.744C226.236 145.768 226.304 145.848 226.376 145.984C226.448 146.112 226.484 146.288 226.484 146.512Z" fill="#0000D0"/>
<path d="M229.1 150.598L228.542 152.818C228.47 153.098 228.324 153.318 228.104 153.478C227.884 153.642 227.66 153.724 227.432 153.724C227.296 153.724 227.176 153.694 227.072 153.634C226.972 153.578 226.922 153.492 226.922 153.376C226.922 153.288 226.952 153.214 227.012 153.154C227.072 153.094 227.142 153.064 227.222 153.064C227.286 153.064 227.336 153.082 227.372 153.118C227.408 153.158 227.426 153.204 227.426 153.256C227.426 153.328 227.4 153.39 227.348 153.442C227.3 153.494 227.24 153.528 227.168 153.544C227.244 153.584 227.332 153.604 227.432 153.604C227.592 153.604 227.738 153.53 227.87 153.382C228.002 153.238 228.098 153.052 228.158 152.824L228.728 150.562C228.756 150.438 228.77 150.334 228.77 150.25C228.77 150.066 228.706 149.974 228.578 149.974C228.45 149.974 228.318 150.036 228.182 150.16C228.046 150.28 227.922 150.474 227.81 150.742C227.774 150.794 227.746 150.822 227.726 150.826C227.686 150.826 227.666 150.808 227.666 150.772C227.666 150.76 227.678 150.724 227.702 150.664C227.726 150.6 227.764 150.522 227.816 150.43C227.872 150.338 227.934 150.25 228.002 150.166C228.074 150.078 228.162 150.004 228.266 149.944C228.374 149.884 228.484 149.854 228.596 149.854C228.74 149.854 228.864 149.904 228.968 150.004C229.072 150.1 229.124 150.23 229.124 150.394C229.124 150.466 229.116 150.534 229.1 150.598ZM229.346 148.756C229.346 148.832 229.314 148.9 229.25 148.96C229.19 149.016 229.124 149.044 229.052 149.044C228.992 149.044 228.942 149.024 228.902 148.984C228.866 148.94 228.848 148.894 228.848 148.846C228.848 148.778 228.878 148.714 228.938 148.654C228.998 148.59 229.068 148.558 229.148 148.558C229.196 148.558 229.24 148.574 229.28 148.606C229.324 148.638 229.346 148.688 229.346 148.756ZM230.602 152.524C230.602 152.732 230.562 152.928 230.482 153.112C230.402 153.3 230.322 153.438 230.242 153.526C230.166 153.614 230.116 153.658 230.092 153.658C230.052 153.658 230.032 153.638 230.032 153.598C230.032 153.582 230.054 153.55 230.098 153.502C230.354 153.214 230.482 152.888 230.482 152.524C230.482 152.448 230.478 152.41 230.47 152.41C230.462 152.41 230.454 152.414 230.446 152.422C230.394 152.474 230.328 152.5 230.248 152.5C230.152 152.5 230.078 152.47 230.026 152.41C229.978 152.35 229.954 152.282 229.954 152.206C229.954 152.134 229.98 152.068 230.032 152.008C230.084 151.948 230.154 151.918 230.242 151.918C230.362 151.918 230.452 151.974 230.512 152.086C230.572 152.194 230.602 152.34 230.602 152.524ZM232.447 148.486L232.009 150.232C232.249 149.98 232.485 149.854 232.717 149.854C232.941 149.854 233.123 149.942 233.263 150.118C233.407 150.294 233.479 150.52 233.479 150.796C233.479 151.232 233.329 151.636 233.029 152.008C232.733 152.376 232.411 152.56 232.063 152.56C231.855 152.56 231.681 152.478 231.541 152.314C231.401 152.15 231.331 151.922 231.331 151.63C231.331 151.51 231.341 151.4 231.361 151.3C231.369 151.264 231.511 150.694 231.787 149.59L231.931 149.014C231.935 148.99 231.943 148.952 231.955 148.9C231.971 148.844 231.983 148.798 231.991 148.762C231.999 148.726 232.003 148.702 232.003 148.69C232.003 148.662 231.999 148.642 231.991 148.63C231.987 148.618 231.961 148.606 231.913 148.594C231.865 148.582 231.793 148.576 231.697 148.576C231.617 148.576 231.577 148.556 231.577 148.516C231.577 148.464 231.587 148.432 231.607 148.42C231.631 148.408 231.683 148.398 231.763 148.39C231.799 148.386 231.849 148.382 231.913 148.378C231.981 148.37 232.031 148.366 232.063 148.366C232.243 148.346 232.353 148.336 232.393 148.336C232.441 148.336 232.465 148.356 232.465 148.396C232.465 148.408 232.459 148.438 232.447 148.486ZM232.069 152.44C232.201 152.44 232.331 152.382 232.459 152.266C232.587 152.146 232.691 152 232.771 151.828C232.847 151.672 232.919 151.456 232.987 151.18C233.055 150.904 233.089 150.694 233.089 150.55C233.089 150.382 233.055 150.244 232.987 150.136C232.923 150.028 232.829 149.974 232.705 149.974C232.585 149.974 232.461 150.022 232.333 150.118C232.205 150.21 232.107 150.3 232.039 150.388C231.975 150.472 231.939 150.528 231.931 150.556C231.895 150.672 231.849 150.852 231.793 151.096C231.709 151.424 231.667 151.668 231.667 151.828C231.667 152.044 231.705 152.2 231.781 152.296C231.861 152.392 231.957 152.44 232.069 152.44Z" fill="#0000D0"/>
<path d="M221 143.5H228M228 143.5L226.5 142M228 143.5L226.5 145" stroke="#0000D0" stroke-width="0.6"/>
<path d="M112.472 112.484L112.076 114.068L111.812 115.148C111.708 115.572 111.644 115.812 111.62 115.868C111.532 116.036 111.396 116.12 111.212 116.12C111.124 116.12 111.048 116.092 110.984 116.036C110.928 115.98 110.9 115.908 110.9 115.82C110.9 115.732 110.972 115.42 111.116 114.884C111.204 114.556 111.284 114.228 111.356 113.9L111.692 112.604C111.828 112.004 111.896 111.636 111.896 111.5C111.896 111.132 111.772 110.948 111.524 110.948C111.308 110.948 111.132 111.076 110.996 111.332C110.868 111.58 110.748 111.924 110.636 112.364C110.604 112.5 110.576 112.584 110.552 112.616C110.536 112.64 110.504 112.652 110.456 112.652C110.368 112.652 110.324 112.616 110.324 112.544C110.324 112.52 110.34 112.444 110.372 112.316C110.404 112.18 110.452 112.016 110.516 111.824C110.58 111.624 110.644 111.46 110.708 111.332C110.916 110.916 111.2 110.708 111.56 110.708C111.84 110.708 112.08 110.804 112.28 110.996C112.488 111.18 112.6 111.436 112.616 111.764C113.12 111.06 113.736 110.708 114.464 110.708C114.888 110.708 115.212 110.816 115.436 111.032C115.66 111.248 115.78 111.528 115.796 111.872C116.324 111.096 116.968 110.708 117.728 110.708C118.168 110.708 118.5 110.824 118.724 111.056C118.948 111.288 119.06 111.592 119.06 111.968C119.06 112.416 118.808 113.312 118.304 114.656C118.176 115.008 118.112 115.284 118.112 115.484C118.112 115.748 118.216 115.88 118.424 115.88C118.664 115.88 118.888 115.756 119.096 115.508C119.312 115.252 119.488 114.888 119.624 114.416C119.648 114.336 119.664 114.284 119.672 114.26C119.688 114.236 119.704 114.216 119.72 114.2C119.736 114.184 119.764 114.176 119.804 114.176C119.884 114.176 119.924 114.212 119.924 114.284C119.924 114.308 119.908 114.38 119.876 114.5C119.844 114.62 119.784 114.776 119.696 114.968C119.616 115.152 119.52 115.328 119.408 115.496C119.304 115.664 119.16 115.812 118.976 115.94C118.792 116.06 118.596 116.12 118.388 116.12C118.108 116.12 117.88 116.028 117.704 115.844C117.528 115.66 117.44 115.428 117.44 115.148C117.44 115.004 117.496 114.784 117.608 114.488C118.096 113.16 118.34 112.26 118.34 111.788C118.34 111.228 118.124 110.948 117.692 110.948C117.444 110.948 117.208 111 116.984 111.104C116.76 111.208 116.576 111.332 116.432 111.476C116.288 111.62 116.16 111.776 116.048 111.944C115.936 112.104 115.856 112.236 115.808 112.34C115.76 112.444 115.732 112.512 115.724 112.544L115.004 115.412C114.956 115.596 114.92 115.728 114.896 115.808C114.872 115.88 114.824 115.948 114.752 116.012C114.68 116.084 114.588 116.12 114.476 116.12C114.388 116.12 114.312 116.092 114.248 116.036C114.192 115.98 114.164 115.908 114.164 115.82C114.164 115.764 114.204 115.584 114.284 115.28C114.316 115.12 114.432 114.66 114.632 113.9L114.932 112.664C115.028 112.288 115.076 111.996 115.076 111.788C115.076 111.228 114.86 110.948 114.428 110.948C113.98 110.948 113.584 111.108 113.24 111.428C113.104 111.54 112.972 111.684 112.844 111.86C112.724 112.028 112.636 112.164 112.58 112.268C112.524 112.372 112.488 112.444 112.472 112.484Z" fill="black"/>
<path d="M122.362 116.642C122.362 116.662 122.346 116.716 122.314 116.804C122.286 116.892 122.244 116.996 122.188 117.116C122.132 117.232 122.05 117.336 121.942 117.428C121.838 117.516 121.722 117.56 121.594 117.56C121.454 117.56 121.34 117.514 121.252 117.422C121.164 117.33 121.12 117.214 121.12 117.074C121.12 117.002 121.144 116.902 121.192 116.774L121.612 115.658C121.696 115.426 121.738 115.264 121.738 115.172C121.738 115.04 121.686 114.974 121.582 114.974C121.462 114.974 121.348 115.038 121.24 115.166C121.132 115.29 121.044 115.474 120.976 115.718C120.964 115.766 120.952 115.796 120.94 115.808C120.932 115.82 120.916 115.826 120.892 115.826C120.848 115.826 120.826 115.808 120.826 115.772C120.826 115.748 120.84 115.692 120.868 115.604C120.9 115.516 120.944 115.414 121 115.298C121.06 115.182 121.142 115.08 121.246 114.992C121.354 114.9 121.472 114.854 121.6 114.854C121.74 114.854 121.854 114.902 121.942 114.998C122.03 115.09 122.074 115.202 122.074 115.334C122.074 115.406 122.054 115.496 122.014 115.604L121.594 116.72C121.502 116.972 121.456 117.146 121.456 117.242C121.456 117.374 121.508 117.44 121.612 117.44C121.724 117.44 121.834 117.382 121.942 117.266C122.05 117.146 122.14 116.96 122.212 116.708C122.224 116.668 122.232 116.642 122.236 116.63C122.244 116.618 122.252 116.608 122.26 116.6C122.268 116.592 122.282 116.588 122.302 116.588C122.342 116.588 122.362 116.606 122.362 116.642ZM122.314 113.756C122.314 113.824 122.284 113.89 122.224 113.954C122.164 114.014 122.094 114.044 122.014 114.044C121.966 114.044 121.92 114.028 121.876 113.996C121.836 113.964 121.816 113.914 121.816 113.846C121.816 113.77 121.846 113.704 121.906 113.648C121.97 113.588 122.038 113.558 122.11 113.558C122.17 113.558 122.218 113.58 122.254 113.624C122.294 113.664 122.314 113.708 122.314 113.756Z" fill="black"/>
<path d="M270.472 110.484L270.076 112.068L269.812 113.148C269.708 113.572 269.644 113.812 269.62 113.868C269.532 114.036 269.396 114.12 269.212 114.12C269.124 114.12 269.048 114.092 268.984 114.036C268.928 113.98 268.9 113.908 268.9 113.82C268.9 113.732 268.972 113.42 269.116 112.884C269.204 112.556 269.284 112.228 269.356 111.9L269.692 110.604C269.828 110.004 269.896 109.636 269.896 109.5C269.896 109.132 269.772 108.948 269.524 108.948C269.308 108.948 269.132 109.076 268.996 109.332C268.868 109.58 268.748 109.924 268.636 110.364C268.604 110.5 268.576 110.584 268.552 110.616C268.536 110.64 268.504 110.652 268.456 110.652C268.368 110.652 268.324 110.616 268.324 110.544C268.324 110.52 268.34 110.444 268.372 110.316C268.404 110.18 268.452 110.016 268.516 109.824C268.58 109.624 268.644 109.46 268.708 109.332C268.916 108.916 269.2 108.708 269.56 108.708C269.84 108.708 270.08 108.804 270.28 108.996C270.488 109.18 270.6 109.436 270.616 109.764C271.12 109.06 271.736 108.708 272.464 108.708C272.888 108.708 273.212 108.816 273.436 109.032C273.66 109.248 273.78 109.528 273.796 109.872C274.324 109.096 274.968 108.708 275.728 108.708C276.168 108.708 276.5 108.824 276.724 109.056C276.948 109.288 277.06 109.592 277.06 109.968C277.06 110.416 276.808 111.312 276.304 112.656C276.176 113.008 276.112 113.284 276.112 113.484C276.112 113.748 276.216 113.88 276.424 113.88C276.664 113.88 276.888 113.756 277.096 113.508C277.312 113.252 277.488 112.888 277.624 112.416C277.648 112.336 277.664 112.284 277.672 112.26C277.688 112.236 277.704 112.216 277.72 112.2C277.736 112.184 277.764 112.176 277.804 112.176C277.884 112.176 277.924 112.212 277.924 112.284C277.924 112.308 277.908 112.38 277.876 112.5C277.844 112.62 277.784 112.776 277.696 112.968C277.616 113.152 277.52 113.328 277.408 113.496C277.304 113.664 277.16 113.812 276.976 113.94C276.792 114.06 276.596 114.12 276.388 114.12C276.108 114.12 275.88 114.028 275.704 113.844C275.528 113.66 275.44 113.428 275.44 113.148C275.44 113.004 275.496 112.784 275.608 112.488C276.096 111.16 276.34 110.26 276.34 109.788C276.34 109.228 276.124 108.948 275.692 108.948C275.444 108.948 275.208 109 274.984 109.104C274.76 109.208 274.576 109.332 274.432 109.476C274.288 109.62 274.16 109.776 274.048 109.944C273.936 110.104 273.856 110.236 273.808 110.34C273.76 110.444 273.732 110.512 273.724 110.544L273.004 113.412C272.956 113.596 272.92 113.728 272.896 113.808C272.872 113.88 272.824 113.948 272.752 114.012C272.68 114.084 272.588 114.12 272.476 114.12C272.388 114.12 272.312 114.092 272.248 114.036C272.192 113.98 272.164 113.908 272.164 113.82C272.164 113.764 272.204 113.584 272.284 113.28C272.316 113.12 272.432 112.66 272.632 111.9L272.932 110.664C273.028 110.288 273.076 109.996 273.076 109.788C273.076 109.228 272.86 108.948 272.428 108.948C271.98 108.948 271.584 109.108 271.24 109.428C271.104 109.54 270.972 109.684 270.844 109.86C270.724 110.028 270.636 110.164 270.58 110.268C270.524 110.372 270.488 110.444 270.472 110.484Z" fill="black"/>
<path d="M280.764 113.598L280.206 115.818C280.134 116.098 279.988 116.318 279.768 116.478C279.548 116.642 279.324 116.724 279.096 116.724C278.96 116.724 278.84 116.694 278.736 116.634C278.636 116.578 278.586 116.492 278.586 116.376C278.586 116.288 278.616 116.214 278.676 116.154C278.736 116.094 278.806 116.064 278.886 116.064C278.95 116.064 279 116.082 279.036 116.118C279.072 116.158 279.09 116.204 279.09 116.256C279.09 116.328 279.064 116.39 279.012 116.442C278.964 116.494 278.904 116.528 278.832 116.544C278.908 116.584 278.996 116.604 279.096 116.604C279.256 116.604 279.402 116.53 279.534 116.382C279.666 116.238 279.762 116.052 279.822 115.824L280.392 113.562C280.42 113.438 280.434 113.334 280.434 113.25C280.434 113.066 280.37 112.974 280.242 112.974C280.114 112.974 279.982 113.036 279.846 113.16C279.71 113.28 279.586 113.474 279.474 113.742C279.438 113.794 279.41 113.822 279.39 113.826C279.35 113.826 279.33 113.808 279.33 113.772C279.33 113.76 279.342 113.724 279.366 113.664C279.39 113.6 279.428 113.522 279.48 113.43C279.536 113.338 279.598 113.25 279.666 113.166C279.738 113.078 279.826 113.004 279.93 112.944C280.038 112.884 280.148 112.854 280.26 112.854C280.404 112.854 280.528 112.904 280.632 113.004C280.736 113.1 280.788 113.23 280.788 113.394C280.788 113.466 280.78 113.534 280.764 113.598ZM281.01 111.756C281.01 111.832 280.978 111.9 280.914 111.96C280.854 112.016 280.788 112.044 280.716 112.044C280.656 112.044 280.606 112.024 280.566 111.984C280.53 111.94 280.512 111.894 280.512 111.846C280.512 111.778 280.542 111.714 280.602 111.654C280.662 111.59 280.732 111.558 280.812 111.558C280.86 111.558 280.904 111.574 280.944 111.606C280.988 111.638 281.01 111.688 281.01 111.756Z" fill="black"/>
<path d="M57.252 170.408C57.252 171.168 56.988 171.812 56.46 172.34C55.932 172.868 55.304 173.132 54.576 173.132C53.912 173.132 53.388 172.84 53.004 172.256L52.572 173H52.272V165.848C52.272 165.552 52.22 165.368 52.116 165.296C52.012 165.216 51.752 165.176 51.336 165.176V164.804L53.064 164.672V168.476C53.528 167.956 54.076 167.696 54.708 167.696C55.396 167.696 55.992 167.96 56.496 168.488C57 169.016 57.252 169.656 57.252 170.408ZM56.256 170.396C56.256 169.652 56.14 169.096 55.908 168.728C55.588 168.216 55.168 167.96 54.648 167.96C54.064 167.96 53.592 168.216 53.232 168.728C53.144 168.856 53.1 169 53.1 169.16V171.632C53.1 171.8 53.156 171.968 53.268 172.136C53.588 172.624 54.008 172.868 54.528 172.868C55.088 172.868 55.54 172.612 55.884 172.1C56.132 171.716 56.256 171.148 56.256 170.396ZM63.464 171.932C63.464 172.356 63.352 172.652 63.128 172.82C62.904 172.988 62.688 173.072 62.48 173.072C62.216 173.072 62 172.976 61.832 172.784C61.664 172.584 61.568 172.352 61.544 172.088C61.424 172.392 61.224 172.644 60.944 172.844C60.672 173.036 60.348 173.132 59.972 173.132C59.684 173.132 59.404 173.096 59.132 173.024C58.86 172.952 58.612 172.816 58.388 172.616C58.164 172.416 58.052 172.164 58.052 171.86C58.052 171.18 58.452 170.66 59.252 170.3C59.732 170.068 60.468 169.924 61.46 169.868V169.424C61.46 168.928 61.328 168.548 61.064 168.284C60.808 168.02 60.516 167.888 60.188 167.888C59.604 167.888 59.172 168.072 58.892 168.44C59.132 168.448 59.292 168.512 59.372 168.632C59.46 168.752 59.504 168.872 59.504 168.992C59.504 169.152 59.452 169.284 59.348 169.388C59.252 169.492 59.12 169.544 58.952 169.544C58.792 169.544 58.66 169.496 58.556 169.4C58.452 169.296 58.4 169.156 58.4 168.98C58.4 168.588 58.576 168.264 58.928 168.008C59.28 167.752 59.708 167.624 60.212 167.624C60.868 167.624 61.416 167.844 61.856 168.284C61.992 168.42 62.092 168.576 62.156 168.752C62.228 168.928 62.268 169.076 62.276 169.196C62.284 169.308 62.288 169.476 62.288 169.7V172.1C62.288 172.148 62.296 172.212 62.312 172.292C62.328 172.364 62.372 172.452 62.444 172.556C62.516 172.652 62.612 172.7 62.732 172.7C63.02 172.7 63.164 172.444 63.164 171.932V171.26H63.464V171.932ZM61.46 171.32V170.12C60.572 170.152 59.936 170.344 59.552 170.696C59.168 171.048 58.976 171.432 58.976 171.848C58.976 172.144 59.08 172.388 59.288 172.58C59.504 172.772 59.76 172.868 60.056 172.868C60.392 172.868 60.708 172.74 61.004 172.484C61.308 172.22 61.46 171.832 61.46 171.32ZM66.728 173L65.396 172.964L64.064 173V172.628C64.488 172.628 64.748 172.604 64.844 172.556C64.948 172.5 65 172.344 65 172.088V165.848C65 165.552 64.948 165.368 64.844 165.296C64.74 165.216 64.48 165.176 64.064 165.176V164.804L65.792 164.672V172.088C65.792 172.344 65.84 172.5 65.936 172.556C66.04 172.604 66.304 172.628 66.728 172.628V173ZM70.0678 173L68.7358 172.964L67.4038 173V172.628C67.8278 172.628 68.0878 172.604 68.1838 172.556C68.2878 172.5 68.3398 172.344 68.3398 172.088V165.848C68.3398 165.552 68.2878 165.368 68.1838 165.296C68.0798 165.216 67.8198 165.176 67.4038 165.176V164.804L69.1318 164.672V172.088C69.1318 172.344 69.1798 172.5 69.2758 172.556C69.3798 172.604 69.6438 172.628 70.0678 172.628V173ZM77.3078 173C76.4918 172.976 76.0758 172.964 76.0598 172.964L74.7397 173V172.628C75.1638 172.628 75.4238 172.604 75.5198 172.556C75.6238 172.5 75.6758 172.344 75.6758 172.088V168.86C75.6758 168.564 75.6238 168.38 75.5198 168.308C75.4238 168.236 75.1798 168.2 74.7878 168.2V167.828L76.4678 167.696V172.1C76.4678 172.34 76.5078 172.488 76.5878 172.544C76.6758 172.6 76.9158 172.628 77.3078 172.628V173ZM76.6478 165.752C76.6478 165.912 76.5878 166.06 76.4678 166.196C76.3478 166.324 76.1918 166.388 75.9998 166.388C75.8238 166.388 75.6718 166.324 75.5438 166.196C75.4238 166.068 75.3638 165.92 75.3638 165.752C75.3638 165.592 75.4238 165.448 75.5438 165.32C75.6638 165.184 75.8198 165.116 76.0118 165.116C76.1878 165.116 76.3358 165.18 76.4558 165.308C76.5838 165.436 76.6478 165.584 76.6478 165.752Z" fill="black"/>
<path d="M321.252 58.408C321.252 59.168 320.988 59.812 320.46 60.34C319.932 60.868 319.304 61.132 318.576 61.132C317.912 61.132 317.388 60.84 317.004 60.256L316.572 61H316.272V53.848C316.272 53.552 316.22 53.368 316.116 53.296C316.012 53.216 315.752 53.176 315.336 53.176V52.804L317.064 52.672V56.476C317.528 55.956 318.076 55.696 318.708 55.696C319.396 55.696 319.992 55.96 320.496 56.488C321 57.016 321.252 57.656 321.252 58.408ZM320.256 58.396C320.256 57.652 320.14 57.096 319.908 56.728C319.588 56.216 319.168 55.96 318.648 55.96C318.064 55.96 317.592 56.216 317.232 56.728C317.144 56.856 317.1 57 317.1 57.16V59.632C317.1 59.8 317.156 59.968 317.268 60.136C317.588 60.624 318.008 60.868 318.528 60.868C319.088 60.868 319.54 60.612 319.884 60.1C320.132 59.716 320.256 59.148 320.256 58.396ZM327.464 59.932C327.464 60.356 327.352 60.652 327.128 60.82C326.904 60.988 326.688 61.072 326.48 61.072C326.216 61.072 326 60.976 325.832 60.784C325.664 60.584 325.568 60.352 325.544 60.088C325.424 60.392 325.224 60.644 324.944 60.844C324.672 61.036 324.348 61.132 323.972 61.132C323.684 61.132 323.404 61.096 323.132 61.024C322.86 60.952 322.612 60.816 322.388 60.616C322.164 60.416 322.052 60.164 322.052 59.86C322.052 59.18 322.452 58.66 323.252 58.3C323.732 58.068 324.468 57.924 325.46 57.868V57.424C325.46 56.928 325.328 56.548 325.064 56.284C324.808 56.02 324.516 55.888 324.188 55.888C323.604 55.888 323.172 56.072 322.892 56.44C323.132 56.448 323.292 56.512 323.372 56.632C323.46 56.752 323.504 56.872 323.504 56.992C323.504 57.152 323.452 57.284 323.348 57.388C323.252 57.492 323.12 57.544 322.952 57.544C322.792 57.544 322.66 57.496 322.556 57.4C322.452 57.296 322.4 57.156 322.4 56.98C322.4 56.588 322.576 56.264 322.928 56.008C323.28 55.752 323.708 55.624 324.212 55.624C324.868 55.624 325.416 55.844 325.856 56.284C325.992 56.42 326.092 56.576 326.156 56.752C326.228 56.928 326.268 57.076 326.276 57.196C326.284 57.308 326.288 57.476 326.288 57.7V60.1C326.288 60.148 326.296 60.212 326.312 60.292C326.328 60.364 326.372 60.452 326.444 60.556C326.516 60.652 326.612 60.7 326.732 60.7C327.02 60.7 327.164 60.444 327.164 59.932V59.26H327.464V59.932ZM325.46 59.32V58.12C324.572 58.152 323.936 58.344 323.552 58.696C323.168 59.048 322.976 59.432 322.976 59.848C322.976 60.144 323.08 60.388 323.288 60.58C323.504 60.772 323.76 60.868 324.056 60.868C324.392 60.868 324.708 60.74 325.004 60.484C325.308 60.22 325.46 59.832 325.46 59.32ZM330.728 61L329.396 60.964L328.064 61V60.628C328.488 60.628 328.748 60.604 328.844 60.556C328.948 60.5 329 60.344 329 60.088V53.848C329 53.552 328.948 53.368 328.844 53.296C328.74 53.216 328.48 53.176 328.064 53.176V52.804L329.792 52.672V60.088C329.792 60.344 329.84 60.5 329.936 60.556C330.04 60.604 330.304 60.628 330.728 60.628V61ZM334.068 61L332.736 60.964L331.404 61V60.628C331.828 60.628 332.088 60.604 332.184 60.556C332.288 60.5 332.34 60.344 332.34 60.088V53.848C332.34 53.552 332.288 53.368 332.184 53.296C332.08 53.216 331.82 53.176 331.404 53.176V52.804L333.132 52.672V60.088C333.132 60.344 333.18 60.5 333.276 60.556C333.38 60.604 333.644 60.628 334.068 60.628V61ZM340.864 61.6C340.864 62.136 340.704 62.58 340.384 62.932C340.064 63.284 339.676 63.46 339.22 63.46C338.852 63.46 338.536 63.372 338.272 63.196C338 63.028 337.864 62.796 337.864 62.5C337.864 62.34 337.916 62.208 338.02 62.104C338.116 62 338.248 61.948 338.416 61.948C338.584 61.948 338.716 62 338.812 62.104C338.916 62.208 338.968 62.34 338.968 62.5C338.968 62.644 338.924 62.76 338.836 62.848C338.756 62.944 338.66 63.008 338.548 63.04C338.756 63.144 338.972 63.196 339.196 63.196C339.38 63.196 339.532 63.14 339.652 63.028C339.78 62.924 339.872 62.78 339.928 62.596C339.984 62.42 340.02 62.256 340.036 62.104C340.06 61.952 340.072 61.792 340.072 61.624V56.872C340.072 56.576 340.012 56.392 339.892 56.32C339.78 56.24 339.496 56.2 339.04 56.2V55.828L340.864 55.696V61.6ZM340.864 53.752C340.864 53.912 340.804 54.06 340.684 54.196C340.564 54.324 340.408 54.388 340.216 54.388C340.04 54.388 339.888 54.324 339.76 54.196C339.64 54.068 339.58 53.92 339.58 53.752C339.58 53.592 339.64 53.448 339.76 53.32C339.88 53.184 340.036 53.116 340.228 53.116C340.404 53.116 340.552 53.18 340.672 53.308C340.8 53.436 340.864 53.584 340.864 53.752Z" fill="black"/>
<path d="M118.356 148.381C118.29 148.185 118.078 148.079 117.881 148.144L114.68 149.212C114.483 149.277 114.377 149.489 114.442 149.686C114.508 149.882 114.72 149.989 114.917 149.923L117.763 148.974L118.712 151.82C118.777 152.017 118.989 152.123 119.186 152.058C119.382 151.992 119.489 151.78 119.423 151.583L118.356 148.381ZM83 170.375C90.8709 170.375 99.118 166.109 105.66 161.302C108.937 158.894 111.801 156.339 113.995 154.09C116.179 151.851 117.725 149.889 118.335 148.668L117.665 148.332C117.109 149.444 115.633 151.336 113.458 153.566C111.292 155.786 108.459 158.315 105.215 160.698C98.7153 165.474 90.6291 169.625 83 169.625V170.375Z" fill="#808080"/>
<path d="M274.644 79.6186C274.71 79.8151 274.922 79.9212 275.119 79.8558L278.32 78.7885C278.517 78.723 278.623 78.5106 278.558 78.3141C278.492 78.1177 278.28 78.0115 278.083 78.077L275.237 79.0257L274.288 76.1796C274.223 75.9831 274.011 75.8769 273.814 75.9424C273.618 76.0079 273.511 76.2203 273.577 76.4168L274.644 79.6186ZM310 57.625C302.129 57.625 293.882 61.8909 287.34 66.6978C284.063 69.1062 281.199 71.6615 279.005 73.91C276.821 76.1488 275.275 78.1106 274.665 79.3323L275.335 79.6677C275.891 78.5561 277.367 76.6637 279.542 74.4337C281.708 72.2135 284.541 69.6854 287.785 67.3022C294.285 62.5257 302.371 58.375 310 58.375V57.625Z" fill="#808080"/>
</g>
<defs>
<filter id="filter0_d" x="0" y="0" width="406" height="239" filterUnits="userSpaceOnUse" color-interpolation-filters="sRGB">
<feFlood flood-opacity="0" result="BackgroundImageFix"/>
<feColorMatrix in="SourceAlpha" type="matrix" values="0 0 0 0 0 0 0 0 0 0 0 0 0 0 0 0 0 0 127 0"/>
<feOffset dy="4"/>
<feGaussianBlur stdDeviation="8"/>
<feColorMatrix type="matrix" values="0 0 0 0 0 0 0 0 0 0 0 0 0 0 0 0 0 0 0.25 0"/>
<feBlend mode="normal" in2="BackgroundImageFix" result="effect1_dropShadow"/>
<feBlend mode="normal" in="SourceGraphic" in2="effect1_dropShadow" result="shape"/>
</filter>
</defs>
</svg>
