<svg width="406" height="239" viewBox="0 0 406 239" fill="none" xmlns="http://www.w3.org/2000/svg">
<g filter="url(#filter0_d)">
<rect width="374" height="207" transform="translate(16 12)" fill="white"/>
<path d="M230 99.5C230 132.913 202.913 160 169.5 160C136.087 160 109 132.913 109 99.5C109 66.0868 136.087 39 169.5 39C202.913 39 230 66.0868 230 99.5Z" fill="#E7E7E7"/>
<path d="M316 143.5C316 176.913 288.913 204 255.5 204C222.087 204 195 176.913 195 143.5C195 110.087 222.087 83 255.5 83C288.913 83 316 110.087 316 143.5Z" fill="#E7E7E7"/>
<path fill-rule="evenodd" clip-rule="evenodd" d="M195.899 153.952C216.085 144.147 230 123.449 230 99.5C230 95.9357 229.692 92.4435 229.101 89.0483C208.915 98.853 195 119.552 195 143.5C195 147.064 195.308 150.557 195.899 153.952Z" fill="white"/>
<path d="M256 99.5L252 97.1906V101.809L256 99.5ZM169 99.9H252.4V99.1H169V99.9Z" fill="#BE2626"/>
<path d="M255.861 143.5L258.17 139.5L253.551 139.5L255.861 143.5ZM255.461 99.5L255.461 139.9L256.261 139.9L256.261 99.5L255.461 99.5Z" fill="#BE2626"/>
<path d="M167.494 102.41L170.024 106.275L172.105 102.151L167.494 102.41ZM253.965 146.069L251.435 142.204L249.354 146.327L253.965 146.069ZM170.527 104.39L250.571 144.803L250.932 144.089L170.888 103.676L170.527 104.39Z" fill="#BE2626"/>
<path fill-rule="evenodd" clip-rule="evenodd" d="M169.5 159C202.361 159 229 132.361 229 99.5C229 66.6391 202.361 40 169.5 40C136.639 40 110 66.6391 110 99.5C110 132.361 136.639 159 169.5 159ZM169.5 160C202.913 160 230 132.913 230 99.5C230 66.0868 202.913 39 169.5 39C136.087 39 109 66.0868 109 99.5C109 132.913 136.087 160 169.5 160Z" fill="black"/>
<path fill-rule="evenodd" clip-rule="evenodd" d="M255.5 203C288.361 203 315 176.361 315 143.5C315 110.639 288.361 84 255.5 84C222.639 84 196 110.639 196 143.5C196 176.361 222.639 203 255.5 203ZM255.5 204C288.913 204 316 176.913 316 143.5C316 110.087 288.913 83 255.5 83C222.087 83 195 110.087 195 143.5C195 176.913 222.087 204 255.5 204Z" fill="black"/>
<path d="M222.94 127.11C218.347 136.158 195.884 113.377 191.021 122.957C195.884 113.377 164.235 108.691 168.827 99.6431" stroke="#999999" stroke-width="0.5" stroke-linecap="round" stroke-linejoin="round"/>
<path d="M255.861 144.28C251.478 152.915 228.988 130.64 224.347 139.783C228.988 130.64 197.733 125.635 202.116 117" stroke="#999999" stroke-width="0.5" stroke-linecap="round" stroke-linejoin="round"/>
<path d="M264.036 118.972L262.344 125.692C262.288 125.916 262.26 126.128 262.26 126.328C262.26 126.696 262.384 126.88 262.632 126.88C262.784 126.88 262.92 126.8 263.04 126.64C263.168 126.48 263.264 126.312 263.328 126.136C263.392 125.952 263.46 125.712 263.532 125.416C263.556 125.312 263.576 125.248 263.592 125.224C263.616 125.192 263.652 125.176 263.7 125.176C263.78 125.176 263.82 125.212 263.82 125.284C263.82 125.308 263.804 125.388 263.772 125.524C263.74 125.652 263.692 125.812 263.628 126.004C263.572 126.196 263.516 126.352 263.46 126.472C263.244 126.904 262.956 127.12 262.596 127.12C262.372 127.12 262.156 127.048 261.948 126.904C261.74 126.76 261.608 126.528 261.552 126.208C261.04 126.816 260.52 127.12 259.992 127.12C259.568 127.12 259.208 126.952 258.912 126.616C258.624 126.272 258.48 125.812 258.48 125.236C258.48 124.356 258.776 123.548 259.368 122.812C259.968 122.076 260.612 121.708 261.3 121.708C261.796 121.708 262.156 121.972 262.38 122.5L263.112 119.584C263.136 119.512 263.148 119.444 263.148 119.38C263.148 119.332 263.14 119.296 263.124 119.272C263.108 119.24 263.052 119.212 262.956 119.188C262.868 119.164 262.732 119.152 262.548 119.152C262.372 119.152 262.284 119.112 262.284 119.032C262.284 118.928 262.308 118.864 262.356 118.84C262.404 118.816 262.508 118.796 262.668 118.78C262.74 118.772 262.84 118.764 262.968 118.756C263.104 118.74 263.204 118.732 263.268 118.732C263.468 118.692 263.688 118.672 263.928 118.672C264.024 118.672 264.072 118.712 264.072 118.792C264.072 118.816 264.06 118.876 264.036 118.972ZM261.612 125.572L262.2 123.22C262.232 123.156 262.248 123.092 262.248 123.028C262.248 122.956 262.228 122.848 262.188 122.704C262.148 122.552 262.048 122.388 261.888 122.212C261.736 122.036 261.54 121.948 261.3 121.948C261.06 121.948 260.808 122.06 260.544 122.284C260.288 122.5 260.06 122.812 259.86 123.22C259.732 123.5 259.6 123.912 259.464 124.456C259.328 124.992 259.26 125.416 259.26 125.728C259.26 126.088 259.328 126.372 259.464 126.58C259.6 126.78 259.788 126.88 260.028 126.88C260.484 126.88 260.936 126.596 261.384 126.028C261.488 125.884 261.564 125.732 261.612 125.572Z" fill="#BE2626"/>
<path d="M265.578 128.172C265.646 128.08 265.702 127.982 265.746 127.878C265.794 127.778 265.828 127.692 265.848 127.62C265.872 127.548 265.902 127.438 265.938 127.29L265.932 127.284C265.756 127.468 265.556 127.56 265.332 127.56C265.144 127.56 264.978 127.508 264.834 127.404C264.694 127.296 264.624 127.114 264.624 126.858C264.624 126.63 264.722 126.254 264.918 125.73C265.022 125.466 265.074 125.28 265.074 125.172C265.074 125.112 265.064 125.066 265.044 125.034C265.024 125.002 265.004 124.984 264.984 124.98C264.968 124.976 264.946 124.974 264.918 124.974C264.798 124.974 264.684 125.038 264.576 125.166C264.468 125.29 264.38 125.474 264.312 125.718C264.3 125.766 264.288 125.796 264.276 125.808C264.268 125.82 264.252 125.826 264.228 125.826C264.184 125.826 264.162 125.808 264.162 125.772C264.162 125.748 264.176 125.692 264.204 125.604C264.236 125.516 264.28 125.414 264.336 125.298C264.396 125.182 264.478 125.08 264.582 124.992C264.69 124.9 264.808 124.854 264.936 124.854C265.076 124.854 265.19 124.902 265.278 124.998C265.366 125.09 265.41 125.202 265.41 125.334C265.41 125.406 265.376 125.532 265.308 125.712C265.092 126.288 264.984 126.7 264.984 126.948C264.984 127.276 265.106 127.44 265.35 127.44C265.578 127.44 265.78 127.316 265.956 127.068C265.984 127.028 266.01 126.966 266.034 126.882L266.478 125.118C266.514 124.982 266.59 124.914 266.706 124.914C266.75 124.914 266.788 124.928 266.82 124.956C266.852 124.984 266.868 125.02 266.868 125.064C266.868 125.072 266.862 125.106 266.85 125.166L266.262 127.506C266.178 127.842 266.002 128.128 265.734 128.364C265.47 128.604 265.188 128.724 264.888 128.724C264.716 128.724 264.572 128.676 264.456 128.58C264.344 128.484 264.288 128.36 264.288 128.208C264.288 128.08 264.322 127.986 264.39 127.926C264.458 127.87 264.526 127.842 264.594 127.842C264.646 127.842 264.692 127.856 264.732 127.884C264.776 127.916 264.798 127.964 264.798 128.028C264.798 128.1 264.768 128.166 264.708 128.226C264.652 128.29 264.582 128.322 264.498 128.322C264.47 128.322 264.45 128.32 264.438 128.316C264.502 128.508 264.652 128.604 264.888 128.604C265.144 128.604 265.374 128.46 265.578 128.172Z" fill="#BE2626"/>
<path d="M213.036 87.972L211.344 94.692C211.288 94.916 211.26 95.128 211.26 95.328C211.26 95.696 211.384 95.88 211.632 95.88C211.784 95.88 211.92 95.8 212.04 95.64C212.168 95.48 212.264 95.312 212.328 95.136C212.392 94.952 212.46 94.712 212.532 94.416C212.556 94.312 212.576 94.248 212.592 94.224C212.616 94.192 212.652 94.176 212.7 94.176C212.78 94.176 212.82 94.212 212.82 94.284C212.82 94.308 212.804 94.388 212.772 94.524C212.74 94.652 212.692 94.812 212.628 95.004C212.572 95.196 212.516 95.352 212.46 95.472C212.244 95.904 211.956 96.12 211.596 96.12C211.372 96.12 211.156 96.048 210.948 95.904C210.74 95.76 210.608 95.528 210.552 95.208C210.04 95.816 209.52 96.12 208.992 96.12C208.568 96.12 208.208 95.952 207.912 95.616C207.624 95.272 207.48 94.812 207.48 94.236C207.48 93.356 207.776 92.548 208.368 91.812C208.968 91.076 209.612 90.708 210.3 90.708C210.796 90.708 211.156 90.972 211.38 91.5L212.112 88.584C212.136 88.512 212.148 88.444 212.148 88.38C212.148 88.332 212.14 88.296 212.124 88.272C212.108 88.24 212.052 88.212 211.956 88.188C211.868 88.164 211.732 88.152 211.548 88.152C211.372 88.152 211.284 88.112 211.284 88.032C211.284 87.928 211.308 87.864 211.356 87.84C211.404 87.816 211.508 87.796 211.668 87.78C211.74 87.772 211.84 87.764 211.968 87.756C212.104 87.74 212.204 87.732 212.268 87.732C212.468 87.692 212.688 87.672 212.928 87.672C213.024 87.672 213.072 87.712 213.072 87.792C213.072 87.816 213.06 87.876 213.036 87.972ZM210.612 94.572L211.2 92.22C211.232 92.156 211.248 92.092 211.248 92.028C211.248 91.956 211.228 91.848 211.188 91.704C211.148 91.552 211.048 91.388 210.888 91.212C210.736 91.036 210.54 90.948 210.3 90.948C210.06 90.948 209.808 91.06 209.544 91.284C209.288 91.5 209.06 91.812 208.86 92.22C208.732 92.5 208.6 92.912 208.464 93.456C208.328 93.992 208.26 94.416 208.26 94.728C208.26 95.088 208.328 95.372 208.464 95.58C208.6 95.78 208.788 95.88 209.028 95.88C209.484 95.88 209.936 95.596 210.384 95.028C210.488 94.884 210.564 94.732 210.612 94.572Z" fill="#BE2626"/>
<path d="M215.844 94.052C215.76 94 215.658 93.974 215.538 93.974C215.406 93.974 215.29 94.032 215.19 94.148C215.09 94.26 215.016 94.41 214.968 94.598L214.758 95.414C214.678 95.746 214.638 95.954 214.638 96.038C214.638 96.162 214.666 96.26 214.722 96.332C214.778 96.404 214.858 96.44 214.962 96.44C215.11 96.44 215.258 96.374 215.406 96.242C215.554 96.106 215.666 95.914 215.742 95.666C215.762 95.614 215.788 95.588 215.82 95.588C215.86 95.588 215.88 95.606 215.88 95.642C215.88 95.682 215.858 95.75 215.814 95.846C215.774 95.938 215.716 96.04 215.64 96.152C215.568 96.26 215.468 96.356 215.34 96.44C215.216 96.52 215.084 96.56 214.944 96.56C214.812 96.56 214.686 96.522 214.566 96.446C214.45 96.37 214.37 96.25 214.326 96.086C214.166 96.402 213.96 96.56 213.708 96.56C213.564 96.56 213.438 96.528 213.33 96.464C213.222 96.4 213.168 96.31 213.168 96.194C213.168 96.102 213.198 96.026 213.258 95.966C213.322 95.906 213.392 95.876 213.468 95.876C213.528 95.876 213.576 95.894 213.612 95.93C213.652 95.962 213.672 96.008 213.672 96.068C213.672 96.12 213.652 96.178 213.612 96.242C213.572 96.302 213.504 96.342 213.408 96.362C213.492 96.414 213.594 96.44 213.714 96.44C213.986 96.44 214.18 96.21 214.296 95.75L214.5 94.928C214.572 94.64 214.608 94.454 214.608 94.37C214.608 94.27 214.584 94.18 214.536 94.1C214.488 94.016 214.404 93.974 214.284 93.974C214.208 93.974 214.128 93.992 214.044 94.028C213.964 94.06 213.87 94.14 213.762 94.268C213.654 94.396 213.568 94.562 213.504 94.766C213.484 94.806 213.46 94.826 213.432 94.826C213.388 94.826 213.366 94.808 213.366 94.772C213.366 94.732 213.386 94.666 213.426 94.574C213.47 94.478 213.528 94.376 213.6 94.268C213.676 94.156 213.776 94.06 213.9 93.98C214.028 93.896 214.162 93.854 214.302 93.854C214.618 93.854 214.824 94.012 214.92 94.328C214.948 94.268 214.982 94.208 215.022 94.148C215.066 94.088 215.136 94.024 215.232 93.956C215.328 93.888 215.432 93.854 215.544 93.854C215.684 93.854 215.808 93.886 215.916 93.95C216.028 94.014 216.084 94.104 216.084 94.22C216.084 94.304 216.054 94.378 215.994 94.442C215.938 94.506 215.866 94.538 215.778 94.538C215.726 94.538 215.68 94.522 215.64 94.49C215.6 94.458 215.58 94.41 215.58 94.346C215.58 94.282 215.602 94.222 215.646 94.166C215.69 94.106 215.756 94.068 215.844 94.052Z" fill="#BE2626"/>
<path d="M210.036 124.972L208.344 131.692C208.288 131.916 208.26 132.128 208.26 132.328C208.26 132.696 208.384 132.88 208.632 132.88C208.784 132.88 208.92 132.8 209.04 132.64C209.168 132.48 209.264 132.312 209.328 132.136C209.392 131.952 209.46 131.712 209.532 131.416C209.556 131.312 209.576 131.248 209.592 131.224C209.616 131.192 209.652 131.176 209.7 131.176C209.78 131.176 209.82 131.212 209.82 131.284C209.82 131.308 209.804 131.388 209.772 131.524C209.74 131.652 209.692 131.812 209.628 132.004C209.572 132.196 209.516 132.352 209.46 132.472C209.244 132.904 208.956 133.12 208.596 133.12C208.372 133.12 208.156 133.048 207.948 132.904C207.74 132.76 207.608 132.528 207.552 132.208C207.04 132.816 206.52 133.12 205.992 133.12C205.568 133.12 205.208 132.952 204.912 132.616C204.624 132.272 204.48 131.812 204.48 131.236C204.48 130.356 204.776 129.548 205.368 128.812C205.968 128.076 206.612 127.708 207.3 127.708C207.796 127.708 208.156 127.972 208.38 128.5L209.112 125.584C209.136 125.512 209.148 125.444 209.148 125.38C209.148 125.332 209.14 125.296 209.124 125.272C209.108 125.24 209.052 125.212 208.956 125.188C208.868 125.164 208.732 125.152 208.548 125.152C208.372 125.152 208.284 125.112 208.284 125.032C208.284 124.928 208.308 124.864 208.356 124.84C208.404 124.816 208.508 124.796 208.668 124.78C208.74 124.772 208.84 124.764 208.968 124.756C209.104 124.74 209.204 124.732 209.268 124.732C209.468 124.692 209.688 124.672 209.928 124.672C210.024 124.672 210.072 124.712 210.072 124.792C210.072 124.816 210.06 124.876 210.036 124.972ZM207.612 131.572L208.2 129.22C208.232 129.156 208.248 129.092 208.248 129.028C208.248 128.956 208.228 128.848 208.188 128.704C208.148 128.552 208.048 128.388 207.888 128.212C207.736 128.036 207.54 127.948 207.3 127.948C207.06 127.948 206.808 128.06 206.544 128.284C206.288 128.5 206.06 128.812 205.86 129.22C205.732 129.5 205.6 129.912 205.464 130.456C205.328 130.992 205.26 131.416 205.26 131.728C205.26 132.088 205.328 132.372 205.464 132.58C205.6 132.78 205.788 132.88 206.028 132.88C206.484 132.88 206.936 132.596 207.384 132.028C207.488 131.884 207.564 131.732 207.612 131.572Z" fill="#BE2626"/>
<path d="M215.736 115.6C214.96 115.432 214.572 115.044 214.572 114.436C214.572 114.292 214.604 114.132 214.668 113.956C214.732 113.78 214.832 113.596 214.968 113.404C215.112 113.204 215.32 113.04 215.592 112.912C215.872 112.776 216.196 112.708 216.564 112.708C217.004 112.708 217.344 112.812 217.584 113.02C217.832 113.22 217.956 113.456 217.956 113.728C217.956 113.952 217.9 114.116 217.788 114.22C217.676 114.316 217.564 114.364 217.452 114.364C217.38 114.364 217.304 114.34 217.224 114.292C217.152 114.236 217.116 114.152 217.116 114.04C217.116 114.008 217.12 113.964 217.128 113.908C217.144 113.852 217.196 113.784 217.284 113.704C217.38 113.616 217.508 113.572 217.668 113.572C217.612 113.364 217.48 113.208 217.272 113.104C217.064 113 216.824 112.948 216.552 112.948C216.336 112.948 216.144 112.98 215.976 113.044C215.808 113.108 215.676 113.184 215.58 113.272C215.484 113.36 215.404 113.46 215.34 113.572C215.284 113.676 215.244 113.768 215.22 113.848C215.204 113.928 215.196 113.996 215.196 114.052C215.196 114.22 215.248 114.36 215.352 114.472C215.464 114.576 215.564 114.644 215.652 114.676C215.748 114.708 215.876 114.74 216.036 114.772C216.404 114.844 216.668 114.908 216.828 114.964C216.988 115.02 217.136 115.116 217.272 115.252C217.528 115.508 217.656 115.808 217.656 116.152C217.656 116.328 217.616 116.52 217.536 116.728C217.456 116.936 217.332 117.148 217.164 117.364C216.996 117.58 216.748 117.76 216.42 117.904C216.092 118.048 215.716 118.12 215.292 118.12C214.804 118.12 214.4 118.016 214.08 117.808C213.768 117.6 213.612 117.32 213.612 116.968C213.612 116.72 213.676 116.536 213.804 116.416C213.932 116.288 214.072 116.224 214.224 116.224C214.496 116.224 214.632 116.352 214.632 116.608C214.632 116.76 214.564 116.9 214.428 117.028C214.3 117.156 214.128 117.208 213.912 117.184C214.08 117.648 214.544 117.88 215.304 117.88C215.632 117.88 215.916 117.828 216.156 117.724C216.396 117.62 216.576 117.492 216.696 117.34C216.816 117.188 216.9 117.044 216.948 116.908C217.004 116.772 217.032 116.648 217.032 116.536C217.032 116.136 216.8 115.864 216.336 115.72C216.32 115.72 216.236 115.704 216.084 115.672C215.932 115.64 215.816 115.616 215.736 115.6Z" fill="#FF9900"/>
<path d="M165.5 96L172.5 103M165.5 103L172.5 96" stroke="#BE2626" stroke-linecap="round"/>
<path d="M252.5 140L259.5 147M252.5 147L259.5 140" stroke="#BE2626" stroke-linecap="round"/>
<path d="M26 27L378 206" stroke="#808080" stroke-linecap="round" stroke-dasharray="4 3"/>
<path d="M189.664 125.092C189.528 124.996 189.348 124.948 189.124 124.948C188.788 124.948 188.472 125.084 188.176 125.356C188.048 125.468 187.912 125.636 187.768 125.86C187.624 126.084 187.54 126.236 187.516 126.316C187.476 126.5 187.432 126.672 187.384 126.832C187.36 126.92 187.328 127.052 187.288 127.228C187.248 127.396 187.216 127.524 187.192 127.612C187.176 127.676 187.12 127.892 187.024 128.26C186.936 128.62 186.852 128.96 186.772 129.28C186.692 129.592 186.648 129.764 186.64 129.796C186.576 130.012 186.432 130.12 186.208 130.12C186.12 130.12 186.044 130.092 185.98 130.036C185.924 129.98 185.896 129.908 185.896 129.82C185.896 129.732 185.968 129.42 186.112 128.884C186.2 128.556 186.28 128.228 186.352 127.9L186.688 126.604C186.824 126.004 186.892 125.636 186.892 125.5C186.892 125.132 186.768 124.948 186.52 124.948C186.304 124.948 186.128 125.076 185.992 125.332C185.864 125.58 185.744 125.924 185.632 126.364C185.6 126.5 185.572 126.584 185.548 126.616C185.532 126.64 185.5 126.652 185.452 126.652C185.364 126.652 185.32 126.616 185.32 126.544C185.32 126.52 185.336 126.444 185.368 126.316C185.408 126.18 185.456 126.016 185.512 125.824C185.576 125.624 185.64 125.46 185.704 125.332C185.928 124.916 186.212 124.708 186.556 124.708C186.812 124.708 187.04 124.792 187.24 124.96C187.44 125.12 187.56 125.352 187.6 125.656C188.032 125.024 188.544 124.708 189.136 124.708C189.424 124.708 189.656 124.78 189.832 124.924C190.016 125.06 190.108 125.228 190.108 125.428C190.108 125.604 190.048 125.756 189.928 125.884C189.808 126.012 189.664 126.076 189.496 126.076C189.392 126.076 189.3 126.044 189.22 125.98C189.14 125.916 189.1 125.82 189.1 125.692C189.1 125.556 189.148 125.432 189.244 125.32C189.348 125.2 189.488 125.124 189.664 125.092Z" fill="black"/>
<path d="M190.698 130.642C190.698 130.662 190.682 130.716 190.65 130.804C190.622 130.892 190.58 130.996 190.524 131.116C190.468 131.232 190.386 131.336 190.278 131.428C190.174 131.516 190.058 131.56 189.93 131.56C189.79 131.56 189.676 131.514 189.588 131.422C189.5 131.33 189.456 131.214 189.456 131.074C189.456 131.002 189.48 130.902 189.528 130.774L189.948 129.658C190.032 129.426 190.074 129.264 190.074 129.172C190.074 129.04 190.022 128.974 189.918 128.974C189.798 128.974 189.684 129.038 189.576 129.166C189.468 129.29 189.38 129.474 189.312 129.718C189.3 129.766 189.288 129.796 189.276 129.808C189.268 129.82 189.252 129.826 189.228 129.826C189.184 129.826 189.162 129.808 189.162 129.772C189.162 129.748 189.176 129.692 189.204 129.604C189.236 129.516 189.28 129.414 189.336 129.298C189.396 129.182 189.478 129.08 189.582 128.992C189.69 128.9 189.808 128.854 189.936 128.854C190.076 128.854 190.19 128.902 190.278 128.998C190.366 129.09 190.41 129.202 190.41 129.334C190.41 129.406 190.39 129.496 190.35 129.604L189.93 130.72C189.838 130.972 189.792 131.146 189.792 131.242C189.792 131.374 189.844 131.44 189.948 131.44C190.06 131.44 190.17 131.382 190.278 131.266C190.386 131.146 190.476 130.96 190.548 130.708C190.56 130.668 190.568 130.642 190.572 130.63C190.58 130.618 190.588 130.608 190.596 130.6C190.604 130.592 190.618 130.588 190.638 130.588C190.678 130.588 190.698 130.606 190.698 130.642ZM190.65 127.756C190.65 127.824 190.62 127.89 190.56 127.954C190.5 128.014 190.43 128.044 190.35 128.044C190.302 128.044 190.256 128.028 190.212 127.996C190.172 127.964 190.152 127.914 190.152 127.846C190.152 127.77 190.182 127.704 190.242 127.648C190.306 127.588 190.374 127.558 190.446 127.558C190.506 127.558 190.554 127.58 190.59 127.624C190.63 127.664 190.65 127.708 190.65 127.756Z" fill="black"/>
<path d="M224.664 143.092C224.528 142.996 224.348 142.948 224.124 142.948C223.788 142.948 223.472 143.084 223.176 143.356C223.048 143.468 222.912 143.636 222.768 143.86C222.624 144.084 222.54 144.236 222.516 144.316C222.476 144.5 222.432 144.672 222.384 144.832C222.36 144.92 222.328 145.052 222.288 145.228C222.248 145.396 222.216 145.524 222.192 145.612C222.176 145.676 222.12 145.892 222.024 146.26C221.936 146.62 221.852 146.96 221.772 147.28C221.692 147.592 221.648 147.764 221.64 147.796C221.576 148.012 221.432 148.12 221.208 148.12C221.12 148.12 221.044 148.092 220.98 148.036C220.924 147.98 220.896 147.908 220.896 147.82C220.896 147.732 220.968 147.42 221.112 146.884C221.2 146.556 221.28 146.228 221.352 145.9L221.688 144.604C221.824 144.004 221.892 143.636 221.892 143.5C221.892 143.132 221.768 142.948 221.52 142.948C221.304 142.948 221.128 143.076 220.992 143.332C220.864 143.58 220.744 143.924 220.632 144.364C220.6 144.5 220.572 144.584 220.548 144.616C220.532 144.64 220.5 144.652 220.452 144.652C220.364 144.652 220.32 144.616 220.32 144.544C220.32 144.52 220.336 144.444 220.368 144.316C220.408 144.18 220.456 144.016 220.512 143.824C220.576 143.624 220.64 143.46 220.704 143.332C220.928 142.916 221.212 142.708 221.556 142.708C221.812 142.708 222.04 142.792 222.24 142.96C222.44 143.12 222.56 143.352 222.6 143.656C223.032 143.024 223.544 142.708 224.136 142.708C224.424 142.708 224.656 142.78 224.832 142.924C225.016 143.06 225.108 143.228 225.108 143.428C225.108 143.604 225.048 143.756 224.928 143.884C224.808 144.012 224.664 144.076 224.496 144.076C224.392 144.076 224.3 144.044 224.22 143.98C224.14 143.916 224.1 143.82 224.1 143.692C224.1 143.556 224.148 143.432 224.244 143.32C224.348 143.2 224.488 143.124 224.664 143.092Z" fill="black"/>
<path d="M226.1 147.598L225.542 149.818C225.47 150.098 225.324 150.318 225.104 150.478C224.884 150.642 224.66 150.724 224.432 150.724C224.296 150.724 224.176 150.694 224.072 150.634C223.972 150.578 223.922 150.492 223.922 150.376C223.922 150.288 223.952 150.214 224.012 150.154C224.072 150.094 224.142 150.064 224.222 150.064C224.286 150.064 224.336 150.082 224.372 150.118C224.408 150.158 224.426 150.204 224.426 150.256C224.426 150.328 224.4 150.39 224.348 150.442C224.3 150.494 224.24 150.528 224.168 150.544C224.244 150.584 224.332 150.604 224.432 150.604C224.592 150.604 224.738 150.53 224.87 150.382C225.002 150.238 225.098 150.052 225.158 149.824L225.728 147.562C225.756 147.438 225.77 147.334 225.77 147.25C225.77 147.066 225.706 146.974 225.578 146.974C225.45 146.974 225.318 147.036 225.182 147.16C225.046 147.28 224.922 147.474 224.81 147.742C224.774 147.794 224.746 147.822 224.726 147.826C224.686 147.826 224.666 147.808 224.666 147.772C224.666 147.76 224.678 147.724 224.702 147.664C224.726 147.6 224.764 147.522 224.816 147.43C224.872 147.338 224.934 147.25 225.002 147.166C225.074 147.078 225.162 147.004 225.266 146.944C225.374 146.884 225.484 146.854 225.596 146.854C225.74 146.854 225.864 146.904 225.968 147.004C226.072 147.1 226.124 147.23 226.124 147.394C226.124 147.466 226.116 147.534 226.1 147.598ZM226.346 145.756C226.346 145.832 226.314 145.9 226.25 145.96C226.19 146.016 226.124 146.044 226.052 146.044C225.992 146.044 225.942 146.024 225.902 145.984C225.866 145.94 225.848 145.894 225.848 145.846C225.848 145.778 225.878 145.714 225.938 145.654C225.998 145.59 226.068 145.558 226.148 145.558C226.196 145.558 226.24 145.574 226.28 145.606C226.324 145.638 226.346 145.688 226.346 145.756Z" fill="black"/>
<path d="M57.252 170.408C57.252 171.168 56.988 171.812 56.46 172.34C55.932 172.868 55.304 173.132 54.576 173.132C53.912 173.132 53.388 172.84 53.004 172.256L52.572 173H52.272V165.848C52.272 165.552 52.22 165.368 52.116 165.296C52.012 165.216 51.752 165.176 51.336 165.176V164.804L53.064 164.672V168.476C53.528 167.956 54.076 167.696 54.708 167.696C55.396 167.696 55.992 167.96 56.496 168.488C57 169.016 57.252 169.656 57.252 170.408ZM56.256 170.396C56.256 169.652 56.14 169.096 55.908 168.728C55.588 168.216 55.168 167.96 54.648 167.96C54.064 167.96 53.592 168.216 53.232 168.728C53.144 168.856 53.1 169 53.1 169.16V171.632C53.1 171.8 53.156 171.968 53.268 172.136C53.588 172.624 54.008 172.868 54.528 172.868C55.088 172.868 55.54 172.612 55.884 172.1C56.132 171.716 56.256 171.148 56.256 170.396ZM63.464 171.932C63.464 172.356 63.352 172.652 63.128 172.82C62.904 172.988 62.688 173.072 62.48 173.072C62.216 173.072 62 172.976 61.832 172.784C61.664 172.584 61.568 172.352 61.544 172.088C61.424 172.392 61.224 172.644 60.944 172.844C60.672 173.036 60.348 173.132 59.972 173.132C59.684 173.132 59.404 173.096 59.132 173.024C58.86 172.952 58.612 172.816 58.388 172.616C58.164 172.416 58.052 172.164 58.052 171.86C58.052 171.18 58.452 170.66 59.252 170.3C59.732 170.068 60.468 169.924 61.46 169.868V169.424C61.46 168.928 61.328 168.548 61.064 168.284C60.808 168.02 60.516 167.888 60.188 167.888C59.604 167.888 59.172 168.072 58.892 168.44C59.132 168.448 59.292 168.512 59.372 168.632C59.46 168.752 59.504 168.872 59.504 168.992C59.504 169.152 59.452 169.284 59.348 169.388C59.252 169.492 59.12 169.544 58.952 169.544C58.792 169.544 58.66 169.496 58.556 169.4C58.452 169.296 58.4 169.156 58.4 168.98C58.4 168.588 58.576 168.264 58.928 168.008C59.28 167.752 59.708 167.624 60.212 167.624C60.868 167.624 61.416 167.844 61.856 168.284C61.992 168.42 62.092 168.576 62.156 168.752C62.228 168.928 62.268 169.076 62.276 169.196C62.284 169.308 62.288 169.476 62.288 169.7V172.1C62.288 172.148 62.296 172.212 62.312 172.292C62.328 172.364 62.372 172.452 62.444 172.556C62.516 172.652 62.612 172.7 62.732 172.7C63.02 172.7 63.164 172.444 63.164 171.932V171.26H63.464V171.932ZM61.46 171.32V170.12C60.572 170.152 59.936 170.344 59.552 170.696C59.168 171.048 58.976 171.432 58.976 171.848C58.976 172.144 59.08 172.388 59.288 172.58C59.504 172.772 59.76 172.868 60.056 172.868C60.392 172.868 60.708 172.74 61.004 172.484C61.308 172.22 61.46 171.832 61.46 171.32ZM66.728 173L65.396 172.964L64.064 173V172.628C64.488 172.628 64.748 172.604 64.844 172.556C64.948 172.5 65 172.344 65 172.088V165.848C65 165.552 64.948 165.368 64.844 165.296C64.74 165.216 64.48 165.176 64.064 165.176V164.804L65.792 164.672V172.088C65.792 172.344 65.84 172.5 65.936 172.556C66.04 172.604 66.304 172.628 66.728 172.628V173ZM70.0678 173L68.7358 172.964L67.4038 173V172.628C67.8278 172.628 68.0878 172.604 68.1838 172.556C68.2878 172.5 68.3398 172.344 68.3398 172.088V165.848C68.3398 165.552 68.2878 165.368 68.1838 165.296C68.0798 165.216 67.8198 165.176 67.4038 165.176V164.804L69.1318 164.672V172.088C69.1318 172.344 69.1798 172.5 69.2758 172.556C69.3798 172.604 69.6438 172.628 70.0678 172.628V173ZM77.3078 173C76.4918 172.976 76.0758 172.964 76.0598 172.964L74.7397 173V172.628C75.1638 172.628 75.4238 172.604 75.5198 172.556C75.6238 172.5 75.6758 172.344 75.6758 172.088V168.86C75.6758 168.564 75.6238 168.38 75.5198 168.308C75.4238 168.236 75.1798 168.2 74.7878 168.2V167.828L76.4678 167.696V172.1C76.4678 172.34 76.5078 172.488 76.5878 172.544C76.6758 172.6 76.9158 172.628 77.3078 172.628V173ZM76.6478 165.752C76.6478 165.912 76.5878 166.06 76.4678 166.196C76.3478 166.324 76.1918 166.388 75.9998 166.388C75.8238 166.388 75.6718 166.324 75.5438 166.196C75.4238 166.068 75.3638 165.92 75.3638 165.752C75.3638 165.592 75.4238 165.448 75.5438 165.32C75.6638 165.184 75.8198 165.116 76.0118 165.116C76.1878 165.116 76.3358 165.18 76.4558 165.308C76.5838 165.436 76.6478 165.584 76.6478 165.752Z" fill="black"/>
<path d="M331.252 63.408C331.252 64.168 330.988 64.812 330.46 65.34C329.932 65.868 329.304 66.132 328.576 66.132C327.912 66.132 327.388 65.84 327.004 65.256L326.572 66H326.272V58.848C326.272 58.552 326.22 58.368 326.116 58.296C326.012 58.216 325.752 58.176 325.336 58.176V57.804L327.064 57.672V61.476C327.528 60.956 328.076 60.696 328.708 60.696C329.396 60.696 329.992 60.96 330.496 61.488C331 62.016 331.252 62.656 331.252 63.408ZM330.256 63.396C330.256 62.652 330.14 62.096 329.908 61.728C329.588 61.216 329.168 60.96 328.648 60.96C328.064 60.96 327.592 61.216 327.232 61.728C327.144 61.856 327.1 62 327.1 62.16V64.632C327.1 64.8 327.156 64.968 327.268 65.136C327.588 65.624 328.008 65.868 328.528 65.868C329.088 65.868 329.54 65.612 329.884 65.1C330.132 64.716 330.256 64.148 330.256 63.396ZM337.464 64.932C337.464 65.356 337.352 65.652 337.128 65.82C336.904 65.988 336.688 66.072 336.48 66.072C336.216 66.072 336 65.976 335.832 65.784C335.664 65.584 335.568 65.352 335.544 65.088C335.424 65.392 335.224 65.644 334.944 65.844C334.672 66.036 334.348 66.132 333.972 66.132C333.684 66.132 333.404 66.096 333.132 66.024C332.86 65.952 332.612 65.816 332.388 65.616C332.164 65.416 332.052 65.164 332.052 64.86C332.052 64.18 332.452 63.66 333.252 63.3C333.732 63.068 334.468 62.924 335.46 62.868V62.424C335.46 61.928 335.328 61.548 335.064 61.284C334.808 61.02 334.516 60.888 334.188 60.888C333.604 60.888 333.172 61.072 332.892 61.44C333.132 61.448 333.292 61.512 333.372 61.632C333.46 61.752 333.504 61.872 333.504 61.992C333.504 62.152 333.452 62.284 333.348 62.388C333.252 62.492 333.12 62.544 332.952 62.544C332.792 62.544 332.66 62.496 332.556 62.4C332.452 62.296 332.4 62.156 332.4 61.98C332.4 61.588 332.576 61.264 332.928 61.008C333.28 60.752 333.708 60.624 334.212 60.624C334.868 60.624 335.416 60.844 335.856 61.284C335.992 61.42 336.092 61.576 336.156 61.752C336.228 61.928 336.268 62.076 336.276 62.196C336.284 62.308 336.288 62.476 336.288 62.7V65.1C336.288 65.148 336.296 65.212 336.312 65.292C336.328 65.364 336.372 65.452 336.444 65.556C336.516 65.652 336.612 65.7 336.732 65.7C337.02 65.7 337.164 65.444 337.164 64.932V64.26H337.464V64.932ZM335.46 64.32V63.12C334.572 63.152 333.936 63.344 333.552 63.696C333.168 64.048 332.976 64.432 332.976 64.848C332.976 65.144 333.08 65.388 333.288 65.58C333.504 65.772 333.76 65.868 334.056 65.868C334.392 65.868 334.708 65.74 335.004 65.484C335.308 65.22 335.46 64.832 335.46 64.32ZM340.728 66L339.396 65.964L338.064 66V65.628C338.488 65.628 338.748 65.604 338.844 65.556C338.948 65.5 339 65.344 339 65.088V58.848C339 58.552 338.948 58.368 338.844 58.296C338.74 58.216 338.48 58.176 338.064 58.176V57.804L339.792 57.672V65.088C339.792 65.344 339.84 65.5 339.936 65.556C340.04 65.604 340.304 65.628 340.728 65.628V66ZM344.068 66L342.736 65.964L341.404 66V65.628C341.828 65.628 342.088 65.604 342.184 65.556C342.288 65.5 342.34 65.344 342.34 65.088V58.848C342.34 58.552 342.288 58.368 342.184 58.296C342.08 58.216 341.82 58.176 341.404 58.176V57.804L343.132 57.672V65.088C343.132 65.344 343.18 65.5 343.276 65.556C343.38 65.604 343.644 65.628 344.068 65.628V66ZM350.864 66.6C350.864 67.136 350.704 67.58 350.384 67.932C350.064 68.284 349.676 68.46 349.22 68.46C348.852 68.46 348.536 68.372 348.272 68.196C348 68.028 347.864 67.796 347.864 67.5C347.864 67.34 347.916 67.208 348.02 67.104C348.116 67 348.248 66.948 348.416 66.948C348.584 66.948 348.716 67 348.812 67.104C348.916 67.208 348.968 67.34 348.968 67.5C348.968 67.644 348.924 67.76 348.836 67.848C348.756 67.944 348.66 68.008 348.548 68.04C348.756 68.144 348.972 68.196 349.196 68.196C349.38 68.196 349.532 68.14 349.652 68.028C349.78 67.924 349.872 67.78 349.928 67.596C349.984 67.42 350.02 67.256 350.036 67.104C350.06 66.952 350.072 66.792 350.072 66.624V61.872C350.072 61.576 350.012 61.392 349.892 61.32C349.78 61.24 349.496 61.2 349.04 61.2V60.828L350.864 60.696V66.6ZM350.864 58.752C350.864 58.912 350.804 59.06 350.684 59.196C350.564 59.324 350.408 59.388 350.216 59.388C350.04 59.388 349.888 59.324 349.76 59.196C349.64 59.068 349.58 58.92 349.58 58.752C349.58 58.592 349.64 58.448 349.76 58.32C349.88 58.184 350.036 58.116 350.228 58.116C350.404 58.116 350.552 58.18 350.672 58.308C350.8 58.436 350.864 58.584 350.864 58.752Z" fill="black"/>
<path d="M118.356 148.381C118.29 148.185 118.078 148.079 117.881 148.144L114.68 149.212C114.483 149.277 114.377 149.489 114.442 149.686C114.508 149.882 114.72 149.989 114.917 149.923L117.763 148.974L118.712 151.82C118.777 152.017 118.989 152.123 119.186 152.058C119.382 151.992 119.489 151.78 119.423 151.583L118.356 148.381ZM83 170.375C90.8709 170.375 99.118 166.109 105.66 161.302C108.937 158.894 111.801 156.339 113.995 154.09C116.179 151.851 117.725 149.889 118.335 148.668L117.665 148.332C117.109 149.444 115.633 151.336 113.458 153.566C111.292 155.786 108.459 158.315 105.215 160.698C98.7153 165.474 90.6291 169.625 83 169.625V170.375Z" fill="#808080"/>
<path d="M284.644 84.6186C284.71 84.8151 284.922 84.9212 285.119 84.8558L288.32 83.7885C288.517 83.723 288.623 83.5106 288.558 83.3141C288.492 83.1177 288.28 83.0115 288.083 83.077L285.237 84.0257L284.288 81.1796C284.223 80.9831 284.011 80.8769 283.814 80.9424C283.618 81.0079 283.511 81.2203 283.577 81.4168L284.644 84.6186ZM320 62.625C312.129 62.625 303.882 66.8909 297.34 71.6978C294.063 74.1062 291.199 76.6615 289.005 78.91C286.821 81.1488 285.275 83.1106 284.665 84.3323L285.335 84.6677C285.891 83.5561 287.367 81.6637 289.542 79.4337C291.708 77.2135 294.541 74.6854 297.785 72.3022C304.285 67.5257 312.371 63.375 320 63.375V62.625Z" fill="#808080"/>
<path d="M123.5 76.5L128.24 83.7479L132.147 76.019L123.5 76.5ZM169.338 98.8307L129.862 78.8758L129.186 80.2145L168.662 100.169L169.338 98.8307Z" fill="#0000D0"/>
<path d="M123.5 99.5L127.5 101.809L127.5 97.1906L123.5 99.5ZM169 99.1L127.1 99.1L127.1 99.9L169 99.9L169 99.1Z" fill="#0000D0"/>
<path d="M169 76.5L166.691 80.5L171.309 80.5L169 76.5ZM169.4 99.5L169.4 80.1L168.6 80.1L168.6 99.5H169.4Z" fill="#0000D0"/>
<path d="M123.5 99.5L123.5 76.5" stroke="#808080" stroke-width="0.3" stroke-linecap="round"/>
<path d="M169 76.5L123.5 76.5" stroke="#808080" stroke-width="0.3" stroke-linecap="round"/>
<path d="M301.5 167L296.76 159.752L292.853 167.481L301.5 167ZM255.662 144.669L295.138 164.624L295.814 163.286L256.338 143.331L255.662 144.669Z" fill="#0000D0"/>
<path d="M301.5 144L297.5 141.691L297.5 146.309L301.5 144ZM256 144.4L297.9 144.4L297.9 143.6L256 143.6L256 144.4Z" fill="#0000D0"/>
<path d="M256 167L258.309 163L253.691 163L256 167ZM255.6 144L255.6 163.4L256.4 163.4L256.4 144H255.6Z" fill="#0000D0"/>
<path d="M301.5 144L301.5 167" stroke="#808080" stroke-width="0.3" stroke-linecap="round"/>
<path d="M256 167L301.5 167" stroke="#808080" stroke-width="0.3" stroke-linecap="round"/>
<path d="M131.564 69.088L130.796 72.148C130.764 72.26 130.748 72.34 130.748 72.388C130.748 72.46 130.76 72.512 130.784 72.544C130.816 72.576 130.904 72.604 131.048 72.628C131.192 72.644 131.416 72.652 131.72 72.652C131.864 72.652 131.956 72.66 131.996 72.676C132.036 72.684 132.056 72.72 132.056 72.784C132.056 72.928 131.972 73 131.804 73C131.716 73 131.58 72.996 131.396 72.988C131.212 72.98 131.076 72.976 130.988 72.976H129.428C129.356 72.976 129.24 72.98 129.08 72.988C128.92 72.996 128.804 73 128.732 73C128.612 73 128.552 72.956 128.552 72.868C128.552 72.772 128.576 72.712 128.624 72.688C128.672 72.664 128.764 72.652 128.9 72.652C129.292 72.652 129.536 72.62 129.632 72.556C129.736 72.492 129.816 72.344 129.872 72.112L131.492 65.632C131.524 65.512 131.54 65.432 131.54 65.392C131.54 65.336 131.532 65.296 131.516 65.272C131.5 65.248 131.432 65.228 131.312 65.212C131.2 65.188 131.028 65.176 130.796 65.176C130.676 65.176 130.596 65.172 130.556 65.164C130.524 65.148 130.508 65.108 130.508 65.044C130.508 64.948 130.532 64.888 130.58 64.864C130.628 64.84 130.72 64.828 130.856 64.828H136.544C136.672 64.828 136.756 64.836 136.796 64.852C136.844 64.86 136.868 64.896 136.868 64.96C136.868 64.968 136.864 64.996 136.856 65.044C136.848 65.092 136.844 65.124 136.844 65.14L136.592 67.24C136.576 67.416 136.524 67.504 136.436 67.504C136.348 67.504 136.304 67.46 136.304 67.372C136.304 67.3 136.316 67.216 136.34 67.12C136.364 66.912 136.376 66.696 136.376 66.472C136.376 66.008 136.264 65.676 136.04 65.476C135.824 65.276 135.364 65.176 134.66 65.176H133.052C132.812 65.176 132.66 65.2 132.596 65.248C132.54 65.288 132.484 65.416 132.428 65.632L131.648 68.74H132.74C133.252 68.74 133.604 68.664 133.796 68.512C133.988 68.36 134.148 68.052 134.276 67.588C134.3 67.476 134.32 67.408 134.336 67.384C134.36 67.352 134.396 67.336 134.444 67.336C134.524 67.336 134.564 67.376 134.564 67.456L133.868 70.252C133.844 70.356 133.824 70.424 133.808 70.456C133.792 70.48 133.76 70.492 133.712 70.492C133.624 70.492 133.58 70.448 133.58 70.36C133.58 70.32 133.592 70.276 133.616 70.228C133.672 69.98 133.7 69.784 133.7 69.64C133.7 69.44 133.64 69.3 133.52 69.22C133.408 69.132 133.14 69.088 132.716 69.088H131.564Z" fill="#0000FF"/>
<path d="M135.698 73.642C135.698 73.662 135.682 73.716 135.65 73.804C135.622 73.892 135.58 73.996 135.524 74.116C135.468 74.232 135.386 74.336 135.278 74.428C135.174 74.516 135.058 74.56 134.93 74.56C134.79 74.56 134.676 74.514 134.588 74.422C134.5 74.33 134.456 74.214 134.456 74.074C134.456 74.002 134.48 73.902 134.528 73.774L134.948 72.658C135.032 72.426 135.074 72.264 135.074 72.172C135.074 72.04 135.022 71.974 134.918 71.974C134.798 71.974 134.684 72.038 134.576 72.166C134.468 72.29 134.38 72.474 134.312 72.718C134.3 72.766 134.288 72.796 134.276 72.808C134.268 72.82 134.252 72.826 134.228 72.826C134.184 72.826 134.162 72.808 134.162 72.772C134.162 72.748 134.176 72.692 134.204 72.604C134.236 72.516 134.28 72.414 134.336 72.298C134.396 72.182 134.478 72.08 134.582 71.992C134.69 71.9 134.808 71.854 134.936 71.854C135.076 71.854 135.19 71.902 135.278 71.998C135.366 72.09 135.41 72.202 135.41 72.334C135.41 72.406 135.39 72.496 135.35 72.604L134.93 73.72C134.838 73.972 134.792 74.146 134.792 74.242C134.792 74.374 134.844 74.44 134.948 74.44C135.06 74.44 135.17 74.382 135.278 74.266C135.386 74.146 135.476 73.96 135.548 73.708C135.56 73.668 135.568 73.642 135.572 73.63C135.58 73.618 135.588 73.608 135.596 73.6C135.604 73.592 135.618 73.588 135.638 73.588C135.678 73.588 135.698 73.606 135.698 73.642ZM135.65 70.756C135.65 70.824 135.62 70.89 135.56 70.954C135.5 71.014 135.43 71.044 135.35 71.044C135.302 71.044 135.256 71.028 135.212 70.996C135.172 70.964 135.152 70.914 135.152 70.846C135.152 70.77 135.182 70.704 135.242 70.648C135.306 70.588 135.374 70.558 135.446 70.558C135.506 70.558 135.554 70.58 135.59 70.624C135.63 70.664 135.65 70.708 135.65 70.756Z" fill="#0000FF"/>
<path d="M130 62.5H137M137 62.5L135.5 61M137 62.5L135.5 64" stroke="#0000FF" stroke-width="0.6"/>
<path d="M286.564 178.088L285.796 181.148C285.764 181.26 285.748 181.34 285.748 181.388C285.748 181.46 285.76 181.512 285.784 181.544C285.816 181.576 285.904 181.604 286.048 181.628C286.192 181.644 286.416 181.652 286.72 181.652C286.864 181.652 286.956 181.66 286.996 181.676C287.036 181.684 287.056 181.72 287.056 181.784C287.056 181.928 286.972 182 286.804 182C286.716 182 286.58 181.996 286.396 181.988C286.212 181.98 286.076 181.976 285.988 181.976H284.428C284.356 181.976 284.24 181.98 284.08 181.988C283.92 181.996 283.804 182 283.732 182C283.612 182 283.552 181.956 283.552 181.868C283.552 181.772 283.576 181.712 283.624 181.688C283.672 181.664 283.764 181.652 283.9 181.652C284.292 181.652 284.536 181.62 284.632 181.556C284.736 181.492 284.816 181.344 284.872 181.112L286.492 174.632C286.524 174.512 286.54 174.432 286.54 174.392C286.54 174.336 286.532 174.296 286.516 174.272C286.5 174.248 286.432 174.228 286.312 174.212C286.2 174.188 286.028 174.176 285.796 174.176C285.676 174.176 285.596 174.172 285.556 174.164C285.524 174.148 285.508 174.108 285.508 174.044C285.508 173.948 285.532 173.888 285.58 173.864C285.628 173.84 285.72 173.828 285.856 173.828H291.544C291.672 173.828 291.756 173.836 291.796 173.852C291.844 173.86 291.868 173.896 291.868 173.96C291.868 173.968 291.864 173.996 291.856 174.044C291.848 174.092 291.844 174.124 291.844 174.14L291.592 176.24C291.576 176.416 291.524 176.504 291.436 176.504C291.348 176.504 291.304 176.46 291.304 176.372C291.304 176.3 291.316 176.216 291.34 176.12C291.364 175.912 291.376 175.696 291.376 175.472C291.376 175.008 291.264 174.676 291.04 174.476C290.824 174.276 290.364 174.176 289.66 174.176H288.052C287.812 174.176 287.66 174.2 287.596 174.248C287.54 174.288 287.484 174.416 287.428 174.632L286.648 177.74H287.74C288.252 177.74 288.604 177.664 288.796 177.512C288.988 177.36 289.148 177.052 289.276 176.588C289.3 176.476 289.32 176.408 289.336 176.384C289.36 176.352 289.396 176.336 289.444 176.336C289.524 176.336 289.564 176.376 289.564 176.456L288.868 179.252C288.844 179.356 288.824 179.424 288.808 179.456C288.792 179.48 288.76 179.492 288.712 179.492C288.624 179.492 288.58 179.448 288.58 179.36C288.58 179.32 288.592 179.276 288.616 179.228C288.672 178.98 288.7 178.784 288.7 178.64C288.7 178.44 288.64 178.3 288.52 178.22C288.408 178.132 288.14 178.088 287.716 178.088H286.564Z" fill="#0000FF"/>
<path d="M291.1 181.598L290.542 183.818C290.47 184.098 290.324 184.318 290.104 184.478C289.884 184.642 289.66 184.724 289.432 184.724C289.296 184.724 289.176 184.694 289.072 184.634C288.972 184.578 288.922 184.492 288.922 184.376C288.922 184.288 288.952 184.214 289.012 184.154C289.072 184.094 289.142 184.064 289.222 184.064C289.286 184.064 289.336 184.082 289.372 184.118C289.408 184.158 289.426 184.204 289.426 184.256C289.426 184.328 289.4 184.39 289.348 184.442C289.3 184.494 289.24 184.528 289.168 184.544C289.244 184.584 289.332 184.604 289.432 184.604C289.592 184.604 289.738 184.53 289.87 184.382C290.002 184.238 290.098 184.052 290.158 183.824L290.728 181.562C290.756 181.438 290.77 181.334 290.77 181.25C290.77 181.066 290.706 180.974 290.578 180.974C290.45 180.974 290.318 181.036 290.182 181.16C290.046 181.28 289.922 181.474 289.81 181.742C289.774 181.794 289.746 181.822 289.726 181.826C289.686 181.826 289.666 181.808 289.666 181.772C289.666 181.76 289.678 181.724 289.702 181.664C289.726 181.6 289.764 181.522 289.816 181.43C289.872 181.338 289.934 181.25 290.002 181.166C290.074 181.078 290.162 181.004 290.266 180.944C290.374 180.884 290.484 180.854 290.596 180.854C290.74 180.854 290.864 180.904 290.968 181.004C291.072 181.1 291.124 181.23 291.124 181.394C291.124 181.466 291.116 181.534 291.1 181.598ZM291.346 179.756C291.346 179.832 291.314 179.9 291.25 179.96C291.19 180.016 291.124 180.044 291.052 180.044C290.992 180.044 290.942 180.024 290.902 179.984C290.866 179.94 290.848 179.894 290.848 179.846C290.848 179.778 290.878 179.714 290.938 179.654C290.998 179.59 291.068 179.558 291.148 179.558C291.196 179.558 291.24 179.574 291.28 179.606C291.324 179.638 291.346 179.688 291.346 179.756Z" fill="#0000FF"/>
<path d="M285 171.5H292M292 171.5L290.5 170M292 171.5L290.5 173" stroke="#0000FF" stroke-width="0.6"/>
<path d="M176.564 81.088L175.796 84.148C175.764 84.26 175.748 84.34 175.748 84.388C175.748 84.46 175.76 84.512 175.784 84.544C175.816 84.576 175.904 84.604 176.048 84.628C176.192 84.644 176.416 84.652 176.72 84.652C176.864 84.652 176.956 84.66 176.996 84.676C177.036 84.684 177.056 84.72 177.056 84.784C177.056 84.928 176.972 85 176.804 85C176.716 85 176.58 84.996 176.396 84.988C176.212 84.98 176.076 84.976 175.988 84.976H174.428C174.356 84.976 174.24 84.98 174.08 84.988C173.92 84.996 173.804 85 173.732 85C173.612 85 173.552 84.956 173.552 84.868C173.552 84.772 173.576 84.712 173.624 84.688C173.672 84.664 173.764 84.652 173.9 84.652C174.292 84.652 174.536 84.62 174.632 84.556C174.736 84.492 174.816 84.344 174.872 84.112L176.492 77.632C176.524 77.512 176.54 77.432 176.54 77.392C176.54 77.336 176.532 77.296 176.516 77.272C176.5 77.248 176.432 77.228 176.312 77.212C176.2 77.188 176.028 77.176 175.796 77.176C175.676 77.176 175.596 77.172 175.556 77.164C175.524 77.148 175.508 77.108 175.508 77.044C175.508 76.948 175.532 76.888 175.58 76.864C175.628 76.84 175.72 76.828 175.856 76.828H181.544C181.672 76.828 181.756 76.836 181.796 76.852C181.844 76.86 181.868 76.896 181.868 76.96C181.868 76.968 181.864 76.996 181.856 77.044C181.848 77.092 181.844 77.124 181.844 77.14L181.592 79.24C181.576 79.416 181.524 79.504 181.436 79.504C181.348 79.504 181.304 79.46 181.304 79.372C181.304 79.3 181.316 79.216 181.34 79.12C181.364 78.912 181.376 78.696 181.376 78.472C181.376 78.008 181.264 77.676 181.04 77.476C180.824 77.276 180.364 77.176 179.66 77.176H178.052C177.812 77.176 177.66 77.2 177.596 77.248C177.54 77.288 177.484 77.416 177.428 77.632L176.648 80.74H177.74C178.252 80.74 178.604 80.664 178.796 80.512C178.988 80.36 179.148 80.052 179.276 79.588C179.3 79.476 179.32 79.408 179.336 79.384C179.36 79.352 179.396 79.336 179.444 79.336C179.524 79.336 179.564 79.376 179.564 79.456L178.868 82.252C178.844 82.356 178.824 82.424 178.808 82.456C178.792 82.48 178.76 82.492 178.712 82.492C178.624 82.492 178.58 82.448 178.58 82.36C178.58 82.32 178.592 82.276 178.616 82.228C178.672 81.98 178.7 81.784 178.7 81.64C178.7 81.44 178.64 81.3 178.52 81.22C178.408 81.132 178.14 81.088 177.716 81.088H176.564Z" fill="#0000FF"/>
<path d="M180.698 85.642C180.698 85.662 180.682 85.716 180.65 85.804C180.622 85.892 180.58 85.996 180.524 86.116C180.468 86.232 180.386 86.336 180.278 86.428C180.174 86.516 180.058 86.56 179.93 86.56C179.79 86.56 179.676 86.514 179.588 86.422C179.5 86.33 179.456 86.214 179.456 86.074C179.456 86.002 179.48 85.902 179.528 85.774L179.948 84.658C180.032 84.426 180.074 84.264 180.074 84.172C180.074 84.04 180.022 83.974 179.918 83.974C179.798 83.974 179.684 84.038 179.576 84.166C179.468 84.29 179.38 84.474 179.312 84.718C179.3 84.766 179.288 84.796 179.276 84.808C179.268 84.82 179.252 84.826 179.228 84.826C179.184 84.826 179.162 84.808 179.162 84.772C179.162 84.748 179.176 84.692 179.204 84.604C179.236 84.516 179.28 84.414 179.336 84.298C179.396 84.182 179.478 84.08 179.582 83.992C179.69 83.9 179.808 83.854 179.936 83.854C180.076 83.854 180.19 83.902 180.278 83.998C180.366 84.09 180.41 84.202 180.41 84.334C180.41 84.406 180.39 84.496 180.35 84.604L179.93 85.72C179.838 85.972 179.792 86.146 179.792 86.242C179.792 86.374 179.844 86.44 179.948 86.44C180.06 86.44 180.17 86.382 180.278 86.266C180.386 86.146 180.476 85.96 180.548 85.708C180.56 85.668 180.568 85.642 180.572 85.63C180.58 85.618 180.588 85.608 180.596 85.6C180.604 85.592 180.618 85.588 180.638 85.588C180.678 85.588 180.698 85.606 180.698 85.642ZM180.65 82.756C180.65 82.824 180.62 82.89 180.56 82.954C180.5 83.014 180.43 83.044 180.35 83.044C180.302 83.044 180.256 83.028 180.212 82.996C180.172 82.964 180.152 82.914 180.152 82.846C180.152 82.77 180.182 82.704 180.242 82.648C180.306 82.588 180.374 82.558 180.446 82.558C180.506 82.558 180.554 82.58 180.59 82.624C180.63 82.664 180.65 82.708 180.65 82.756ZM182.174 86.524C182.174 86.732 182.134 86.928 182.054 87.112C181.974 87.3 181.894 87.438 181.814 87.526C181.738 87.614 181.688 87.658 181.664 87.658C181.624 87.658 181.604 87.638 181.604 87.598C181.604 87.582 181.626 87.55 181.67 87.502C181.926 87.214 182.054 86.888 182.054 86.524C182.054 86.448 182.05 86.41 182.042 86.41C182.034 86.41 182.026 86.414 182.018 86.422C181.966 86.474 181.9 86.5 181.82 86.5C181.724 86.5 181.65 86.47 181.598 86.41C181.55 86.35 181.526 86.282 181.526 86.206C181.526 86.134 181.552 86.068 181.604 86.008C181.656 85.948 181.726 85.918 181.814 85.918C181.934 85.918 182.024 85.974 182.084 86.086C182.144 86.194 182.174 86.34 182.174 86.524ZM184.211 87.172C184.279 87.08 184.335 86.982 184.379 86.878C184.427 86.778 184.461 86.692 184.481 86.62C184.505 86.548 184.535 86.438 184.571 86.29L184.565 86.284C184.389 86.468 184.189 86.56 183.965 86.56C183.777 86.56 183.611 86.508 183.467 86.404C183.327 86.296 183.257 86.114 183.257 85.858C183.257 85.63 183.355 85.254 183.551 84.73C183.655 84.466 183.707 84.28 183.707 84.172C183.707 84.112 183.697 84.066 183.677 84.034C183.657 84.002 183.637 83.984 183.617 83.98C183.601 83.976 183.579 83.974 183.551 83.974C183.431 83.974 183.317 84.038 183.209 84.166C183.101 84.29 183.013 84.474 182.945 84.718C182.933 84.766 182.921 84.796 182.909 84.808C182.901 84.82 182.885 84.826 182.861 84.826C182.817 84.826 182.795 84.808 182.795 84.772C182.795 84.748 182.809 84.692 182.837 84.604C182.869 84.516 182.913 84.414 182.969 84.298C183.029 84.182 183.111 84.08 183.215 83.992C183.323 83.9 183.441 83.854 183.569 83.854C183.709 83.854 183.823 83.902 183.911 83.998C183.999 84.09 184.043 84.202 184.043 84.334C184.043 84.406 184.009 84.532 183.941 84.712C183.725 85.288 183.617 85.7 183.617 85.948C183.617 86.276 183.739 86.44 183.983 86.44C184.211 86.44 184.413 86.316 184.589 86.068C184.617 86.028 184.643 85.966 184.667 85.882L185.111 84.118C185.147 83.982 185.223 83.914 185.339 83.914C185.383 83.914 185.421 83.928 185.453 83.956C185.485 83.984 185.501 84.02 185.501 84.064C185.501 84.072 185.495 84.106 185.483 84.166L184.895 86.506C184.811 86.842 184.635 87.128 184.367 87.364C184.103 87.604 183.821 87.724 183.521 87.724C183.349 87.724 183.205 87.676 183.089 87.58C182.977 87.484 182.921 87.36 182.921 87.208C182.921 87.08 182.955 86.986 183.023 86.926C183.091 86.87 183.159 86.842 183.227 86.842C183.279 86.842 183.325 86.856 183.365 86.884C183.409 86.916 183.431 86.964 183.431 87.028C183.431 87.1 183.401 87.166 183.341 87.226C183.285 87.29 183.215 87.322 183.131 87.322C183.103 87.322 183.083 87.32 183.071 87.316C183.135 87.508 183.285 87.604 183.521 87.604C183.777 87.604 184.007 87.46 184.211 87.172Z" fill="#0000FF"/>
<path d="M175 74.5H182M182 74.5L180.5 73M182 74.5L180.5 76" stroke="#0000FF" stroke-width="0.6"/>
<path d="M243.564 164.088L242.796 167.148C242.764 167.26 242.748 167.34 242.748 167.388C242.748 167.46 242.76 167.512 242.784 167.544C242.816 167.576 242.904 167.604 243.048 167.628C243.192 167.644 243.416 167.652 243.72 167.652C243.864 167.652 243.956 167.66 243.996 167.676C244.036 167.684 244.056 167.72 244.056 167.784C244.056 167.928 243.972 168 243.804 168C243.716 168 243.58 167.996 243.396 167.988C243.212 167.98 243.076 167.976 242.988 167.976H241.428C241.356 167.976 241.24 167.98 241.08 167.988C240.92 167.996 240.804 168 240.732 168C240.612 168 240.552 167.956 240.552 167.868C240.552 167.772 240.576 167.712 240.624 167.688C240.672 167.664 240.764 167.652 240.9 167.652C241.292 167.652 241.536 167.62 241.632 167.556C241.736 167.492 241.816 167.344 241.872 167.112L243.492 160.632C243.524 160.512 243.54 160.432 243.54 160.392C243.54 160.336 243.532 160.296 243.516 160.272C243.5 160.248 243.432 160.228 243.312 160.212C243.2 160.188 243.028 160.176 242.796 160.176C242.676 160.176 242.596 160.172 242.556 160.164C242.524 160.148 242.508 160.108 242.508 160.044C242.508 159.948 242.532 159.888 242.58 159.864C242.628 159.84 242.72 159.828 242.856 159.828H248.544C248.672 159.828 248.756 159.836 248.796 159.852C248.844 159.86 248.868 159.896 248.868 159.96C248.868 159.968 248.864 159.996 248.856 160.044C248.848 160.092 248.844 160.124 248.844 160.14L248.592 162.24C248.576 162.416 248.524 162.504 248.436 162.504C248.348 162.504 248.304 162.46 248.304 162.372C248.304 162.3 248.316 162.216 248.34 162.12C248.364 161.912 248.376 161.696 248.376 161.472C248.376 161.008 248.264 160.676 248.04 160.476C247.824 160.276 247.364 160.176 246.66 160.176H245.052C244.812 160.176 244.66 160.2 244.596 160.248C244.54 160.288 244.484 160.416 244.428 160.632L243.648 163.74H244.74C245.252 163.74 245.604 163.664 245.796 163.512C245.988 163.36 246.148 163.052 246.276 162.588C246.3 162.476 246.32 162.408 246.336 162.384C246.36 162.352 246.396 162.336 246.444 162.336C246.524 162.336 246.564 162.376 246.564 162.456L245.868 165.252C245.844 165.356 245.824 165.424 245.808 165.456C245.792 165.48 245.76 165.492 245.712 165.492C245.624 165.492 245.58 165.448 245.58 165.36C245.58 165.32 245.592 165.276 245.616 165.228C245.672 164.98 245.7 164.784 245.7 164.64C245.7 164.44 245.64 164.3 245.52 164.22C245.408 164.132 245.14 164.088 244.716 164.088H243.564Z" fill="#0000FF"/>
<path d="M248.1 167.598L247.542 169.818C247.47 170.098 247.324 170.318 247.104 170.478C246.884 170.642 246.66 170.724 246.432 170.724C246.296 170.724 246.176 170.694 246.072 170.634C245.972 170.578 245.922 170.492 245.922 170.376C245.922 170.288 245.952 170.214 246.012 170.154C246.072 170.094 246.142 170.064 246.222 170.064C246.286 170.064 246.336 170.082 246.372 170.118C246.408 170.158 246.426 170.204 246.426 170.256C246.426 170.328 246.4 170.39 246.348 170.442C246.3 170.494 246.24 170.528 246.168 170.544C246.244 170.584 246.332 170.604 246.432 170.604C246.592 170.604 246.738 170.53 246.87 170.382C247.002 170.238 247.098 170.052 247.158 169.824L247.728 167.562C247.756 167.438 247.77 167.334 247.77 167.25C247.77 167.066 247.706 166.974 247.578 166.974C247.45 166.974 247.318 167.036 247.182 167.16C247.046 167.28 246.922 167.474 246.81 167.742C246.774 167.794 246.746 167.822 246.726 167.826C246.686 167.826 246.666 167.808 246.666 167.772C246.666 167.76 246.678 167.724 246.702 167.664C246.726 167.6 246.764 167.522 246.816 167.43C246.872 167.338 246.934 167.25 247.002 167.166C247.074 167.078 247.162 167.004 247.266 166.944C247.374 166.884 247.484 166.854 247.596 166.854C247.74 166.854 247.864 166.904 247.968 167.004C248.072 167.1 248.124 167.23 248.124 167.394C248.124 167.466 248.116 167.534 248.1 167.598ZM248.346 165.756C248.346 165.832 248.314 165.9 248.25 165.96C248.19 166.016 248.124 166.044 248.052 166.044C247.992 166.044 247.942 166.024 247.902 165.984C247.866 165.94 247.848 165.894 247.848 165.846C247.848 165.778 247.878 165.714 247.938 165.654C247.998 165.59 248.068 165.558 248.148 165.558C248.196 165.558 248.24 165.574 248.28 165.606C248.324 165.638 248.346 165.688 248.346 165.756ZM249.602 169.524C249.602 169.732 249.562 169.928 249.482 170.112C249.402 170.3 249.322 170.438 249.242 170.526C249.166 170.614 249.116 170.658 249.092 170.658C249.052 170.658 249.032 170.638 249.032 170.598C249.032 170.582 249.054 170.55 249.098 170.502C249.354 170.214 249.482 169.888 249.482 169.524C249.482 169.448 249.478 169.41 249.47 169.41C249.462 169.41 249.454 169.414 249.446 169.422C249.394 169.474 249.328 169.5 249.248 169.5C249.152 169.5 249.078 169.47 249.026 169.41C248.978 169.35 248.954 169.282 248.954 169.206C248.954 169.134 248.98 169.068 249.032 169.008C249.084 168.948 249.154 168.918 249.242 168.918C249.362 168.918 249.452 168.974 249.512 169.086C249.572 169.194 249.602 169.34 249.602 169.524ZM251.639 170.172C251.707 170.08 251.763 169.982 251.807 169.878C251.855 169.778 251.889 169.692 251.909 169.62C251.933 169.548 251.963 169.438 251.999 169.29L251.993 169.284C251.817 169.468 251.617 169.56 251.393 169.56C251.205 169.56 251.039 169.508 250.895 169.404C250.755 169.296 250.685 169.114 250.685 168.858C250.685 168.63 250.783 168.254 250.979 167.73C251.083 167.466 251.135 167.28 251.135 167.172C251.135 167.112 251.125 167.066 251.105 167.034C251.085 167.002 251.065 166.984 251.045 166.98C251.029 166.976 251.007 166.974 250.979 166.974C250.859 166.974 250.745 167.038 250.637 167.166C250.529 167.29 250.441 167.474 250.373 167.718C250.361 167.766 250.349 167.796 250.337 167.808C250.329 167.82 250.313 167.826 250.289 167.826C250.245 167.826 250.223 167.808 250.223 167.772C250.223 167.748 250.237 167.692 250.265 167.604C250.297 167.516 250.341 167.414 250.397 167.298C250.457 167.182 250.539 167.08 250.643 166.992C250.751 166.9 250.869 166.854 250.997 166.854C251.137 166.854 251.251 166.902 251.339 166.998C251.427 167.09 251.471 167.202 251.471 167.334C251.471 167.406 251.437 167.532 251.369 167.712C251.153 168.288 251.045 168.7 251.045 168.948C251.045 169.276 251.167 169.44 251.411 169.44C251.639 169.44 251.841 169.316 252.017 169.068C252.045 169.028 252.071 168.966 252.095 168.882L252.539 167.118C252.575 166.982 252.651 166.914 252.767 166.914C252.811 166.914 252.849 166.928 252.881 166.956C252.913 166.984 252.929 167.02 252.929 167.064C252.929 167.072 252.923 167.106 252.911 167.166L252.323 169.506C252.239 169.842 252.063 170.128 251.795 170.364C251.531 170.604 251.249 170.724 250.949 170.724C250.777 170.724 250.633 170.676 250.517 170.58C250.405 170.484 250.349 170.36 250.349 170.208C250.349 170.08 250.383 169.986 250.451 169.926C250.519 169.87 250.587 169.842 250.655 169.842C250.707 169.842 250.753 169.856 250.793 169.884C250.837 169.916 250.859 169.964 250.859 170.028C250.859 170.1 250.829 170.166 250.769 170.226C250.713 170.29 250.643 170.322 250.559 170.322C250.531 170.322 250.511 170.32 250.499 170.316C250.563 170.508 250.713 170.604 250.949 170.604C251.205 170.604 251.435 170.46 251.639 170.172Z" fill="#0000FF"/>
<path d="M242 157.5H249M249 157.5L247.5 156M249 157.5L247.5 159" stroke="#0000FF" stroke-width="0.6"/>
<path d="M134.564 110.088L133.796 113.148C133.764 113.26 133.748 113.34 133.748 113.388C133.748 113.46 133.76 113.512 133.784 113.544C133.816 113.576 133.904 113.604 134.048 113.628C134.192 113.644 134.416 113.652 134.72 113.652C134.864 113.652 134.956 113.66 134.996 113.676C135.036 113.684 135.056 113.72 135.056 113.784C135.056 113.928 134.972 114 134.804 114C134.716 114 134.58 113.996 134.396 113.988C134.212 113.98 134.076 113.976 133.988 113.976H132.428C132.356 113.976 132.24 113.98 132.08 113.988C131.92 113.996 131.804 114 131.732 114C131.612 114 131.552 113.956 131.552 113.868C131.552 113.772 131.576 113.712 131.624 113.688C131.672 113.664 131.764 113.652 131.9 113.652C132.292 113.652 132.536 113.62 132.632 113.556C132.736 113.492 132.816 113.344 132.872 113.112L134.492 106.632C134.524 106.512 134.54 106.432 134.54 106.392C134.54 106.336 134.532 106.296 134.516 106.272C134.5 106.248 134.432 106.228 134.312 106.212C134.2 106.188 134.028 106.176 133.796 106.176C133.676 106.176 133.596 106.172 133.556 106.164C133.524 106.148 133.508 106.108 133.508 106.044C133.508 105.948 133.532 105.888 133.58 105.864C133.628 105.84 133.72 105.828 133.856 105.828H139.544C139.672 105.828 139.756 105.836 139.796 105.852C139.844 105.86 139.868 105.896 139.868 105.96C139.868 105.968 139.864 105.996 139.856 106.044C139.848 106.092 139.844 106.124 139.844 106.14L139.592 108.24C139.576 108.416 139.524 108.504 139.436 108.504C139.348 108.504 139.304 108.46 139.304 108.372C139.304 108.3 139.316 108.216 139.34 108.12C139.364 107.912 139.376 107.696 139.376 107.472C139.376 107.008 139.264 106.676 139.04 106.476C138.824 106.276 138.364 106.176 137.66 106.176H136.052C135.812 106.176 135.66 106.2 135.596 106.248C135.54 106.288 135.484 106.416 135.428 106.632L134.648 109.74H135.74C136.252 109.74 136.604 109.664 136.796 109.512C136.988 109.36 137.148 109.052 137.276 108.588C137.3 108.476 137.32 108.408 137.336 108.384C137.36 108.352 137.396 108.336 137.444 108.336C137.524 108.336 137.564 108.376 137.564 108.456L136.868 111.252C136.844 111.356 136.824 111.424 136.808 111.456C136.792 111.48 136.76 111.492 136.712 111.492C136.624 111.492 136.58 111.448 136.58 111.36C136.58 111.32 136.592 111.276 136.616 111.228C136.672 110.98 136.7 110.784 136.7 110.64C136.7 110.44 136.64 110.3 136.52 110.22C136.408 110.132 136.14 110.088 135.716 110.088H134.564Z" fill="#0000FF"/>
<path d="M138.698 114.642C138.698 114.662 138.682 114.716 138.65 114.804C138.622 114.892 138.58 114.996 138.524 115.116C138.468 115.232 138.386 115.336 138.278 115.428C138.174 115.516 138.058 115.56 137.93 115.56C137.79 115.56 137.676 115.514 137.588 115.422C137.5 115.33 137.456 115.214 137.456 115.074C137.456 115.002 137.48 114.902 137.528 114.774L137.948 113.658C138.032 113.426 138.074 113.264 138.074 113.172C138.074 113.04 138.022 112.974 137.918 112.974C137.798 112.974 137.684 113.038 137.576 113.166C137.468 113.29 137.38 113.474 137.312 113.718C137.3 113.766 137.288 113.796 137.276 113.808C137.268 113.82 137.252 113.826 137.228 113.826C137.184 113.826 137.162 113.808 137.162 113.772C137.162 113.748 137.176 113.692 137.204 113.604C137.236 113.516 137.28 113.414 137.336 113.298C137.396 113.182 137.478 113.08 137.582 112.992C137.69 112.9 137.808 112.854 137.936 112.854C138.076 112.854 138.19 112.902 138.278 112.998C138.366 113.09 138.41 113.202 138.41 113.334C138.41 113.406 138.39 113.496 138.35 113.604L137.93 114.72C137.838 114.972 137.792 115.146 137.792 115.242C137.792 115.374 137.844 115.44 137.948 115.44C138.06 115.44 138.17 115.382 138.278 115.266C138.386 115.146 138.476 114.96 138.548 114.708C138.56 114.668 138.568 114.642 138.572 114.63C138.58 114.618 138.588 114.608 138.596 114.6C138.604 114.592 138.618 114.588 138.638 114.588C138.678 114.588 138.698 114.606 138.698 114.642ZM138.65 111.756C138.65 111.824 138.62 111.89 138.56 111.954C138.5 112.014 138.43 112.044 138.35 112.044C138.302 112.044 138.256 112.028 138.212 111.996C138.172 111.964 138.152 111.914 138.152 111.846C138.152 111.77 138.182 111.704 138.242 111.648C138.306 111.588 138.374 111.558 138.446 111.558C138.506 111.558 138.554 111.58 138.59 111.624C138.63 111.664 138.65 111.708 138.65 111.756ZM140.174 115.524C140.174 115.732 140.134 115.928 140.054 116.112C139.974 116.3 139.894 116.438 139.814 116.526C139.738 116.614 139.688 116.658 139.664 116.658C139.624 116.658 139.604 116.638 139.604 116.598C139.604 116.582 139.626 116.55 139.67 116.502C139.926 116.214 140.054 115.888 140.054 115.524C140.054 115.448 140.05 115.41 140.042 115.41C140.034 115.41 140.026 115.414 140.018 115.422C139.966 115.474 139.9 115.5 139.82 115.5C139.724 115.5 139.65 115.47 139.598 115.41C139.55 115.35 139.526 115.282 139.526 115.206C139.526 115.134 139.552 115.068 139.604 115.008C139.656 114.948 139.726 114.918 139.814 114.918C139.934 114.918 140.024 114.974 140.084 115.086C140.144 115.194 140.174 115.34 140.174 115.524ZM143.477 113.052C143.393 113 143.291 112.974 143.171 112.974C143.039 112.974 142.923 113.032 142.823 113.148C142.723 113.26 142.649 113.41 142.601 113.598L142.391 114.414C142.311 114.746 142.271 114.954 142.271 115.038C142.271 115.162 142.299 115.26 142.355 115.332C142.411 115.404 142.491 115.44 142.595 115.44C142.743 115.44 142.891 115.374 143.039 115.242C143.187 115.106 143.299 114.914 143.375 114.666C143.395 114.614 143.421 114.588 143.453 114.588C143.493 114.588 143.513 114.606 143.513 114.642C143.513 114.682 143.491 114.75 143.447 114.846C143.407 114.938 143.349 115.04 143.273 115.152C143.201 115.26 143.101 115.356 142.973 115.44C142.849 115.52 142.717 115.56 142.577 115.56C142.445 115.56 142.319 115.522 142.199 115.446C142.083 115.37 142.003 115.25 141.959 115.086C141.799 115.402 141.593 115.56 141.341 115.56C141.197 115.56 141.071 115.528 140.963 115.464C140.855 115.4 140.801 115.31 140.801 115.194C140.801 115.102 140.831 115.026 140.891 114.966C140.955 114.906 141.025 114.876 141.101 114.876C141.161 114.876 141.209 114.894 141.245 114.93C141.285 114.962 141.305 115.008 141.305 115.068C141.305 115.12 141.285 115.178 141.245 115.242C141.205 115.302 141.137 115.342 141.041 115.362C141.125 115.414 141.227 115.44 141.347 115.44C141.619 115.44 141.813 115.21 141.929 114.75L142.133 113.928C142.205 113.64 142.241 113.454 142.241 113.37C142.241 113.27 142.217 113.18 142.169 113.1C142.121 113.016 142.037 112.974 141.917 112.974C141.841 112.974 141.761 112.992 141.677 113.028C141.597 113.06 141.503 113.14 141.395 113.268C141.287 113.396 141.201 113.562 141.137 113.766C141.117 113.806 141.093 113.826 141.065 113.826C141.021 113.826 140.999 113.808 140.999 113.772C140.999 113.732 141.019 113.666 141.059 113.574C141.103 113.478 141.161 113.376 141.233 113.268C141.309 113.156 141.409 113.06 141.533 112.98C141.661 112.896 141.795 112.854 141.935 112.854C142.251 112.854 142.457 113.012 142.553 113.328C142.581 113.268 142.615 113.208 142.655 113.148C142.699 113.088 142.769 113.024 142.865 112.956C142.961 112.888 143.065 112.854 143.177 112.854C143.317 112.854 143.441 112.886 143.549 112.95C143.661 113.014 143.717 113.104 143.717 113.22C143.717 113.304 143.687 113.378 143.627 113.442C143.571 113.506 143.499 113.538 143.411 113.538C143.359 113.538 143.313 113.522 143.273 113.49C143.233 113.458 143.213 113.41 143.213 113.346C143.213 113.282 143.235 113.222 143.279 113.166C143.323 113.106 143.389 113.068 143.477 113.052Z" fill="#0000FF"/>
<path d="M133 103.5H140M140 103.5L138.5 102M140 103.5L138.5 105" stroke="#0000FF" stroke-width="0.6"/>
<path d="M285.564 134.088L284.796 137.148C284.764 137.26 284.748 137.34 284.748 137.388C284.748 137.46 284.76 137.512 284.784 137.544C284.816 137.576 284.904 137.604 285.048 137.628C285.192 137.644 285.416 137.652 285.72 137.652C285.864 137.652 285.956 137.66 285.996 137.676C286.036 137.684 286.056 137.72 286.056 137.784C286.056 137.928 285.972 138 285.804 138C285.716 138 285.58 137.996 285.396 137.988C285.212 137.98 285.076 137.976 284.988 137.976H283.428C283.356 137.976 283.24 137.98 283.08 137.988C282.92 137.996 282.804 138 282.732 138C282.612 138 282.552 137.956 282.552 137.868C282.552 137.772 282.576 137.712 282.624 137.688C282.672 137.664 282.764 137.652 282.9 137.652C283.292 137.652 283.536 137.62 283.632 137.556C283.736 137.492 283.816 137.344 283.872 137.112L285.492 130.632C285.524 130.512 285.54 130.432 285.54 130.392C285.54 130.336 285.532 130.296 285.516 130.272C285.5 130.248 285.432 130.228 285.312 130.212C285.2 130.188 285.028 130.176 284.796 130.176C284.676 130.176 284.596 130.172 284.556 130.164C284.524 130.148 284.508 130.108 284.508 130.044C284.508 129.948 284.532 129.888 284.58 129.864C284.628 129.84 284.72 129.828 284.856 129.828H290.544C290.672 129.828 290.756 129.836 290.796 129.852C290.844 129.86 290.868 129.896 290.868 129.96C290.868 129.968 290.864 129.996 290.856 130.044C290.848 130.092 290.844 130.124 290.844 130.14L290.592 132.24C290.576 132.416 290.524 132.504 290.436 132.504C290.348 132.504 290.304 132.46 290.304 132.372C290.304 132.3 290.316 132.216 290.34 132.12C290.364 131.912 290.376 131.696 290.376 131.472C290.376 131.008 290.264 130.676 290.04 130.476C289.824 130.276 289.364 130.176 288.66 130.176H287.052C286.812 130.176 286.66 130.2 286.596 130.248C286.54 130.288 286.484 130.416 286.428 130.632L285.648 133.74H286.74C287.252 133.74 287.604 133.664 287.796 133.512C287.988 133.36 288.148 133.052 288.276 132.588C288.3 132.476 288.32 132.408 288.336 132.384C288.36 132.352 288.396 132.336 288.444 132.336C288.524 132.336 288.564 132.376 288.564 132.456L287.868 135.252C287.844 135.356 287.824 135.424 287.808 135.456C287.792 135.48 287.76 135.492 287.712 135.492C287.624 135.492 287.58 135.448 287.58 135.36C287.58 135.32 287.592 135.276 287.616 135.228C287.672 134.98 287.7 134.784 287.7 134.64C287.7 134.44 287.64 134.3 287.52 134.22C287.408 134.132 287.14 134.088 286.716 134.088H285.564Z" fill="#0000FF"/>
<path d="M290.1 137.598L289.542 139.818C289.47 140.098 289.324 140.318 289.104 140.478C288.884 140.642 288.66 140.724 288.432 140.724C288.296 140.724 288.176 140.694 288.072 140.634C287.972 140.578 287.922 140.492 287.922 140.376C287.922 140.288 287.952 140.214 288.012 140.154C288.072 140.094 288.142 140.064 288.222 140.064C288.286 140.064 288.336 140.082 288.372 140.118C288.408 140.158 288.426 140.204 288.426 140.256C288.426 140.328 288.4 140.39 288.348 140.442C288.3 140.494 288.24 140.528 288.168 140.544C288.244 140.584 288.332 140.604 288.432 140.604C288.592 140.604 288.738 140.53 288.87 140.382C289.002 140.238 289.098 140.052 289.158 139.824L289.728 137.562C289.756 137.438 289.77 137.334 289.77 137.25C289.77 137.066 289.706 136.974 289.578 136.974C289.45 136.974 289.318 137.036 289.182 137.16C289.046 137.28 288.922 137.474 288.81 137.742C288.774 137.794 288.746 137.822 288.726 137.826C288.686 137.826 288.666 137.808 288.666 137.772C288.666 137.76 288.678 137.724 288.702 137.664C288.726 137.6 288.764 137.522 288.816 137.43C288.872 137.338 288.934 137.25 289.002 137.166C289.074 137.078 289.162 137.004 289.266 136.944C289.374 136.884 289.484 136.854 289.596 136.854C289.74 136.854 289.864 136.904 289.968 137.004C290.072 137.1 290.124 137.23 290.124 137.394C290.124 137.466 290.116 137.534 290.1 137.598ZM290.346 135.756C290.346 135.832 290.314 135.9 290.25 135.96C290.19 136.016 290.124 136.044 290.052 136.044C289.992 136.044 289.942 136.024 289.902 135.984C289.866 135.94 289.848 135.894 289.848 135.846C289.848 135.778 289.878 135.714 289.938 135.654C289.998 135.59 290.068 135.558 290.148 135.558C290.196 135.558 290.24 135.574 290.28 135.606C290.324 135.638 290.346 135.688 290.346 135.756ZM291.602 139.524C291.602 139.732 291.562 139.928 291.482 140.112C291.402 140.3 291.322 140.438 291.242 140.526C291.166 140.614 291.116 140.658 291.092 140.658C291.052 140.658 291.032 140.638 291.032 140.598C291.032 140.582 291.054 140.55 291.098 140.502C291.354 140.214 291.482 139.888 291.482 139.524C291.482 139.448 291.478 139.41 291.47 139.41C291.462 139.41 291.454 139.414 291.446 139.422C291.394 139.474 291.328 139.5 291.248 139.5C291.152 139.5 291.078 139.47 291.026 139.41C290.978 139.35 290.954 139.282 290.954 139.206C290.954 139.134 290.98 139.068 291.032 139.008C291.084 138.948 291.154 138.918 291.242 138.918C291.362 138.918 291.452 138.974 291.512 139.086C291.572 139.194 291.602 139.34 291.602 139.524ZM294.905 137.052C294.821 137 294.719 136.974 294.599 136.974C294.467 136.974 294.351 137.032 294.251 137.148C294.151 137.26 294.077 137.41 294.029 137.598L293.819 138.414C293.739 138.746 293.699 138.954 293.699 139.038C293.699 139.162 293.727 139.26 293.783 139.332C293.839 139.404 293.919 139.44 294.023 139.44C294.171 139.44 294.319 139.374 294.467 139.242C294.615 139.106 294.727 138.914 294.803 138.666C294.823 138.614 294.849 138.588 294.881 138.588C294.921 138.588 294.941 138.606 294.941 138.642C294.941 138.682 294.919 138.75 294.875 138.846C294.835 138.938 294.777 139.04 294.701 139.152C294.629 139.26 294.529 139.356 294.401 139.44C294.277 139.52 294.145 139.56 294.005 139.56C293.873 139.56 293.747 139.522 293.627 139.446C293.511 139.37 293.431 139.25 293.387 139.086C293.227 139.402 293.021 139.56 292.769 139.56C292.625 139.56 292.499 139.528 292.391 139.464C292.283 139.4 292.229 139.31 292.229 139.194C292.229 139.102 292.259 139.026 292.319 138.966C292.383 138.906 292.453 138.876 292.529 138.876C292.589 138.876 292.637 138.894 292.673 138.93C292.713 138.962 292.733 139.008 292.733 139.068C292.733 139.12 292.713 139.178 292.673 139.242C292.633 139.302 292.565 139.342 292.469 139.362C292.553 139.414 292.655 139.44 292.775 139.44C293.047 139.44 293.241 139.21 293.357 138.75L293.561 137.928C293.633 137.64 293.669 137.454 293.669 137.37C293.669 137.27 293.645 137.18 293.597 137.1C293.549 137.016 293.465 136.974 293.345 136.974C293.269 136.974 293.189 136.992 293.105 137.028C293.025 137.06 292.931 137.14 292.823 137.268C292.715 137.396 292.629 137.562 292.565 137.766C292.545 137.806 292.521 137.826 292.493 137.826C292.449 137.826 292.427 137.808 292.427 137.772C292.427 137.732 292.447 137.666 292.487 137.574C292.531 137.478 292.589 137.376 292.661 137.268C292.737 137.156 292.837 137.06 292.961 136.98C293.089 136.896 293.223 136.854 293.363 136.854C293.679 136.854 293.885 137.012 293.981 137.328C294.009 137.268 294.043 137.208 294.083 137.148C294.127 137.088 294.197 137.024 294.293 136.956C294.389 136.888 294.493 136.854 294.605 136.854C294.745 136.854 294.869 136.886 294.977 136.95C295.089 137.014 295.145 137.104 295.145 137.22C295.145 137.304 295.115 137.378 295.055 137.442C294.999 137.506 294.927 137.538 294.839 137.538C294.787 137.538 294.741 137.522 294.701 137.49C294.661 137.458 294.641 137.41 294.641 137.346C294.641 137.282 294.663 137.222 294.707 137.166C294.751 137.106 294.817 137.068 294.905 137.052Z" fill="#0000FF"/>
<path d="M284 127.5H291M291 127.5L289.5 126M291 127.5L289.5 129" stroke="#0000FF" stroke-width="0.6"/>
<path fill-rule="evenodd" clip-rule="evenodd" d="M204.872 117.839L201.966 114.708L206.214 115.156L205.722 116.14L219.136 122.852L219.628 121.869L222.534 125L218.286 124.551L218.778 123.568L205.364 116.855L204.872 117.839Z" fill="#FF9900"/>
<path d="M154.472 139.484L154.076 141.068L153.812 142.148C153.708 142.572 153.644 142.812 153.62 142.868C153.532 143.036 153.396 143.12 153.212 143.12C153.124 143.12 153.048 143.092 152.984 143.036C152.928 142.98 152.9 142.908 152.9 142.82C152.9 142.732 152.972 142.42 153.116 141.884C153.204 141.556 153.284 141.228 153.356 140.9L153.692 139.604C153.828 139.004 153.896 138.636 153.896 138.5C153.896 138.132 153.772 137.948 153.524 137.948C153.308 137.948 153.132 138.076 152.996 138.332C152.868 138.58 152.748 138.924 152.636 139.364C152.604 139.5 152.576 139.584 152.552 139.616C152.536 139.64 152.504 139.652 152.456 139.652C152.368 139.652 152.324 139.616 152.324 139.544C152.324 139.52 152.34 139.444 152.372 139.316C152.404 139.18 152.452 139.016 152.516 138.824C152.58 138.624 152.644 138.46 152.708 138.332C152.916 137.916 153.2 137.708 153.56 137.708C153.84 137.708 154.08 137.804 154.28 137.996C154.488 138.18 154.6 138.436 154.616 138.764C155.12 138.06 155.736 137.708 156.464 137.708C156.888 137.708 157.212 137.816 157.436 138.032C157.66 138.248 157.78 138.528 157.796 138.872C158.324 138.096 158.968 137.708 159.728 137.708C160.168 137.708 160.5 137.824 160.724 138.056C160.948 138.288 161.06 138.592 161.06 138.968C161.06 139.416 160.808 140.312 160.304 141.656C160.176 142.008 160.112 142.284 160.112 142.484C160.112 142.748 160.216 142.88 160.424 142.88C160.664 142.88 160.888 142.756 161.096 142.508C161.312 142.252 161.488 141.888 161.624 141.416C161.648 141.336 161.664 141.284 161.672 141.26C161.688 141.236 161.704 141.216 161.72 141.2C161.736 141.184 161.764 141.176 161.804 141.176C161.884 141.176 161.924 141.212 161.924 141.284C161.924 141.308 161.908 141.38 161.876 141.5C161.844 141.62 161.784 141.776 161.696 141.968C161.616 142.152 161.52 142.328 161.408 142.496C161.304 142.664 161.16 142.812 160.976 142.94C160.792 143.06 160.596 143.12 160.388 143.12C160.108 143.12 159.88 143.028 159.704 142.844C159.528 142.66 159.44 142.428 159.44 142.148C159.44 142.004 159.496 141.784 159.608 141.488C160.096 140.16 160.34 139.26 160.34 138.788C160.34 138.228 160.124 137.948 159.692 137.948C159.444 137.948 159.208 138 158.984 138.104C158.76 138.208 158.576 138.332 158.432 138.476C158.288 138.62 158.16 138.776 158.048 138.944C157.936 139.104 157.856 139.236 157.808 139.34C157.76 139.444 157.732 139.512 157.724 139.544L157.004 142.412C156.956 142.596 156.92 142.728 156.896 142.808C156.872 142.88 156.824 142.948 156.752 143.012C156.68 143.084 156.588 143.12 156.476 143.12C156.388 143.12 156.312 143.092 156.248 143.036C156.192 142.98 156.164 142.908 156.164 142.82C156.164 142.764 156.204 142.584 156.284 142.28C156.316 142.12 156.432 141.66 156.632 140.9L156.932 139.664C157.028 139.288 157.076 138.996 157.076 138.788C157.076 138.228 156.86 137.948 156.428 137.948C155.98 137.948 155.584 138.108 155.24 138.428C155.104 138.54 154.972 138.684 154.844 138.86C154.724 139.028 154.636 139.164 154.58 139.268C154.524 139.372 154.488 139.444 154.472 139.484Z" fill="black"/>
<path d="M164.362 143.642C164.362 143.662 164.346 143.716 164.314 143.804C164.286 143.892 164.244 143.996 164.188 144.116C164.132 144.232 164.05 144.336 163.942 144.428C163.838 144.516 163.722 144.56 163.594 144.56C163.454 144.56 163.34 144.514 163.252 144.422C163.164 144.33 163.12 144.214 163.12 144.074C163.12 144.002 163.144 143.902 163.192 143.774L163.612 142.658C163.696 142.426 163.738 142.264 163.738 142.172C163.738 142.04 163.686 141.974 163.582 141.974C163.462 141.974 163.348 142.038 163.24 142.166C163.132 142.29 163.044 142.474 162.976 142.718C162.964 142.766 162.952 142.796 162.94 142.808C162.932 142.82 162.916 142.826 162.892 142.826C162.848 142.826 162.826 142.808 162.826 142.772C162.826 142.748 162.84 142.692 162.868 142.604C162.9 142.516 162.944 142.414 163 142.298C163.06 142.182 163.142 142.08 163.246 141.992C163.354 141.9 163.472 141.854 163.6 141.854C163.74 141.854 163.854 141.902 163.942 141.998C164.03 142.09 164.074 142.202 164.074 142.334C164.074 142.406 164.054 142.496 164.014 142.604L163.594 143.72C163.502 143.972 163.456 144.146 163.456 144.242C163.456 144.374 163.508 144.44 163.612 144.44C163.724 144.44 163.834 144.382 163.942 144.266C164.05 144.146 164.14 143.96 164.212 143.708C164.224 143.668 164.232 143.642 164.236 143.63C164.244 143.618 164.252 143.608 164.26 143.6C164.268 143.592 164.282 143.588 164.302 143.588C164.342 143.588 164.362 143.606 164.362 143.642ZM164.314 140.756C164.314 140.824 164.284 140.89 164.224 140.954C164.164 141.014 164.094 141.044 164.014 141.044C163.966 141.044 163.92 141.028 163.876 140.996C163.836 140.964 163.816 140.914 163.816 140.846C163.816 140.77 163.846 140.704 163.906 140.648C163.97 140.588 164.038 140.558 164.11 140.558C164.17 140.558 164.218 140.58 164.254 140.624C164.294 140.664 164.314 140.708 164.314 140.756Z" fill="black"/>
<path d="M224.472 175.484L224.076 177.068L223.812 178.148C223.708 178.572 223.644 178.812 223.62 178.868C223.532 179.036 223.396 179.12 223.212 179.12C223.124 179.12 223.048 179.092 222.984 179.036C222.928 178.98 222.9 178.908 222.9 178.82C222.9 178.732 222.972 178.42 223.116 177.884C223.204 177.556 223.284 177.228 223.356 176.9L223.692 175.604C223.828 175.004 223.896 174.636 223.896 174.5C223.896 174.132 223.772 173.948 223.524 173.948C223.308 173.948 223.132 174.076 222.996 174.332C222.868 174.58 222.748 174.924 222.636 175.364C222.604 175.5 222.576 175.584 222.552 175.616C222.536 175.64 222.504 175.652 222.456 175.652C222.368 175.652 222.324 175.616 222.324 175.544C222.324 175.52 222.34 175.444 222.372 175.316C222.404 175.18 222.452 175.016 222.516 174.824C222.58 174.624 222.644 174.46 222.708 174.332C222.916 173.916 223.2 173.708 223.56 173.708C223.84 173.708 224.08 173.804 224.28 173.996C224.488 174.18 224.6 174.436 224.616 174.764C225.12 174.06 225.736 173.708 226.464 173.708C226.888 173.708 227.212 173.816 227.436 174.032C227.66 174.248 227.78 174.528 227.796 174.872C228.324 174.096 228.968 173.708 229.728 173.708C230.168 173.708 230.5 173.824 230.724 174.056C230.948 174.288 231.06 174.592 231.06 174.968C231.06 175.416 230.808 176.312 230.304 177.656C230.176 178.008 230.112 178.284 230.112 178.484C230.112 178.748 230.216 178.88 230.424 178.88C230.664 178.88 230.888 178.756 231.096 178.508C231.312 178.252 231.488 177.888 231.624 177.416C231.648 177.336 231.664 177.284 231.672 177.26C231.688 177.236 231.704 177.216 231.72 177.2C231.736 177.184 231.764 177.176 231.804 177.176C231.884 177.176 231.924 177.212 231.924 177.284C231.924 177.308 231.908 177.38 231.876 177.5C231.844 177.62 231.784 177.776 231.696 177.968C231.616 178.152 231.52 178.328 231.408 178.496C231.304 178.664 231.16 178.812 230.976 178.94C230.792 179.06 230.596 179.12 230.388 179.12C230.108 179.12 229.88 179.028 229.704 178.844C229.528 178.66 229.44 178.428 229.44 178.148C229.44 178.004 229.496 177.784 229.608 177.488C230.096 176.16 230.34 175.26 230.34 174.788C230.34 174.228 230.124 173.948 229.692 173.948C229.444 173.948 229.208 174 228.984 174.104C228.76 174.208 228.576 174.332 228.432 174.476C228.288 174.62 228.16 174.776 228.048 174.944C227.936 175.104 227.856 175.236 227.808 175.34C227.76 175.444 227.732 175.512 227.724 175.544L227.004 178.412C226.956 178.596 226.92 178.728 226.896 178.808C226.872 178.88 226.824 178.948 226.752 179.012C226.68 179.084 226.588 179.12 226.476 179.12C226.388 179.12 226.312 179.092 226.248 179.036C226.192 178.98 226.164 178.908 226.164 178.82C226.164 178.764 226.204 178.584 226.284 178.28C226.316 178.12 226.432 177.66 226.632 176.9L226.932 175.664C227.028 175.288 227.076 174.996 227.076 174.788C227.076 174.228 226.86 173.948 226.428 173.948C225.98 173.948 225.584 174.108 225.24 174.428C225.104 174.54 224.972 174.684 224.844 174.86C224.724 175.028 224.636 175.164 224.58 175.268C224.524 175.372 224.488 175.444 224.472 175.484Z" fill="black"/>
<path d="M234.764 178.598L234.206 180.818C234.134 181.098 233.988 181.318 233.768 181.478C233.548 181.642 233.324 181.724 233.096 181.724C232.96 181.724 232.84 181.694 232.736 181.634C232.636 181.578 232.586 181.492 232.586 181.376C232.586 181.288 232.616 181.214 232.676 181.154C232.736 181.094 232.806 181.064 232.886 181.064C232.95 181.064 233 181.082 233.036 181.118C233.072 181.158 233.09 181.204 233.09 181.256C233.09 181.328 233.064 181.39 233.012 181.442C232.964 181.494 232.904 181.528 232.832 181.544C232.908 181.584 232.996 181.604 233.096 181.604C233.256 181.604 233.402 181.53 233.534 181.382C233.666 181.238 233.762 181.052 233.822 180.824L234.392 178.562C234.42 178.438 234.434 178.334 234.434 178.25C234.434 178.066 234.37 177.974 234.242 177.974C234.114 177.974 233.982 178.036 233.846 178.16C233.71 178.28 233.586 178.474 233.474 178.742C233.438 178.794 233.41 178.822 233.39 178.826C233.35 178.826 233.33 178.808 233.33 178.772C233.33 178.76 233.342 178.724 233.366 178.664C233.39 178.6 233.428 178.522 233.48 178.43C233.536 178.338 233.598 178.25 233.666 178.166C233.738 178.078 233.826 178.004 233.93 177.944C234.038 177.884 234.148 177.854 234.26 177.854C234.404 177.854 234.528 177.904 234.632 178.004C234.736 178.1 234.788 178.23 234.788 178.394C234.788 178.466 234.78 178.534 234.764 178.598ZM235.01 176.756C235.01 176.832 234.978 176.9 234.914 176.96C234.854 177.016 234.788 177.044 234.716 177.044C234.656 177.044 234.606 177.024 234.566 176.984C234.53 176.94 234.512 176.894 234.512 176.846C234.512 176.778 234.542 176.714 234.602 176.654C234.662 176.59 234.732 176.558 234.812 176.558C234.86 176.558 234.904 176.574 234.944 176.606C234.988 176.638 235.01 176.688 235.01 176.756Z" fill="black"/>
</g>
<defs>
<filter id="filter0_d" x="0" y="0" width="406" height="239" filterUnits="userSpaceOnUse" color-interpolation-filters="sRGB">
<feFlood flood-opacity="0" result="BackgroundImageFix"/>
<feColorMatrix in="SourceAlpha" type="matrix" values="0 0 0 0 0 0 0 0 0 0 0 0 0 0 0 0 0 0 127 0"/>
<feOffset dy="4"/>
<feGaussianBlur stdDeviation="8"/>
<feColorMatrix type="matrix" values="0 0 0 0 0 0 0 0 0 0 0 0 0 0 0 0 0 0 0.25 0"/>
<feBlend mode="normal" in2="BackgroundImageFix" result="effect1_dropShadow"/>
<feBlend mode="normal" in="SourceGraphic" in2="effect1_dropShadow" result="shape"/>
</filter>
</defs>
</svg>
