<svg width="406" height="239" viewBox="0 0 406 239" fill="none" xmlns="http://www.w3.org/2000/svg">
<g filter="url(#filter0_d)">
<rect width="374" height="207" transform="translate(16 12)" fill="white"/>
<path d="M16 12H147V219H16V12Z" fill="#E7E7E7"/>
<path d="M248 115.5C248 148.913 220.913 176 187.5 176C154.087 176 127 148.913 127 115.5C127 82.0868 154.087 55 187.5 55C220.913 55 248 82.0868 248 115.5Z" fill="#E7E7E7"/>
<path fill-rule="evenodd" clip-rule="evenodd" d="M147 70.5549V160.445C134.72 149.372 127 133.338 127 115.5C127 97.6625 134.72 81.6279 147 70.5549Z" fill="white"/>
<path d="M147 12V219" stroke="black"/>
<path fill-rule="evenodd" clip-rule="evenodd" d="M187.5 175C220.361 175 247 148.361 247 115.5C247 82.6391 220.361 56 187.5 56C154.639 56 128 82.6391 128 115.5C128 148.361 154.639 175 187.5 175ZM187.5 176C220.913 176 248 148.913 248 115.5C248 82.0868 220.913 55 187.5 55C154.087 55 127 82.0868 127 115.5C127 148.913 154.087 176 187.5 176Z" fill="black"/>
<path d="M184.5 112L191.5 119M184.5 119L191.5 112" stroke="#BE2626" stroke-linecap="round"/>
<path d="M159.664 133.092C159.528 132.996 159.348 132.948 159.124 132.948C158.788 132.948 158.472 133.084 158.176 133.356C158.048 133.468 157.912 133.636 157.768 133.86C157.624 134.084 157.54 134.236 157.516 134.316C157.476 134.5 157.432 134.672 157.384 134.832C157.36 134.92 157.328 135.052 157.288 135.228C157.248 135.396 157.216 135.524 157.192 135.612C157.176 135.676 157.12 135.892 157.024 136.26C156.936 136.62 156.852 136.96 156.772 137.28C156.692 137.592 156.648 137.764 156.64 137.796C156.576 138.012 156.432 138.12 156.208 138.12C156.12 138.12 156.044 138.092 155.98 138.036C155.924 137.98 155.896 137.908 155.896 137.82C155.896 137.732 155.968 137.42 156.112 136.884C156.2 136.556 156.28 136.228 156.352 135.9L156.688 134.604C156.824 134.004 156.892 133.636 156.892 133.5C156.892 133.132 156.768 132.948 156.52 132.948C156.304 132.948 156.128 133.076 155.992 133.332C155.864 133.58 155.744 133.924 155.632 134.364C155.6 134.5 155.572 134.584 155.548 134.616C155.532 134.64 155.5 134.652 155.452 134.652C155.364 134.652 155.32 134.616 155.32 134.544C155.32 134.52 155.336 134.444 155.368 134.316C155.408 134.18 155.456 134.016 155.512 133.824C155.576 133.624 155.64 133.46 155.704 133.332C155.928 132.916 156.212 132.708 156.556 132.708C156.812 132.708 157.04 132.792 157.24 132.96C157.44 133.12 157.56 133.352 157.6 133.656C158.032 133.024 158.544 132.708 159.136 132.708C159.424 132.708 159.656 132.78 159.832 132.924C160.016 133.06 160.108 133.228 160.108 133.428C160.108 133.604 160.048 133.756 159.928 133.884C159.808 134.012 159.664 134.076 159.496 134.076C159.392 134.076 159.3 134.044 159.22 133.98C159.14 133.916 159.1 133.82 159.1 133.692C159.1 133.556 159.148 133.432 159.244 133.32C159.348 133.2 159.488 133.124 159.664 133.092Z" fill="black"/>
<path d="M161.1 137.598L160.542 139.818C160.47 140.098 160.324 140.318 160.104 140.478C159.884 140.642 159.66 140.724 159.432 140.724C159.296 140.724 159.176 140.694 159.072 140.634C158.972 140.578 158.922 140.492 158.922 140.376C158.922 140.288 158.952 140.214 159.012 140.154C159.072 140.094 159.142 140.064 159.222 140.064C159.286 140.064 159.336 140.082 159.372 140.118C159.408 140.158 159.426 140.204 159.426 140.256C159.426 140.328 159.4 140.39 159.348 140.442C159.3 140.494 159.24 140.528 159.168 140.544C159.244 140.584 159.332 140.604 159.432 140.604C159.592 140.604 159.738 140.53 159.87 140.382C160.002 140.238 160.098 140.052 160.158 139.824L160.728 137.562C160.756 137.438 160.77 137.334 160.77 137.25C160.77 137.066 160.706 136.974 160.578 136.974C160.45 136.974 160.318 137.036 160.182 137.16C160.046 137.28 159.922 137.474 159.81 137.742C159.774 137.794 159.746 137.822 159.726 137.826C159.686 137.826 159.666 137.808 159.666 137.772C159.666 137.76 159.678 137.724 159.702 137.664C159.726 137.6 159.764 137.522 159.816 137.43C159.872 137.338 159.934 137.25 160.002 137.166C160.074 137.078 160.162 137.004 160.266 136.944C160.374 136.884 160.484 136.854 160.596 136.854C160.74 136.854 160.864 136.904 160.968 137.004C161.072 137.1 161.124 137.23 161.124 137.394C161.124 137.466 161.116 137.534 161.1 137.598ZM161.346 135.756C161.346 135.832 161.314 135.9 161.25 135.96C161.19 136.016 161.124 136.044 161.052 136.044C160.992 136.044 160.942 136.024 160.902 135.984C160.866 135.94 160.848 135.894 160.848 135.846C160.848 135.778 160.878 135.714 160.938 135.654C160.998 135.59 161.068 135.558 161.148 135.558C161.196 135.558 161.24 135.574 161.28 135.606C161.324 135.638 161.346 135.688 161.346 135.756Z" fill="black"/>
<path d="M187.984 115.185C187.985 102.736 167.524 115.183 167.525 102.003C167.524 115.183 147.064 102.734 147.063 115.182" stroke="#999999" stroke-width="0.5" stroke-linecap="round" stroke-linejoin="round"/>
<path d="M170.188 94.104C170.02 94 169.816 93.948 169.576 93.948C169.312 93.948 169.08 94.064 168.88 94.296C168.68 94.52 168.532 94.82 168.436 95.196L168.016 96.828C167.856 97.492 167.776 97.908 167.776 98.076C167.776 98.324 167.832 98.52 167.944 98.664C168.056 98.808 168.216 98.88 168.424 98.88C168.72 98.88 169.016 98.748 169.312 98.484C169.608 98.212 169.832 97.828 169.984 97.332C170.024 97.228 170.076 97.176 170.14 97.176C170.22 97.176 170.26 97.212 170.26 97.284C170.26 97.364 170.216 97.5 170.128 97.692C170.048 97.876 169.932 98.08 169.78 98.304C169.636 98.52 169.436 98.712 169.18 98.88C168.932 99.04 168.668 99.12 168.388 99.12C168.124 99.12 167.872 99.044 167.632 98.892C167.4 98.74 167.24 98.5 167.152 98.172C166.832 98.804 166.42 99.12 165.916 99.12C165.628 99.12 165.376 99.056 165.16 98.928C164.944 98.8 164.836 98.62 164.836 98.388C164.836 98.204 164.896 98.052 165.016 97.932C165.144 97.812 165.284 97.752 165.436 97.752C165.556 97.752 165.652 97.788 165.724 97.86C165.804 97.924 165.844 98.016 165.844 98.136C165.844 98.24 165.804 98.356 165.724 98.484C165.644 98.604 165.508 98.684 165.316 98.724C165.484 98.828 165.688 98.88 165.928 98.88C166.472 98.88 166.86 98.42 167.092 97.5L167.5 95.856C167.644 95.28 167.716 94.908 167.716 94.74C167.716 94.54 167.668 94.36 167.572 94.2C167.476 94.032 167.308 93.948 167.068 93.948C166.916 93.948 166.756 93.984 166.588 94.056C166.428 94.12 166.24 94.28 166.024 94.536C165.808 94.792 165.636 95.124 165.508 95.532C165.468 95.612 165.42 95.652 165.364 95.652C165.276 95.652 165.232 95.616 165.232 95.544C165.232 95.464 165.272 95.332 165.352 95.148C165.44 94.956 165.556 94.752 165.7 94.536C165.852 94.312 166.052 94.12 166.3 93.96C166.556 93.792 166.824 93.708 167.104 93.708C167.736 93.708 168.148 94.024 168.34 94.656C168.396 94.536 168.464 94.416 168.544 94.296C168.632 94.176 168.772 94.048 168.964 93.912C169.156 93.776 169.364 93.708 169.588 93.708C169.868 93.708 170.116 93.772 170.332 93.9C170.556 94.028 170.668 94.208 170.668 94.44C170.668 94.608 170.608 94.756 170.488 94.884C170.376 95.012 170.232 95.076 170.056 95.076C169.952 95.076 169.86 95.044 169.78 94.98C169.7 94.916 169.66 94.82 169.66 94.692C169.66 94.564 169.704 94.444 169.792 94.332C169.88 94.212 170.012 94.136 170.188 94.104Z" fill="black"/>
<path d="M187.984 116C187.985 128.761 157.766 116.002 157.767 129.514C157.766 116.002 127.549 128.765 127.548 116.004" stroke="#999999" stroke-width="0.5" stroke-linecap="round" stroke-linejoin="round"/>
</g>
<defs>
<filter id="filter0_d" x="0" y="0" width="406" height="239" filterUnits="userSpaceOnUse" color-interpolation-filters="sRGB">
<feFlood flood-opacity="0" result="BackgroundImageFix"/>
<feColorMatrix in="SourceAlpha" type="matrix" values="0 0 0 0 0 0 0 0 0 0 0 0 0 0 0 0 0 0 127 0"/>
<feOffset dy="4"/>
<feGaussianBlur stdDeviation="8"/>
<feColorMatrix type="matrix" values="0 0 0 0 0 0 0 0 0 0 0 0 0 0 0 0 0 0 0.25 0"/>
<feBlend mode="normal" in2="BackgroundImageFix" result="effect1_dropShadow"/>
<feBlend mode="normal" in="SourceGraphic" in2="effect1_dropShadow" result="shape"/>
</filter>
</defs>
</svg>
