<svg width="193" height="124" viewBox="0 0 193 124" fill="none" xmlns="http://www.w3.org/2000/svg">
<g filter="url(#filter0_d)">
<rect width="161" height="92" transform="translate(16 12)" fill="white"/>
<path d="M65.3536 23.6464C65.1583 23.4512 64.8417 23.4512 64.6464 23.6464L61.4645 26.8284C61.2692 27.0237 61.2692 27.3403 61.4645 27.5355C61.6597 27.7308 61.9763 27.7308 62.1716 27.5355L65 24.7071L67.8284 27.5355C68.0237 27.7308 68.3403 27.7308 68.5355 27.5355C68.7308 27.3403 68.7308 27.0237 68.5355 26.8284L65.3536 23.6464ZM65.5 80V24H64.5V80H65.5Z" fill="black"/>
<path d="M125 80V36L105 50L85 65L65 80H125Z" fill="#0000FF" fill-opacity="0.22"/>
<path d="M65 79.5H64.5V80.5H65V79.5ZM156.354 80.3536C156.549 80.1583 156.549 79.8417 156.354 79.6464L153.172 76.4645C152.976 76.2692 152.66 76.2692 152.464 76.4645C152.269 76.6597 152.269 76.9763 152.464 77.1716L155.293 80L152.464 82.8284C152.269 83.0237 152.269 83.3403 152.464 83.5355C152.66 83.7308 152.976 83.7308 153.172 83.5355L156.354 80.3536ZM65 80.5H156V79.5H65V80.5Z" fill="black"/>
<path d="M59.52 89.16C59.52 90.328 59.372 91.232 59.076 91.872C58.644 92.8 57.948 93.264 56.988 93.264C56.628 93.264 56.264 93.172 55.896 92.988C55.536 92.804 55.24 92.492 55.008 92.052C54.648 91.388 54.468 90.424 54.468 89.16C54.468 87.984 54.616 87.076 54.912 86.436C55.328 85.484 56.024 85.008 57 85.008C57.208 85.008 57.42 85.036 57.636 85.092C57.852 85.148 58.096 85.284 58.368 85.5C58.648 85.716 58.872 86 59.04 86.352C59.36 87.032 59.52 87.968 59.52 89.16ZM58.524 89.016C58.524 87.904 58.484 87.124 58.404 86.676C58.3 86.156 58.108 85.792 57.828 85.584C57.548 85.376 57.268 85.272 56.988 85.272C56.884 85.272 56.776 85.288 56.664 85.32C56.552 85.352 56.416 85.412 56.256 85.5C56.096 85.588 55.952 85.744 55.824 85.968C55.704 86.192 55.616 86.472 55.56 86.808C55.496 87.24 55.464 87.976 55.464 89.016C55.464 90.224 55.508 91.068 55.596 91.548C55.692 92.068 55.872 92.44 56.136 92.664C56.408 92.888 56.692 93 56.988 93C57.308 93 57.6 92.88 57.864 92.64C58.136 92.4 58.312 92.02 58.392 91.5C58.48 90.988 58.524 90.16 58.524 89.016Z" fill="black"/>
<path d="M57.398 21.764C57.398 21.96 57.3653 22.2493 57.3 22.632C57.2347 23.0147 57.1227 23.472 56.964 24.004C56.8053 24.5267 56.6093 25.0213 56.376 25.488C56.152 25.9453 55.8533 26.3373 55.48 26.664C55.116 26.9813 54.7147 27.14 54.276 27.14C53.7253 27.14 53.282 26.9953 52.946 26.706C52.6287 26.4167 52.47 25.992 52.47 25.432C52.47 24.9187 52.694 24.0647 53.142 22.87C53.3847 22.254 53.506 21.82 53.506 21.568C53.506 21.428 53.4827 21.3207 53.436 21.246C53.3893 21.1713 53.3427 21.1293 53.296 21.12C53.2587 21.1107 53.2073 21.106 53.142 21.106C52.862 21.106 52.596 21.2507 52.344 21.54C52.092 21.8293 51.8867 22.2633 51.728 22.842C51.7 22.954 51.672 23.024 51.644 23.052C51.6253 23.08 51.588 23.094 51.532 23.094C51.4293 23.094 51.378 23.052 51.378 22.968C51.378 22.912 51.4107 22.7813 51.476 22.576C51.5507 22.3707 51.6533 22.1327 51.784 21.862C51.924 21.5913 52.1153 21.3533 52.358 21.148C52.61 20.9333 52.8853 20.826 53.184 20.826C53.5107 20.826 53.7767 20.938 53.982 21.162C54.1873 21.3767 54.29 21.638 54.29 21.946C54.29 22.1327 54.1967 22.464 54.01 22.94C53.5433 24.1813 53.31 25.0773 53.31 25.628C53.31 26.4493 53.6507 26.86 54.332 26.86C54.724 26.86 55.088 26.692 55.424 26.356C55.7693 26.0107 56.0353 25.6093 56.222 25.152C56.418 24.6853 56.572 24.256 56.684 23.864C56.796 23.4627 56.852 23.1733 56.852 22.996C56.852 22.4733 56.684 22.0627 56.348 21.764C56.2453 21.6613 56.194 21.554 56.194 21.442C56.194 21.302 56.2593 21.1667 56.39 21.036C56.53 20.896 56.6793 20.826 56.838 20.826C56.9033 20.826 56.9687 20.84 57.034 20.868C57.1087 20.896 57.188 20.9893 57.272 21.148C57.356 21.2973 57.398 21.5027 57.398 21.764Z" fill="black"/>
<path d="M161.814 87.372L160.722 91.754C160.694 91.866 160.68 92.0153 160.68 92.202C160.68 92.6407 160.829 92.86 161.128 92.86C161.492 92.86 161.828 92.6873 162.136 92.342C162.453 91.9967 162.701 91.6093 162.878 91.18C162.943 91.0307 162.985 90.9467 163.004 90.928C163.023 90.8907 163.06 90.872 163.116 90.872C163.209 90.872 163.256 90.914 163.256 90.998C163.256 91.026 163.228 91.1147 163.172 91.264C163.116 91.404 163.023 91.5813 162.892 91.796C162.771 92.0107 162.626 92.2207 162.458 92.426C162.299 92.622 162.094 92.79 161.842 92.93C161.599 93.07 161.347 93.14 161.086 93.14C160.713 93.14 160.409 93.0187 160.176 92.776C159.952 92.524 159.84 92.2253 159.84 91.88C159.84 91.7867 159.891 91.516 159.994 91.068L160.918 87.372H159.672C159.588 87.372 159.527 87.372 159.49 87.372C159.462 87.372 159.429 87.3673 159.392 87.358C159.355 87.3487 159.331 87.3347 159.322 87.316C159.313 87.2973 159.308 87.2693 159.308 87.232C159.308 87.1107 159.336 87.036 159.392 87.008C159.448 86.98 159.555 86.966 159.714 86.966H161.03L161.576 84.74C161.66 84.4133 161.842 84.25 162.122 84.25C162.215 84.25 162.299 84.2827 162.374 84.348C162.449 84.4133 162.486 84.4973 162.486 84.6C162.486 84.684 162.467 84.7913 162.43 84.922L161.912 86.966H163.144C163.293 86.966 163.391 86.9753 163.438 86.994C163.485 87.0033 163.508 87.0453 163.508 87.12C163.508 87.232 163.48 87.302 163.424 87.33C163.368 87.358 163.261 87.372 163.102 87.372H161.814Z" fill="black"/>
<path d="M61 65H69" stroke="black"/>
<path d="M61 50H69" stroke="black"/>
<path d="M61 35H69" stroke="black"/>
<path d="M85 76V84" stroke="black"/>
<path d="M105 76V84" stroke="black"/>
<path d="M125 76V84" stroke="black"/>
<path d="M65 80L85 65" stroke="#0000FF" stroke-width="0.7"/>
<path d="M85 65L105 50" stroke="#0000FF" stroke-width="0.7"/>
<path d="M105 50L125 36" stroke="#0000FF" stroke-width="0.7"/>
<path d="M84 64L86 66M84 66L86 64" stroke="#FF0000" stroke-linecap="round"/>
<path d="M104 49L106 51M104 51L106 49" stroke="#FF0000" stroke-linecap="round"/>
<path d="M124 35L126 37M124 37L126 35" stroke="#FF0000" stroke-linecap="round"/>
<path d="M64 79L66 81M64 81L66 79" stroke="#FF0000" stroke-linecap="round"/>
<path d="M30.612 66.572L31.2 64.22C31.232 64.156 31.248 64.092 31.248 64.028C31.248 63.956 31.228 63.848 31.188 63.704C31.148 63.552 31.048 63.388 30.888 63.212C30.736 63.036 30.54 62.948 30.3 62.948C30.06 62.948 29.808 63.06 29.544 63.284C29.288 63.5 29.06 63.812 28.86 64.22C28.732 64.5 28.6 64.912 28.464 65.456C28.328 65.992 28.26 66.416 28.26 66.728C28.26 67.088 28.328 67.372 28.464 67.58C28.6 67.78 28.788 67.88 29.028 67.88C29.484 67.88 29.936 67.596 30.384 67.028C30.488 66.884 30.564 66.732 30.612 66.572ZM31.38 63.5C31.444 63.124 31.612 62.936 31.884 62.936C31.972 62.936 32.044 62.964 32.1 63.02C32.164 63.076 32.196 63.148 32.196 63.236C32.196 63.284 32.012 64.052 31.644 65.54C31.612 65.652 31.572 65.808 31.524 66.008C31.476 66.2 31.436 66.348 31.404 66.452C31.308 66.868 31.26 67.16 31.26 67.328C31.26 67.696 31.384 67.88 31.632 67.88C31.784 67.88 31.92 67.8 32.04 67.64C32.168 67.48 32.264 67.312 32.328 67.136C32.392 66.952 32.46 66.712 32.532 66.416C32.556 66.312 32.576 66.248 32.592 66.224C32.616 66.192 32.652 66.176 32.7 66.176C32.78 66.176 32.82 66.212 32.82 66.284C32.82 66.308 32.804 66.388 32.772 66.524C32.74 66.652 32.692 66.812 32.628 67.004C32.572 67.196 32.516 67.352 32.46 67.472C32.244 67.904 31.956 68.12 31.596 68.12C31.372 68.12 31.156 68.048 30.948 67.904C30.74 67.76 30.608 67.528 30.552 67.208C30.04 67.816 29.52 68.12 28.992 68.12C28.568 68.12 28.208 67.952 27.912 67.616C27.624 67.272 27.48 66.812 27.48 66.236C27.48 65.356 27.776 64.548 28.368 63.812C28.968 63.076 29.612 62.708 30.3 62.708C30.796 62.708 31.156 62.972 31.38 63.5Z" fill="black"/>
<path d="M50.036 59.972L48.344 66.692C48.288 66.916 48.26 67.128 48.26 67.328C48.26 67.696 48.384 67.88 48.632 67.88C48.784 67.88 48.92 67.8 49.04 67.64C49.168 67.48 49.264 67.312 49.328 67.136C49.392 66.952 49.46 66.712 49.532 66.416C49.556 66.312 49.576 66.248 49.592 66.224C49.616 66.192 49.652 66.176 49.7 66.176C49.78 66.176 49.82 66.212 49.82 66.284C49.82 66.308 49.804 66.388 49.772 66.524C49.74 66.652 49.692 66.812 49.628 67.004C49.572 67.196 49.516 67.352 49.46 67.472C49.244 67.904 48.956 68.12 48.596 68.12C48.372 68.12 48.156 68.048 47.948 67.904C47.74 67.76 47.608 67.528 47.552 67.208C47.04 67.816 46.52 68.12 45.992 68.12C45.568 68.12 45.208 67.952 44.912 67.616C44.624 67.272 44.48 66.812 44.48 66.236C44.48 65.356 44.776 64.548 45.368 63.812C45.968 63.076 46.612 62.708 47.3 62.708C47.796 62.708 48.156 62.972 48.38 63.5L49.112 60.584C49.136 60.512 49.148 60.444 49.148 60.38C49.148 60.332 49.14 60.296 49.124 60.272C49.108 60.24 49.052 60.212 48.956 60.188C48.868 60.164 48.732 60.152 48.548 60.152C48.372 60.152 48.284 60.112 48.284 60.032C48.284 59.928 48.308 59.864 48.356 59.84C48.404 59.816 48.508 59.796 48.668 59.78C48.74 59.772 48.84 59.764 48.968 59.756C49.104 59.74 49.204 59.732 49.268 59.732C49.468 59.692 49.688 59.672 49.928 59.672C50.024 59.672 50.072 59.712 50.072 59.792C50.072 59.816 50.06 59.876 50.036 59.972ZM47.612 66.572L48.2 64.22C48.232 64.156 48.248 64.092 48.248 64.028C48.248 63.956 48.228 63.848 48.188 63.704C48.148 63.552 48.048 63.388 47.888 63.212C47.736 63.036 47.54 62.948 47.3 62.948C47.06 62.948 46.808 63.06 46.544 63.284C46.288 63.5 46.06 63.812 45.86 64.22C45.732 64.5 45.6 64.912 45.464 65.456C45.328 65.992 45.26 66.416 45.26 66.728C45.26 67.088 45.328 67.372 45.464 67.58C45.6 67.78 45.788 67.88 46.028 67.88C46.484 67.88 46.936 67.596 47.384 67.028C47.488 66.884 47.564 66.732 47.612 66.572ZM52.5058 63.176L51.5698 66.932C51.5458 67.028 51.5338 67.156 51.5338 67.316C51.5338 67.692 51.6618 67.88 51.9178 67.88C52.2298 67.88 52.5178 67.732 52.7818 67.436C53.0538 67.14 53.2658 66.808 53.4178 66.44C53.4738 66.312 53.5098 66.24 53.5258 66.224C53.5418 66.192 53.5738 66.176 53.6217 66.176C53.7018 66.176 53.7418 66.212 53.7418 66.284C53.7418 66.308 53.7178 66.384 53.6698 66.512C53.6218 66.632 53.5418 66.784 53.4298 66.968C53.3258 67.152 53.2018 67.332 53.0578 67.508C52.9218 67.676 52.7458 67.82 52.5298 67.94C52.3218 68.06 52.1058 68.12 51.8818 68.12C51.5618 68.12 51.3018 68.016 51.1018 67.808C50.9098 67.592 50.8138 67.336 50.8138 67.04C50.8138 66.96 50.8578 66.728 50.9458 66.344L51.7378 63.176H50.6698C50.5978 63.176 50.5458 63.176 50.5138 63.176C50.4898 63.176 50.4618 63.172 50.4298 63.164C50.3978 63.156 50.3778 63.144 50.3698 63.128C50.3618 63.112 50.3578 63.088 50.3578 63.056C50.3578 62.952 50.3818 62.888 50.4298 62.864C50.4778 62.84 50.5698 62.828 50.7058 62.828H51.8338L52.3018 60.92C52.3738 60.64 52.5298 60.5 52.7698 60.5C52.8498 60.5 52.9218 60.528 52.9858 60.584C53.0498 60.64 53.0818 60.712 53.0818 60.8C53.0818 60.872 53.0658 60.964 53.0338 61.076L52.5898 62.828H53.6458C53.7738 62.828 53.8578 62.836 53.8978 62.852C53.9378 62.86 53.9578 62.896 53.9578 62.96C53.9578 63.056 53.9338 63.116 53.8858 63.14C53.8378 63.164 53.7458 63.176 53.6098 63.176H52.5058Z" fill="black"/>
<path d="M37.112 64.556C37.24 64.676 37.304 64.824 37.304 65C37.304 65.176 37.24 65.328 37.112 65.456C36.992 65.576 36.844 65.636 36.668 65.636C36.492 65.636 36.34 65.576 36.212 65.456C36.092 65.328 36.032 65.176 36.032 65C36.032 64.824 36.092 64.676 36.212 64.556C36.34 64.428 36.492 64.364 36.668 64.364C36.844 64.364 36.992 64.428 37.112 64.556ZM43.3678 68C43.0878 67.976 42.4398 67.964 41.4238 67.964C40.4078 67.964 39.7598 67.976 39.4798 68V67.628H39.8638C40.3678 67.628 40.6798 67.592 40.7998 67.52C40.9198 67.448 40.9798 67.292 40.9798 67.052V60.836C40.5638 61.044 40.0398 61.148 39.4078 61.148V60.776C40.3678 60.776 41.0958 60.52 41.5918 60.008C41.7278 60.008 41.8078 60.024 41.8318 60.056C41.8558 60.088 41.8678 60.176 41.8678 60.32V67.052C41.8678 67.292 41.9238 67.448 42.0358 67.52C42.1558 67.592 42.4718 67.628 42.9838 67.628H43.3678V68Z" fill="black"/>
<path d="M89.036 85.972L87.344 92.692C87.288 92.916 87.26 93.128 87.26 93.328C87.26 93.696 87.384 93.88 87.632 93.88C87.784 93.88 87.92 93.8 88.04 93.64C88.168 93.48 88.264 93.312 88.328 93.136C88.392 92.952 88.46 92.712 88.532 92.416C88.556 92.312 88.576 92.248 88.592 92.224C88.616 92.192 88.652 92.176 88.7 92.176C88.78 92.176 88.82 92.212 88.82 92.284C88.82 92.308 88.804 92.388 88.772 92.524C88.74 92.652 88.692 92.812 88.628 93.004C88.572 93.196 88.516 93.352 88.46 93.472C88.244 93.904 87.956 94.12 87.596 94.12C87.372 94.12 87.156 94.048 86.948 93.904C86.74 93.76 86.608 93.528 86.552 93.208C86.04 93.816 85.52 94.12 84.992 94.12C84.568 94.12 84.208 93.952 83.912 93.616C83.624 93.272 83.48 92.812 83.48 92.236C83.48 91.356 83.776 90.548 84.368 89.812C84.968 89.076 85.612 88.708 86.3 88.708C86.796 88.708 87.156 88.972 87.38 89.5L88.112 86.584C88.136 86.512 88.148 86.444 88.148 86.38C88.148 86.332 88.14 86.296 88.124 86.272C88.108 86.24 88.052 86.212 87.956 86.188C87.868 86.164 87.732 86.152 87.548 86.152C87.372 86.152 87.284 86.112 87.284 86.032C87.284 85.928 87.308 85.864 87.356 85.84C87.404 85.816 87.508 85.796 87.668 85.78C87.74 85.772 87.84 85.764 87.968 85.756C88.104 85.74 88.204 85.732 88.268 85.732C88.468 85.692 88.688 85.672 88.928 85.672C89.024 85.672 89.072 85.712 89.072 85.792C89.072 85.816 89.06 85.876 89.036 85.972ZM86.612 92.572L87.2 90.22C87.232 90.156 87.248 90.092 87.248 90.028C87.248 89.956 87.228 89.848 87.188 89.704C87.148 89.552 87.048 89.388 86.888 89.212C86.736 89.036 86.54 88.948 86.3 88.948C86.06 88.948 85.808 89.06 85.544 89.284C85.288 89.5 85.06 89.812 84.86 90.22C84.732 90.5 84.6 90.912 84.464 91.456C84.328 91.992 84.26 92.416 84.26 92.728C84.26 93.088 84.328 93.372 84.464 93.58C84.6 93.78 84.788 93.88 85.028 93.88C85.484 93.88 85.936 93.596 86.384 93.028C86.488 92.884 86.564 92.732 86.612 92.572ZM91.5058 89.176L90.5698 92.932C90.5458 93.028 90.5338 93.156 90.5338 93.316C90.5338 93.692 90.6618 93.88 90.9178 93.88C91.2298 93.88 91.5178 93.732 91.7818 93.436C92.0538 93.14 92.2658 92.808 92.4178 92.44C92.4738 92.312 92.5098 92.24 92.5258 92.224C92.5418 92.192 92.5738 92.176 92.6217 92.176C92.7018 92.176 92.7418 92.212 92.7418 92.284C92.7418 92.308 92.7178 92.384 92.6698 92.512C92.6218 92.632 92.5418 92.784 92.4298 92.968C92.3258 93.152 92.2018 93.332 92.0578 93.508C91.9218 93.676 91.7458 93.82 91.5298 93.94C91.3218 94.06 91.1058 94.12 90.8818 94.12C90.5618 94.12 90.3018 94.016 90.1018 93.808C89.9098 93.592 89.8138 93.336 89.8138 93.04C89.8138 92.96 89.8578 92.728 89.9458 92.344L90.7378 89.176H89.6698C89.5978 89.176 89.5458 89.176 89.5138 89.176C89.4898 89.176 89.4618 89.172 89.4298 89.164C89.3978 89.156 89.3778 89.144 89.3698 89.128C89.3618 89.112 89.3578 89.088 89.3578 89.056C89.3578 88.952 89.3818 88.888 89.4298 88.864C89.4778 88.84 89.5698 88.828 89.7058 88.828H90.8338L91.3018 86.92C91.3738 86.64 91.5298 86.5 91.7698 86.5C91.8498 86.5 91.9218 86.528 91.9858 86.584C92.0498 86.64 92.0818 86.712 92.0818 86.8C92.0818 86.872 92.0658 86.964 92.0338 87.076L91.5898 88.828H92.6458C92.7738 88.828 92.8578 88.836 92.8978 88.852C92.9378 88.86 92.9578 88.896 92.9578 88.96C92.9578 89.056 92.9338 89.116 92.8858 89.14C92.8378 89.164 92.7458 89.176 92.6098 89.176H91.5058Z" fill="black"/>
<path d="M82.028 94C81.748 93.976 81.1 93.964 80.084 93.964C79.068 93.964 78.42 93.976 78.14 94V93.628H78.524C79.028 93.628 79.34 93.592 79.46 93.52C79.58 93.448 79.64 93.292 79.64 93.052V86.836C79.224 87.044 78.7 87.148 78.068 87.148V86.776C79.028 86.776 79.756 86.52 80.252 86.008C80.388 86.008 80.468 86.024 80.492 86.056C80.516 86.088 80.528 86.176 80.528 86.32V93.052C80.528 93.292 80.584 93.448 80.696 93.52C80.816 93.592 81.132 93.628 81.644 93.628H82.028V94Z" fill="black"/>
</g>
<defs>
<filter id="filter0_d" x="0" y="0" width="193" height="124" filterUnits="userSpaceOnUse" color-interpolation-filters="sRGB">
<feFlood flood-opacity="0" result="BackgroundImageFix"/>
<feColorMatrix in="SourceAlpha" type="matrix" values="0 0 0 0 0 0 0 0 0 0 0 0 0 0 0 0 0 0 127 0"/>
<feOffset dy="4"/>
<feGaussianBlur stdDeviation="8"/>
<feColorMatrix type="matrix" values="0 0 0 0 0 0 0 0 0 0 0 0 0 0 0 0 0 0 0.25 0"/>
<feBlend mode="normal" in2="BackgroundImageFix" result="effect1_dropShadow"/>
<feBlend mode="normal" in="SourceGraphic" in2="effect1_dropShadow" result="shape"/>
</filter>
</defs>
</svg>
