<svg width="374" height="207" viewBox="0 0 374 207" fill="none" xmlns="http://www.w3.org/2000/svg">
<rect width="374" height="207" fill="white"/>
<circle cx="132.5" cy="76.5" r="60" fill="#E7E7E7" stroke="black"/>
<circle cx="239.5" cy="131.5" r="60" fill="#E7E7E7" stroke="black"/>
<path d="M128.5 73L135.5 80M128.5 80L135.5 73" stroke="#BE2626" stroke-linecap="round"/>
<path d="M236.5 128L243.5 135M236.5 135L243.5 128" stroke="#BE2626" stroke-linecap="round"/>
<path d="M10 15L362 194" stroke="#808080" stroke-linecap="round" stroke-dasharray="4 3"/>
<path d="M172 97.5L203 37" stroke="#808080" stroke-width="0.3" stroke-linecap="round"/>
<path d="M248 162L259 141.5" stroke="#808080" stroke-width="0.3" stroke-linecap="round"/>
<path d="M203 37L163 17" stroke="#808080" stroke-width="0.3" stroke-linecap="round"/>
<path d="M248 162L229 152.5" stroke="#808080" stroke-width="0.3" stroke-linecap="round"/>
<path d="M203 37L194.34 36.9087L198.591 44.4539L203 37ZM132.368 77.6534L197.487 40.9666L196.751 39.6598L131.632 76.3466L132.368 77.6534Z" fill="#0000D0"/>
<path d="M248 162L250.251 153.638L241.884 155.869L248 162ZM239.275 132.193L245.536 155.671L246.985 155.285L240.725 131.807L239.275 132.193Z" fill="#0000D0"/>
<path d="M163 17L159.112 19.4936L163.216 21.6138L163 17ZM132.355 77.1836L161.703 20.3819L160.992 20.0147L131.645 76.8164L132.355 77.1836Z" fill="#0000D0"/>
<path d="M229 152.5L232.926 150.067L228.856 147.883L229 152.5ZM239.648 131.811L230.35 149.139L231.055 149.517L240.352 132.189L239.648 131.811Z" fill="#0000D0"/>
<path d="M172 97.5L169.494 93.6204L167.387 97.7309L172 97.5ZM131.818 77.356L168.614 96.214L168.979 95.5021L132.182 76.644L131.818 77.356Z" fill="#0000D0"/>
<path d="M259 141.5L256.455 137.646L254.389 141.777L259 141.5ZM239.821 132.358L255.601 140.248L255.959 139.532L240.179 131.642L239.821 132.358Z" fill="#0000D0"/>
<path d="M258.484 159.512C258.484 159.68 258.456 159.928 258.4 160.256C258.344 160.584 258.248 160.976 258.112 161.432C257.976 161.88 257.808 162.304 257.608 162.704C257.416 163.096 257.16 163.432 256.84 163.712C256.528 163.984 256.184 164.12 255.808 164.12C255.336 164.12 254.956 163.996 254.668 163.748C254.396 163.5 254.26 163.136 254.26 162.656C254.26 162.216 254.452 161.484 254.836 160.46C255.044 159.932 255.148 159.56 255.148 159.344C255.148 159.224 255.128 159.132 255.088 159.068C255.048 159.004 255.008 158.968 254.968 158.96C254.936 158.952 254.892 158.948 254.836 158.948C254.596 158.948 254.368 159.072 254.152 159.32C253.936 159.568 253.76 159.94 253.624 160.436C253.6 160.532 253.576 160.592 253.552 160.616C253.536 160.64 253.504 160.652 253.456 160.652C253.368 160.652 253.324 160.616 253.324 160.544C253.324 160.496 253.352 160.384 253.408 160.208C253.472 160.032 253.56 159.828 253.672 159.596C253.792 159.364 253.956 159.16 254.164 158.984C254.38 158.8 254.616 158.708 254.872 158.708C255.152 158.708 255.38 158.804 255.556 158.996C255.732 159.18 255.82 159.404 255.82 159.668C255.82 159.828 255.74 160.112 255.58 160.52C255.18 161.584 254.98 162.352 254.98 162.824C254.98 163.528 255.272 163.88 255.856 163.88C256.192 163.88 256.504 163.736 256.792 163.448C257.088 163.152 257.316 162.808 257.476 162.416C257.644 162.016 257.776 161.648 257.872 161.312C257.968 160.968 258.016 160.72 258.016 160.568C258.016 160.12 257.872 159.768 257.584 159.512C257.496 159.424 257.452 159.332 257.452 159.236C257.452 159.116 257.508 159 257.62 158.888C257.74 158.768 257.868 158.708 258.004 158.708C258.06 158.708 258.116 158.72 258.172 158.744C258.236 158.768 258.304 158.848 258.376 158.984C258.448 159.112 258.484 159.288 258.484 159.512Z" fill="#0000D0"/>
<path d="M261.1 163.598L260.542 165.818C260.47 166.098 260.324 166.318 260.104 166.478C259.884 166.642 259.66 166.724 259.432 166.724C259.296 166.724 259.176 166.694 259.072 166.634C258.972 166.578 258.922 166.492 258.922 166.376C258.922 166.288 258.952 166.214 259.012 166.154C259.072 166.094 259.142 166.064 259.222 166.064C259.286 166.064 259.336 166.082 259.372 166.118C259.408 166.158 259.426 166.204 259.426 166.256C259.426 166.328 259.4 166.39 259.348 166.442C259.3 166.494 259.24 166.528 259.168 166.544C259.244 166.584 259.332 166.604 259.432 166.604C259.592 166.604 259.738 166.53 259.87 166.382C260.002 166.238 260.098 166.052 260.158 165.824L260.728 163.562C260.756 163.438 260.77 163.334 260.77 163.25C260.77 163.066 260.706 162.974 260.578 162.974C260.45 162.974 260.318 163.036 260.182 163.16C260.046 163.28 259.922 163.474 259.81 163.742C259.774 163.794 259.746 163.822 259.726 163.826C259.686 163.826 259.666 163.808 259.666 163.772C259.666 163.76 259.678 163.724 259.702 163.664C259.726 163.6 259.764 163.522 259.816 163.43C259.872 163.338 259.934 163.25 260.002 163.166C260.074 163.078 260.162 163.004 260.266 162.944C260.374 162.884 260.484 162.854 260.596 162.854C260.74 162.854 260.864 162.904 260.968 163.004C261.072 163.1 261.124 163.23 261.124 163.394C261.124 163.466 261.116 163.534 261.1 163.598ZM261.346 161.756C261.346 161.832 261.314 161.9 261.25 161.96C261.19 162.016 261.124 162.044 261.052 162.044C260.992 162.044 260.942 162.024 260.902 161.984C260.866 161.94 260.848 161.894 260.848 161.846C260.848 161.778 260.878 161.714 260.938 161.654C260.998 161.59 261.068 161.558 261.148 161.558C261.196 161.558 261.24 161.574 261.28 161.606C261.324 161.638 261.346 161.688 261.346 161.756Z" fill="#0000D0"/>
<path d="M253 156.5H260M260 156.5L258.5 155M260 156.5L258.5 158" stroke="#0000D0" stroke-width="0.6"/>
<path d="M257.484 129.512C257.484 129.68 257.456 129.928 257.4 130.256C257.344 130.584 257.248 130.976 257.112 131.432C256.976 131.88 256.808 132.304 256.608 132.704C256.416 133.096 256.16 133.432 255.84 133.712C255.528 133.984 255.184 134.12 254.808 134.12C254.336 134.12 253.956 133.996 253.668 133.748C253.396 133.5 253.26 133.136 253.26 132.656C253.26 132.216 253.452 131.484 253.836 130.46C254.044 129.932 254.148 129.56 254.148 129.344C254.148 129.224 254.128 129.132 254.088 129.068C254.048 129.004 254.008 128.968 253.968 128.96C253.936 128.952 253.892 128.948 253.836 128.948C253.596 128.948 253.368 129.072 253.152 129.32C252.936 129.568 252.76 129.94 252.624 130.436C252.6 130.532 252.576 130.592 252.552 130.616C252.536 130.64 252.504 130.652 252.456 130.652C252.368 130.652 252.324 130.616 252.324 130.544C252.324 130.496 252.352 130.384 252.408 130.208C252.472 130.032 252.56 129.828 252.672 129.596C252.792 129.364 252.956 129.16 253.164 128.984C253.38 128.8 253.616 128.708 253.872 128.708C254.152 128.708 254.38 128.804 254.556 128.996C254.732 129.18 254.82 129.404 254.82 129.668C254.82 129.828 254.74 130.112 254.58 130.52C254.18 131.584 253.98 132.352 253.98 132.824C253.98 133.528 254.272 133.88 254.856 133.88C255.192 133.88 255.504 133.736 255.792 133.448C256.088 133.152 256.316 132.808 256.476 132.416C256.644 132.016 256.776 131.648 256.872 131.312C256.968 130.968 257.016 130.72 257.016 130.568C257.016 130.12 256.872 129.768 256.584 129.512C256.496 129.424 256.452 129.332 256.452 129.236C256.452 129.116 256.508 129 256.62 128.888C256.74 128.768 256.868 128.708 257.004 128.708C257.06 128.708 257.116 128.72 257.172 128.744C257.236 128.768 257.304 128.848 257.376 128.984C257.448 129.112 257.484 129.288 257.484 129.512Z" fill="#0000D0"/>
<path d="M260.1 133.598L259.542 135.818C259.47 136.098 259.324 136.318 259.104 136.478C258.884 136.642 258.66 136.724 258.432 136.724C258.296 136.724 258.176 136.694 258.072 136.634C257.972 136.578 257.922 136.492 257.922 136.376C257.922 136.288 257.952 136.214 258.012 136.154C258.072 136.094 258.142 136.064 258.222 136.064C258.286 136.064 258.336 136.082 258.372 136.118C258.408 136.158 258.426 136.204 258.426 136.256C258.426 136.328 258.4 136.39 258.348 136.442C258.3 136.494 258.24 136.528 258.168 136.544C258.244 136.584 258.332 136.604 258.432 136.604C258.592 136.604 258.738 136.53 258.87 136.382C259.002 136.238 259.098 136.052 259.158 135.824L259.728 133.562C259.756 133.438 259.77 133.334 259.77 133.25C259.77 133.066 259.706 132.974 259.578 132.974C259.45 132.974 259.318 133.036 259.182 133.16C259.046 133.28 258.922 133.474 258.81 133.742C258.774 133.794 258.746 133.822 258.726 133.826C258.686 133.826 258.666 133.808 258.666 133.772C258.666 133.76 258.678 133.724 258.702 133.664C258.726 133.6 258.764 133.522 258.816 133.43C258.872 133.338 258.934 133.25 259.002 133.166C259.074 133.078 259.162 133.004 259.266 132.944C259.374 132.884 259.484 132.854 259.596 132.854C259.74 132.854 259.864 132.904 259.968 133.004C260.072 133.1 260.124 133.23 260.124 133.394C260.124 133.466 260.116 133.534 260.1 133.598ZM260.346 131.756C260.346 131.832 260.314 131.9 260.25 131.96C260.19 132.016 260.124 132.044 260.052 132.044C259.992 132.044 259.942 132.024 259.902 131.984C259.866 131.94 259.848 131.894 259.848 131.846C259.848 131.778 259.878 131.714 259.938 131.654C259.998 131.59 260.068 131.558 260.148 131.558C260.196 131.558 260.24 131.574 260.28 131.606C260.324 131.638 260.346 131.688 260.346 131.756ZM261.602 135.524C261.602 135.732 261.562 135.928 261.482 136.112C261.402 136.3 261.322 136.438 261.242 136.526C261.166 136.614 261.116 136.658 261.092 136.658C261.052 136.658 261.032 136.638 261.032 136.598C261.032 136.582 261.054 136.55 261.098 136.502C261.354 136.214 261.482 135.888 261.482 135.524C261.482 135.448 261.478 135.41 261.47 135.41C261.462 135.41 261.454 135.414 261.446 135.422C261.394 135.474 261.328 135.5 261.248 135.5C261.152 135.5 261.078 135.47 261.026 135.41C260.978 135.35 260.954 135.282 260.954 135.206C260.954 135.134 260.98 135.068 261.032 135.008C261.084 134.948 261.154 134.918 261.242 134.918C261.362 134.918 261.452 134.974 261.512 135.086C261.572 135.194 261.602 135.34 261.602 135.524ZM263.867 134.786L264.161 133.61C264.177 133.578 264.185 133.546 264.185 133.514C264.185 133.478 264.175 133.424 264.155 133.352C264.135 133.276 264.085 133.194 264.005 133.106C263.929 133.018 263.831 132.974 263.711 132.974C263.591 132.974 263.465 133.03 263.333 133.142C263.205 133.25 263.091 133.406 262.991 133.61C262.927 133.75 262.861 133.956 262.793 134.228C262.725 134.496 262.691 134.708 262.691 134.864C262.691 135.044 262.725 135.186 262.793 135.29C262.861 135.39 262.955 135.44 263.075 135.44C263.303 135.44 263.529 135.298 263.753 135.014C263.805 134.942 263.843 134.866 263.867 134.786ZM264.251 133.25C264.283 133.062 264.367 132.968 264.503 132.968C264.547 132.968 264.583 132.982 264.611 133.01C264.643 133.038 264.659 133.074 264.659 133.118C264.659 133.142 264.567 133.526 264.383 134.27C264.367 134.326 264.347 134.404 264.323 134.504C264.299 134.6 264.279 134.674 264.263 134.726C264.215 134.934 264.191 135.08 264.191 135.164C264.191 135.348 264.253 135.44 264.377 135.44C264.453 135.44 264.521 135.4 264.581 135.32C264.645 135.24 264.693 135.156 264.725 135.068C264.757 134.976 264.791 134.856 264.827 134.708C264.839 134.656 264.849 134.624 264.857 134.612C264.869 134.596 264.887 134.588 264.911 134.588C264.951 134.588 264.971 134.606 264.971 134.642C264.971 134.654 264.963 134.694 264.947 134.762C264.931 134.826 264.907 134.906 264.875 135.002C264.847 135.098 264.819 135.176 264.791 135.236C264.683 135.452 264.539 135.56 264.359 135.56C264.247 135.56 264.139 135.524 264.035 135.452C263.931 135.38 263.865 135.264 263.837 135.104C263.581 135.408 263.321 135.56 263.057 135.56C262.845 135.56 262.665 135.476 262.517 135.308C262.373 135.136 262.301 134.906 262.301 134.618C262.301 134.178 262.449 133.774 262.745 133.406C263.045 133.038 263.367 132.854 263.711 132.854C263.959 132.854 264.139 132.986 264.251 133.25Z" fill="#0000D0"/>
<path d="M252 126.5H259M259 126.5L257.5 125M259 126.5L257.5 128" stroke="#0000D0" stroke-width="0.6"/>
<path d="M158.484 81.512C158.484 81.68 158.456 81.928 158.4 82.256C158.344 82.584 158.248 82.976 158.112 83.432C157.976 83.88 157.808 84.304 157.608 84.704C157.416 85.096 157.16 85.432 156.84 85.712C156.528 85.984 156.184 86.12 155.808 86.12C155.336 86.12 154.956 85.996 154.668 85.748C154.396 85.5 154.26 85.136 154.26 84.656C154.26 84.216 154.452 83.484 154.836 82.46C155.044 81.932 155.148 81.56 155.148 81.344C155.148 81.224 155.128 81.132 155.088 81.068C155.048 81.004 155.008 80.968 154.968 80.96C154.936 80.952 154.892 80.948 154.836 80.948C154.596 80.948 154.368 81.072 154.152 81.32C153.936 81.568 153.76 81.94 153.624 82.436C153.6 82.532 153.576 82.592 153.552 82.616C153.536 82.64 153.504 82.652 153.456 82.652C153.368 82.652 153.324 82.616 153.324 82.544C153.324 82.496 153.352 82.384 153.408 82.208C153.472 82.032 153.56 81.828 153.672 81.596C153.792 81.364 153.956 81.16 154.164 80.984C154.38 80.8 154.616 80.708 154.872 80.708C155.152 80.708 155.38 80.804 155.556 80.996C155.732 81.18 155.82 81.404 155.82 81.668C155.82 81.828 155.74 82.112 155.58 82.52C155.18 83.584 154.98 84.352 154.98 84.824C154.98 85.528 155.272 85.88 155.856 85.88C156.192 85.88 156.504 85.736 156.792 85.448C157.088 85.152 157.316 84.808 157.476 84.416C157.644 84.016 157.776 83.648 157.872 83.312C157.968 82.968 158.016 82.72 158.016 82.568C158.016 82.12 157.872 81.768 157.584 81.512C157.496 81.424 157.452 81.332 157.452 81.236C157.452 81.116 157.508 81 157.62 80.888C157.74 80.768 157.868 80.708 158.004 80.708C158.06 80.708 158.116 80.72 158.172 80.744C158.236 80.768 158.304 80.848 158.376 80.984C158.448 81.112 158.484 81.288 158.484 81.512Z" fill="#0000D0"/>
<path d="M160.698 86.642C160.698 86.662 160.682 86.716 160.65 86.804C160.622 86.892 160.58 86.996 160.524 87.116C160.468 87.232 160.386 87.336 160.278 87.428C160.174 87.516 160.058 87.56 159.93 87.56C159.79 87.56 159.676 87.514 159.588 87.422C159.5 87.33 159.456 87.214 159.456 87.074C159.456 87.002 159.48 86.902 159.528 86.774L159.948 85.658C160.032 85.426 160.074 85.264 160.074 85.172C160.074 85.04 160.022 84.974 159.918 84.974C159.798 84.974 159.684 85.038 159.576 85.166C159.468 85.29 159.38 85.474 159.312 85.718C159.3 85.766 159.288 85.796 159.276 85.808C159.268 85.82 159.252 85.826 159.228 85.826C159.184 85.826 159.162 85.808 159.162 85.772C159.162 85.748 159.176 85.692 159.204 85.604C159.236 85.516 159.28 85.414 159.336 85.298C159.396 85.182 159.478 85.08 159.582 84.992C159.69 84.9 159.808 84.854 159.936 84.854C160.076 84.854 160.19 84.902 160.278 84.998C160.366 85.09 160.41 85.202 160.41 85.334C160.41 85.406 160.39 85.496 160.35 85.604L159.93 86.72C159.838 86.972 159.792 87.146 159.792 87.242C159.792 87.374 159.844 87.44 159.948 87.44C160.06 87.44 160.17 87.382 160.278 87.266C160.386 87.146 160.476 86.96 160.548 86.708C160.56 86.668 160.568 86.642 160.572 86.63C160.58 86.618 160.588 86.608 160.596 86.6C160.604 86.592 160.618 86.588 160.638 86.588C160.678 86.588 160.698 86.606 160.698 86.642ZM160.65 83.756C160.65 83.824 160.62 83.89 160.56 83.954C160.5 84.014 160.43 84.044 160.35 84.044C160.302 84.044 160.256 84.028 160.212 83.996C160.172 83.964 160.152 83.914 160.152 83.846C160.152 83.77 160.182 83.704 160.242 83.648C160.306 83.588 160.374 83.558 160.446 83.558C160.506 83.558 160.554 83.58 160.59 83.624C160.63 83.664 160.65 83.708 160.65 83.756ZM162.174 87.524C162.174 87.732 162.134 87.928 162.054 88.112C161.974 88.3 161.894 88.438 161.814 88.526C161.738 88.614 161.688 88.658 161.664 88.658C161.624 88.658 161.604 88.638 161.604 88.598C161.604 88.582 161.626 88.55 161.67 88.502C161.926 88.214 162.054 87.888 162.054 87.524C162.054 87.448 162.05 87.41 162.042 87.41C162.034 87.41 162.026 87.414 162.018 87.422C161.966 87.474 161.9 87.5 161.82 87.5C161.724 87.5 161.65 87.47 161.598 87.41C161.55 87.35 161.526 87.282 161.526 87.206C161.526 87.134 161.552 87.068 161.604 87.008C161.656 86.948 161.726 86.918 161.814 86.918C161.934 86.918 162.024 86.974 162.084 87.086C162.144 87.194 162.174 87.34 162.174 87.524ZM164.439 86.786L164.733 85.61C164.749 85.578 164.757 85.546 164.757 85.514C164.757 85.478 164.747 85.424 164.727 85.352C164.707 85.276 164.657 85.194 164.577 85.106C164.501 85.018 164.403 84.974 164.283 84.974C164.163 84.974 164.037 85.03 163.905 85.142C163.777 85.25 163.663 85.406 163.563 85.61C163.499 85.75 163.433 85.956 163.365 86.228C163.297 86.496 163.263 86.708 163.263 86.864C163.263 87.044 163.297 87.186 163.365 87.29C163.433 87.39 163.527 87.44 163.647 87.44C163.875 87.44 164.101 87.298 164.325 87.014C164.377 86.942 164.415 86.866 164.439 86.786ZM164.823 85.25C164.855 85.062 164.939 84.968 165.075 84.968C165.119 84.968 165.155 84.982 165.183 85.01C165.215 85.038 165.231 85.074 165.231 85.118C165.231 85.142 165.139 85.526 164.955 86.27C164.939 86.326 164.919 86.404 164.895 86.504C164.871 86.6 164.851 86.674 164.835 86.726C164.787 86.934 164.763 87.08 164.763 87.164C164.763 87.348 164.825 87.44 164.949 87.44C165.025 87.44 165.093 87.4 165.153 87.32C165.217 87.24 165.265 87.156 165.297 87.068C165.329 86.976 165.363 86.856 165.399 86.708C165.411 86.656 165.421 86.624 165.429 86.612C165.441 86.596 165.459 86.588 165.483 86.588C165.523 86.588 165.543 86.606 165.543 86.642C165.543 86.654 165.535 86.694 165.519 86.762C165.503 86.826 165.479 86.906 165.447 87.002C165.419 87.098 165.391 87.176 165.363 87.236C165.255 87.452 165.111 87.56 164.931 87.56C164.819 87.56 164.711 87.524 164.607 87.452C164.503 87.38 164.437 87.264 164.409 87.104C164.153 87.408 163.893 87.56 163.629 87.56C163.417 87.56 163.237 87.476 163.089 87.308C162.945 87.136 162.873 86.906 162.873 86.618C162.873 86.178 163.021 85.774 163.317 85.406C163.617 85.038 163.939 84.854 164.283 84.854C164.531 84.854 164.711 84.986 164.823 85.25Z" fill="#0000D0"/>
<path d="M153 78.5H160M160 78.5L158.5 77M160 78.5L158.5 80" stroke="#0000D0" stroke-width="0.6"/>
<path d="M134.484 42.512C134.484 42.68 134.456 42.928 134.4 43.256C134.344 43.584 134.248 43.976 134.112 44.432C133.976 44.88 133.808 45.304 133.608 45.704C133.416 46.096 133.16 46.432 132.84 46.712C132.528 46.984 132.184 47.12 131.808 47.12C131.336 47.12 130.956 46.996 130.668 46.748C130.396 46.5 130.26 46.136 130.26 45.656C130.26 45.216 130.452 44.484 130.836 43.46C131.044 42.932 131.148 42.56 131.148 42.344C131.148 42.224 131.128 42.132 131.088 42.068C131.048 42.004 131.008 41.968 130.968 41.96C130.936 41.952 130.892 41.948 130.836 41.948C130.596 41.948 130.368 42.072 130.152 42.32C129.936 42.568 129.76 42.94 129.624 43.436C129.6 43.532 129.576 43.592 129.552 43.616C129.536 43.64 129.504 43.652 129.456 43.652C129.368 43.652 129.324 43.616 129.324 43.544C129.324 43.496 129.352 43.384 129.408 43.208C129.472 43.032 129.56 42.828 129.672 42.596C129.792 42.364 129.956 42.16 130.164 41.984C130.38 41.8 130.616 41.708 130.872 41.708C131.152 41.708 131.38 41.804 131.556 41.996C131.732 42.18 131.82 42.404 131.82 42.668C131.82 42.828 131.74 43.112 131.58 43.52C131.18 44.584 130.98 45.352 130.98 45.824C130.98 46.528 131.272 46.88 131.856 46.88C132.192 46.88 132.504 46.736 132.792 46.448C133.088 46.152 133.316 45.808 133.476 45.416C133.644 45.016 133.776 44.648 133.872 44.312C133.968 43.968 134.016 43.72 134.016 43.568C134.016 43.12 133.872 42.768 133.584 42.512C133.496 42.424 133.452 42.332 133.452 42.236C133.452 42.116 133.508 42 133.62 41.888C133.74 41.768 133.868 41.708 134.004 41.708C134.06 41.708 134.116 41.72 134.172 41.744C134.236 41.768 134.304 41.848 134.376 41.984C134.448 42.112 134.484 42.288 134.484 42.512Z" fill="#0000D0"/>
<path d="M136.698 47.642C136.698 47.662 136.682 47.716 136.65 47.804C136.622 47.892 136.58 47.996 136.524 48.116C136.468 48.232 136.386 48.336 136.278 48.428C136.174 48.516 136.058 48.56 135.93 48.56C135.79 48.56 135.676 48.514 135.588 48.422C135.5 48.33 135.456 48.214 135.456 48.074C135.456 48.002 135.48 47.902 135.528 47.774L135.948 46.658C136.032 46.426 136.074 46.264 136.074 46.172C136.074 46.04 136.022 45.974 135.918 45.974C135.798 45.974 135.684 46.038 135.576 46.166C135.468 46.29 135.38 46.474 135.312 46.718C135.3 46.766 135.288 46.796 135.276 46.808C135.268 46.82 135.252 46.826 135.228 46.826C135.184 46.826 135.162 46.808 135.162 46.772C135.162 46.748 135.176 46.692 135.204 46.604C135.236 46.516 135.28 46.414 135.336 46.298C135.396 46.182 135.478 46.08 135.582 45.992C135.69 45.9 135.808 45.854 135.936 45.854C136.076 45.854 136.19 45.902 136.278 45.998C136.366 46.09 136.41 46.202 136.41 46.334C136.41 46.406 136.39 46.496 136.35 46.604L135.93 47.72C135.838 47.972 135.792 48.146 135.792 48.242C135.792 48.374 135.844 48.44 135.948 48.44C136.06 48.44 136.17 48.382 136.278 48.266C136.386 48.146 136.476 47.96 136.548 47.708C136.56 47.668 136.568 47.642 136.572 47.63C136.58 47.618 136.588 47.608 136.596 47.6C136.604 47.592 136.618 47.588 136.638 47.588C136.678 47.588 136.698 47.606 136.698 47.642ZM136.65 44.756C136.65 44.824 136.62 44.89 136.56 44.954C136.5 45.014 136.43 45.044 136.35 45.044C136.302 45.044 136.256 45.028 136.212 44.996C136.172 44.964 136.152 44.914 136.152 44.846C136.152 44.77 136.182 44.704 136.242 44.648C136.306 44.588 136.374 44.558 136.446 44.558C136.506 44.558 136.554 44.58 136.59 44.624C136.63 44.664 136.65 44.708 136.65 44.756ZM138.174 48.524C138.174 48.732 138.134 48.928 138.054 49.112C137.974 49.3 137.894 49.438 137.814 49.526C137.738 49.614 137.688 49.658 137.664 49.658C137.624 49.658 137.604 49.638 137.604 49.598C137.604 49.582 137.626 49.55 137.67 49.502C137.926 49.214 138.054 48.888 138.054 48.524C138.054 48.448 138.05 48.41 138.042 48.41C138.034 48.41 138.026 48.414 138.018 48.422C137.966 48.474 137.9 48.5 137.82 48.5C137.724 48.5 137.65 48.47 137.598 48.41C137.55 48.35 137.526 48.282 137.526 48.206C137.526 48.134 137.552 48.068 137.604 48.008C137.656 47.948 137.726 47.918 137.814 47.918C137.934 47.918 138.024 47.974 138.084 48.086C138.144 48.194 138.174 48.34 138.174 48.524ZM140.019 44.486L139.581 46.232C139.821 45.98 140.057 45.854 140.289 45.854C140.513 45.854 140.695 45.942 140.835 46.118C140.979 46.294 141.051 46.52 141.051 46.796C141.051 47.232 140.901 47.636 140.601 48.008C140.305 48.376 139.983 48.56 139.635 48.56C139.427 48.56 139.253 48.478 139.113 48.314C138.973 48.15 138.903 47.922 138.903 47.63C138.903 47.51 138.913 47.4 138.933 47.3C138.941 47.264 139.083 46.694 139.359 45.59L139.503 45.014C139.507 44.99 139.515 44.952 139.527 44.9C139.543 44.844 139.555 44.798 139.563 44.762C139.571 44.726 139.575 44.702 139.575 44.69C139.575 44.662 139.571 44.642 139.563 44.63C139.559 44.618 139.533 44.606 139.485 44.594C139.437 44.582 139.365 44.576 139.269 44.576C139.189 44.576 139.149 44.556 139.149 44.516C139.149 44.464 139.159 44.432 139.179 44.42C139.203 44.408 139.255 44.398 139.335 44.39C139.371 44.386 139.421 44.382 139.485 44.378C139.553 44.37 139.603 44.366 139.635 44.366C139.815 44.346 139.925 44.336 139.965 44.336C140.013 44.336 140.037 44.356 140.037 44.396C140.037 44.408 140.031 44.438 140.019 44.486ZM139.641 48.44C139.773 48.44 139.903 48.382 140.031 48.266C140.159 48.146 140.263 48 140.343 47.828C140.419 47.672 140.491 47.456 140.559 47.18C140.627 46.904 140.661 46.694 140.661 46.55C140.661 46.382 140.627 46.244 140.559 46.136C140.495 46.028 140.401 45.974 140.277 45.974C140.157 45.974 140.033 46.022 139.905 46.118C139.777 46.21 139.679 46.3 139.611 46.388C139.547 46.472 139.511 46.528 139.503 46.556C139.467 46.672 139.421 46.852 139.365 47.096C139.281 47.424 139.239 47.668 139.239 47.828C139.239 48.044 139.277 48.2 139.353 48.296C139.433 48.392 139.529 48.44 139.641 48.44Z" fill="#0000D0"/>
<path d="M129 39.5H136M136 39.5L134.5 38M136 39.5L134.5 41" stroke="#0000D0" stroke-width="0.6"/>
<path d="M208.484 47.512C208.484 47.68 208.456 47.928 208.4 48.256C208.344 48.584 208.248 48.976 208.112 49.432C207.976 49.88 207.808 50.304 207.608 50.704C207.416 51.096 207.16 51.432 206.84 51.712C206.528 51.984 206.184 52.12 205.808 52.12C205.336 52.12 204.956 51.996 204.668 51.748C204.396 51.5 204.26 51.136 204.26 50.656C204.26 50.216 204.452 49.484 204.836 48.46C205.044 47.932 205.148 47.56 205.148 47.344C205.148 47.224 205.128 47.132 205.088 47.068C205.048 47.004 205.008 46.968 204.968 46.96C204.936 46.952 204.892 46.948 204.836 46.948C204.596 46.948 204.368 47.072 204.152 47.32C203.936 47.568 203.76 47.94 203.624 48.436C203.6 48.532 203.576 48.592 203.552 48.616C203.536 48.64 203.504 48.652 203.456 48.652C203.368 48.652 203.324 48.616 203.324 48.544C203.324 48.496 203.352 48.384 203.408 48.208C203.472 48.032 203.56 47.828 203.672 47.596C203.792 47.364 203.956 47.16 204.164 46.984C204.38 46.8 204.616 46.708 204.872 46.708C205.152 46.708 205.38 46.804 205.556 46.996C205.732 47.18 205.82 47.404 205.82 47.668C205.82 47.828 205.74 48.112 205.58 48.52C205.18 49.584 204.98 50.352 204.98 50.824C204.98 51.528 205.272 51.88 205.856 51.88C206.192 51.88 206.504 51.736 206.792 51.448C207.088 51.152 207.316 50.808 207.476 50.416C207.644 50.016 207.776 49.648 207.872 49.312C207.968 48.968 208.016 48.72 208.016 48.568C208.016 48.12 207.872 47.768 207.584 47.512C207.496 47.424 207.452 47.332 207.452 47.236C207.452 47.116 207.508 47 207.62 46.888C207.74 46.768 207.868 46.708 208.004 46.708C208.06 46.708 208.116 46.72 208.172 46.744C208.236 46.768 208.304 46.848 208.376 46.984C208.448 47.112 208.484 47.288 208.484 47.512Z" fill="#0000D0"/>
<path d="M210.698 52.642C210.698 52.662 210.682 52.716 210.65 52.804C210.622 52.892 210.58 52.996 210.524 53.116C210.468 53.232 210.386 53.336 210.278 53.428C210.174 53.516 210.058 53.56 209.93 53.56C209.79 53.56 209.676 53.514 209.588 53.422C209.5 53.33 209.456 53.214 209.456 53.074C209.456 53.002 209.48 52.902 209.528 52.774L209.948 51.658C210.032 51.426 210.074 51.264 210.074 51.172C210.074 51.04 210.022 50.974 209.918 50.974C209.798 50.974 209.684 51.038 209.576 51.166C209.468 51.29 209.38 51.474 209.312 51.718C209.3 51.766 209.288 51.796 209.276 51.808C209.268 51.82 209.252 51.826 209.228 51.826C209.184 51.826 209.162 51.808 209.162 51.772C209.162 51.748 209.176 51.692 209.204 51.604C209.236 51.516 209.28 51.414 209.336 51.298C209.396 51.182 209.478 51.08 209.582 50.992C209.69 50.9 209.808 50.854 209.936 50.854C210.076 50.854 210.19 50.902 210.278 50.998C210.366 51.09 210.41 51.202 210.41 51.334C210.41 51.406 210.39 51.496 210.35 51.604L209.93 52.72C209.838 52.972 209.792 53.146 209.792 53.242C209.792 53.374 209.844 53.44 209.948 53.44C210.06 53.44 210.17 53.382 210.278 53.266C210.386 53.146 210.476 52.96 210.548 52.708C210.56 52.668 210.568 52.642 210.572 52.63C210.58 52.618 210.588 52.608 210.596 52.6C210.604 52.592 210.618 52.588 210.638 52.588C210.678 52.588 210.698 52.606 210.698 52.642ZM210.65 49.756C210.65 49.824 210.62 49.89 210.56 49.954C210.5 50.014 210.43 50.044 210.35 50.044C210.302 50.044 210.256 50.028 210.212 49.996C210.172 49.964 210.152 49.914 210.152 49.846C210.152 49.77 210.182 49.704 210.242 49.648C210.306 49.588 210.374 49.558 210.446 49.558C210.506 49.558 210.554 49.58 210.59 49.624C210.63 49.664 210.65 49.708 210.65 49.756Z" fill="#0000D0"/>
<path d="M203 44.5H210M210 44.5L208.5 43M210 44.5L208.5 46" stroke="#0000D0" stroke-width="0.6"/>
<path d="M220.484 139.512C220.484 139.68 220.456 139.928 220.4 140.256C220.344 140.584 220.248 140.976 220.112 141.432C219.976 141.88 219.808 142.304 219.608 142.704C219.416 143.096 219.16 143.432 218.84 143.712C218.528 143.984 218.184 144.12 217.808 144.12C217.336 144.12 216.956 143.996 216.668 143.748C216.396 143.5 216.26 143.136 216.26 142.656C216.26 142.216 216.452 141.484 216.836 140.46C217.044 139.932 217.148 139.56 217.148 139.344C217.148 139.224 217.128 139.132 217.088 139.068C217.048 139.004 217.008 138.968 216.968 138.96C216.936 138.952 216.892 138.948 216.836 138.948C216.596 138.948 216.368 139.072 216.152 139.32C215.936 139.568 215.76 139.94 215.624 140.436C215.6 140.532 215.576 140.592 215.552 140.616C215.536 140.64 215.504 140.652 215.456 140.652C215.368 140.652 215.324 140.616 215.324 140.544C215.324 140.496 215.352 140.384 215.408 140.208C215.472 140.032 215.56 139.828 215.672 139.596C215.792 139.364 215.956 139.16 216.164 138.984C216.38 138.8 216.616 138.708 216.872 138.708C217.152 138.708 217.38 138.804 217.556 138.996C217.732 139.18 217.82 139.404 217.82 139.668C217.82 139.828 217.74 140.112 217.58 140.52C217.18 141.584 216.98 142.352 216.98 142.824C216.98 143.528 217.272 143.88 217.856 143.88C218.192 143.88 218.504 143.736 218.792 143.448C219.088 143.152 219.316 142.808 219.476 142.416C219.644 142.016 219.776 141.648 219.872 141.312C219.968 140.968 220.016 140.72 220.016 140.568C220.016 140.12 219.872 139.768 219.584 139.512C219.496 139.424 219.452 139.332 219.452 139.236C219.452 139.116 219.508 139 219.62 138.888C219.74 138.768 219.868 138.708 220.004 138.708C220.06 138.708 220.116 138.72 220.172 138.744C220.236 138.768 220.304 138.848 220.376 138.984C220.448 139.112 220.484 139.288 220.484 139.512Z" fill="#0000D0"/>
<path d="M223.1 143.598L222.542 145.818C222.47 146.098 222.324 146.318 222.104 146.478C221.884 146.642 221.66 146.724 221.432 146.724C221.296 146.724 221.176 146.694 221.072 146.634C220.972 146.578 220.922 146.492 220.922 146.376C220.922 146.288 220.952 146.214 221.012 146.154C221.072 146.094 221.142 146.064 221.222 146.064C221.286 146.064 221.336 146.082 221.372 146.118C221.408 146.158 221.426 146.204 221.426 146.256C221.426 146.328 221.4 146.39 221.348 146.442C221.3 146.494 221.24 146.528 221.168 146.544C221.244 146.584 221.332 146.604 221.432 146.604C221.592 146.604 221.738 146.53 221.87 146.382C222.002 146.238 222.098 146.052 222.158 145.824L222.728 143.562C222.756 143.438 222.77 143.334 222.77 143.25C222.77 143.066 222.706 142.974 222.578 142.974C222.45 142.974 222.318 143.036 222.182 143.16C222.046 143.28 221.922 143.474 221.81 143.742C221.774 143.794 221.746 143.822 221.726 143.826C221.686 143.826 221.666 143.808 221.666 143.772C221.666 143.76 221.678 143.724 221.702 143.664C221.726 143.6 221.764 143.522 221.816 143.43C221.872 143.338 221.934 143.25 222.002 143.166C222.074 143.078 222.162 143.004 222.266 142.944C222.374 142.884 222.484 142.854 222.596 142.854C222.74 142.854 222.864 142.904 222.968 143.004C223.072 143.1 223.124 143.23 223.124 143.394C223.124 143.466 223.116 143.534 223.1 143.598ZM223.346 141.756C223.346 141.832 223.314 141.9 223.25 141.96C223.19 142.016 223.124 142.044 223.052 142.044C222.992 142.044 222.942 142.024 222.902 141.984C222.866 141.94 222.848 141.894 222.848 141.846C222.848 141.778 222.878 141.714 222.938 141.654C222.998 141.59 223.068 141.558 223.148 141.558C223.196 141.558 223.24 141.574 223.28 141.606C223.324 141.638 223.346 141.688 223.346 141.756ZM224.602 145.524C224.602 145.732 224.562 145.928 224.482 146.112C224.402 146.3 224.322 146.438 224.242 146.526C224.166 146.614 224.116 146.658 224.092 146.658C224.052 146.658 224.032 146.638 224.032 146.598C224.032 146.582 224.054 146.55 224.098 146.502C224.354 146.214 224.482 145.888 224.482 145.524C224.482 145.448 224.478 145.41 224.47 145.41C224.462 145.41 224.454 145.414 224.446 145.422C224.394 145.474 224.328 145.5 224.248 145.5C224.152 145.5 224.078 145.47 224.026 145.41C223.978 145.35 223.954 145.282 223.954 145.206C223.954 145.134 223.98 145.068 224.032 145.008C224.084 144.948 224.154 144.918 224.242 144.918C224.362 144.918 224.452 144.974 224.512 145.086C224.572 145.194 224.602 145.34 224.602 145.524ZM226.447 141.486L226.009 143.232C226.249 142.98 226.485 142.854 226.717 142.854C226.941 142.854 227.123 142.942 227.263 143.118C227.407 143.294 227.479 143.52 227.479 143.796C227.479 144.232 227.329 144.636 227.029 145.008C226.733 145.376 226.411 145.56 226.063 145.56C225.855 145.56 225.681 145.478 225.541 145.314C225.401 145.15 225.331 144.922 225.331 144.63C225.331 144.51 225.341 144.4 225.361 144.3C225.369 144.264 225.511 143.694 225.787 142.59L225.931 142.014C225.935 141.99 225.943 141.952 225.955 141.9C225.971 141.844 225.983 141.798 225.991 141.762C225.999 141.726 226.003 141.702 226.003 141.69C226.003 141.662 225.999 141.642 225.991 141.63C225.987 141.618 225.961 141.606 225.913 141.594C225.865 141.582 225.793 141.576 225.697 141.576C225.617 141.576 225.577 141.556 225.577 141.516C225.577 141.464 225.587 141.432 225.607 141.42C225.631 141.408 225.683 141.398 225.763 141.39C225.799 141.386 225.849 141.382 225.913 141.378C225.981 141.37 226.031 141.366 226.063 141.366C226.243 141.346 226.353 141.336 226.393 141.336C226.441 141.336 226.465 141.356 226.465 141.396C226.465 141.408 226.459 141.438 226.447 141.486ZM226.069 145.44C226.201 145.44 226.331 145.382 226.459 145.266C226.587 145.146 226.691 145 226.771 144.828C226.847 144.672 226.919 144.456 226.987 144.18C227.055 143.904 227.089 143.694 227.089 143.55C227.089 143.382 227.055 143.244 226.987 143.136C226.923 143.028 226.829 142.974 226.705 142.974C226.585 142.974 226.461 143.022 226.333 143.118C226.205 143.21 226.107 143.3 226.039 143.388C225.975 143.472 225.939 143.528 225.931 143.556C225.895 143.672 225.849 143.852 225.793 144.096C225.709 144.424 225.667 144.668 225.667 144.828C225.667 145.044 225.705 145.2 225.781 145.296C225.861 145.392 225.957 145.44 226.069 145.44Z" fill="#0000D0"/>
<path d="M215 136.5H222M222 136.5L220.5 135M222 136.5L220.5 138" stroke="#0000D0" stroke-width="0.6"/>
<path d="M95.472 100.484L95.076 102.068L94.812 103.148C94.708 103.572 94.644 103.812 94.62 103.868C94.532 104.036 94.396 104.12 94.212 104.12C94.124 104.12 94.048 104.092 93.984 104.036C93.928 103.98 93.9 103.908 93.9 103.82C93.9 103.732 93.972 103.42 94.116 102.884C94.204 102.556 94.284 102.228 94.356 101.9L94.692 100.604C94.828 100.004 94.896 99.636 94.896 99.5C94.896 99.132 94.772 98.948 94.524 98.948C94.308 98.948 94.132 99.076 93.996 99.332C93.868 99.58 93.748 99.924 93.636 100.364C93.604 100.5 93.576 100.584 93.552 100.616C93.536 100.64 93.504 100.652 93.456 100.652C93.368 100.652 93.324 100.616 93.324 100.544C93.324 100.52 93.34 100.444 93.372 100.316C93.404 100.18 93.452 100.016 93.516 99.824C93.58 99.624 93.644 99.46 93.708 99.332C93.916 98.916 94.2 98.708 94.56 98.708C94.84 98.708 95.08 98.804 95.28 98.996C95.488 99.18 95.6 99.436 95.616 99.764C96.12 99.06 96.736 98.708 97.464 98.708C97.888 98.708 98.212 98.816 98.436 99.032C98.66 99.248 98.78 99.528 98.796 99.872C99.324 99.096 99.968 98.708 100.728 98.708C101.168 98.708 101.5 98.824 101.724 99.056C101.948 99.288 102.06 99.592 102.06 99.968C102.06 100.416 101.808 101.312 101.304 102.656C101.176 103.008 101.112 103.284 101.112 103.484C101.112 103.748 101.216 103.88 101.424 103.88C101.664 103.88 101.888 103.756 102.096 103.508C102.312 103.252 102.488 102.888 102.624 102.416C102.648 102.336 102.664 102.284 102.672 102.26C102.688 102.236 102.704 102.216 102.72 102.2C102.736 102.184 102.764 102.176 102.804 102.176C102.884 102.176 102.924 102.212 102.924 102.284C102.924 102.308 102.908 102.38 102.876 102.5C102.844 102.62 102.784 102.776 102.696 102.968C102.616 103.152 102.52 103.328 102.408 103.496C102.304 103.664 102.16 103.812 101.976 103.94C101.792 104.06 101.596 104.12 101.388 104.12C101.108 104.12 100.88 104.028 100.704 103.844C100.528 103.66 100.44 103.428 100.44 103.148C100.44 103.004 100.496 102.784 100.608 102.488C101.096 101.16 101.34 100.26 101.34 99.788C101.34 99.228 101.124 98.948 100.692 98.948C100.444 98.948 100.208 99 99.984 99.104C99.76 99.208 99.576 99.332 99.432 99.476C99.288 99.62 99.16 99.776 99.048 99.944C98.936 100.104 98.856 100.236 98.808 100.34C98.76 100.444 98.732 100.512 98.724 100.544L98.004 103.412C97.956 103.596 97.92 103.728 97.896 103.808C97.872 103.88 97.824 103.948 97.752 104.012C97.68 104.084 97.588 104.12 97.476 104.12C97.388 104.12 97.312 104.092 97.248 104.036C97.192 103.98 97.164 103.908 97.164 103.82C97.164 103.764 97.204 103.584 97.284 103.28C97.316 103.12 97.432 102.66 97.632 101.9L97.932 100.664C98.028 100.288 98.076 99.996 98.076 99.788C98.076 99.228 97.86 98.948 97.428 98.948C96.98 98.948 96.584 99.108 96.24 99.428C96.104 99.54 95.972 99.684 95.844 99.86C95.724 100.028 95.636 100.164 95.58 100.268C95.524 100.372 95.488 100.444 95.472 100.484Z" fill="black"/>
<path d="M105.362 104.642C105.362 104.662 105.346 104.716 105.314 104.804C105.286 104.892 105.244 104.996 105.188 105.116C105.132 105.232 105.05 105.336 104.942 105.428C104.838 105.516 104.722 105.56 104.594 105.56C104.454 105.56 104.34 105.514 104.252 105.422C104.164 105.33 104.12 105.214 104.12 105.074C104.12 105.002 104.144 104.902 104.192 104.774L104.612 103.658C104.696 103.426 104.738 103.264 104.738 103.172C104.738 103.04 104.686 102.974 104.582 102.974C104.462 102.974 104.348 103.038 104.24 103.166C104.132 103.29 104.044 103.474 103.976 103.718C103.964 103.766 103.952 103.796 103.94 103.808C103.932 103.82 103.916 103.826 103.892 103.826C103.848 103.826 103.826 103.808 103.826 103.772C103.826 103.748 103.84 103.692 103.868 103.604C103.9 103.516 103.944 103.414 104 103.298C104.06 103.182 104.142 103.08 104.246 102.992C104.354 102.9 104.472 102.854 104.6 102.854C104.74 102.854 104.854 102.902 104.942 102.998C105.03 103.09 105.074 103.202 105.074 103.334C105.074 103.406 105.054 103.496 105.014 103.604L104.594 104.72C104.502 104.972 104.456 105.146 104.456 105.242C104.456 105.374 104.508 105.44 104.612 105.44C104.724 105.44 104.834 105.382 104.942 105.266C105.05 105.146 105.14 104.96 105.212 104.708C105.224 104.668 105.232 104.642 105.236 104.63C105.244 104.618 105.252 104.608 105.26 104.6C105.268 104.592 105.282 104.588 105.302 104.588C105.342 104.588 105.362 104.606 105.362 104.642ZM105.314 101.756C105.314 101.824 105.284 101.89 105.224 101.954C105.164 102.014 105.094 102.044 105.014 102.044C104.966 102.044 104.92 102.028 104.876 101.996C104.836 101.964 104.816 101.914 104.816 101.846C104.816 101.77 104.846 101.704 104.906 101.648C104.97 101.588 105.038 101.558 105.11 101.558C105.17 101.558 105.218 101.58 105.254 101.624C105.294 101.664 105.314 101.708 105.314 101.756Z" fill="black"/>
<path d="M269.472 105.484L269.076 107.068L268.812 108.148C268.708 108.572 268.644 108.812 268.62 108.868C268.532 109.036 268.396 109.12 268.212 109.12C268.124 109.12 268.048 109.092 267.984 109.036C267.928 108.98 267.9 108.908 267.9 108.82C267.9 108.732 267.972 108.42 268.116 107.884C268.204 107.556 268.284 107.228 268.356 106.9L268.692 105.604C268.828 105.004 268.896 104.636 268.896 104.5C268.896 104.132 268.772 103.948 268.524 103.948C268.308 103.948 268.132 104.076 267.996 104.332C267.868 104.58 267.748 104.924 267.636 105.364C267.604 105.5 267.576 105.584 267.552 105.616C267.536 105.64 267.504 105.652 267.456 105.652C267.368 105.652 267.324 105.616 267.324 105.544C267.324 105.52 267.34 105.444 267.372 105.316C267.404 105.18 267.452 105.016 267.516 104.824C267.58 104.624 267.644 104.46 267.708 104.332C267.916 103.916 268.2 103.708 268.56 103.708C268.84 103.708 269.08 103.804 269.28 103.996C269.488 104.18 269.6 104.436 269.616 104.764C270.12 104.06 270.736 103.708 271.464 103.708C271.888 103.708 272.212 103.816 272.436 104.032C272.66 104.248 272.78 104.528 272.796 104.872C273.324 104.096 273.968 103.708 274.728 103.708C275.168 103.708 275.5 103.824 275.724 104.056C275.948 104.288 276.06 104.592 276.06 104.968C276.06 105.416 275.808 106.312 275.304 107.656C275.176 108.008 275.112 108.284 275.112 108.484C275.112 108.748 275.216 108.88 275.424 108.88C275.664 108.88 275.888 108.756 276.096 108.508C276.312 108.252 276.488 107.888 276.624 107.416C276.648 107.336 276.664 107.284 276.672 107.26C276.688 107.236 276.704 107.216 276.72 107.2C276.736 107.184 276.764 107.176 276.804 107.176C276.884 107.176 276.924 107.212 276.924 107.284C276.924 107.308 276.908 107.38 276.876 107.5C276.844 107.62 276.784 107.776 276.696 107.968C276.616 108.152 276.52 108.328 276.408 108.496C276.304 108.664 276.16 108.812 275.976 108.94C275.792 109.06 275.596 109.12 275.388 109.12C275.108 109.12 274.88 109.028 274.704 108.844C274.528 108.66 274.44 108.428 274.44 108.148C274.44 108.004 274.496 107.784 274.608 107.488C275.096 106.16 275.34 105.26 275.34 104.788C275.34 104.228 275.124 103.948 274.692 103.948C274.444 103.948 274.208 104 273.984 104.104C273.76 104.208 273.576 104.332 273.432 104.476C273.288 104.62 273.16 104.776 273.048 104.944C272.936 105.104 272.856 105.236 272.808 105.34C272.76 105.444 272.732 105.512 272.724 105.544L272.004 108.412C271.956 108.596 271.92 108.728 271.896 108.808C271.872 108.88 271.824 108.948 271.752 109.012C271.68 109.084 271.588 109.12 271.476 109.12C271.388 109.12 271.312 109.092 271.248 109.036C271.192 108.98 271.164 108.908 271.164 108.82C271.164 108.764 271.204 108.584 271.284 108.28C271.316 108.12 271.432 107.66 271.632 106.9L271.932 105.664C272.028 105.288 272.076 104.996 272.076 104.788C272.076 104.228 271.86 103.948 271.428 103.948C270.98 103.948 270.584 104.108 270.24 104.428C270.104 104.54 269.972 104.684 269.844 104.86C269.724 105.028 269.636 105.164 269.58 105.268C269.524 105.372 269.488 105.444 269.472 105.484Z" fill="black"/>
<path d="M279.764 108.598L279.206 110.818C279.134 111.098 278.988 111.318 278.768 111.478C278.548 111.642 278.324 111.724 278.096 111.724C277.96 111.724 277.84 111.694 277.736 111.634C277.636 111.578 277.586 111.492 277.586 111.376C277.586 111.288 277.616 111.214 277.676 111.154C277.736 111.094 277.806 111.064 277.886 111.064C277.95 111.064 278 111.082 278.036 111.118C278.072 111.158 278.09 111.204 278.09 111.256C278.09 111.328 278.064 111.39 278.012 111.442C277.964 111.494 277.904 111.528 277.832 111.544C277.908 111.584 277.996 111.604 278.096 111.604C278.256 111.604 278.402 111.53 278.534 111.382C278.666 111.238 278.762 111.052 278.822 110.824L279.392 108.562C279.42 108.438 279.434 108.334 279.434 108.25C279.434 108.066 279.37 107.974 279.242 107.974C279.114 107.974 278.982 108.036 278.846 108.16C278.71 108.28 278.586 108.474 278.474 108.742C278.438 108.794 278.41 108.822 278.39 108.826C278.35 108.826 278.33 108.808 278.33 108.772C278.33 108.76 278.342 108.724 278.366 108.664C278.39 108.6 278.428 108.522 278.48 108.43C278.536 108.338 278.598 108.25 278.666 108.166C278.738 108.078 278.826 108.004 278.93 107.944C279.038 107.884 279.148 107.854 279.26 107.854C279.404 107.854 279.528 107.904 279.632 108.004C279.736 108.1 279.788 108.23 279.788 108.394C279.788 108.466 279.78 108.534 279.764 108.598ZM280.01 106.756C280.01 106.832 279.978 106.9 279.914 106.96C279.854 107.016 279.788 107.044 279.716 107.044C279.656 107.044 279.606 107.024 279.566 106.984C279.53 106.94 279.512 106.894 279.512 106.846C279.512 106.778 279.542 106.714 279.602 106.654C279.662 106.59 279.732 106.558 279.812 106.558C279.86 106.558 279.904 106.574 279.944 106.606C279.988 106.638 280.01 106.688 280.01 106.756Z" fill="black"/>
<path d="M41.252 158.408C41.252 159.168 40.988 159.812 40.46 160.34C39.932 160.868 39.304 161.132 38.576 161.132C37.912 161.132 37.388 160.84 37.004 160.256L36.572 161H36.272V153.848C36.272 153.552 36.22 153.368 36.116 153.296C36.012 153.216 35.752 153.176 35.336 153.176V152.804L37.064 152.672V156.476C37.528 155.956 38.076 155.696 38.708 155.696C39.396 155.696 39.992 155.96 40.496 156.488C41 157.016 41.252 157.656 41.252 158.408ZM40.256 158.396C40.256 157.652 40.14 157.096 39.908 156.728C39.588 156.216 39.168 155.96 38.648 155.96C38.064 155.96 37.592 156.216 37.232 156.728C37.144 156.856 37.1 157 37.1 157.16V159.632C37.1 159.8 37.156 159.968 37.268 160.136C37.588 160.624 38.008 160.868 38.528 160.868C39.088 160.868 39.54 160.612 39.884 160.1C40.132 159.716 40.256 159.148 40.256 158.396ZM47.464 159.932C47.464 160.356 47.352 160.652 47.128 160.82C46.904 160.988 46.688 161.072 46.48 161.072C46.216 161.072 46 160.976 45.832 160.784C45.664 160.584 45.568 160.352 45.544 160.088C45.424 160.392 45.224 160.644 44.944 160.844C44.672 161.036 44.348 161.132 43.972 161.132C43.684 161.132 43.404 161.096 43.132 161.024C42.86 160.952 42.612 160.816 42.388 160.616C42.164 160.416 42.052 160.164 42.052 159.86C42.052 159.18 42.452 158.66 43.252 158.3C43.732 158.068 44.468 157.924 45.46 157.868V157.424C45.46 156.928 45.328 156.548 45.064 156.284C44.808 156.02 44.516 155.888 44.188 155.888C43.604 155.888 43.172 156.072 42.892 156.44C43.132 156.448 43.292 156.512 43.372 156.632C43.46 156.752 43.504 156.872 43.504 156.992C43.504 157.152 43.452 157.284 43.348 157.388C43.252 157.492 43.12 157.544 42.952 157.544C42.792 157.544 42.66 157.496 42.556 157.4C42.452 157.296 42.4 157.156 42.4 156.98C42.4 156.588 42.576 156.264 42.928 156.008C43.28 155.752 43.708 155.624 44.212 155.624C44.868 155.624 45.416 155.844 45.856 156.284C45.992 156.42 46.092 156.576 46.156 156.752C46.228 156.928 46.268 157.076 46.276 157.196C46.284 157.308 46.288 157.476 46.288 157.7V160.1C46.288 160.148 46.296 160.212 46.312 160.292C46.328 160.364 46.372 160.452 46.444 160.556C46.516 160.652 46.612 160.7 46.732 160.7C47.02 160.7 47.164 160.444 47.164 159.932V159.26H47.464V159.932ZM45.46 159.32V158.12C44.572 158.152 43.936 158.344 43.552 158.696C43.168 159.048 42.976 159.432 42.976 159.848C42.976 160.144 43.08 160.388 43.288 160.58C43.504 160.772 43.76 160.868 44.056 160.868C44.392 160.868 44.708 160.74 45.004 160.484C45.308 160.22 45.46 159.832 45.46 159.32ZM50.728 161L49.396 160.964L48.064 161V160.628C48.488 160.628 48.748 160.604 48.844 160.556C48.948 160.5 49 160.344 49 160.088V153.848C49 153.552 48.948 153.368 48.844 153.296C48.74 153.216 48.48 153.176 48.064 153.176V152.804L49.792 152.672V160.088C49.792 160.344 49.84 160.5 49.936 160.556C50.04 160.604 50.304 160.628 50.728 160.628V161ZM54.0678 161L52.7358 160.964L51.4038 161V160.628C51.8278 160.628 52.0878 160.604 52.1838 160.556C52.2878 160.5 52.3398 160.344 52.3398 160.088V153.848C52.3398 153.552 52.2878 153.368 52.1838 153.296C52.0798 153.216 51.8198 153.176 51.4038 153.176V152.804L53.1318 152.672V160.088C53.1318 160.344 53.1798 160.5 53.2758 160.556C53.3798 160.604 53.6438 160.628 54.0678 160.628V161ZM61.3078 161C60.4918 160.976 60.0758 160.964 60.0598 160.964L58.7397 161V160.628C59.1638 160.628 59.4238 160.604 59.5198 160.556C59.6238 160.5 59.6758 160.344 59.6758 160.088V156.86C59.6758 156.564 59.6238 156.38 59.5198 156.308C59.4238 156.236 59.1798 156.2 58.7878 156.2V155.828L60.4678 155.696V160.1C60.4678 160.34 60.5078 160.488 60.5878 160.544C60.6758 160.6 60.9158 160.628 61.3078 160.628V161ZM60.6478 153.752C60.6478 153.912 60.5878 154.06 60.4678 154.196C60.3478 154.324 60.1918 154.388 59.9998 154.388C59.8238 154.388 59.6718 154.324 59.5438 154.196C59.4238 154.068 59.3638 153.92 59.3638 153.752C59.3638 153.592 59.4238 153.448 59.5438 153.32C59.6638 153.184 59.8198 153.116 60.0118 153.116C60.1878 153.116 60.3358 153.18 60.4558 153.308C60.5838 153.436 60.6478 153.584 60.6478 153.752Z" fill="black"/>
<path d="M315.252 51.408C315.252 52.168 314.988 52.812 314.46 53.34C313.932 53.868 313.304 54.132 312.576 54.132C311.912 54.132 311.388 53.84 311.004 53.256L310.572 54H310.272V46.848C310.272 46.552 310.22 46.368 310.116 46.296C310.012 46.216 309.752 46.176 309.336 46.176V45.804L311.064 45.672V49.476C311.528 48.956 312.076 48.696 312.708 48.696C313.396 48.696 313.992 48.96 314.496 49.488C315 50.016 315.252 50.656 315.252 51.408ZM314.256 51.396C314.256 50.652 314.14 50.096 313.908 49.728C313.588 49.216 313.168 48.96 312.648 48.96C312.064 48.96 311.592 49.216 311.232 49.728C311.144 49.856 311.1 50 311.1 50.16V52.632C311.1 52.8 311.156 52.968 311.268 53.136C311.588 53.624 312.008 53.868 312.528 53.868C313.088 53.868 313.54 53.612 313.884 53.1C314.132 52.716 314.256 52.148 314.256 51.396ZM321.464 52.932C321.464 53.356 321.352 53.652 321.128 53.82C320.904 53.988 320.688 54.072 320.48 54.072C320.216 54.072 320 53.976 319.832 53.784C319.664 53.584 319.568 53.352 319.544 53.088C319.424 53.392 319.224 53.644 318.944 53.844C318.672 54.036 318.348 54.132 317.972 54.132C317.684 54.132 317.404 54.096 317.132 54.024C316.86 53.952 316.612 53.816 316.388 53.616C316.164 53.416 316.052 53.164 316.052 52.86C316.052 52.18 316.452 51.66 317.252 51.3C317.732 51.068 318.468 50.924 319.46 50.868V50.424C319.46 49.928 319.328 49.548 319.064 49.284C318.808 49.02 318.516 48.888 318.188 48.888C317.604 48.888 317.172 49.072 316.892 49.44C317.132 49.448 317.292 49.512 317.372 49.632C317.46 49.752 317.504 49.872 317.504 49.992C317.504 50.152 317.452 50.284 317.348 50.388C317.252 50.492 317.12 50.544 316.952 50.544C316.792 50.544 316.66 50.496 316.556 50.4C316.452 50.296 316.4 50.156 316.4 49.98C316.4 49.588 316.576 49.264 316.928 49.008C317.28 48.752 317.708 48.624 318.212 48.624C318.868 48.624 319.416 48.844 319.856 49.284C319.992 49.42 320.092 49.576 320.156 49.752C320.228 49.928 320.268 50.076 320.276 50.196C320.284 50.308 320.288 50.476 320.288 50.7V53.1C320.288 53.148 320.296 53.212 320.312 53.292C320.328 53.364 320.372 53.452 320.444 53.556C320.516 53.652 320.612 53.7 320.732 53.7C321.02 53.7 321.164 53.444 321.164 52.932V52.26H321.464V52.932ZM319.46 52.32V51.12C318.572 51.152 317.936 51.344 317.552 51.696C317.168 52.048 316.976 52.432 316.976 52.848C316.976 53.144 317.08 53.388 317.288 53.58C317.504 53.772 317.76 53.868 318.056 53.868C318.392 53.868 318.708 53.74 319.004 53.484C319.308 53.22 319.46 52.832 319.46 52.32ZM324.728 54L323.396 53.964L322.064 54V53.628C322.488 53.628 322.748 53.604 322.844 53.556C322.948 53.5 323 53.344 323 53.088V46.848C323 46.552 322.948 46.368 322.844 46.296C322.74 46.216 322.48 46.176 322.064 46.176V45.804L323.792 45.672V53.088C323.792 53.344 323.84 53.5 323.936 53.556C324.04 53.604 324.304 53.628 324.728 53.628V54ZM328.068 54L326.736 53.964L325.404 54V53.628C325.828 53.628 326.088 53.604 326.184 53.556C326.288 53.5 326.34 53.344 326.34 53.088V46.848C326.34 46.552 326.288 46.368 326.184 46.296C326.08 46.216 325.82 46.176 325.404 46.176V45.804L327.132 45.672V53.088C327.132 53.344 327.18 53.5 327.276 53.556C327.38 53.604 327.644 53.628 328.068 53.628V54ZM334.864 54.6C334.864 55.136 334.704 55.58 334.384 55.932C334.064 56.284 333.676 56.46 333.22 56.46C332.852 56.46 332.536 56.372 332.272 56.196C332 56.028 331.864 55.796 331.864 55.5C331.864 55.34 331.916 55.208 332.02 55.104C332.116 55 332.248 54.948 332.416 54.948C332.584 54.948 332.716 55 332.812 55.104C332.916 55.208 332.968 55.34 332.968 55.5C332.968 55.644 332.924 55.76 332.836 55.848C332.756 55.944 332.66 56.008 332.548 56.04C332.756 56.144 332.972 56.196 333.196 56.196C333.38 56.196 333.532 56.14 333.652 56.028C333.78 55.924 333.872 55.78 333.928 55.596C333.984 55.42 334.02 55.256 334.036 55.104C334.06 54.952 334.072 54.792 334.072 54.624V49.872C334.072 49.576 334.012 49.392 333.892 49.32C333.78 49.24 333.496 49.2 333.04 49.2V48.828L334.864 48.696V54.6ZM334.864 46.752C334.864 46.912 334.804 47.06 334.684 47.196C334.564 47.324 334.408 47.388 334.216 47.388C334.04 47.388 333.888 47.324 333.76 47.196C333.64 47.068 333.58 46.92 333.58 46.752C333.58 46.592 333.64 46.448 333.76 46.32C333.88 46.184 334.036 46.116 334.228 46.116C334.404 46.116 334.552 46.18 334.672 46.308C334.8 46.436 334.864 46.584 334.864 46.752Z" fill="black"/>
<path d="M102.356 136.381C102.29 136.185 102.078 136.079 101.881 136.144L98.6796 137.212C98.4831 137.277 98.3769 137.489 98.4424 137.686C98.5079 137.882 98.7203 137.989 98.9168 137.923L101.763 136.974L102.712 139.82C102.777 140.017 102.989 140.123 103.186 140.058C103.382 139.992 103.489 139.78 103.423 139.583L102.356 136.381ZM67 158.375C74.8709 158.375 83.118 154.109 89.6596 149.302C92.9371 146.894 95.8015 144.339 97.995 142.09C100.179 139.851 101.725 137.889 102.335 136.668L101.665 136.332C101.109 137.444 99.6335 139.336 97.4581 141.566C95.2923 143.786 92.4588 146.315 89.2154 148.698C82.7153 153.474 74.6291 157.625 67 157.625V158.375Z" fill="#808080"/>
<path d="M268.644 72.6186C268.71 72.8151 268.922 72.9212 269.119 72.8558L272.32 71.7885C272.517 71.723 272.623 71.5106 272.558 71.3141C272.492 71.1177 272.28 71.0115 272.083 71.077L269.237 72.0257L268.288 69.1796C268.223 68.9831 268.011 68.8769 267.814 68.9424C267.618 69.0079 267.511 69.2203 267.577 69.4168L268.644 72.6186ZM304 50.625C296.129 50.625 287.882 54.8909 281.34 59.6978C278.063 62.1062 275.199 64.6615 273.005 66.91C270.821 69.1488 269.275 71.1106 268.665 72.3323L269.335 72.6677C269.891 71.5561 271.367 69.6637 273.542 67.4337C275.708 65.2135 278.541 62.6854 281.785 60.3022C288.285 55.5257 296.371 51.375 304 51.375V50.625Z" fill="#808080"/>
</svg>
