<svg width="244" height="183" viewBox="0 0 244 183" fill="none" xmlns="http://www.w3.org/2000/svg">
<g filter="url(#filter0_d)">
<rect width="212" height="151" transform="translate(16 12)" fill="white"/>
<path d="M63.75 38V37.25H62.25V38H63.75ZM63 146L67.3301 138.5H58.6699L63 146ZM62.25 38V139.25H63.75V38H62.25Z" fill="black"/>
<path d="M63 37.25H62.25V38.75H63V37.25ZM171 38L163.5 33.6699V42.3301L171 38ZM63 38.75L164.25 38.75V37.25L63 37.25V38.75Z" fill="black"/>
<path d="M59.5 34L66.5 41M59.5 41L66.5 34" stroke="#BE2626" stroke-linecap="round"/>
<path d="M176.688 25.104C176.52 25 176.316 24.948 176.076 24.948C175.812 24.948 175.58 25.064 175.38 25.296C175.18 25.52 175.032 25.82 174.936 26.196L174.516 27.828C174.356 28.492 174.276 28.908 174.276 29.076C174.276 29.324 174.332 29.52 174.444 29.664C174.556 29.808 174.716 29.88 174.924 29.88C175.22 29.88 175.516 29.748 175.812 29.484C176.108 29.212 176.332 28.828 176.484 28.332C176.524 28.228 176.576 28.176 176.64 28.176C176.72 28.176 176.76 28.212 176.76 28.284C176.76 28.364 176.716 28.5 176.628 28.692C176.548 28.876 176.432 29.08 176.28 29.304C176.136 29.52 175.936 29.712 175.68 29.88C175.432 30.04 175.168 30.12 174.888 30.12C174.624 30.12 174.372 30.044 174.132 29.892C173.9 29.74 173.74 29.5 173.652 29.172C173.332 29.804 172.92 30.12 172.416 30.12C172.128 30.12 171.876 30.056 171.66 29.928C171.444 29.8 171.336 29.62 171.336 29.388C171.336 29.204 171.396 29.052 171.516 28.932C171.644 28.812 171.784 28.752 171.936 28.752C172.056 28.752 172.152 28.788 172.224 28.86C172.304 28.924 172.344 29.016 172.344 29.136C172.344 29.24 172.304 29.356 172.224 29.484C172.144 29.604 172.008 29.684 171.816 29.724C171.984 29.828 172.188 29.88 172.428 29.88C172.972 29.88 173.36 29.42 173.592 28.5L174 26.856C174.144 26.28 174.216 25.908 174.216 25.74C174.216 25.54 174.168 25.36 174.072 25.2C173.976 25.032 173.808 24.948 173.568 24.948C173.416 24.948 173.256 24.984 173.088 25.056C172.928 25.12 172.74 25.28 172.524 25.536C172.308 25.792 172.136 26.124 172.008 26.532C171.968 26.612 171.92 26.652 171.864 26.652C171.776 26.652 171.732 26.616 171.732 26.544C171.732 26.464 171.772 26.332 171.852 26.148C171.94 25.956 172.056 25.752 172.2 25.536C172.352 25.312 172.552 25.12 172.8 24.96C173.056 24.792 173.324 24.708 173.604 24.708C174.236 24.708 174.648 25.024 174.84 25.656C174.896 25.536 174.964 25.416 175.044 25.296C175.132 25.176 175.272 25.048 175.464 24.912C175.656 24.776 175.864 24.708 176.088 24.708C176.368 24.708 176.616 24.772 176.832 24.9C177.056 25.028 177.168 25.208 177.168 25.44C177.168 25.608 177.108 25.756 176.988 25.884C176.876 26.012 176.732 26.076 176.556 26.076C176.452 26.076 176.36 26.044 176.28 25.98C176.2 25.916 176.16 25.82 176.16 25.692C176.16 25.564 176.204 25.444 176.292 25.332C176.38 25.212 176.512 25.136 176.688 25.104Z" fill="black"/>
<path d="M51.156 150.344C51.292 150.16 51.404 149.964 51.492 149.756C51.588 149.556 51.656 149.384 51.696 149.24C51.744 149.096 51.804 148.876 51.876 148.58L51.864 148.568C51.512 148.936 51.112 149.12 50.664 149.12C50.288 149.12 49.956 149.016 49.668 148.808C49.388 148.592 49.248 148.228 49.248 147.716C49.248 147.26 49.444 146.508 49.836 145.46C50.044 144.932 50.148 144.56 50.148 144.344C50.148 144.224 50.128 144.132 50.088 144.068C50.048 144.004 50.008 143.968 49.968 143.96C49.936 143.952 49.892 143.948 49.836 143.948C49.596 143.948 49.368 144.076 49.152 144.332C48.936 144.58 48.76 144.948 48.624 145.436C48.6 145.532 48.576 145.592 48.552 145.616C48.536 145.64 48.504 145.652 48.456 145.652C48.368 145.652 48.324 145.616 48.324 145.544C48.324 145.496 48.352 145.384 48.408 145.208C48.472 145.032 48.56 144.828 48.672 144.596C48.792 144.364 48.956 144.16 49.164 143.984C49.38 143.8 49.616 143.708 49.872 143.708C50.152 143.708 50.38 143.804 50.556 143.996C50.732 144.18 50.82 144.404 50.82 144.668C50.82 144.812 50.752 145.064 50.616 145.424C50.184 146.576 49.968 147.4 49.968 147.896C49.968 148.552 50.212 148.88 50.7 148.88C51.156 148.88 51.56 148.632 51.912 148.136C51.968 148.056 52.02 147.932 52.068 147.764L52.956 144.236C53.028 143.964 53.18 143.828 53.412 143.828C53.5 143.828 53.576 143.856 53.64 143.912C53.704 143.968 53.736 144.04 53.736 144.128C53.736 144.144 53.724 144.212 53.7 144.332L52.524 149.012C52.356 149.684 52.004 150.256 51.468 150.728C50.94 151.208 50.376 151.448 49.776 151.448C49.432 151.448 49.144 151.352 48.912 151.16C48.688 150.968 48.576 150.72 48.576 150.416C48.576 150.16 48.644 149.972 48.78 149.852C48.916 149.74 49.052 149.684 49.188 149.684C49.292 149.684 49.384 149.712 49.464 149.768C49.552 149.832 49.596 149.928 49.596 150.056C49.596 150.2 49.536 150.332 49.416 150.452C49.304 150.58 49.164 150.644 48.996 150.644C48.94 150.644 48.9 150.64 48.876 150.632C49.004 151.016 49.304 151.208 49.776 151.208C50.288 151.208 50.748 150.92 51.156 150.344Z" fill="black"/>
<path d="M111 46L107 43.6906V48.3094L111 46ZM71 46.4H107.4V45.6H71V46.4Z" fill="#BE2626"/>
<path d="M71 86L73.3094 82H68.6906L71 86ZM70.6 46V82.4H71.4V46H70.6Z" fill="#BE2626"/>
<path d="M108.396 59.284C108.396 59.324 108.364 59.432 108.3 59.608C108.244 59.784 108.16 59.992 108.048 60.232C107.936 60.464 107.772 60.672 107.556 60.856C107.348 61.032 107.116 61.12 106.86 61.12C106.58 61.12 106.352 61.028 106.176 60.844C106 60.66 105.912 60.428 105.912 60.148C105.912 60.004 105.96 59.804 106.056 59.548L106.896 57.316C107.064 56.852 107.148 56.528 107.148 56.344C107.148 56.08 107.044 55.948 106.836 55.948C106.596 55.948 106.368 56.076 106.152 56.332C105.936 56.58 105.76 56.948 105.624 57.436C105.6 57.532 105.576 57.592 105.552 57.616C105.536 57.64 105.504 57.652 105.456 57.652C105.368 57.652 105.324 57.616 105.324 57.544C105.324 57.496 105.352 57.384 105.408 57.208C105.472 57.032 105.56 56.828 105.672 56.596C105.792 56.364 105.956 56.16 106.164 55.984C106.38 55.8 106.616 55.708 106.872 55.708C107.152 55.708 107.38 55.804 107.556 55.996C107.732 56.18 107.82 56.404 107.82 56.668C107.82 56.812 107.78 56.992 107.7 57.208L106.86 59.44C106.676 59.944 106.584 60.292 106.584 60.484C106.584 60.748 106.688 60.88 106.896 60.88C107.12 60.88 107.34 60.764 107.556 60.532C107.772 60.292 107.952 59.92 108.096 59.416C108.12 59.336 108.136 59.284 108.144 59.26C108.16 59.236 108.176 59.216 108.192 59.2C108.208 59.184 108.236 59.176 108.276 59.176C108.356 59.176 108.396 59.212 108.396 59.284ZM108.3 53.512C108.3 53.648 108.24 53.78 108.12 53.908C108 54.028 107.86 54.088 107.7 54.088C107.604 54.088 107.512 54.056 107.424 53.992C107.344 53.928 107.304 53.828 107.304 53.692C107.304 53.54 107.364 53.408 107.484 53.296C107.612 53.176 107.748 53.116 107.892 53.116C108.012 53.116 108.108 53.16 108.18 53.248C108.26 53.328 108.3 53.416 108.3 53.512Z" fill="#BE2626"/>
<path d="M114.56 56.84V56.13H119.14V56.84H114.56ZM114.56 58.83V58.12H119.14V58.83H114.56Z" fill="#BE2626"/>
<path d="M131.01 70.4C131.01 70.42 130.99 70.45 130.95 70.49H130.64L130.6 70.45C130.4 70.29 130.11 70.0067 129.73 69.6C127.663 67.3267 126.473 64.2833 126.16 60.47C126.113 59.9367 126.09 59.2767 126.09 58.49C126.09 57.7167 126.113 57.0567 126.16 56.51C126.473 52.7033 127.663 49.6633 129.73 47.39C130.11 46.9833 130.4 46.7 130.6 46.54L130.64 46.5H130.95C130.99 46.54 131.01 46.57 131.01 46.59C131.01 46.6167 130.973 46.67 130.9 46.75C129.6 48.0967 128.633 49.7333 128 51.66C127.373 53.5867 127.06 55.8667 127.06 58.5C127.06 60.6133 127.273 62.5233 127.7 64.23C128.313 66.6567 129.38 68.66 130.9 70.24C130.973 70.32 131.01 70.3733 131.01 70.4Z" fill="#BE2626"/>
<path d="M136.19 55C135.957 54.98 135.417 54.97 134.57 54.97C133.723 54.97 133.183 54.98 132.95 55V54.69H133.27C133.69 54.69 133.95 54.66 134.05 54.6C134.15 54.54 134.2 54.41 134.2 54.21V49.03C133.853 49.2033 133.417 49.29 132.89 49.29V48.98C133.69 48.98 134.297 48.7667 134.71 48.34C134.823 48.34 134.89 48.3533 134.91 48.38C134.93 48.4067 134.94 48.48 134.94 48.6V54.21C134.94 54.41 134.987 54.54 135.08 54.6C135.18 54.66 135.443 54.69 135.87 54.69H136.19V55Z" fill="#BE2626"/>
<path d="M136.6 63.8C136.6 64.7733 136.477 65.5267 136.23 66.06C135.87 66.8333 135.29 67.22 134.49 67.22C134.19 67.22 133.887 67.1433 133.58 66.99C133.28 66.8367 133.033 66.5767 132.84 66.21C132.54 65.6567 132.39 64.8533 132.39 63.8C132.39 62.82 132.513 62.0633 132.76 61.53C133.107 60.7367 133.687 60.34 134.5 60.34C134.673 60.34 134.85 60.3633 135.03 60.41C135.21 60.4567 135.413 60.57 135.64 60.75C135.873 60.93 136.06 61.1667 136.2 61.46C136.467 62.0267 136.6 62.8067 136.6 63.8ZM135.77 63.68C135.77 62.7533 135.737 62.1033 135.67 61.73C135.583 61.2967 135.423 60.9933 135.19 60.82C134.957 60.6467 134.723 60.56 134.49 60.56C134.403 60.56 134.313 60.5733 134.22 60.6C134.127 60.6267 134.013 60.6767 133.88 60.75C133.747 60.8233 133.627 60.9533 133.52 61.14C133.42 61.3267 133.347 61.56 133.3 61.84C133.247 62.2 133.22 62.8133 133.22 63.68C133.22 64.6867 133.257 65.39 133.33 65.79C133.41 66.2233 133.56 66.5333 133.78 66.72C134.007 66.9067 134.243 67 134.49 67C134.757 67 135 66.9 135.22 66.7C135.447 66.5 135.593 66.1833 135.66 65.75C135.733 65.3233 135.77 64.6333 135.77 63.68Z" fill="#BE2626"/>
<path d="M142.28 58.49C142.28 53.2033 140.967 49.2467 138.34 46.62C138.34 46.5667 138.353 46.5333 138.38 46.52C138.407 46.5067 138.467 46.5 138.56 46.5H138.71L138.75 46.54C138.95 46.7 139.24 46.9833 139.62 47.39C141.687 49.6633 142.877 52.7033 143.19 56.51C143.237 57.0567 143.26 57.7167 143.26 58.49C143.26 59.27 143.237 59.93 143.19 60.47C142.877 64.2833 141.687 67.3267 139.62 69.6C139.24 70.0067 138.95 70.29 138.75 70.45L138.71 70.49H138.56C138.46 70.49 138.397 70.4833 138.37 70.47C138.35 70.4567 138.34 70.4233 138.34 70.37C138.653 70.0567 139.007 69.6433 139.4 69.13C141.32 66.57 142.28 63.0233 142.28 58.49Z" fill="#BE2626"/>
<path d="M104 50.5H111M111 50.5L109.5 49M111 50.5L109.5 52" stroke="#BE2626" stroke-width="0.6"/>
<path d="M87.56 83.84V83.13H92.14V83.84H87.56ZM87.56 85.83V85.12H92.14V85.83H87.56Z" fill="#BE2626"/>
<path d="M104.01 97.4C104.01 97.42 103.99 97.45 103.95 97.49H103.64L103.6 97.45C103.4 97.29 103.11 97.0067 102.73 96.6C100.663 94.3267 99.4733 91.2833 99.16 87.47C99.1133 86.9367 99.09 86.2767 99.09 85.49C99.09 84.7167 99.1133 84.0567 99.16 83.51C99.4733 79.7033 100.663 76.6633 102.73 74.39C103.11 73.9833 103.4 73.7 103.6 73.54L103.64 73.5H103.95C103.99 73.54 104.01 73.57 104.01 73.59C104.01 73.6167 103.973 73.67 103.9 73.75C102.6 75.0967 101.633 76.7333 101 78.66C100.373 80.5867 100.06 82.8667 100.06 85.5C100.06 87.6133 100.273 89.5233 100.7 91.23C101.313 93.6567 102.38 95.66 103.9 97.24C103.973 97.32 104.01 97.3733 104.01 97.4Z" fill="#BE2626"/>
<path d="M109.6 78.8C109.6 79.7733 109.477 80.5267 109.23 81.06C108.87 81.8333 108.29 82.22 107.49 82.22C107.19 82.22 106.887 82.1433 106.58 81.99C106.28 81.8367 106.033 81.5767 105.84 81.21C105.54 80.6567 105.39 79.8533 105.39 78.8C105.39 77.82 105.513 77.0633 105.76 76.53C106.107 75.7367 106.687 75.34 107.5 75.34C107.673 75.34 107.85 75.3633 108.03 75.41C108.21 75.4567 108.413 75.57 108.64 75.75C108.873 75.93 109.06 76.1667 109.2 76.46C109.467 77.0267 109.6 77.8067 109.6 78.8ZM108.77 78.68C108.77 77.7533 108.737 77.1033 108.67 76.73C108.583 76.2967 108.423 75.9933 108.19 75.82C107.957 75.6467 107.723 75.56 107.49 75.56C107.403 75.56 107.313 75.5733 107.22 75.6C107.127 75.6267 107.013 75.6767 106.88 75.75C106.747 75.8233 106.627 75.9533 106.52 76.14C106.42 76.3267 106.347 76.56 106.3 76.84C106.247 77.2 106.22 77.8133 106.22 78.68C106.22 79.6867 106.257 80.39 106.33 80.79C106.41 81.2233 106.56 81.5333 106.78 81.72C107.007 81.9067 107.243 82 107.49 82C107.757 82 108 81.9 108.22 81.7C108.447 81.5 108.593 81.1833 108.66 80.75C108.733 80.3233 108.77 79.6333 108.77 78.68Z" fill="#BE2626"/>
<path d="M109.19 94C108.957 93.98 108.417 93.97 107.57 93.97C106.723 93.97 106.183 93.98 105.95 94V93.69H106.27C106.69 93.69 106.95 93.66 107.05 93.6C107.15 93.54 107.2 93.41 107.2 93.21V88.03C106.853 88.2033 106.417 88.29 105.89 88.29V87.98C106.69 87.98 107.297 87.7667 107.71 87.34C107.823 87.34 107.89 87.3533 107.91 87.38C107.93 87.4067 107.94 87.48 107.94 87.6V93.21C107.94 93.41 107.987 93.54 108.08 93.6C108.18 93.66 108.443 93.69 108.87 93.69H109.19V94Z" fill="#BE2626"/>
<path d="M115.28 85.49C115.28 80.2033 113.967 76.2467 111.34 73.62C111.34 73.5667 111.353 73.5333 111.38 73.52C111.407 73.5067 111.467 73.5 111.56 73.5H111.71L111.75 73.54C111.95 73.7 112.24 73.9833 112.62 74.39C114.687 76.6633 115.877 79.7033 116.19 83.51C116.237 84.0567 116.26 84.7167 116.26 85.49C116.26 86.27 116.237 86.93 116.19 87.47C115.877 91.2833 114.687 94.3267 112.62 96.6C112.24 97.0067 111.95 97.29 111.75 97.45L111.71 97.49H111.56C111.46 97.49 111.397 97.4833 111.37 97.47C111.35 97.4567 111.34 97.4233 111.34 97.37C111.653 97.0567 112.007 96.6433 112.4 96.13C114.32 93.57 115.28 90.0233 115.28 85.49Z" fill="#BE2626"/>
<path d="M81.2 83.196L80.084 87.636C79.94 88.196 79.648 88.636 79.208 88.956C78.768 89.284 78.32 89.448 77.864 89.448C77.592 89.448 77.352 89.388 77.144 89.268C76.944 89.156 76.844 88.984 76.844 88.752C76.844 88.576 76.904 88.428 77.024 88.308C77.144 88.188 77.284 88.128 77.444 88.128C77.572 88.128 77.672 88.164 77.744 88.236C77.816 88.316 77.852 88.408 77.852 88.512C77.852 88.656 77.8 88.78 77.696 88.884C77.6 88.988 77.48 89.056 77.336 89.088C77.488 89.168 77.664 89.208 77.864 89.208C78.184 89.208 78.476 89.06 78.74 88.764C79.004 88.476 79.196 88.104 79.316 87.648L80.456 83.124C80.512 82.876 80.54 82.668 80.54 82.5C80.54 82.132 80.412 81.948 80.156 81.948C79.9 81.948 79.636 82.072 79.364 82.32C79.092 82.56 78.844 82.948 78.62 83.484C78.548 83.588 78.492 83.644 78.452 83.652C78.372 83.652 78.332 83.616 78.332 83.544C78.332 83.52 78.356 83.448 78.404 83.328C78.452 83.2 78.528 83.044 78.632 82.86C78.744 82.676 78.868 82.5 79.004 82.332C79.148 82.156 79.324 82.008 79.532 81.888C79.748 81.768 79.968 81.708 80.192 81.708C80.48 81.708 80.728 81.808 80.936 82.008C81.144 82.2 81.248 82.46 81.248 82.788C81.248 82.932 81.232 83.068 81.2 83.196ZM81.692 79.512C81.692 79.664 81.628 79.8 81.5 79.92C81.38 80.032 81.248 80.088 81.104 80.088C80.984 80.088 80.884 80.048 80.804 79.968C80.732 79.88 80.696 79.788 80.696 79.692C80.696 79.556 80.756 79.428 80.876 79.308C80.996 79.18 81.136 79.116 81.296 79.116C81.392 79.116 81.48 79.148 81.56 79.212C81.648 79.276 81.692 79.376 81.692 79.512Z" fill="#BE2626"/>
<path d="M77 76.5H84M84 76.5L82.5 75M84 76.5L82.5 78" stroke="#BE2626" stroke-width="0.6"/>
<path d="M54.52 29.16C54.52 30.328 54.372 31.232 54.076 31.872C53.644 32.8 52.948 33.264 51.988 33.264C51.628 33.264 51.264 33.172 50.896 32.988C50.536 32.804 50.24 32.492 50.008 32.052C49.648 31.388 49.468 30.424 49.468 29.16C49.468 27.984 49.616 27.076 49.912 26.436C50.328 25.484 51.024 25.008 52 25.008C52.208 25.008 52.42 25.036 52.636 25.092C52.852 25.148 53.096 25.284 53.368 25.5C53.648 25.716 53.872 26 54.04 26.352C54.36 27.032 54.52 27.968 54.52 29.16ZM53.524 29.016C53.524 27.904 53.484 27.124 53.404 26.676C53.3 26.156 53.108 25.792 52.828 25.584C52.548 25.376 52.268 25.272 51.988 25.272C51.884 25.272 51.776 25.288 51.664 25.32C51.552 25.352 51.416 25.412 51.256 25.5C51.096 25.588 50.952 25.744 50.824 25.968C50.704 26.192 50.616 26.472 50.56 26.808C50.496 27.24 50.464 27.976 50.464 29.016C50.464 30.224 50.508 31.068 50.596 31.548C50.692 32.068 50.872 32.44 51.136 32.664C51.408 32.888 51.692 33 51.988 33C52.308 33 52.6 32.88 52.864 32.64C53.136 32.4 53.312 32.02 53.392 31.5C53.48 30.988 53.524 30.16 53.524 29.016Z" fill="#BE2626"/>
<path d="M49 22.5H56M56 22.5L54.5 21M56 22.5L54.5 24" stroke="#BE2626" stroke-width="0.6"/>
</g>
<defs>
<filter id="filter0_d" x="0" y="0" width="244" height="183" filterUnits="userSpaceOnUse" color-interpolation-filters="sRGB">
<feFlood flood-opacity="0" result="BackgroundImageFix"/>
<feColorMatrix in="SourceAlpha" type="matrix" values="0 0 0 0 0 0 0 0 0 0 0 0 0 0 0 0 0 0 127 0"/>
<feOffset dy="4"/>
<feGaussianBlur stdDeviation="8"/>
<feColorMatrix type="matrix" values="0 0 0 0 0 0 0 0 0 0 0 0 0 0 0 0 0 0 0.25 0"/>
<feBlend mode="normal" in2="BackgroundImageFix" result="effect1_dropShadow"/>
<feBlend mode="normal" in="SourceGraphic" in2="effect1_dropShadow" result="shape"/>
</filter>
</defs>
</svg>
