<svg width="249" height="161" viewBox="0 0 249 161" fill="none" xmlns="http://www.w3.org/2000/svg">
<g filter="url(#filter0_d)">
<rect width="217" height="129" transform="translate(16 12)" fill="white"/>
<path d="M48.6464 126.354C48.8417 126.549 49.1583 126.549 49.3536 126.354L52.5355 123.172C52.7308 122.976 52.7308 122.66 52.5355 122.464C52.3403 122.269 52.0237 122.269 51.8284 122.464L49 125.293L46.1716 122.464C45.9763 122.269 45.6597 122.269 45.4645 122.464C45.2692 122.66 45.2692 122.976 45.4645 123.172L48.6464 126.354ZM48.5 20L48.5 126H49.5L49.5 20H48.5Z" fill="black"/>
<path d="M40.52 31.16C40.52 32.328 40.372 33.232 40.076 33.872C39.644 34.8 38.948 35.264 37.988 35.264C37.628 35.264 37.264 35.172 36.896 34.988C36.536 34.804 36.24 34.492 36.008 34.052C35.648 33.388 35.468 32.424 35.468 31.16C35.468 29.984 35.616 29.076 35.912 28.436C36.328 27.484 37.024 27.008 38 27.008C38.208 27.008 38.42 27.036 38.636 27.092C38.852 27.148 39.096 27.284 39.368 27.5C39.648 27.716 39.872 28 40.04 28.352C40.36 29.032 40.52 29.968 40.52 31.16ZM39.524 31.016C39.524 29.904 39.484 29.124 39.404 28.676C39.3 28.156 39.108 27.792 38.828 27.584C38.548 27.376 38.268 27.272 37.988 27.272C37.884 27.272 37.776 27.288 37.664 27.32C37.552 27.352 37.416 27.412 37.256 27.5C37.096 27.588 36.952 27.744 36.824 27.968C36.704 28.192 36.616 28.472 36.56 28.808C36.496 29.24 36.464 29.976 36.464 31.016C36.464 32.224 36.508 33.068 36.596 33.548C36.692 34.068 36.872 34.44 37.136 34.664C37.408 34.888 37.692 35 37.988 35C38.308 35 38.6 34.88 38.864 34.64C39.136 34.4 39.312 34.02 39.392 33.5C39.48 32.988 39.524 32.16 39.524 31.016Z" fill="black"/>
<path d="M40.028 58C39.748 57.976 39.1 57.964 38.084 57.964C37.068 57.964 36.42 57.976 36.14 58V57.628H36.524C37.028 57.628 37.34 57.592 37.46 57.52C37.58 57.448 37.64 57.292 37.64 57.052V50.836C37.224 51.044 36.7 51.148 36.068 51.148V50.776C37.028 50.776 37.756 50.52 38.252 50.008C38.388 50.008 38.468 50.024 38.492 50.056C38.516 50.088 38.528 50.176 38.528 50.32V57.052C38.528 57.292 38.584 57.448 38.696 57.52C38.816 57.592 39.132 57.628 39.644 57.628H40.028V58Z" fill="black"/>
<path d="M40.388 79.912L40.052 82H35.6C35.6 81.856 35.604 81.764 35.612 81.724C35.628 81.676 35.668 81.62 35.732 81.556L38.036 78.988C38.876 78.044 39.296 77.16 39.296 76.336C39.296 75.8 39.156 75.34 38.876 74.956C38.596 74.572 38.2 74.38 37.688 74.38C37.336 74.38 37.012 74.488 36.716 74.704C36.42 74.92 36.204 75.22 36.068 75.604C36.092 75.596 36.144 75.592 36.224 75.592C36.424 75.592 36.58 75.656 36.692 75.784C36.804 75.904 36.86 76.048 36.86 76.216C36.86 76.432 36.788 76.592 36.644 76.696C36.508 76.8 36.372 76.852 36.236 76.852C36.18 76.852 36.116 76.848 36.044 76.84C35.972 76.824 35.88 76.76 35.768 76.648C35.656 76.536 35.6 76.38 35.6 76.18C35.6 75.62 35.812 75.12 36.236 74.68C36.66 74.232 37.196 74.008 37.844 74.008C38.58 74.008 39.188 74.228 39.668 74.668C40.148 75.1 40.388 75.656 40.388 76.336C40.388 76.576 40.352 76.804 40.28 77.02C40.208 77.236 40.124 77.428 40.028 77.596C39.932 77.764 39.756 77.984 39.5 78.256C39.244 78.52 39.012 78.748 38.804 78.94C38.596 79.132 38.26 79.432 37.796 79.84L36.524 81.076H38.684C39.388 81.076 39.768 81.044 39.824 80.98C39.904 80.868 39.992 80.512 40.088 79.912H40.388Z" fill="black"/>
<path d="M40.484 103.948C40.484 104.572 40.236 105.116 39.74 105.58C39.252 106.036 38.648 106.264 37.928 106.264C37.264 106.264 36.692 106.084 36.212 105.724C35.74 105.364 35.504 104.916 35.504 104.38C35.504 104.14 35.572 103.964 35.708 103.852C35.844 103.74 36 103.684 36.176 103.684C36.36 103.684 36.516 103.744 36.644 103.864C36.78 103.984 36.848 104.148 36.848 104.356C36.848 104.58 36.768 104.756 36.608 104.884C36.456 105.004 36.272 105.048 36.056 105.016C36.248 105.336 36.52 105.568 36.872 105.712C37.224 105.856 37.564 105.928 37.892 105.928C38.236 105.928 38.548 105.78 38.828 105.484C39.108 105.188 39.248 104.676 39.248 103.948C39.248 103.332 39.128 102.848 38.888 102.496C38.648 102.136 38.292 101.956 37.82 101.956H37.292C37.172 101.956 37.092 101.952 37.052 101.944C37.02 101.928 37.004 101.888 37.004 101.824C37.004 101.744 37.064 101.696 37.184 101.68C37.304 101.68 37.46 101.668 37.652 101.644C38.116 101.628 38.472 101.42 38.72 101.02C38.944 100.644 39.056 100.188 39.056 99.652C39.056 99.164 38.94 98.82 38.708 98.62C38.476 98.412 38.208 98.308 37.904 98.308C37.624 98.308 37.328 98.368 37.016 98.488C36.712 98.6 36.476 98.788 36.308 99.052C36.804 99.052 37.052 99.252 37.052 99.652C37.052 99.828 36.996 99.976 36.884 100.096C36.772 100.208 36.624 100.264 36.44 100.264C36.264 100.264 36.116 100.208 35.996 100.096C35.884 99.984 35.828 99.832 35.828 99.64C35.828 99.184 36.032 98.8 36.44 98.488C36.848 98.168 37.352 98.008 37.952 98.008C38.544 98.008 39.06 98.164 39.5 98.476C39.94 98.788 40.16 99.184 40.16 99.664C40.16 100.136 40.004 100.568 39.692 100.96C39.38 101.344 38.976 101.616 38.48 101.776C39.088 101.896 39.572 102.164 39.932 102.58C40.3 102.988 40.484 103.444 40.484 103.948Z" fill="black"/>
<path d="M34.682 129.568C34.8407 129.353 34.9713 129.125 35.074 128.882C35.186 128.649 35.2653 128.448 35.312 128.28C35.368 128.112 35.438 127.855 35.522 127.51L35.508 127.496C35.0973 127.925 34.6307 128.14 34.108 128.14C33.6693 128.14 33.282 128.019 32.946 127.776C32.6193 127.524 32.456 127.099 32.456 126.502C32.456 125.97 32.6847 125.093 33.142 123.87C33.3847 123.254 33.506 122.82 33.506 122.568C33.506 122.428 33.4827 122.321 33.436 122.246C33.3893 122.171 33.3427 122.129 33.296 122.12C33.2587 122.111 33.2073 122.106 33.142 122.106C32.862 122.106 32.596 122.255 32.344 122.554C32.092 122.843 31.8867 123.273 31.728 123.842C31.7 123.954 31.672 124.024 31.644 124.052C31.6253 124.08 31.588 124.094 31.532 124.094C31.4293 124.094 31.378 124.052 31.378 123.968C31.378 123.912 31.4107 123.781 31.476 123.576C31.5507 123.371 31.6533 123.133 31.784 122.862C31.924 122.591 32.1153 122.353 32.358 122.148C32.61 121.933 32.8853 121.826 33.184 121.826C33.5107 121.826 33.7767 121.938 33.982 122.162C34.1873 122.377 34.29 122.638 34.29 122.946C34.29 123.114 34.2107 123.408 34.052 123.828C33.548 125.172 33.296 126.133 33.296 126.712C33.296 127.477 33.5807 127.86 34.15 127.86C34.682 127.86 35.1533 127.571 35.564 126.992C35.6293 126.899 35.69 126.754 35.746 126.558L36.782 122.442C36.866 122.125 37.0433 121.966 37.314 121.966C37.4167 121.966 37.5053 121.999 37.58 122.064C37.6547 122.129 37.692 122.213 37.692 122.316C37.692 122.335 37.678 122.414 37.65 122.554L36.278 128.014C36.082 128.798 35.6713 129.465 35.046 130.016C34.43 130.576 33.772 130.856 33.072 130.856C32.6707 130.856 32.3347 130.744 32.064 130.52C31.8027 130.296 31.672 130.007 31.672 129.652C31.672 129.353 31.7513 129.134 31.91 128.994C32.0687 128.863 32.2273 128.798 32.386 128.798C32.5073 128.798 32.6147 128.831 32.708 128.896C32.8107 128.971 32.862 129.083 32.862 129.232C32.862 129.4 32.792 129.554 32.652 129.694C32.5213 129.843 32.358 129.918 32.162 129.918C32.0967 129.918 32.05 129.913 32.022 129.904C32.1713 130.352 32.5213 130.576 33.072 130.576C33.6693 130.576 34.206 130.24 34.682 129.568Z" fill="black"/>
<path d="M45 79H53" stroke="black"/>
<path d="M45 103H53" stroke="black"/>
<path d="M45 55H53" stroke="black"/>
<path d="M45 31H53" stroke="black"/>
<circle cx="141" cy="31" r="3" fill="#FF0000"/>
<circle cx="141" cy="55" r="3" fill="#FF0000"/>
<circle cx="141" cy="103" r="3" fill="#FF0000"/>
<circle cx="151" cy="79" r="3" fill="#FF0000"/>
<path d="M140.735 50.2652C140.881 50.4116 141.119 50.4116 141.265 50.2652L143.652 47.8787C143.798 47.7322 143.798 47.4948 143.652 47.3483C143.505 47.2019 143.268 47.2019 143.121 47.3483L141 49.4697L138.879 47.3483C138.732 47.2019 138.495 47.2019 138.348 47.3483C138.202 47.4948 138.202 47.7322 138.348 47.8787L140.735 50.2652ZM140.625 36V50H141.375V36H140.625Z" fill="#636363"/>
<path d="M140.735 98.2652C140.881 98.4116 141.119 98.4116 141.265 98.2652L143.652 95.8787C143.798 95.7322 143.798 95.4948 143.652 95.3484C143.505 95.2019 143.268 95.2019 143.121 95.3484L141 97.4697L138.879 95.3484C138.732 95.2019 138.495 95.2019 138.348 95.3484C138.202 95.4948 138.202 95.7322 138.348 95.8787L140.735 98.2652ZM140.625 60V98H141.375V60H140.625Z" fill="#636363"/>
<path d="M151 103L151 103.375L151.375 103.375L151.375 103L151 103ZM151.265 83.7348C151.119 83.5884 150.881 83.5884 150.735 83.7348L148.348 86.1213C148.202 86.2678 148.202 86.5052 148.348 86.6517C148.495 86.7981 148.732 86.7981 148.879 86.6517L151 84.5303L153.121 86.6517C153.268 86.7981 153.505 86.7981 153.652 86.6517C153.798 86.5052 153.798 86.2678 153.652 86.1213L151.265 83.7348ZM145 103.375L151 103.375L151 102.625L145 102.625L145 103.375ZM151.375 103L151.375 84L150.625 84L150.625 103L151.375 103Z" fill="#636363"/>
<path d="M71.412 30.176L70.476 33.932C70.452 34.028 70.44 34.156 70.44 34.316C70.44 34.692 70.568 34.88 70.824 34.88C71.136 34.88 71.424 34.732 71.688 34.436C71.96 34.14 72.172 33.808 72.324 33.44C72.38 33.312 72.416 33.24 72.432 33.224C72.448 33.192 72.48 33.176 72.528 33.176C72.608 33.176 72.648 33.212 72.648 33.284C72.648 33.308 72.624 33.384 72.576 33.512C72.528 33.632 72.448 33.784 72.336 33.968C72.232 34.152 72.108 34.332 71.964 34.508C71.828 34.676 71.652 34.82 71.436 34.94C71.228 35.06 71.012 35.12 70.788 35.12C70.468 35.12 70.208 35.016 70.008 34.808C69.816 34.592 69.72 34.336 69.72 34.04C69.72 33.96 69.764 33.728 69.852 33.344L70.644 30.176H69.576C69.504 30.176 69.452 30.176 69.42 30.176C69.396 30.176 69.368 30.172 69.336 30.164C69.304 30.156 69.284 30.144 69.276 30.128C69.268 30.112 69.264 30.088 69.264 30.056C69.264 29.952 69.288 29.888 69.336 29.864C69.384 29.84 69.476 29.828 69.612 29.828H70.74L71.208 27.92C71.28 27.64 71.436 27.5 71.676 27.5C71.756 27.5 71.828 27.528 71.892 27.584C71.956 27.64 71.988 27.712 71.988 27.8C71.988 27.872 71.972 27.964 71.94 28.076L71.496 29.828H72.552C72.68 29.828 72.764 29.836 72.804 29.852C72.844 29.86 72.864 29.896 72.864 29.96C72.864 30.056 72.84 30.116 72.792 30.14C72.744 30.164 72.652 30.176 72.516 30.176H71.412Z" fill="black"/>
<path d="M82.256 30.596C82.52 30.596 82.652 30.676 82.652 30.836C82.652 30.996 82.516 31.076 82.244 31.076H75.08C74.808 31.076 74.672 30.996 74.672 30.836C74.672 30.676 74.804 30.596 75.068 30.596H82.256ZM82.244 32.924C82.516 32.924 82.652 33.004 82.652 33.164C82.652 33.324 82.52 33.404 82.256 33.404H75.068C74.804 33.404 74.672 33.324 74.672 33.164C74.672 33.004 74.808 32.924 75.08 32.924H82.244Z" fill="black"/>
<path d="M89.52 31.16C89.52 32.328 89.372 33.232 89.076 33.872C88.644 34.8 87.948 35.264 86.988 35.264C86.628 35.264 86.264 35.172 85.896 34.988C85.536 34.804 85.24 34.492 85.008 34.052C84.648 33.388 84.468 32.424 84.468 31.16C84.468 29.984 84.616 29.076 84.912 28.436C85.328 27.484 86.024 27.008 87 27.008C87.208 27.008 87.42 27.036 87.636 27.092C87.852 27.148 88.096 27.284 88.368 27.5C88.648 27.716 88.872 28 89.04 28.352C89.36 29.032 89.52 29.968 89.52 31.16ZM88.524 31.016C88.524 29.904 88.484 29.124 88.404 28.676C88.3 28.156 88.108 27.792 87.828 27.584C87.548 27.376 87.268 27.272 86.988 27.272C86.884 27.272 86.776 27.288 86.664 27.32C86.552 27.352 86.416 27.412 86.256 27.5C86.096 27.588 85.952 27.744 85.824 27.968C85.704 28.192 85.616 28.472 85.56 28.808C85.496 29.24 85.464 29.976 85.464 31.016C85.464 32.224 85.508 33.068 85.596 33.548C85.692 34.068 85.872 34.44 86.136 34.664C86.408 34.888 86.692 35 86.988 35C87.308 35 87.6 34.88 87.864 34.64C88.136 34.4 88.312 34.02 88.392 33.5C88.48 32.988 88.524 32.16 88.524 31.016ZM92.112 30.02C92.24 30.14 92.304 30.288 92.304 30.464C92.304 30.64 92.24 30.792 92.112 30.92C91.992 31.04 91.844 31.1 91.668 31.1C91.492 31.1 91.34 31.04 91.212 30.92C91.092 30.792 91.032 30.64 91.032 30.464C91.032 30.288 91.092 30.14 91.212 30.02C91.34 29.892 91.492 29.828 91.668 29.828C91.844 29.828 91.992 29.892 92.112 30.02ZM92.34 34.964C92.34 35.38 92.264 35.78 92.112 36.164C91.96 36.556 91.808 36.844 91.656 37.028C91.504 37.22 91.4 37.316 91.344 37.316C91.264 37.316 91.224 37.272 91.224 37.184C91.224 37.144 91.252 37.092 91.308 37.028C91.82 36.436 92.076 35.716 92.076 34.868C92.004 34.932 91.9 34.972 91.764 34.988C91.74 34.996 91.708 35 91.668 35C91.468 35 91.312 34.936 91.2 34.808C91.088 34.68 91.032 34.532 91.032 34.364C91.032 34.196 91.088 34.048 91.2 33.92C91.312 33.792 91.468 33.728 91.668 33.728C92.116 33.728 92.34 34.14 92.34 34.964Z" fill="black"/>
<path d="M72.412 53.176L71.476 56.932C71.452 57.028 71.44 57.156 71.44 57.316C71.44 57.692 71.568 57.88 71.824 57.88C72.136 57.88 72.424 57.732 72.688 57.436C72.96 57.14 73.172 56.808 73.324 56.44C73.38 56.312 73.416 56.24 73.432 56.224C73.448 56.192 73.48 56.176 73.528 56.176C73.608 56.176 73.648 56.212 73.648 56.284C73.648 56.308 73.624 56.384 73.576 56.512C73.528 56.632 73.448 56.784 73.336 56.968C73.232 57.152 73.108 57.332 72.964 57.508C72.828 57.676 72.652 57.82 72.436 57.94C72.228 58.06 72.012 58.12 71.788 58.12C71.468 58.12 71.208 58.016 71.008 57.808C70.816 57.592 70.72 57.336 70.72 57.04C70.72 56.96 70.764 56.728 70.852 56.344L71.644 53.176H70.576C70.504 53.176 70.452 53.176 70.42 53.176C70.396 53.176 70.368 53.172 70.336 53.164C70.304 53.156 70.284 53.144 70.276 53.128C70.268 53.112 70.264 53.088 70.264 53.056C70.264 52.952 70.288 52.888 70.336 52.864C70.384 52.84 70.476 52.828 70.612 52.828H71.74L72.208 50.92C72.28 50.64 72.436 50.5 72.676 50.5C72.756 50.5 72.828 50.528 72.892 50.584C72.956 50.64 72.988 50.712 72.988 50.8C72.988 50.872 72.972 50.964 72.94 51.076L72.496 52.828H73.552C73.68 52.828 73.764 52.836 73.804 52.852C73.844 52.86 73.864 52.896 73.864 52.96C73.864 53.056 73.84 53.116 73.792 53.14C73.744 53.164 73.652 53.176 73.516 53.176H72.412Z" fill="black"/>
<path d="M83.256 53.596C83.52 53.596 83.652 53.676 83.652 53.836C83.652 53.996 83.516 54.076 83.244 54.076H76.08C75.808 54.076 75.672 53.996 75.672 53.836C75.672 53.676 75.804 53.596 76.068 53.596H83.256ZM83.244 55.924C83.516 55.924 83.652 56.004 83.652 56.164C83.652 56.324 83.52 56.404 83.256 56.404H76.068C75.804 56.404 75.672 56.324 75.672 56.164C75.672 56.004 75.808 55.924 76.08 55.924H83.244Z" fill="black"/>
<path d="M90.028 58C89.748 57.976 89.1 57.964 88.084 57.964C87.068 57.964 86.42 57.976 86.14 58V57.628H86.524C87.028 57.628 87.34 57.592 87.46 57.52C87.58 57.448 87.64 57.292 87.64 57.052V50.836C87.224 51.044 86.7 51.148 86.068 51.148V50.776C87.028 50.776 87.756 50.52 88.252 50.008C88.388 50.008 88.468 50.024 88.492 50.056C88.516 50.088 88.528 50.176 88.528 50.32V57.052C88.528 57.292 88.584 57.448 88.696 57.52C88.816 57.592 89.132 57.628 89.644 57.628H90.028V58ZM93.112 53.02C93.24 53.14 93.304 53.288 93.304 53.464C93.304 53.64 93.24 53.792 93.112 53.92C92.992 54.04 92.844 54.1 92.668 54.1C92.492 54.1 92.34 54.04 92.212 53.92C92.092 53.792 92.032 53.64 92.032 53.464C92.032 53.288 92.092 53.14 92.212 53.02C92.34 52.892 92.492 52.828 92.668 52.828C92.844 52.828 92.992 52.892 93.112 53.02ZM93.34 57.964C93.34 58.38 93.264 58.78 93.112 59.164C92.96 59.556 92.808 59.844 92.656 60.028C92.504 60.22 92.4 60.316 92.344 60.316C92.264 60.316 92.224 60.272 92.224 60.184C92.224 60.144 92.252 60.092 92.308 60.028C92.82 59.436 93.076 58.716 93.076 57.868C93.004 57.932 92.9 57.972 92.764 57.988C92.74 57.996 92.708 58 92.668 58C92.468 58 92.312 57.936 92.2 57.808C92.088 57.68 92.032 57.532 92.032 57.364C92.032 57.196 92.088 57.048 92.2 56.92C92.312 56.792 92.468 56.728 92.668 56.728C93.116 56.728 93.34 57.14 93.34 57.964Z" fill="black"/>
<path d="M72.412 102.176L71.476 105.932C71.452 106.028 71.44 106.156 71.44 106.316C71.44 106.692 71.568 106.88 71.824 106.88C72.136 106.88 72.424 106.732 72.688 106.436C72.96 106.14 73.172 105.808 73.324 105.44C73.38 105.312 73.416 105.24 73.432 105.224C73.448 105.192 73.48 105.176 73.528 105.176C73.608 105.176 73.648 105.212 73.648 105.284C73.648 105.308 73.624 105.384 73.576 105.512C73.528 105.632 73.448 105.784 73.336 105.968C73.232 106.152 73.108 106.332 72.964 106.508C72.828 106.676 72.652 106.82 72.436 106.94C72.228 107.06 72.012 107.12 71.788 107.12C71.468 107.12 71.208 107.016 71.008 106.808C70.816 106.592 70.72 106.336 70.72 106.04C70.72 105.96 70.764 105.728 70.852 105.344L71.644 102.176H70.576C70.504 102.176 70.452 102.176 70.42 102.176C70.396 102.176 70.368 102.172 70.336 102.164C70.304 102.156 70.284 102.144 70.276 102.128C70.268 102.112 70.264 102.088 70.264 102.056C70.264 101.952 70.288 101.888 70.336 101.864C70.384 101.84 70.476 101.828 70.612 101.828H71.74L72.208 99.92C72.28 99.64 72.436 99.5 72.676 99.5C72.756 99.5 72.828 99.528 72.892 99.584C72.956 99.64 72.988 99.712 72.988 99.8C72.988 99.872 72.972 99.964 72.94 100.076L72.496 101.828H73.552C73.68 101.828 73.764 101.836 73.804 101.852C73.844 101.86 73.864 101.896 73.864 101.96C73.864 102.056 73.84 102.116 73.792 102.14C73.744 102.164 73.652 102.176 73.516 102.176H72.412Z" fill="black"/>
<path d="M83.256 102.596C83.52 102.596 83.652 102.676 83.652 102.836C83.652 102.996 83.516 103.076 83.244 103.076H76.08C75.808 103.076 75.672 102.996 75.672 102.836C75.672 102.676 75.804 102.596 76.068 102.596H83.256ZM83.244 104.924C83.516 104.924 83.652 105.004 83.652 105.164C83.652 105.324 83.52 105.404 83.256 105.404H76.068C75.804 105.404 75.672 105.324 75.672 105.164C75.672 105.004 75.808 104.924 76.08 104.924H83.244Z" fill="black"/>
<path d="M90.388 104.912L90.052 107H85.6C85.6 106.856 85.604 106.764 85.612 106.724C85.628 106.676 85.668 106.62 85.732 106.556L88.036 103.988C88.876 103.044 89.296 102.16 89.296 101.336C89.296 100.8 89.156 100.34 88.876 99.956C88.596 99.572 88.2 99.38 87.688 99.38C87.336 99.38 87.012 99.488 86.716 99.704C86.42 99.92 86.204 100.22 86.068 100.604C86.092 100.596 86.144 100.592 86.224 100.592C86.424 100.592 86.58 100.656 86.692 100.784C86.804 100.904 86.86 101.048 86.86 101.216C86.86 101.432 86.788 101.592 86.644 101.696C86.508 101.8 86.372 101.852 86.236 101.852C86.18 101.852 86.116 101.848 86.044 101.84C85.972 101.824 85.88 101.76 85.768 101.648C85.656 101.536 85.6 101.38 85.6 101.18C85.6 100.62 85.812 100.12 86.236 99.68C86.66 99.232 87.196 99.008 87.844 99.008C88.58 99.008 89.188 99.228 89.668 99.668C90.148 100.1 90.388 100.656 90.388 101.336C90.388 101.576 90.352 101.804 90.28 102.02C90.208 102.236 90.124 102.428 90.028 102.596C89.932 102.764 89.756 102.984 89.5 103.256C89.244 103.52 89.012 103.748 88.804 103.94C88.596 104.132 88.26 104.432 87.796 104.84L86.524 106.076H88.684C89.388 106.076 89.768 106.044 89.824 105.98C89.904 105.868 89.992 105.512 90.088 104.912H90.388ZM93.112 102.02C93.24 102.14 93.304 102.288 93.304 102.464C93.304 102.64 93.24 102.792 93.112 102.92C92.992 103.04 92.844 103.1 92.668 103.1C92.492 103.1 92.34 103.04 92.212 102.92C92.092 102.792 92.032 102.64 92.032 102.464C92.032 102.288 92.092 102.14 92.212 102.02C92.34 101.892 92.492 101.828 92.668 101.828C92.844 101.828 92.992 101.892 93.112 102.02ZM93.34 106.964C93.34 107.38 93.264 107.78 93.112 108.164C92.96 108.556 92.808 108.844 92.656 109.028C92.504 109.22 92.4 109.316 92.344 109.316C92.264 109.316 92.224 109.272 92.224 109.184C92.224 109.144 92.252 109.092 92.308 109.028C92.82 108.436 93.076 107.716 93.076 106.868C93.004 106.932 92.9 106.972 92.764 106.988C92.74 106.996 92.708 107 92.668 107C92.468 107 92.312 106.936 92.2 106.808C92.088 106.68 92.032 106.532 92.032 106.364C92.032 106.196 92.088 106.048 92.2 105.92C92.312 105.792 92.468 105.728 92.668 105.728C93.116 105.728 93.34 106.14 93.34 106.964Z" fill="black"/>
<path d="M164.412 77.176L163.476 80.932C163.452 81.028 163.44 81.156 163.44 81.316C163.44 81.692 163.568 81.88 163.824 81.88C164.136 81.88 164.424 81.732 164.688 81.436C164.96 81.14 165.172 80.808 165.324 80.44C165.38 80.312 165.416 80.24 165.432 80.224C165.448 80.192 165.48 80.176 165.528 80.176C165.608 80.176 165.648 80.212 165.648 80.284C165.648 80.308 165.624 80.384 165.576 80.512C165.528 80.632 165.448 80.784 165.336 80.968C165.232 81.152 165.108 81.332 164.964 81.508C164.828 81.676 164.652 81.82 164.436 81.94C164.228 82.06 164.012 82.12 163.788 82.12C163.468 82.12 163.208 82.016 163.008 81.808C162.816 81.592 162.72 81.336 162.72 81.04C162.72 80.96 162.764 80.728 162.852 80.344L163.644 77.176H162.576C162.504 77.176 162.452 77.176 162.42 77.176C162.396 77.176 162.368 77.172 162.336 77.164C162.304 77.156 162.284 77.144 162.276 77.128C162.268 77.112 162.264 77.088 162.264 77.056C162.264 76.952 162.288 76.888 162.336 76.864C162.384 76.84 162.476 76.828 162.612 76.828H163.74L164.208 74.92C164.28 74.64 164.436 74.5 164.676 74.5C164.756 74.5 164.828 74.528 164.892 74.584C164.956 74.64 164.988 74.712 164.988 74.8C164.988 74.872 164.972 74.964 164.94 75.076L164.496 76.828H165.552C165.68 76.828 165.764 76.836 165.804 76.852C165.844 76.86 165.864 76.896 165.864 76.96C165.864 77.056 165.84 77.116 165.792 77.14C165.744 77.164 165.652 77.176 165.516 77.176H164.412Z" fill="black"/>
<path d="M175.256 77.596C175.52 77.596 175.652 77.676 175.652 77.836C175.652 77.996 175.516 78.076 175.244 78.076H168.08C167.808 78.076 167.672 77.996 167.672 77.836C167.672 77.676 167.804 77.596 168.068 77.596H175.256ZM175.244 79.924C175.516 79.924 175.652 80.004 175.652 80.164C175.652 80.324 175.52 80.404 175.256 80.404H168.068C167.804 80.404 167.672 80.324 167.672 80.164C167.672 80.004 167.808 79.924 168.08 79.924H175.244Z" fill="black"/>
<path d="M182.484 79.948C182.484 80.572 182.236 81.116 181.74 81.58C181.252 82.036 180.648 82.264 179.928 82.264C179.264 82.264 178.692 82.084 178.212 81.724C177.74 81.364 177.504 80.916 177.504 80.38C177.504 80.14 177.572 79.964 177.708 79.852C177.844 79.74 178 79.684 178.176 79.684C178.36 79.684 178.516 79.744 178.644 79.864C178.78 79.984 178.848 80.148 178.848 80.356C178.848 80.58 178.768 80.756 178.608 80.884C178.456 81.004 178.272 81.048 178.056 81.016C178.248 81.336 178.52 81.568 178.872 81.712C179.224 81.856 179.564 81.928 179.892 81.928C180.236 81.928 180.548 81.78 180.828 81.484C181.108 81.188 181.248 80.676 181.248 79.948C181.248 79.332 181.128 78.848 180.888 78.496C180.648 78.136 180.292 77.956 179.82 77.956H179.292C179.172 77.956 179.092 77.952 179.052 77.944C179.02 77.928 179.004 77.888 179.004 77.824C179.004 77.744 179.064 77.696 179.184 77.68C179.304 77.68 179.46 77.668 179.652 77.644C180.116 77.628 180.472 77.42 180.72 77.02C180.944 76.644 181.056 76.188 181.056 75.652C181.056 75.164 180.94 74.82 180.708 74.62C180.476 74.412 180.208 74.308 179.904 74.308C179.624 74.308 179.328 74.368 179.016 74.488C178.712 74.6 178.476 74.788 178.308 75.052C178.804 75.052 179.052 75.252 179.052 75.652C179.052 75.828 178.996 75.976 178.884 76.096C178.772 76.208 178.624 76.264 178.44 76.264C178.264 76.264 178.116 76.208 177.996 76.096C177.884 75.984 177.828 75.832 177.828 75.64C177.828 75.184 178.032 74.8 178.44 74.488C178.848 74.168 179.352 74.008 179.952 74.008C180.544 74.008 181.06 74.164 181.5 74.476C181.94 74.788 182.16 75.184 182.16 75.664C182.16 76.136 182.004 76.568 181.692 76.96C181.38 77.344 180.976 77.616 180.48 77.776C181.088 77.896 181.572 78.164 181.932 78.58C182.3 78.988 182.484 79.444 182.484 79.948ZM185.112 77.02C185.24 77.14 185.304 77.288 185.304 77.464C185.304 77.64 185.24 77.792 185.112 77.92C184.992 78.04 184.844 78.1 184.668 78.1C184.492 78.1 184.34 78.04 184.212 77.92C184.092 77.792 184.032 77.64 184.032 77.464C184.032 77.288 184.092 77.14 184.212 77.02C184.34 76.892 184.492 76.828 184.668 76.828C184.844 76.828 184.992 76.892 185.112 77.02ZM185.34 81.964C185.34 82.38 185.264 82.78 185.112 83.164C184.96 83.556 184.808 83.844 184.656 84.028C184.504 84.22 184.4 84.316 184.344 84.316C184.264 84.316 184.224 84.272 184.224 84.184C184.224 84.144 184.252 84.092 184.308 84.028C184.82 83.436 185.076 82.716 185.076 81.868C185.004 81.932 184.9 81.972 184.764 81.988C184.74 81.996 184.708 82 184.668 82C184.468 82 184.312 81.936 184.2 81.808C184.088 81.68 184.032 81.532 184.032 81.364C184.032 81.196 184.088 81.048 184.2 80.92C184.312 80.792 184.468 80.728 184.668 80.728C185.116 80.728 185.34 81.14 185.34 81.964Z" fill="black"/>
<path d="M103.484 30.512C103.484 30.68 103.456 30.928 103.4 31.256C103.344 31.584 103.248 31.976 103.112 32.432C102.976 32.88 102.808 33.304 102.608 33.704C102.416 34.096 102.16 34.432 101.84 34.712C101.528 34.984 101.184 35.12 100.808 35.12C100.336 35.12 99.956 34.996 99.668 34.748C99.396 34.5 99.26 34.136 99.26 33.656C99.26 33.216 99.452 32.484 99.836 31.46C100.044 30.932 100.148 30.56 100.148 30.344C100.148 30.224 100.128 30.132 100.088 30.068C100.048 30.004 100.008 29.968 99.968 29.96C99.936 29.952 99.892 29.948 99.836 29.948C99.596 29.948 99.368 30.072 99.152 30.32C98.936 30.568 98.76 30.94 98.624 31.436C98.6 31.532 98.576 31.592 98.552 31.616C98.536 31.64 98.504 31.652 98.456 31.652C98.368 31.652 98.324 31.616 98.324 31.544C98.324 31.496 98.352 31.384 98.408 31.208C98.472 31.032 98.56 30.828 98.672 30.596C98.792 30.364 98.956 30.16 99.164 29.984C99.38 29.8 99.616 29.708 99.872 29.708C100.152 29.708 100.38 29.804 100.556 29.996C100.732 30.18 100.82 30.404 100.82 30.668C100.82 30.828 100.74 31.112 100.58 31.52C100.18 32.584 99.98 33.352 99.98 33.824C99.98 34.528 100.272 34.88 100.856 34.88C101.192 34.88 101.504 34.736 101.792 34.448C102.088 34.152 102.316 33.808 102.476 33.416C102.644 33.016 102.776 32.648 102.872 32.312C102.968 31.968 103.016 31.72 103.016 31.568C103.016 31.12 102.872 30.768 102.584 30.512C102.496 30.424 102.452 30.332 102.452 30.236C102.452 30.116 102.508 30 102.62 29.888C102.74 29.768 102.868 29.708 103.004 29.708C103.06 29.708 103.116 29.72 103.172 29.744C103.236 29.768 103.304 29.848 103.376 29.984C103.448 30.112 103.484 30.288 103.484 30.512Z" fill="black"/>
<path d="M113.256 30.596C113.52 30.596 113.652 30.676 113.652 30.836C113.652 30.996 113.516 31.076 113.244 31.076H106.08C105.808 31.076 105.672 30.996 105.672 30.836C105.672 30.676 105.804 30.596 106.068 30.596H113.256ZM113.244 32.924C113.516 32.924 113.652 33.004 113.652 33.164C113.652 33.324 113.52 33.404 113.256 33.404H106.068C105.804 33.404 105.672 33.324 105.672 33.164C105.672 33.004 105.808 32.924 106.08 32.924H113.244Z" fill="black"/>
<path d="M120.52 31.16C120.52 32.328 120.372 33.232 120.076 33.872C119.644 34.8 118.948 35.264 117.988 35.264C117.628 35.264 117.264 35.172 116.896 34.988C116.536 34.804 116.24 34.492 116.008 34.052C115.648 33.388 115.468 32.424 115.468 31.16C115.468 29.984 115.616 29.076 115.912 28.436C116.328 27.484 117.024 27.008 118 27.008C118.208 27.008 118.42 27.036 118.636 27.092C118.852 27.148 119.096 27.284 119.368 27.5C119.648 27.716 119.872 28 120.04 28.352C120.36 29.032 120.52 29.968 120.52 31.16ZM119.524 31.016C119.524 29.904 119.484 29.124 119.404 28.676C119.3 28.156 119.108 27.792 118.828 27.584C118.548 27.376 118.268 27.272 117.988 27.272C117.884 27.272 117.776 27.288 117.664 27.32C117.552 27.352 117.416 27.412 117.256 27.5C117.096 27.588 116.952 27.744 116.824 27.968C116.704 28.192 116.616 28.472 116.56 28.808C116.496 29.24 116.464 29.976 116.464 31.016C116.464 32.224 116.508 33.068 116.596 33.548C116.692 34.068 116.872 34.44 117.136 34.664C117.408 34.888 117.692 35 117.988 35C118.308 35 118.6 34.88 118.864 34.64C119.136 34.4 119.312 34.02 119.392 33.5C119.48 32.988 119.524 32.16 119.524 31.016Z" fill="black"/>
<path d="M104.484 53.512C104.484 53.68 104.456 53.928 104.4 54.256C104.344 54.584 104.248 54.976 104.112 55.432C103.976 55.88 103.808 56.304 103.608 56.704C103.416 57.096 103.16 57.432 102.84 57.712C102.528 57.984 102.184 58.12 101.808 58.12C101.336 58.12 100.956 57.996 100.668 57.748C100.396 57.5 100.26 57.136 100.26 56.656C100.26 56.216 100.452 55.484 100.836 54.46C101.044 53.932 101.148 53.56 101.148 53.344C101.148 53.224 101.128 53.132 101.088 53.068C101.048 53.004 101.008 52.968 100.968 52.96C100.936 52.952 100.892 52.948 100.836 52.948C100.596 52.948 100.368 53.072 100.152 53.32C99.936 53.568 99.76 53.94 99.624 54.436C99.6 54.532 99.576 54.592 99.552 54.616C99.536 54.64 99.504 54.652 99.456 54.652C99.368 54.652 99.324 54.616 99.324 54.544C99.324 54.496 99.352 54.384 99.408 54.208C99.472 54.032 99.56 53.828 99.672 53.596C99.792 53.364 99.956 53.16 100.164 52.984C100.38 52.8 100.616 52.708 100.872 52.708C101.152 52.708 101.38 52.804 101.556 52.996C101.732 53.18 101.82 53.404 101.82 53.668C101.82 53.828 101.74 54.112 101.58 54.52C101.18 55.584 100.98 56.352 100.98 56.824C100.98 57.528 101.272 57.88 101.856 57.88C102.192 57.88 102.504 57.736 102.792 57.448C103.088 57.152 103.316 56.808 103.476 56.416C103.644 56.016 103.776 55.648 103.872 55.312C103.968 54.968 104.016 54.72 104.016 54.568C104.016 54.12 103.872 53.768 103.584 53.512C103.496 53.424 103.452 53.332 103.452 53.236C103.452 53.116 103.508 53 103.62 52.888C103.74 52.768 103.868 52.708 104.004 52.708C104.06 52.708 104.116 52.72 104.172 52.744C104.236 52.768 104.304 52.848 104.376 52.984C104.448 53.112 104.484 53.288 104.484 53.512Z" fill="black"/>
<path d="M114.256 53.596C114.52 53.596 114.652 53.676 114.652 53.836C114.652 53.996 114.516 54.076 114.244 54.076H107.08C106.808 54.076 106.672 53.996 106.672 53.836C106.672 53.676 106.804 53.596 107.068 53.596H114.256ZM114.244 55.924C114.516 55.924 114.652 56.004 114.652 56.164C114.652 56.324 114.52 56.404 114.256 56.404H107.068C106.804 56.404 106.672 56.324 106.672 56.164C106.672 56.004 106.808 55.924 107.08 55.924H114.244Z" fill="black"/>
<path d="M121.028 58C120.748 57.976 120.1 57.964 119.084 57.964C118.068 57.964 117.42 57.976 117.14 58V57.628H117.524C118.028 57.628 118.34 57.592 118.46 57.52C118.58 57.448 118.64 57.292 118.64 57.052V50.836C118.224 51.044 117.7 51.148 117.068 51.148V50.776C118.028 50.776 118.756 50.52 119.252 50.008C119.388 50.008 119.468 50.024 119.492 50.056C119.516 50.088 119.528 50.176 119.528 50.32V57.052C119.528 57.292 119.584 57.448 119.696 57.52C119.816 57.592 120.132 57.628 120.644 57.628H121.028V58Z" fill="black"/>
<path d="M104.484 102.512C104.484 102.68 104.456 102.928 104.4 103.256C104.344 103.584 104.248 103.976 104.112 104.432C103.976 104.88 103.808 105.304 103.608 105.704C103.416 106.096 103.16 106.432 102.84 106.712C102.528 106.984 102.184 107.12 101.808 107.12C101.336 107.12 100.956 106.996 100.668 106.748C100.396 106.5 100.26 106.136 100.26 105.656C100.26 105.216 100.452 104.484 100.836 103.46C101.044 102.932 101.148 102.56 101.148 102.344C101.148 102.224 101.128 102.132 101.088 102.068C101.048 102.004 101.008 101.968 100.968 101.96C100.936 101.952 100.892 101.948 100.836 101.948C100.596 101.948 100.368 102.072 100.152 102.32C99.936 102.568 99.76 102.94 99.624 103.436C99.6 103.532 99.576 103.592 99.552 103.616C99.536 103.64 99.504 103.652 99.456 103.652C99.368 103.652 99.324 103.616 99.324 103.544C99.324 103.496 99.352 103.384 99.408 103.208C99.472 103.032 99.56 102.828 99.672 102.596C99.792 102.364 99.956 102.16 100.164 101.984C100.38 101.8 100.616 101.708 100.872 101.708C101.152 101.708 101.38 101.804 101.556 101.996C101.732 102.18 101.82 102.404 101.82 102.668C101.82 102.828 101.74 103.112 101.58 103.52C101.18 104.584 100.98 105.352 100.98 105.824C100.98 106.528 101.272 106.88 101.856 106.88C102.192 106.88 102.504 106.736 102.792 106.448C103.088 106.152 103.316 105.808 103.476 105.416C103.644 105.016 103.776 104.648 103.872 104.312C103.968 103.968 104.016 103.72 104.016 103.568C104.016 103.12 103.872 102.768 103.584 102.512C103.496 102.424 103.452 102.332 103.452 102.236C103.452 102.116 103.508 102 103.62 101.888C103.74 101.768 103.868 101.708 104.004 101.708C104.06 101.708 104.116 101.72 104.172 101.744C104.236 101.768 104.304 101.848 104.376 101.984C104.448 102.112 104.484 102.288 104.484 102.512Z" fill="black"/>
<path d="M114.256 102.596C114.52 102.596 114.652 102.676 114.652 102.836C114.652 102.996 114.516 103.076 114.244 103.076H107.08C106.808 103.076 106.672 102.996 106.672 102.836C106.672 102.676 106.804 102.596 107.068 102.596H114.256ZM114.244 104.924C114.516 104.924 114.652 105.004 114.652 105.164C114.652 105.324 114.52 105.404 114.256 105.404H107.068C106.804 105.404 106.672 105.324 106.672 105.164C106.672 105.004 106.808 104.924 107.08 104.924H114.244Z" fill="black"/>
<path d="M121.388 104.912L121.052 107H116.6C116.6 106.856 116.604 106.764 116.612 106.724C116.628 106.676 116.668 106.62 116.732 106.556L119.036 103.988C119.876 103.044 120.296 102.16 120.296 101.336C120.296 100.8 120.156 100.34 119.876 99.956C119.596 99.572 119.2 99.38 118.688 99.38C118.336 99.38 118.012 99.488 117.716 99.704C117.42 99.92 117.204 100.22 117.068 100.604C117.092 100.596 117.144 100.592 117.224 100.592C117.424 100.592 117.58 100.656 117.692 100.784C117.804 100.904 117.86 101.048 117.86 101.216C117.86 101.432 117.788 101.592 117.644 101.696C117.508 101.8 117.372 101.852 117.236 101.852C117.18 101.852 117.116 101.848 117.044 101.84C116.972 101.824 116.88 101.76 116.768 101.648C116.656 101.536 116.6 101.38 116.6 101.18C116.6 100.62 116.812 100.12 117.236 99.68C117.66 99.232 118.196 99.008 118.844 99.008C119.58 99.008 120.188 99.228 120.668 99.668C121.148 100.1 121.388 100.656 121.388 101.336C121.388 101.576 121.352 101.804 121.28 102.02C121.208 102.236 121.124 102.428 121.028 102.596C120.932 102.764 120.756 102.984 120.5 103.256C120.244 103.52 120.012 103.748 119.804 103.94C119.596 104.132 119.26 104.432 118.796 104.84L117.524 106.076H119.684C120.388 106.076 120.768 106.044 120.824 105.98C120.904 105.868 120.992 105.512 121.088 104.912H121.388Z" fill="black"/>
<path d="M196.484 77.512C196.484 77.68 196.456 77.928 196.4 78.256C196.344 78.584 196.248 78.976 196.112 79.432C195.976 79.88 195.808 80.304 195.608 80.704C195.416 81.096 195.16 81.432 194.84 81.712C194.528 81.984 194.184 82.12 193.808 82.12C193.336 82.12 192.956 81.996 192.668 81.748C192.396 81.5 192.26 81.136 192.26 80.656C192.26 80.216 192.452 79.484 192.836 78.46C193.044 77.932 193.148 77.56 193.148 77.344C193.148 77.224 193.128 77.132 193.088 77.068C193.048 77.004 193.008 76.968 192.968 76.96C192.936 76.952 192.892 76.948 192.836 76.948C192.596 76.948 192.368 77.072 192.152 77.32C191.936 77.568 191.76 77.94 191.624 78.436C191.6 78.532 191.576 78.592 191.552 78.616C191.536 78.64 191.504 78.652 191.456 78.652C191.368 78.652 191.324 78.616 191.324 78.544C191.324 78.496 191.352 78.384 191.408 78.208C191.472 78.032 191.56 77.828 191.672 77.596C191.792 77.364 191.956 77.16 192.164 76.984C192.38 76.8 192.616 76.708 192.872 76.708C193.152 76.708 193.38 76.804 193.556 76.996C193.732 77.18 193.82 77.404 193.82 77.668C193.82 77.828 193.74 78.112 193.58 78.52C193.18 79.584 192.98 80.352 192.98 80.824C192.98 81.528 193.272 81.88 193.856 81.88C194.192 81.88 194.504 81.736 194.792 81.448C195.088 81.152 195.316 80.808 195.476 80.416C195.644 80.016 195.776 79.648 195.872 79.312C195.968 78.968 196.016 78.72 196.016 78.568C196.016 78.12 195.872 77.768 195.584 77.512C195.496 77.424 195.452 77.332 195.452 77.236C195.452 77.116 195.508 77 195.62 76.888C195.74 76.768 195.868 76.708 196.004 76.708C196.06 76.708 196.116 76.72 196.172 76.744C196.236 76.768 196.304 76.848 196.376 76.984C196.448 77.112 196.484 77.288 196.484 77.512Z" fill="black"/>
<path d="M206.256 77.596C206.52 77.596 206.652 77.676 206.652 77.836C206.652 77.996 206.516 78.076 206.244 78.076H199.08C198.808 78.076 198.672 77.996 198.672 77.836C198.672 77.676 198.804 77.596 199.068 77.596H206.256ZM206.244 79.924C206.516 79.924 206.652 80.004 206.652 80.164C206.652 80.324 206.52 80.404 206.256 80.404H199.068C198.804 80.404 198.672 80.324 198.672 80.164C198.672 80.004 198.808 79.924 199.08 79.924H206.244Z" fill="black"/>
<path d="M211.312 79.756H208.132V79.06H211.312V79.756ZM217.024 82C216.744 81.976 216.096 81.964 215.08 81.964C214.064 81.964 213.416 81.976 213.136 82V81.628H213.52C214.024 81.628 214.336 81.592 214.456 81.52C214.576 81.448 214.636 81.292 214.636 81.052V74.836C214.22 75.044 213.696 75.148 213.064 75.148V74.776C214.024 74.776 214.752 74.52 215.248 74.008C215.384 74.008 215.464 74.024 215.488 74.056C215.512 74.088 215.524 74.176 215.524 74.32V81.052C215.524 81.292 215.58 81.448 215.692 81.52C215.812 81.592 216.128 81.628 216.64 81.628H217.024V82Z" fill="black"/>
<path d="M104.484 116.512C104.484 116.68 104.456 116.928 104.4 117.256C104.344 117.584 104.248 117.976 104.112 118.432C103.976 118.88 103.808 119.304 103.608 119.704C103.416 120.096 103.16 120.432 102.84 120.712C102.528 120.984 102.184 121.12 101.808 121.12C101.336 121.12 100.956 120.996 100.668 120.748C100.396 120.5 100.26 120.136 100.26 119.656C100.26 119.216 100.452 118.484 100.836 117.46C101.044 116.932 101.148 116.56 101.148 116.344C101.148 116.224 101.128 116.132 101.088 116.068C101.048 116.004 101.008 115.968 100.968 115.96C100.936 115.952 100.892 115.948 100.836 115.948C100.596 115.948 100.368 116.072 100.152 116.32C99.936 116.568 99.76 116.94 99.624 117.436C99.6 117.532 99.576 117.592 99.552 117.616C99.536 117.64 99.504 117.652 99.456 117.652C99.368 117.652 99.324 117.616 99.324 117.544C99.324 117.496 99.352 117.384 99.408 117.208C99.472 117.032 99.56 116.828 99.672 116.596C99.792 116.364 99.956 116.16 100.164 115.984C100.38 115.8 100.616 115.708 100.872 115.708C101.152 115.708 101.38 115.804 101.556 115.996C101.732 116.18 101.82 116.404 101.82 116.668C101.82 116.828 101.74 117.112 101.58 117.52C101.18 118.584 100.98 119.352 100.98 119.824C100.98 120.528 101.272 120.88 101.856 120.88C102.192 120.88 102.504 120.736 102.792 120.448C103.088 120.152 103.316 119.808 103.476 119.416C103.644 119.016 103.776 118.648 103.872 118.312C103.968 117.968 104.016 117.72 104.016 117.568C104.016 117.12 103.872 116.768 103.584 116.512C103.496 116.424 103.452 116.332 103.452 116.236C103.452 116.116 103.508 116 103.62 115.888C103.74 115.768 103.868 115.708 104.004 115.708C104.06 115.708 104.116 115.72 104.172 115.744C104.236 115.768 104.304 115.848 104.376 115.984C104.448 116.112 104.484 116.288 104.484 116.512Z" fill="black"/>
<path d="M114.256 116.596C114.52 116.596 114.652 116.676 114.652 116.836C114.652 116.996 114.516 117.076 114.244 117.076H107.08C106.808 117.076 106.672 116.996 106.672 116.836C106.672 116.676 106.804 116.596 107.068 116.596H114.256ZM114.244 118.924C114.516 118.924 114.652 119.004 114.652 119.164C114.652 119.324 114.52 119.404 114.256 119.404H107.068C106.804 119.404 106.672 119.324 106.672 119.164C106.672 119.004 106.808 118.924 107.08 118.924H114.244Z" fill="black"/>
<path d="M119.312 118.756H116.132V118.06H119.312V118.756ZM125.384 118.912L125.048 121H120.596C120.596 120.856 120.6 120.764 120.608 120.724C120.624 120.676 120.664 120.62 120.728 120.556L123.032 117.988C123.872 117.044 124.292 116.16 124.292 115.336C124.292 114.8 124.152 114.34 123.872 113.956C123.592 113.572 123.196 113.38 122.684 113.38C122.332 113.38 122.008 113.488 121.712 113.704C121.416 113.92 121.2 114.22 121.064 114.604C121.088 114.596 121.14 114.592 121.22 114.592C121.42 114.592 121.576 114.656 121.688 114.784C121.8 114.904 121.856 115.048 121.856 115.216C121.856 115.432 121.784 115.592 121.64 115.696C121.504 115.8 121.368 115.852 121.232 115.852C121.176 115.852 121.112 115.848 121.04 115.84C120.968 115.824 120.876 115.76 120.764 115.648C120.652 115.536 120.596 115.38 120.596 115.18C120.596 114.62 120.808 114.12 121.232 113.68C121.656 113.232 122.192 113.008 122.84 113.008C123.576 113.008 124.184 113.228 124.664 113.668C125.144 114.1 125.384 114.656 125.384 115.336C125.384 115.576 125.348 115.804 125.276 116.02C125.204 116.236 125.12 116.428 125.024 116.596C124.928 116.764 124.752 116.984 124.496 117.256C124.24 117.52 124.008 117.748 123.8 117.94C123.592 118.132 123.256 118.432 122.792 118.84L121.52 120.076H123.68C124.384 120.076 124.764 120.044 124.82 119.98C124.9 119.868 124.988 119.512 125.084 118.912H125.384Z" fill="black"/>
</g>
<defs>
<filter id="filter0_d" x="0" y="0" width="249" height="161" filterUnits="userSpaceOnUse" color-interpolation-filters="sRGB">
<feFlood flood-opacity="0" result="BackgroundImageFix"/>
<feColorMatrix in="SourceAlpha" type="matrix" values="0 0 0 0 0 0 0 0 0 0 0 0 0 0 0 0 0 0 127 0"/>
<feOffset dy="4"/>
<feGaussianBlur stdDeviation="8"/>
<feColorMatrix type="matrix" values="0 0 0 0 0 0 0 0 0 0 0 0 0 0 0 0 0 0 0.25 0"/>
<feBlend mode="normal" in2="BackgroundImageFix" result="effect1_dropShadow"/>
<feBlend mode="normal" in="SourceGraphic" in2="effect1_dropShadow" result="shape"/>
</filter>
</defs>
</svg>
