<svg width="374" height="207" viewBox="0 0 374 207" fill="none" xmlns="http://www.w3.org/2000/svg">
<rect width="374" height="207" fill="white"/>
<circle cx="132.5" cy="76.5" r="60" fill="#E7E7E7" stroke="black"/>
<circle cx="239.5" cy="131.5" r="60" fill="#E7E7E7" stroke="black"/>
<path d="M128.5 73L135.5 80M128.5 80L135.5 73" stroke="#BE2626" stroke-linecap="round"/>
<path d="M236.5 128L243.5 135M236.5 135L243.5 128" stroke="#BE2626" stroke-linecap="round"/>
<path d="M10 15L362 194" stroke="#808080" stroke-linecap="round" stroke-dasharray="4 3"/>
<path d="M185.764 104.479C191.502 93.1739 212.844 118.225 218.92 106.254C212.844 118.225 245.662 120.665 239.924 131.97" stroke="black" stroke-width="0.5" stroke-linecap="round" stroke-linejoin="round"/>
<path d="M185.861 104.28C180.085 115.66 158.988 90.6402 152.873 102.689C158.988 90.6402 126.34 88.3792 132.116 77" stroke="black" stroke-width="0.5" stroke-linecap="round" stroke-linejoin="round"/>
<path d="M152.06 106.361C151.924 106.265 151.744 106.217 151.52 106.217C151.184 106.217 150.868 106.353 150.572 106.625C150.444 106.737 150.308 106.905 150.164 107.129C150.02 107.353 149.936 107.505 149.912 107.585C149.872 107.769 149.828 107.941 149.78 108.101C149.756 108.189 149.724 108.321 149.684 108.497C149.644 108.665 149.612 108.793 149.588 108.881C149.572 108.945 149.516 109.161 149.42 109.529C149.332 109.889 149.248 110.229 149.168 110.549C149.088 110.861 149.044 111.033 149.036 111.065C148.972 111.281 148.828 111.389 148.604 111.389C148.516 111.389 148.44 111.361 148.376 111.305C148.32 111.249 148.292 111.177 148.292 111.089C148.292 111.001 148.364 110.689 148.508 110.153C148.596 109.825 148.676 109.497 148.748 109.169L149.084 107.873C149.22 107.273 149.288 106.905 149.288 106.769C149.288 106.401 149.164 106.217 148.916 106.217C148.7 106.217 148.524 106.345 148.388 106.601C148.26 106.849 148.14 107.193 148.028 107.633C147.996 107.769 147.968 107.853 147.944 107.885C147.928 107.909 147.896 107.921 147.848 107.921C147.76 107.921 147.716 107.885 147.716 107.813C147.716 107.789 147.732 107.713 147.764 107.585C147.804 107.449 147.852 107.285 147.908 107.093C147.972 106.893 148.036 106.729 148.1 106.601C148.324 106.185 148.608 105.977 148.952 105.977C149.208 105.977 149.436 106.061 149.636 106.229C149.836 106.389 149.956 106.621 149.996 106.925C150.428 106.293 150.94 105.977 151.532 105.977C151.82 105.977 152.052 106.049 152.228 106.193C152.412 106.329 152.504 106.497 152.504 106.697C152.504 106.873 152.444 107.025 152.324 107.153C152.204 107.281 152.06 107.345 151.892 107.345C151.788 107.345 151.696 107.313 151.616 107.249C151.536 107.185 151.496 107.089 151.496 106.961C151.496 106.825 151.544 106.701 151.64 106.589C151.744 106.469 151.884 106.393 152.06 106.361Z" fill="black"/>
<path d="M153.093 111.911C153.093 111.931 153.077 111.985 153.045 112.073C153.017 112.161 152.975 112.265 152.919 112.385C152.863 112.501 152.781 112.605 152.673 112.697C152.569 112.785 152.453 112.829 152.325 112.829C152.185 112.829 152.071 112.783 151.983 112.691C151.895 112.599 151.851 112.483 151.851 112.343C151.851 112.271 151.875 112.171 151.923 112.043L152.343 110.927C152.427 110.695 152.469 110.533 152.469 110.441C152.469 110.309 152.417 110.243 152.313 110.243C152.193 110.243 152.079 110.307 151.971 110.435C151.863 110.559 151.775 110.743 151.707 110.987C151.695 111.035 151.683 111.065 151.671 111.077C151.663 111.089 151.647 111.095 151.623 111.095C151.579 111.095 151.557 111.077 151.557 111.041C151.557 111.017 151.571 110.961 151.599 110.873C151.631 110.785 151.675 110.683 151.731 110.567C151.791 110.451 151.873 110.349 151.977 110.261C152.085 110.169 152.203 110.123 152.331 110.123C152.471 110.123 152.585 110.171 152.673 110.267C152.761 110.359 152.805 110.471 152.805 110.603C152.805 110.675 152.785 110.765 152.745 110.873L152.325 111.989C152.233 112.241 152.187 112.415 152.187 112.511C152.187 112.643 152.239 112.709 152.343 112.709C152.455 112.709 152.565 112.651 152.673 112.535C152.781 112.415 152.871 112.229 152.943 111.977C152.955 111.937 152.963 111.911 152.967 111.899C152.975 111.887 152.983 111.877 152.991 111.869C152.999 111.861 153.013 111.857 153.033 111.857C153.073 111.857 153.093 111.875 153.093 111.911ZM153.045 109.025C153.045 109.093 153.015 109.159 152.955 109.223C152.895 109.283 152.825 109.313 152.745 109.313C152.697 109.313 152.651 109.297 152.607 109.265C152.567 109.233 152.547 109.183 152.547 109.115C152.547 109.039 152.577 108.973 152.637 108.917C152.701 108.857 152.769 108.827 152.841 108.827C152.901 108.827 152.949 108.849 152.985 108.893C153.025 108.933 153.045 108.977 153.045 109.025Z" fill="black"/>
<path d="M223.664 98.092C223.528 97.996 223.348 97.948 223.124 97.948C222.788 97.948 222.472 98.084 222.176 98.356C222.048 98.468 221.912 98.636 221.768 98.86C221.624 99.084 221.54 99.236 221.516 99.316C221.476 99.5 221.432 99.672 221.384 99.832C221.36 99.92 221.328 100.052 221.288 100.228C221.248 100.396 221.216 100.524 221.192 100.612C221.176 100.676 221.12 100.892 221.024 101.26C220.936 101.62 220.852 101.96 220.772 102.28C220.692 102.592 220.648 102.764 220.64 102.796C220.576 103.012 220.432 103.12 220.208 103.12C220.12 103.12 220.044 103.092 219.98 103.036C219.924 102.98 219.896 102.908 219.896 102.82C219.896 102.732 219.968 102.42 220.112 101.884C220.2 101.556 220.28 101.228 220.352 100.9L220.688 99.604C220.824 99.004 220.892 98.636 220.892 98.5C220.892 98.132 220.768 97.948 220.52 97.948C220.304 97.948 220.128 98.076 219.992 98.332C219.864 98.58 219.744 98.924 219.632 99.364C219.6 99.5 219.572 99.584 219.548 99.616C219.532 99.64 219.5 99.652 219.452 99.652C219.364 99.652 219.32 99.616 219.32 99.544C219.32 99.52 219.336 99.444 219.368 99.316C219.408 99.18 219.456 99.016 219.512 98.824C219.576 98.624 219.64 98.46 219.704 98.332C219.928 97.916 220.212 97.708 220.556 97.708C220.812 97.708 221.04 97.792 221.24 97.96C221.44 98.12 221.56 98.352 221.6 98.656C222.032 98.024 222.544 97.708 223.136 97.708C223.424 97.708 223.656 97.78 223.832 97.924C224.016 98.06 224.108 98.228 224.108 98.428C224.108 98.604 224.048 98.756 223.928 98.884C223.808 99.012 223.664 99.076 223.496 99.076C223.392 99.076 223.3 99.044 223.22 98.98C223.14 98.916 223.1 98.82 223.1 98.692C223.1 98.556 223.148 98.432 223.244 98.32C223.348 98.2 223.488 98.124 223.664 98.092Z" fill="black"/>
<path d="M225.1 102.598L224.542 104.818C224.47 105.098 224.324 105.318 224.104 105.478C223.884 105.642 223.66 105.724 223.432 105.724C223.296 105.724 223.176 105.694 223.072 105.634C222.972 105.578 222.922 105.492 222.922 105.376C222.922 105.288 222.952 105.214 223.012 105.154C223.072 105.094 223.142 105.064 223.222 105.064C223.286 105.064 223.336 105.082 223.372 105.118C223.408 105.158 223.426 105.204 223.426 105.256C223.426 105.328 223.4 105.39 223.348 105.442C223.3 105.494 223.24 105.528 223.168 105.544C223.244 105.584 223.332 105.604 223.432 105.604C223.592 105.604 223.738 105.53 223.87 105.382C224.002 105.238 224.098 105.052 224.158 104.824L224.728 102.562C224.756 102.438 224.77 102.334 224.77 102.25C224.77 102.066 224.706 101.974 224.578 101.974C224.45 101.974 224.318 102.036 224.182 102.16C224.046 102.28 223.922 102.474 223.81 102.742C223.774 102.794 223.746 102.822 223.726 102.826C223.686 102.826 223.666 102.808 223.666 102.772C223.666 102.76 223.678 102.724 223.702 102.664C223.726 102.6 223.764 102.522 223.816 102.43C223.872 102.338 223.934 102.25 224.002 102.166C224.074 102.078 224.162 102.004 224.266 101.944C224.374 101.884 224.484 101.854 224.596 101.854C224.74 101.854 224.864 101.904 224.968 102.004C225.072 102.1 225.124 102.23 225.124 102.394C225.124 102.466 225.116 102.534 225.1 102.598ZM225.346 100.756C225.346 100.832 225.314 100.9 225.25 100.96C225.19 101.016 225.124 101.044 225.052 101.044C224.992 101.044 224.942 101.024 224.902 100.984C224.866 100.94 224.848 100.894 224.848 100.846C224.848 100.778 224.878 100.714 224.938 100.654C224.998 100.59 225.068 100.558 225.148 100.558C225.196 100.558 225.24 100.574 225.28 100.606C225.324 100.638 225.346 100.688 225.346 100.756Z" fill="black"/>
<path d="M68.5 7L75.5 14M68.5 14L75.5 7" stroke="#BE2626" stroke-linecap="round"/>
<path d="M132 77L130.191 68.5308L123.761 74.3322L132 77ZM71.4432 11.0024L126.921 72.4908L128.035 71.486L72.5568 9.99758L71.4432 11.0024Z" fill="#BE2626"/>
<path d="M240 132L236.46 124.096L231.385 131.114L240 132ZM71.5605 11.1077L234.091 128.652L234.97 127.437L72.4395 9.89228L71.5605 11.1077Z" fill="#BE2626"/>
<path d="M113.516 88.524L114.872 83.124C114.928 82.876 114.956 82.668 114.956 82.5C114.956 82.132 114.832 81.948 114.584 81.948C114.368 81.948 114.192 82.076 114.056 82.332C113.928 82.58 113.808 82.924 113.696 83.364C113.664 83.5 113.636 83.584 113.612 83.616C113.596 83.64 113.564 83.652 113.516 83.652C113.428 83.652 113.384 83.616 113.384 83.544C113.384 83.52 113.4 83.444 113.432 83.316C113.464 83.18 113.512 83.016 113.576 82.824C113.64 82.624 113.704 82.46 113.768 82.332C113.976 81.916 114.26 81.708 114.62 81.708C114.876 81.708 115.1 81.788 115.292 81.948C115.492 82.108 115.616 82.332 115.664 82.62C115.744 82.516 115.84 82.408 115.952 82.296C116.072 82.184 116.252 82.06 116.492 81.924C116.74 81.78 116.98 81.708 117.212 81.708C117.66 81.708 118.024 81.884 118.304 82.236C118.592 82.588 118.736 83.04 118.736 83.592C118.736 84.464 118.436 85.272 117.836 86.016C117.236 86.752 116.596 87.12 115.916 87.12C115.404 87.12 115.044 86.852 114.836 86.316C114.428 87.876 114.224 88.704 114.224 88.8C114.224 88.92 114.42 88.98 114.812 88.98C114.932 88.98 115.008 88.984 115.04 88.992C115.08 89.008 115.1 89.048 115.1 89.112C115.1 89.256 115.028 89.328 114.884 89.328C114.804 89.328 114.616 89.324 114.32 89.316C114.032 89.308 113.848 89.304 113.768 89.304H113.252C113.196 89.304 113.116 89.308 113.012 89.316C112.908 89.324 112.828 89.328 112.772 89.328C112.676 89.328 112.628 89.288 112.628 89.208C112.628 89.104 112.652 89.04 112.7 89.016C112.74 88.992 112.804 88.98 112.892 88.98C113.124 88.98 113.272 88.952 113.336 88.896C113.408 88.84 113.468 88.716 113.516 88.524ZM115.592 83.256L115.004 85.608C114.98 85.728 114.968 85.792 114.968 85.8C114.968 85.864 114.984 85.968 115.016 86.112C115.056 86.256 115.156 86.42 115.316 86.604C115.476 86.788 115.676 86.88 115.916 86.88C116.18 86.88 116.44 86.764 116.696 86.532C116.952 86.292 117.16 86 117.32 85.656C117.472 85.344 117.616 84.912 117.752 84.36C117.888 83.808 117.956 83.388 117.956 83.1C117.956 82.764 117.888 82.488 117.752 82.272C117.624 82.056 117.436 81.948 117.188 81.948C116.868 81.948 116.54 82.1 116.204 82.404C115.86 82.7 115.656 82.984 115.592 83.256Z" fill="#BE2626"/>
<path d="M121.698 87.642C121.698 87.662 121.682 87.716 121.65 87.804C121.622 87.892 121.58 87.996 121.524 88.116C121.468 88.232 121.386 88.336 121.278 88.428C121.174 88.516 121.058 88.56 120.93 88.56C120.79 88.56 120.676 88.514 120.588 88.422C120.5 88.33 120.456 88.214 120.456 88.074C120.456 88.002 120.48 87.902 120.528 87.774L120.948 86.658C121.032 86.426 121.074 86.264 121.074 86.172C121.074 86.04 121.022 85.974 120.918 85.974C120.798 85.974 120.684 86.038 120.576 86.166C120.468 86.29 120.38 86.474 120.312 86.718C120.3 86.766 120.288 86.796 120.276 86.808C120.268 86.82 120.252 86.826 120.228 86.826C120.184 86.826 120.162 86.808 120.162 86.772C120.162 86.748 120.176 86.692 120.204 86.604C120.236 86.516 120.28 86.414 120.336 86.298C120.396 86.182 120.478 86.08 120.582 85.992C120.69 85.9 120.808 85.854 120.936 85.854C121.076 85.854 121.19 85.902 121.278 85.998C121.366 86.09 121.41 86.202 121.41 86.334C121.41 86.406 121.39 86.496 121.35 86.604L120.93 87.72C120.838 87.972 120.792 88.146 120.792 88.242C120.792 88.374 120.844 88.44 120.948 88.44C121.06 88.44 121.17 88.382 121.278 88.266C121.386 88.146 121.476 87.96 121.548 87.708C121.56 87.668 121.568 87.642 121.572 87.63C121.58 87.618 121.588 87.608 121.596 87.6C121.604 87.592 121.618 87.588 121.638 87.588C121.678 87.588 121.698 87.606 121.698 87.642ZM121.65 84.756C121.65 84.824 121.62 84.89 121.56 84.954C121.5 85.014 121.43 85.044 121.35 85.044C121.302 85.044 121.256 85.028 121.212 84.996C121.172 84.964 121.152 84.914 121.152 84.846C121.152 84.77 121.182 84.704 121.242 84.648C121.306 84.588 121.374 84.558 121.446 84.558C121.506 84.558 121.554 84.58 121.59 84.624C121.63 84.664 121.65 84.708 121.65 84.756Z" fill="#BE2626"/>
<path d="M113 79.5H120M120 79.5L118.5 78M120 79.5L118.5 81" stroke="#BE2626" stroke-width="0.6"/>
<path d="M240.516 122.524L241.872 117.124C241.928 116.876 241.956 116.668 241.956 116.5C241.956 116.132 241.832 115.948 241.584 115.948C241.368 115.948 241.192 116.076 241.056 116.332C240.928 116.58 240.808 116.924 240.696 117.364C240.664 117.5 240.636 117.584 240.612 117.616C240.596 117.64 240.564 117.652 240.516 117.652C240.428 117.652 240.384 117.616 240.384 117.544C240.384 117.52 240.4 117.444 240.432 117.316C240.464 117.18 240.512 117.016 240.576 116.824C240.64 116.624 240.704 116.46 240.768 116.332C240.976 115.916 241.26 115.708 241.62 115.708C241.876 115.708 242.1 115.788 242.292 115.948C242.492 116.108 242.616 116.332 242.664 116.62C242.744 116.516 242.84 116.408 242.952 116.296C243.072 116.184 243.252 116.06 243.492 115.924C243.74 115.78 243.98 115.708 244.212 115.708C244.66 115.708 245.024 115.884 245.304 116.236C245.592 116.588 245.736 117.04 245.736 117.592C245.736 118.464 245.436 119.272 244.836 120.016C244.236 120.752 243.596 121.12 242.916 121.12C242.404 121.12 242.044 120.852 241.836 120.316C241.428 121.876 241.224 122.704 241.224 122.8C241.224 122.92 241.42 122.98 241.812 122.98C241.932 122.98 242.008 122.984 242.04 122.992C242.08 123.008 242.1 123.048 242.1 123.112C242.1 123.256 242.028 123.328 241.884 123.328C241.804 123.328 241.616 123.324 241.32 123.316C241.032 123.308 240.848 123.304 240.768 123.304H240.252C240.196 123.304 240.116 123.308 240.012 123.316C239.908 123.324 239.828 123.328 239.772 123.328C239.676 123.328 239.628 123.288 239.628 123.208C239.628 123.104 239.652 123.04 239.7 123.016C239.74 122.992 239.804 122.98 239.892 122.98C240.124 122.98 240.272 122.952 240.336 122.896C240.408 122.84 240.468 122.716 240.516 122.524ZM242.592 117.256L242.004 119.608C241.98 119.728 241.968 119.792 241.968 119.8C241.968 119.864 241.984 119.968 242.016 120.112C242.056 120.256 242.156 120.42 242.316 120.604C242.476 120.788 242.676 120.88 242.916 120.88C243.18 120.88 243.44 120.764 243.696 120.532C243.952 120.292 244.16 120 244.32 119.656C244.472 119.344 244.616 118.912 244.752 118.36C244.888 117.808 244.956 117.388 244.956 117.1C244.956 116.764 244.888 116.488 244.752 116.272C244.624 116.056 244.436 115.948 244.188 115.948C243.868 115.948 243.54 116.1 243.204 116.404C242.86 116.7 242.656 116.984 242.592 117.256Z" fill="#BE2626"/>
<path d="M249.1 120.598L248.542 122.818C248.47 123.098 248.324 123.318 248.104 123.478C247.884 123.642 247.66 123.724 247.432 123.724C247.296 123.724 247.176 123.694 247.072 123.634C246.972 123.578 246.922 123.492 246.922 123.376C246.922 123.288 246.952 123.214 247.012 123.154C247.072 123.094 247.142 123.064 247.222 123.064C247.286 123.064 247.336 123.082 247.372 123.118C247.408 123.158 247.426 123.204 247.426 123.256C247.426 123.328 247.4 123.39 247.348 123.442C247.3 123.494 247.24 123.528 247.168 123.544C247.244 123.584 247.332 123.604 247.432 123.604C247.592 123.604 247.738 123.53 247.87 123.382C248.002 123.238 248.098 123.052 248.158 122.824L248.728 120.562C248.756 120.438 248.77 120.334 248.77 120.25C248.77 120.066 248.706 119.974 248.578 119.974C248.45 119.974 248.318 120.036 248.182 120.16C248.046 120.28 247.922 120.474 247.81 120.742C247.774 120.794 247.746 120.822 247.726 120.826C247.686 120.826 247.666 120.808 247.666 120.772C247.666 120.76 247.678 120.724 247.702 120.664C247.726 120.6 247.764 120.522 247.816 120.43C247.872 120.338 247.934 120.25 248.002 120.166C248.074 120.078 248.162 120.004 248.266 119.944C248.374 119.884 248.484 119.854 248.596 119.854C248.74 119.854 248.864 119.904 248.968 120.004C249.072 120.1 249.124 120.23 249.124 120.394C249.124 120.466 249.116 120.534 249.1 120.598ZM249.346 118.756C249.346 118.832 249.314 118.9 249.25 118.96C249.19 119.016 249.124 119.044 249.052 119.044C248.992 119.044 248.942 119.024 248.902 118.984C248.866 118.94 248.848 118.894 248.848 118.846C248.848 118.778 248.878 118.714 248.938 118.654C248.998 118.59 249.068 118.558 249.148 118.558C249.196 118.558 249.24 118.574 249.28 118.606C249.324 118.638 249.346 118.688 249.346 118.756Z" fill="#BE2626"/>
<path d="M240 113.5H247M247 113.5L245.5 112M247 113.5L245.5 115" stroke="#BE2626" stroke-width="0.6"/>
<path d="M61.52 18.16C61.52 19.328 61.372 20.232 61.076 20.872C60.644 21.8 59.948 22.264 58.988 22.264C58.628 22.264 58.264 22.172 57.896 21.988C57.536 21.804 57.24 21.492 57.008 21.052C56.648 20.388 56.468 19.424 56.468 18.16C56.468 16.984 56.616 16.076 56.912 15.436C57.328 14.484 58.024 14.008 59 14.008C59.208 14.008 59.42 14.036 59.636 14.092C59.852 14.148 60.096 14.284 60.368 14.5C60.648 14.716 60.872 15 61.04 15.352C61.36 16.032 61.52 16.968 61.52 18.16ZM60.524 18.016C60.524 16.904 60.484 16.124 60.404 15.676C60.3 15.156 60.108 14.792 59.828 14.584C59.548 14.376 59.268 14.272 58.988 14.272C58.884 14.272 58.776 14.288 58.664 14.32C58.552 14.352 58.416 14.412 58.256 14.5C58.096 14.588 57.952 14.744 57.824 14.968C57.704 15.192 57.616 15.472 57.56 15.808C57.496 16.24 57.464 16.976 57.464 18.016C57.464 19.224 57.508 20.068 57.596 20.548C57.692 21.068 57.872 21.44 58.136 21.664C58.408 21.888 58.692 22 58.988 22C59.308 22 59.6 21.88 59.864 21.64C60.136 21.4 60.312 21.02 60.392 20.5C60.48 19.988 60.524 19.16 60.524 18.016Z" fill="#BE2626"/>
<path d="M56 11.5H63M63 11.5L61.5 10M63 11.5L61.5 13" stroke="#BE2626" stroke-width="0.6"/>
<path d="M41.252 158.408C41.252 159.168 40.988 159.812 40.46 160.34C39.932 160.868 39.304 161.132 38.576 161.132C37.912 161.132 37.388 160.84 37.004 160.256L36.572 161H36.272V153.848C36.272 153.552 36.22 153.368 36.116 153.296C36.012 153.216 35.752 153.176 35.336 153.176V152.804L37.064 152.672V156.476C37.528 155.956 38.076 155.696 38.708 155.696C39.396 155.696 39.992 155.96 40.496 156.488C41 157.016 41.252 157.656 41.252 158.408ZM40.256 158.396C40.256 157.652 40.14 157.096 39.908 156.728C39.588 156.216 39.168 155.96 38.648 155.96C38.064 155.96 37.592 156.216 37.232 156.728C37.144 156.856 37.1 157 37.1 157.16V159.632C37.1 159.8 37.156 159.968 37.268 160.136C37.588 160.624 38.008 160.868 38.528 160.868C39.088 160.868 39.54 160.612 39.884 160.1C40.132 159.716 40.256 159.148 40.256 158.396ZM47.464 159.932C47.464 160.356 47.352 160.652 47.128 160.82C46.904 160.988 46.688 161.072 46.48 161.072C46.216 161.072 46 160.976 45.832 160.784C45.664 160.584 45.568 160.352 45.544 160.088C45.424 160.392 45.224 160.644 44.944 160.844C44.672 161.036 44.348 161.132 43.972 161.132C43.684 161.132 43.404 161.096 43.132 161.024C42.86 160.952 42.612 160.816 42.388 160.616C42.164 160.416 42.052 160.164 42.052 159.86C42.052 159.18 42.452 158.66 43.252 158.3C43.732 158.068 44.468 157.924 45.46 157.868V157.424C45.46 156.928 45.328 156.548 45.064 156.284C44.808 156.02 44.516 155.888 44.188 155.888C43.604 155.888 43.172 156.072 42.892 156.44C43.132 156.448 43.292 156.512 43.372 156.632C43.46 156.752 43.504 156.872 43.504 156.992C43.504 157.152 43.452 157.284 43.348 157.388C43.252 157.492 43.12 157.544 42.952 157.544C42.792 157.544 42.66 157.496 42.556 157.4C42.452 157.296 42.4 157.156 42.4 156.98C42.4 156.588 42.576 156.264 42.928 156.008C43.28 155.752 43.708 155.624 44.212 155.624C44.868 155.624 45.416 155.844 45.856 156.284C45.992 156.42 46.092 156.576 46.156 156.752C46.228 156.928 46.268 157.076 46.276 157.196C46.284 157.308 46.288 157.476 46.288 157.7V160.1C46.288 160.148 46.296 160.212 46.312 160.292C46.328 160.364 46.372 160.452 46.444 160.556C46.516 160.652 46.612 160.7 46.732 160.7C47.02 160.7 47.164 160.444 47.164 159.932V159.26H47.464V159.932ZM45.46 159.32V158.12C44.572 158.152 43.936 158.344 43.552 158.696C43.168 159.048 42.976 159.432 42.976 159.848C42.976 160.144 43.08 160.388 43.288 160.58C43.504 160.772 43.76 160.868 44.056 160.868C44.392 160.868 44.708 160.74 45.004 160.484C45.308 160.22 45.46 159.832 45.46 159.32ZM50.728 161L49.396 160.964L48.064 161V160.628C48.488 160.628 48.748 160.604 48.844 160.556C48.948 160.5 49 160.344 49 160.088V153.848C49 153.552 48.948 153.368 48.844 153.296C48.74 153.216 48.48 153.176 48.064 153.176V152.804L49.792 152.672V160.088C49.792 160.344 49.84 160.5 49.936 160.556C50.04 160.604 50.304 160.628 50.728 160.628V161ZM54.0678 161L52.7358 160.964L51.4038 161V160.628C51.8278 160.628 52.0878 160.604 52.1838 160.556C52.2878 160.5 52.3398 160.344 52.3398 160.088V153.848C52.3398 153.552 52.2878 153.368 52.1838 153.296C52.0798 153.216 51.8198 153.176 51.4038 153.176V152.804L53.1318 152.672V160.088C53.1318 160.344 53.1798 160.5 53.2758 160.556C53.3798 160.604 53.6438 160.628 54.0678 160.628V161ZM61.3078 161C60.4918 160.976 60.0758 160.964 60.0598 160.964L58.7397 161V160.628C59.1638 160.628 59.4238 160.604 59.5198 160.556C59.6238 160.5 59.6758 160.344 59.6758 160.088V156.86C59.6758 156.564 59.6238 156.38 59.5198 156.308C59.4238 156.236 59.1798 156.2 58.7878 156.2V155.828L60.4678 155.696V160.1C60.4678 160.34 60.5078 160.488 60.5878 160.544C60.6758 160.6 60.9158 160.628 61.3078 160.628V161ZM60.6478 153.752C60.6478 153.912 60.5878 154.06 60.4678 154.196C60.3478 154.324 60.1918 154.388 59.9998 154.388C59.8238 154.388 59.6718 154.324 59.5438 154.196C59.4238 154.068 59.3638 153.92 59.3638 153.752C59.3638 153.592 59.4238 153.448 59.5438 153.32C59.6638 153.184 59.8198 153.116 60.0118 153.116C60.1878 153.116 60.3358 153.18 60.4558 153.308C60.5838 153.436 60.6478 153.584 60.6478 153.752Z" fill="black"/>
<path d="M315.252 51.408C315.252 52.168 314.988 52.812 314.46 53.34C313.932 53.868 313.304 54.132 312.576 54.132C311.912 54.132 311.388 53.84 311.004 53.256L310.572 54H310.272V46.848C310.272 46.552 310.22 46.368 310.116 46.296C310.012 46.216 309.752 46.176 309.336 46.176V45.804L311.064 45.672V49.476C311.528 48.956 312.076 48.696 312.708 48.696C313.396 48.696 313.992 48.96 314.496 49.488C315 50.016 315.252 50.656 315.252 51.408ZM314.256 51.396C314.256 50.652 314.14 50.096 313.908 49.728C313.588 49.216 313.168 48.96 312.648 48.96C312.064 48.96 311.592 49.216 311.232 49.728C311.144 49.856 311.1 50 311.1 50.16V52.632C311.1 52.8 311.156 52.968 311.268 53.136C311.588 53.624 312.008 53.868 312.528 53.868C313.088 53.868 313.54 53.612 313.884 53.1C314.132 52.716 314.256 52.148 314.256 51.396ZM321.464 52.932C321.464 53.356 321.352 53.652 321.128 53.82C320.904 53.988 320.688 54.072 320.48 54.072C320.216 54.072 320 53.976 319.832 53.784C319.664 53.584 319.568 53.352 319.544 53.088C319.424 53.392 319.224 53.644 318.944 53.844C318.672 54.036 318.348 54.132 317.972 54.132C317.684 54.132 317.404 54.096 317.132 54.024C316.86 53.952 316.612 53.816 316.388 53.616C316.164 53.416 316.052 53.164 316.052 52.86C316.052 52.18 316.452 51.66 317.252 51.3C317.732 51.068 318.468 50.924 319.46 50.868V50.424C319.46 49.928 319.328 49.548 319.064 49.284C318.808 49.02 318.516 48.888 318.188 48.888C317.604 48.888 317.172 49.072 316.892 49.44C317.132 49.448 317.292 49.512 317.372 49.632C317.46 49.752 317.504 49.872 317.504 49.992C317.504 50.152 317.452 50.284 317.348 50.388C317.252 50.492 317.12 50.544 316.952 50.544C316.792 50.544 316.66 50.496 316.556 50.4C316.452 50.296 316.4 50.156 316.4 49.98C316.4 49.588 316.576 49.264 316.928 49.008C317.28 48.752 317.708 48.624 318.212 48.624C318.868 48.624 319.416 48.844 319.856 49.284C319.992 49.42 320.092 49.576 320.156 49.752C320.228 49.928 320.268 50.076 320.276 50.196C320.284 50.308 320.288 50.476 320.288 50.7V53.1C320.288 53.148 320.296 53.212 320.312 53.292C320.328 53.364 320.372 53.452 320.444 53.556C320.516 53.652 320.612 53.7 320.732 53.7C321.02 53.7 321.164 53.444 321.164 52.932V52.26H321.464V52.932ZM319.46 52.32V51.12C318.572 51.152 317.936 51.344 317.552 51.696C317.168 52.048 316.976 52.432 316.976 52.848C316.976 53.144 317.08 53.388 317.288 53.58C317.504 53.772 317.76 53.868 318.056 53.868C318.392 53.868 318.708 53.74 319.004 53.484C319.308 53.22 319.46 52.832 319.46 52.32ZM324.728 54L323.396 53.964L322.064 54V53.628C322.488 53.628 322.748 53.604 322.844 53.556C322.948 53.5 323 53.344 323 53.088V46.848C323 46.552 322.948 46.368 322.844 46.296C322.74 46.216 322.48 46.176 322.064 46.176V45.804L323.792 45.672V53.088C323.792 53.344 323.84 53.5 323.936 53.556C324.04 53.604 324.304 53.628 324.728 53.628V54ZM328.068 54L326.736 53.964L325.404 54V53.628C325.828 53.628 326.088 53.604 326.184 53.556C326.288 53.5 326.34 53.344 326.34 53.088V46.848C326.34 46.552 326.288 46.368 326.184 46.296C326.08 46.216 325.82 46.176 325.404 46.176V45.804L327.132 45.672V53.088C327.132 53.344 327.18 53.5 327.276 53.556C327.38 53.604 327.644 53.628 328.068 53.628V54ZM334.864 54.6C334.864 55.136 334.704 55.58 334.384 55.932C334.064 56.284 333.676 56.46 333.22 56.46C332.852 56.46 332.536 56.372 332.272 56.196C332 56.028 331.864 55.796 331.864 55.5C331.864 55.34 331.916 55.208 332.02 55.104C332.116 55 332.248 54.948 332.416 54.948C332.584 54.948 332.716 55 332.812 55.104C332.916 55.208 332.968 55.34 332.968 55.5C332.968 55.644 332.924 55.76 332.836 55.848C332.756 55.944 332.66 56.008 332.548 56.04C332.756 56.144 332.972 56.196 333.196 56.196C333.38 56.196 333.532 56.14 333.652 56.028C333.78 55.924 333.872 55.78 333.928 55.596C333.984 55.42 334.02 55.256 334.036 55.104C334.06 54.952 334.072 54.792 334.072 54.624V49.872C334.072 49.576 334.012 49.392 333.892 49.32C333.78 49.24 333.496 49.2 333.04 49.2V48.828L334.864 48.696V54.6ZM334.864 46.752C334.864 46.912 334.804 47.06 334.684 47.196C334.564 47.324 334.408 47.388 334.216 47.388C334.04 47.388 333.888 47.324 333.76 47.196C333.64 47.068 333.58 46.92 333.58 46.752C333.58 46.592 333.64 46.448 333.76 46.32C333.88 46.184 334.036 46.116 334.228 46.116C334.404 46.116 334.552 46.18 334.672 46.308C334.8 46.436 334.864 46.584 334.864 46.752Z" fill="black"/>
<path d="M102.356 136.381C102.29 136.185 102.078 136.079 101.881 136.144L98.6796 137.212C98.4831 137.277 98.3769 137.489 98.4424 137.686C98.5079 137.882 98.7203 137.989 98.9168 137.923L101.763 136.974L102.712 139.82C102.777 140.017 102.989 140.123 103.186 140.058C103.382 139.992 103.489 139.78 103.423 139.583L102.356 136.381ZM67 158.375C74.8709 158.375 83.118 154.109 89.6596 149.302C92.9371 146.894 95.8015 144.339 97.995 142.09C100.179 139.851 101.725 137.889 102.335 136.668L101.665 136.332C101.109 137.444 99.6335 139.336 97.4581 141.566C95.2923 143.786 92.4588 146.315 89.2154 148.698C82.7153 153.474 74.6291 157.625 67 157.625V158.375Z" fill="#808080"/>
<path d="M268.644 72.6186C268.71 72.8151 268.922 72.9212 269.119 72.8558L272.32 71.7885C272.517 71.723 272.623 71.5106 272.558 71.3141C272.492 71.1177 272.28 71.0115 272.083 71.077L269.237 72.0257L268.288 69.1796C268.223 68.9831 268.011 68.8769 267.814 68.9424C267.618 69.0079 267.511 69.2203 267.577 69.4168L268.644 72.6186ZM304 50.625C296.129 50.625 287.882 54.8909 281.34 59.6978C278.063 62.1062 275.199 64.6615 273.005 66.91C270.821 69.1488 269.275 71.1106 268.665 72.3323L269.335 72.6677C269.891 71.5561 271.367 69.6637 273.542 67.4337C275.708 65.2135 278.541 62.6854 281.785 60.3022C288.285 55.5257 296.371 51.375 304 51.375V50.625Z" fill="#808080"/>
</svg>
