<svg width="249" height="161" viewBox="0 0 249 161" fill="none" xmlns="http://www.w3.org/2000/svg">
<g filter="url(#filter0_d)">
<rect width="217" height="129" transform="translate(16 12)" fill="white"/>
<circle cx="141" cy="31" r="3" fill="#FF0000"/>
<circle cx="141" cy="43" r="3" fill="#FF0000"/>
<circle cx="141" cy="79" r="3" fill="#FF0000"/>
<circle cx="151" cy="31" r="3" fill="#FF0000"/>
<circle cx="151" cy="43" r="3" fill="#FF0000"/>
<path d="M140.735 39.2652C140.881 39.4116 141.119 39.4116 141.265 39.2652L143.652 36.8787C143.798 36.7322 143.798 36.4948 143.652 36.3483C143.505 36.2019 143.268 36.2019 143.121 36.3483L141 38.4697L138.879 36.3483C138.732 36.2019 138.495 36.2019 138.348 36.3483C138.202 36.4948 138.202 36.7322 138.348 36.8787L140.735 39.2652ZM140.625 35V39H141.375V35H140.625Z" fill="#636363"/>
<path d="M150.735 34.7348C150.881 34.5884 151.119 34.5884 151.265 34.7348L153.652 37.1213C153.798 37.2678 153.798 37.5052 153.652 37.6517C153.505 37.7981 153.268 37.7981 153.121 37.6517L151 35.5303L148.879 37.6517C148.732 37.7981 148.495 37.7981 148.348 37.6517C148.202 37.5052 148.202 37.2678 148.348 37.1213L150.735 34.7348ZM150.625 39V35H151.375V39H150.625Z" fill="#636363"/>
<path d="M140.735 74.2652C140.881 74.4116 141.119 74.4116 141.265 74.2652L143.652 71.8787C143.798 71.7322 143.798 71.4948 143.652 71.3483C143.505 71.2019 143.268 71.2019 143.121 71.3483L141 73.4697L138.879 71.3483C138.732 71.2019 138.495 71.2019 138.348 71.3483C138.202 71.4948 138.202 71.7322 138.348 71.8787L140.735 74.2652ZM140.625 48V74H141.375V48H140.625Z" fill="#636363"/>
<path d="M151 79L151 79.375L151.375 79.375L151.375 79L151 79ZM151.265 47.7348C151.119 47.5884 150.881 47.5884 150.735 47.7348L148.348 50.1213C148.202 50.2678 148.202 50.5052 148.348 50.6517C148.495 50.7981 148.732 50.7981 148.879 50.6517L151 48.5303L153.121 50.6517C153.268 50.7981 153.505 50.7981 153.652 50.6517C153.798 50.5052 153.798 50.2678 153.652 50.1213L151.265 47.7348ZM145 79.375L151 79.375L151 78.625L145 78.625L145 79.375ZM151.375 79L151.375 48L150.625 48L150.625 79L151.375 79Z" fill="#636363"/>
<path d="M71.412 29.176L70.476 32.932C70.452 33.028 70.44 33.156 70.44 33.316C70.44 33.692 70.568 33.88 70.824 33.88C71.136 33.88 71.424 33.732 71.688 33.436C71.96 33.14 72.172 32.808 72.324 32.44C72.38 32.312 72.416 32.24 72.432 32.224C72.448 32.192 72.48 32.176 72.528 32.176C72.608 32.176 72.648 32.212 72.648 32.284C72.648 32.308 72.624 32.384 72.576 32.512C72.528 32.632 72.448 32.784 72.336 32.968C72.232 33.152 72.108 33.332 71.964 33.508C71.828 33.676 71.652 33.82 71.436 33.94C71.228 34.06 71.012 34.12 70.788 34.12C70.468 34.12 70.208 34.016 70.008 33.808C69.816 33.592 69.72 33.336 69.72 33.04C69.72 32.96 69.764 32.728 69.852 32.344L70.644 29.176H69.576C69.504 29.176 69.452 29.176 69.42 29.176C69.396 29.176 69.368 29.172 69.336 29.164C69.304 29.156 69.284 29.144 69.276 29.128C69.268 29.112 69.264 29.088 69.264 29.056C69.264 28.952 69.288 28.888 69.336 28.864C69.384 28.84 69.476 28.828 69.612 28.828H70.74L71.208 26.92C71.28 26.64 71.436 26.5 71.676 26.5C71.756 26.5 71.828 26.528 71.892 26.584C71.956 26.64 71.988 26.712 71.988 26.8C71.988 26.872 71.972 26.964 71.94 27.076L71.496 28.828H72.552C72.68 28.828 72.764 28.836 72.804 28.852C72.844 28.86 72.864 28.896 72.864 28.96C72.864 29.056 72.84 29.116 72.792 29.14C72.744 29.164 72.652 29.176 72.516 29.176H71.412Z" fill="black"/>
<path d="M82.256 29.596C82.52 29.596 82.652 29.676 82.652 29.836C82.652 29.996 82.516 30.076 82.244 30.076H75.08C74.808 30.076 74.672 29.996 74.672 29.836C74.672 29.676 74.804 29.596 75.068 29.596H82.256ZM82.244 31.924C82.516 31.924 82.652 32.004 82.652 32.164C82.652 32.324 82.52 32.404 82.256 32.404H75.068C74.804 32.404 74.672 32.324 74.672 32.164C74.672 32.004 74.808 31.924 75.08 31.924H82.244Z" fill="black"/>
<path d="M89.52 30.16C89.52 31.328 89.372 32.232 89.076 32.872C88.644 33.8 87.948 34.264 86.988 34.264C86.628 34.264 86.264 34.172 85.896 33.988C85.536 33.804 85.24 33.492 85.008 33.052C84.648 32.388 84.468 31.424 84.468 30.16C84.468 28.984 84.616 28.076 84.912 27.436C85.328 26.484 86.024 26.008 87 26.008C87.208 26.008 87.42 26.036 87.636 26.092C87.852 26.148 88.096 26.284 88.368 26.5C88.648 26.716 88.872 27 89.04 27.352C89.36 28.032 89.52 28.968 89.52 30.16ZM88.524 30.016C88.524 28.904 88.484 28.124 88.404 27.676C88.3 27.156 88.108 26.792 87.828 26.584C87.548 26.376 87.268 26.272 86.988 26.272C86.884 26.272 86.776 26.288 86.664 26.32C86.552 26.352 86.416 26.412 86.256 26.5C86.096 26.588 85.952 26.744 85.824 26.968C85.704 27.192 85.616 27.472 85.56 27.808C85.496 28.24 85.464 28.976 85.464 30.016C85.464 31.224 85.508 32.068 85.596 32.548C85.692 33.068 85.872 33.44 86.136 33.664C86.408 33.888 86.692 34 86.988 34C87.308 34 87.6 33.88 87.864 33.64C88.136 33.4 88.312 33.02 88.392 32.5C88.48 31.988 88.524 31.16 88.524 30.016ZM92.112 29.02C92.24 29.14 92.304 29.288 92.304 29.464C92.304 29.64 92.24 29.792 92.112 29.92C91.992 30.04 91.844 30.1 91.668 30.1C91.492 30.1 91.34 30.04 91.212 29.92C91.092 29.792 91.032 29.64 91.032 29.464C91.032 29.288 91.092 29.14 91.212 29.02C91.34 28.892 91.492 28.828 91.668 28.828C91.844 28.828 91.992 28.892 92.112 29.02ZM92.34 33.964C92.34 34.38 92.264 34.78 92.112 35.164C91.96 35.556 91.808 35.844 91.656 36.028C91.504 36.22 91.4 36.316 91.344 36.316C91.264 36.316 91.224 36.272 91.224 36.184C91.224 36.144 91.252 36.092 91.308 36.028C91.82 35.436 92.076 34.716 92.076 33.868C92.004 33.932 91.9 33.972 91.764 33.988C91.74 33.996 91.708 34 91.668 34C91.468 34 91.312 33.936 91.2 33.808C91.088 33.68 91.032 33.532 91.032 33.364C91.032 33.196 91.088 33.048 91.2 32.92C91.312 32.792 91.468 32.728 91.668 32.728C92.116 32.728 92.34 33.14 92.34 33.964Z" fill="black"/>
<path d="M72.412 42.176L71.476 45.932C71.452 46.028 71.44 46.156 71.44 46.316C71.44 46.692 71.568 46.88 71.824 46.88C72.136 46.88 72.424 46.732 72.688 46.436C72.96 46.14 73.172 45.808 73.324 45.44C73.38 45.312 73.416 45.24 73.432 45.224C73.448 45.192 73.48 45.176 73.528 45.176C73.608 45.176 73.648 45.212 73.648 45.284C73.648 45.308 73.624 45.384 73.576 45.512C73.528 45.632 73.448 45.784 73.336 45.968C73.232 46.152 73.108 46.332 72.964 46.508C72.828 46.676 72.652 46.82 72.436 46.94C72.228 47.06 72.012 47.12 71.788 47.12C71.468 47.12 71.208 47.016 71.008 46.808C70.816 46.592 70.72 46.336 70.72 46.04C70.72 45.96 70.764 45.728 70.852 45.344L71.644 42.176H70.576C70.504 42.176 70.452 42.176 70.42 42.176C70.396 42.176 70.368 42.172 70.336 42.164C70.304 42.156 70.284 42.144 70.276 42.128C70.268 42.112 70.264 42.088 70.264 42.056C70.264 41.952 70.288 41.888 70.336 41.864C70.384 41.84 70.476 41.828 70.612 41.828H71.74L72.208 39.92C72.28 39.64 72.436 39.5 72.676 39.5C72.756 39.5 72.828 39.528 72.892 39.584C72.956 39.64 72.988 39.712 72.988 39.8C72.988 39.872 72.972 39.964 72.94 40.076L72.496 41.828H73.552C73.68 41.828 73.764 41.836 73.804 41.852C73.844 41.86 73.864 41.896 73.864 41.96C73.864 42.056 73.84 42.116 73.792 42.14C73.744 42.164 73.652 42.176 73.516 42.176H72.412Z" fill="black"/>
<path d="M83.256 42.596C83.52 42.596 83.652 42.676 83.652 42.836C83.652 42.996 83.516 43.076 83.244 43.076H76.08C75.808 43.076 75.672 42.996 75.672 42.836C75.672 42.676 75.804 42.596 76.068 42.596H83.256ZM83.244 44.924C83.516 44.924 83.652 45.004 83.652 45.164C83.652 45.324 83.52 45.404 83.256 45.404H76.068C75.804 45.404 75.672 45.324 75.672 45.164C75.672 45.004 75.808 44.924 76.08 44.924H83.244Z" fill="black"/>
<path d="M90.028 47C89.748 46.976 89.1 46.964 88.084 46.964C87.068 46.964 86.42 46.976 86.14 47V46.628H86.524C87.028 46.628 87.34 46.592 87.46 46.52C87.58 46.448 87.64 46.292 87.64 46.052V39.836C87.224 40.044 86.7 40.148 86.068 40.148V39.776C87.028 39.776 87.756 39.52 88.252 39.008C88.388 39.008 88.468 39.024 88.492 39.056C88.516 39.088 88.528 39.176 88.528 39.32V46.052C88.528 46.292 88.584 46.448 88.696 46.52C88.816 46.592 89.132 46.628 89.644 46.628H90.028V47ZM93.112 42.02C93.24 42.14 93.304 42.288 93.304 42.464C93.304 42.64 93.24 42.792 93.112 42.92C92.992 43.04 92.844 43.1 92.668 43.1C92.492 43.1 92.34 43.04 92.212 42.92C92.092 42.792 92.032 42.64 92.032 42.464C92.032 42.288 92.092 42.14 92.212 42.02C92.34 41.892 92.492 41.828 92.668 41.828C92.844 41.828 92.992 41.892 93.112 42.02ZM93.34 46.964C93.34 47.38 93.264 47.78 93.112 48.164C92.96 48.556 92.808 48.844 92.656 49.028C92.504 49.22 92.4 49.316 92.344 49.316C92.264 49.316 92.224 49.272 92.224 49.184C92.224 49.144 92.252 49.092 92.308 49.028C92.82 48.436 93.076 47.716 93.076 46.868C93.004 46.932 92.9 46.972 92.764 46.988C92.74 46.996 92.708 47 92.668 47C92.468 47 92.312 46.936 92.2 46.808C92.088 46.68 92.032 46.532 92.032 46.364C92.032 46.196 92.088 46.048 92.2 45.92C92.312 45.792 92.468 45.728 92.668 45.728C93.116 45.728 93.34 46.14 93.34 46.964Z" fill="black"/>
<path d="M72.412 77.176L71.476 80.932C71.452 81.028 71.44 81.156 71.44 81.316C71.44 81.692 71.568 81.88 71.824 81.88C72.136 81.88 72.424 81.732 72.688 81.436C72.96 81.14 73.172 80.808 73.324 80.44C73.38 80.312 73.416 80.24 73.432 80.224C73.448 80.192 73.48 80.176 73.528 80.176C73.608 80.176 73.648 80.212 73.648 80.284C73.648 80.308 73.624 80.384 73.576 80.512C73.528 80.632 73.448 80.784 73.336 80.968C73.232 81.152 73.108 81.332 72.964 81.508C72.828 81.676 72.652 81.82 72.436 81.94C72.228 82.06 72.012 82.12 71.788 82.12C71.468 82.12 71.208 82.016 71.008 81.808C70.816 81.592 70.72 81.336 70.72 81.04C70.72 80.96 70.764 80.728 70.852 80.344L71.644 77.176H70.576C70.504 77.176 70.452 77.176 70.42 77.176C70.396 77.176 70.368 77.172 70.336 77.164C70.304 77.156 70.284 77.144 70.276 77.128C70.268 77.112 70.264 77.088 70.264 77.056C70.264 76.952 70.288 76.888 70.336 76.864C70.384 76.84 70.476 76.828 70.612 76.828H71.74L72.208 74.92C72.28 74.64 72.436 74.5 72.676 74.5C72.756 74.5 72.828 74.528 72.892 74.584C72.956 74.64 72.988 74.712 72.988 74.8C72.988 74.872 72.972 74.964 72.94 75.076L72.496 76.828H73.552C73.68 76.828 73.764 76.836 73.804 76.852C73.844 76.86 73.864 76.896 73.864 76.96C73.864 77.056 73.84 77.116 73.792 77.14C73.744 77.164 73.652 77.176 73.516 77.176H72.412Z" fill="black"/>
<path d="M83.256 77.596C83.52 77.596 83.652 77.676 83.652 77.836C83.652 77.996 83.516 78.076 83.244 78.076H76.08C75.808 78.076 75.672 77.996 75.672 77.836C75.672 77.676 75.804 77.596 76.068 77.596H83.256ZM83.244 79.924C83.516 79.924 83.652 80.004 83.652 80.164C83.652 80.324 83.52 80.404 83.256 80.404H76.068C75.804 80.404 75.672 80.324 75.672 80.164C75.672 80.004 75.808 79.924 76.08 79.924H83.244Z" fill="black"/>
<path d="M90.388 79.912L90.052 82H85.6C85.6 81.856 85.604 81.764 85.612 81.724C85.628 81.676 85.668 81.62 85.732 81.556L88.036 78.988C88.876 78.044 89.296 77.16 89.296 76.336C89.296 75.8 89.156 75.34 88.876 74.956C88.596 74.572 88.2 74.38 87.688 74.38C87.336 74.38 87.012 74.488 86.716 74.704C86.42 74.92 86.204 75.22 86.068 75.604C86.092 75.596 86.144 75.592 86.224 75.592C86.424 75.592 86.58 75.656 86.692 75.784C86.804 75.904 86.86 76.048 86.86 76.216C86.86 76.432 86.788 76.592 86.644 76.696C86.508 76.8 86.372 76.852 86.236 76.852C86.18 76.852 86.116 76.848 86.044 76.84C85.972 76.824 85.88 76.76 85.768 76.648C85.656 76.536 85.6 76.38 85.6 76.18C85.6 75.62 85.812 75.12 86.236 74.68C86.66 74.232 87.196 74.008 87.844 74.008C88.58 74.008 89.188 74.228 89.668 74.668C90.148 75.1 90.388 75.656 90.388 76.336C90.388 76.576 90.352 76.804 90.28 77.02C90.208 77.236 90.124 77.428 90.028 77.596C89.932 77.764 89.756 77.984 89.5 78.256C89.244 78.52 89.012 78.748 88.804 78.94C88.596 79.132 88.26 79.432 87.796 79.84L86.524 81.076H88.684C89.388 81.076 89.768 81.044 89.824 80.98C89.904 80.868 89.992 80.512 90.088 79.912H90.388ZM93.112 77.02C93.24 77.14 93.304 77.288 93.304 77.464C93.304 77.64 93.24 77.792 93.112 77.92C92.992 78.04 92.844 78.1 92.668 78.1C92.492 78.1 92.34 78.04 92.212 77.92C92.092 77.792 92.032 77.64 92.032 77.464C92.032 77.288 92.092 77.14 92.212 77.02C92.34 76.892 92.492 76.828 92.668 76.828C92.844 76.828 92.992 76.892 93.112 77.02ZM93.34 81.964C93.34 82.38 93.264 82.78 93.112 83.164C92.96 83.556 92.808 83.844 92.656 84.028C92.504 84.22 92.4 84.316 92.344 84.316C92.264 84.316 92.224 84.272 92.224 84.184C92.224 84.144 92.252 84.092 92.308 84.028C92.82 83.436 93.076 82.716 93.076 81.868C93.004 81.932 92.9 81.972 92.764 81.988C92.74 81.996 92.708 82 92.668 82C92.468 82 92.312 81.936 92.2 81.808C92.088 81.68 92.032 81.532 92.032 81.364C92.032 81.196 92.088 81.048 92.2 80.92C92.312 80.792 92.468 80.728 92.668 80.728C93.116 80.728 93.34 81.14 93.34 81.964Z" fill="black"/>
<path d="M164.412 42.176L163.476 45.932C163.452 46.028 163.44 46.156 163.44 46.316C163.44 46.692 163.568 46.88 163.824 46.88C164.136 46.88 164.424 46.732 164.688 46.436C164.96 46.14 165.172 45.808 165.324 45.44C165.38 45.312 165.416 45.24 165.432 45.224C165.448 45.192 165.48 45.176 165.528 45.176C165.608 45.176 165.648 45.212 165.648 45.284C165.648 45.308 165.624 45.384 165.576 45.512C165.528 45.632 165.448 45.784 165.336 45.968C165.232 46.152 165.108 46.332 164.964 46.508C164.828 46.676 164.652 46.82 164.436 46.94C164.228 47.06 164.012 47.12 163.788 47.12C163.468 47.12 163.208 47.016 163.008 46.808C162.816 46.592 162.72 46.336 162.72 46.04C162.72 45.96 162.764 45.728 162.852 45.344L163.644 42.176H162.576C162.504 42.176 162.452 42.176 162.42 42.176C162.396 42.176 162.368 42.172 162.336 42.164C162.304 42.156 162.284 42.144 162.276 42.128C162.268 42.112 162.264 42.088 162.264 42.056C162.264 41.952 162.288 41.888 162.336 41.864C162.384 41.84 162.476 41.828 162.612 41.828H163.74L164.208 39.92C164.28 39.64 164.436 39.5 164.676 39.5C164.756 39.5 164.828 39.528 164.892 39.584C164.956 39.64 164.988 39.712 164.988 39.8C164.988 39.872 164.972 39.964 164.94 40.076L164.496 41.828H165.552C165.68 41.828 165.764 41.836 165.804 41.852C165.844 41.86 165.864 41.896 165.864 41.96C165.864 42.056 165.84 42.116 165.792 42.14C165.744 42.164 165.652 42.176 165.516 42.176H164.412Z" fill="black"/>
<path d="M175.256 42.596C175.52 42.596 175.652 42.676 175.652 42.836C175.652 42.996 175.516 43.076 175.244 43.076H168.08C167.808 43.076 167.672 42.996 167.672 42.836C167.672 42.676 167.804 42.596 168.068 42.596H175.256ZM175.244 44.924C175.516 44.924 175.652 45.004 175.652 45.164C175.652 45.324 175.52 45.404 175.256 45.404H168.068C167.804 45.404 167.672 45.324 167.672 45.164C167.672 45.004 167.808 44.924 168.08 44.924H175.244Z" fill="black"/>
<path d="M182.484 44.948C182.484 45.572 182.236 46.116 181.74 46.58C181.252 47.036 180.648 47.264 179.928 47.264C179.264 47.264 178.692 47.084 178.212 46.724C177.74 46.364 177.504 45.916 177.504 45.38C177.504 45.14 177.572 44.964 177.708 44.852C177.844 44.74 178 44.684 178.176 44.684C178.36 44.684 178.516 44.744 178.644 44.864C178.78 44.984 178.848 45.148 178.848 45.356C178.848 45.58 178.768 45.756 178.608 45.884C178.456 46.004 178.272 46.048 178.056 46.016C178.248 46.336 178.52 46.568 178.872 46.712C179.224 46.856 179.564 46.928 179.892 46.928C180.236 46.928 180.548 46.78 180.828 46.484C181.108 46.188 181.248 45.676 181.248 44.948C181.248 44.332 181.128 43.848 180.888 43.496C180.648 43.136 180.292 42.956 179.82 42.956H179.292C179.172 42.956 179.092 42.952 179.052 42.944C179.02 42.928 179.004 42.888 179.004 42.824C179.004 42.744 179.064 42.696 179.184 42.68C179.304 42.68 179.46 42.668 179.652 42.644C180.116 42.628 180.472 42.42 180.72 42.02C180.944 41.644 181.056 41.188 181.056 40.652C181.056 40.164 180.94 39.82 180.708 39.62C180.476 39.412 180.208 39.308 179.904 39.308C179.624 39.308 179.328 39.368 179.016 39.488C178.712 39.6 178.476 39.788 178.308 40.052C178.804 40.052 179.052 40.252 179.052 40.652C179.052 40.828 178.996 40.976 178.884 41.096C178.772 41.208 178.624 41.264 178.44 41.264C178.264 41.264 178.116 41.208 177.996 41.096C177.884 40.984 177.828 40.832 177.828 40.64C177.828 40.184 178.032 39.8 178.44 39.488C178.848 39.168 179.352 39.008 179.952 39.008C180.544 39.008 181.06 39.164 181.5 39.476C181.94 39.788 182.16 40.184 182.16 40.664C182.16 41.136 182.004 41.568 181.692 41.96C181.38 42.344 180.976 42.616 180.48 42.776C181.088 42.896 181.572 43.164 181.932 43.58C182.3 43.988 182.484 44.444 182.484 44.948ZM185.112 42.02C185.24 42.14 185.304 42.288 185.304 42.464C185.304 42.64 185.24 42.792 185.112 42.92C184.992 43.04 184.844 43.1 184.668 43.1C184.492 43.1 184.34 43.04 184.212 42.92C184.092 42.792 184.032 42.64 184.032 42.464C184.032 42.288 184.092 42.14 184.212 42.02C184.34 41.892 184.492 41.828 184.668 41.828C184.844 41.828 184.992 41.892 185.112 42.02ZM185.34 46.964C185.34 47.38 185.264 47.78 185.112 48.164C184.96 48.556 184.808 48.844 184.656 49.028C184.504 49.22 184.4 49.316 184.344 49.316C184.264 49.316 184.224 49.272 184.224 49.184C184.224 49.144 184.252 49.092 184.308 49.028C184.82 48.436 185.076 47.716 185.076 46.868C185.004 46.932 184.9 46.972 184.764 46.988C184.74 46.996 184.708 47 184.668 47C184.468 47 184.312 46.936 184.2 46.808C184.088 46.68 184.032 46.532 184.032 46.364C184.032 46.196 184.088 46.048 184.2 45.92C184.312 45.792 184.468 45.728 184.668 45.728C185.116 45.728 185.34 46.14 185.34 46.964Z" fill="black"/>
<path d="M164.412 29.176L163.476 32.932C163.452 33.028 163.44 33.156 163.44 33.316C163.44 33.692 163.568 33.88 163.824 33.88C164.136 33.88 164.424 33.732 164.688 33.436C164.96 33.14 165.172 32.808 165.324 32.44C165.38 32.312 165.416 32.24 165.432 32.224C165.448 32.192 165.48 32.176 165.528 32.176C165.608 32.176 165.648 32.212 165.648 32.284C165.648 32.308 165.624 32.384 165.576 32.512C165.528 32.632 165.448 32.784 165.336 32.968C165.232 33.152 165.108 33.332 164.964 33.508C164.828 33.676 164.652 33.82 164.436 33.94C164.228 34.06 164.012 34.12 163.788 34.12C163.468 34.12 163.208 34.016 163.008 33.808C162.816 33.592 162.72 33.336 162.72 33.04C162.72 32.96 162.764 32.728 162.852 32.344L163.644 29.176H162.576C162.504 29.176 162.452 29.176 162.42 29.176C162.396 29.176 162.368 29.172 162.336 29.164C162.304 29.156 162.284 29.144 162.276 29.128C162.268 29.112 162.264 29.088 162.264 29.056C162.264 28.952 162.288 28.888 162.336 28.864C162.384 28.84 162.476 28.828 162.612 28.828H163.74L164.208 26.92C164.28 26.64 164.436 26.5 164.676 26.5C164.756 26.5 164.828 26.528 164.892 26.584C164.956 26.64 164.988 26.712 164.988 26.8C164.988 26.872 164.972 26.964 164.94 27.076L164.496 28.828H165.552C165.68 28.828 165.764 28.836 165.804 28.852C165.844 28.86 165.864 28.896 165.864 28.96C165.864 29.056 165.84 29.116 165.792 29.14C165.744 29.164 165.652 29.176 165.516 29.176H164.412Z" fill="black"/>
<path d="M175.256 29.596C175.52 29.596 175.652 29.676 175.652 29.836C175.652 29.996 175.516 30.076 175.244 30.076H168.08C167.808 30.076 167.672 29.996 167.672 29.836C167.672 29.676 167.804 29.596 168.068 29.596H175.256ZM175.244 31.924C175.516 31.924 175.652 32.004 175.652 32.164C175.652 32.324 175.52 32.404 175.256 32.404H168.068C167.804 32.404 167.672 32.324 167.672 32.164C167.672 32.004 167.808 31.924 168.08 31.924H175.244Z" fill="black"/>
<path d="M182.652 32.02H181.452V33.064C181.452 33.296 181.5 33.448 181.596 33.52C181.692 33.592 181.948 33.628 182.364 33.628H182.616V34C182.288 33.976 181.744 33.964 180.984 33.964C180.232 33.964 179.692 33.976 179.364 34V33.628H179.616C180.032 33.628 180.288 33.592 180.384 33.52C180.48 33.448 180.528 33.296 180.528 33.064V32.02H177.336V31.648L181.02 26.02C181.084 25.924 181.164 25.876 181.26 25.876C181.308 25.876 181.344 25.88 181.368 25.888C181.392 25.896 181.412 25.916 181.428 25.948C181.444 25.98 181.452 26.012 181.452 26.044C181.452 26.068 181.452 26.116 181.452 26.188V31.648H182.652V32.02ZM180.6 31.648V27.172L177.672 31.648H180.6ZM185.112 29.02C185.24 29.14 185.304 29.288 185.304 29.464C185.304 29.64 185.24 29.792 185.112 29.92C184.992 30.04 184.844 30.1 184.668 30.1C184.492 30.1 184.34 30.04 184.212 29.92C184.092 29.792 184.032 29.64 184.032 29.464C184.032 29.288 184.092 29.14 184.212 29.02C184.34 28.892 184.492 28.828 184.668 28.828C184.844 28.828 184.992 28.892 185.112 29.02ZM185.34 33.964C185.34 34.38 185.264 34.78 185.112 35.164C184.96 35.556 184.808 35.844 184.656 36.028C184.504 36.22 184.4 36.316 184.344 36.316C184.264 36.316 184.224 36.272 184.224 36.184C184.224 36.144 184.252 36.092 184.308 36.028C184.82 35.436 185.076 34.716 185.076 33.868C185.004 33.932 184.9 33.972 184.764 33.988C184.74 33.996 184.708 34 184.668 34C184.468 34 184.312 33.936 184.2 33.808C184.088 33.68 184.032 33.532 184.032 33.364C184.032 33.196 184.088 33.048 184.2 32.92C184.312 32.792 184.468 32.728 184.668 32.728C185.116 32.728 185.34 33.14 185.34 33.964Z" fill="black"/>
<path d="M103.484 29.512C103.484 29.68 103.456 29.928 103.4 30.256C103.344 30.584 103.248 30.976 103.112 31.432C102.976 31.88 102.808 32.304 102.608 32.704C102.416 33.096 102.16 33.432 101.84 33.712C101.528 33.984 101.184 34.12 100.808 34.12C100.336 34.12 99.956 33.996 99.668 33.748C99.396 33.5 99.26 33.136 99.26 32.656C99.26 32.216 99.452 31.484 99.836 30.46C100.044 29.932 100.148 29.56 100.148 29.344C100.148 29.224 100.128 29.132 100.088 29.068C100.048 29.004 100.008 28.968 99.968 28.96C99.936 28.952 99.892 28.948 99.836 28.948C99.596 28.948 99.368 29.072 99.152 29.32C98.936 29.568 98.76 29.94 98.624 30.436C98.6 30.532 98.576 30.592 98.552 30.616C98.536 30.64 98.504 30.652 98.456 30.652C98.368 30.652 98.324 30.616 98.324 30.544C98.324 30.496 98.352 30.384 98.408 30.208C98.472 30.032 98.56 29.828 98.672 29.596C98.792 29.364 98.956 29.16 99.164 28.984C99.38 28.8 99.616 28.708 99.872 28.708C100.152 28.708 100.38 28.804 100.556 28.996C100.732 29.18 100.82 29.404 100.82 29.668C100.82 29.828 100.74 30.112 100.58 30.52C100.18 31.584 99.98 32.352 99.98 32.824C99.98 33.528 100.272 33.88 100.856 33.88C101.192 33.88 101.504 33.736 101.792 33.448C102.088 33.152 102.316 32.808 102.476 32.416C102.644 32.016 102.776 31.648 102.872 31.312C102.968 30.968 103.016 30.72 103.016 30.568C103.016 30.12 102.872 29.768 102.584 29.512C102.496 29.424 102.452 29.332 102.452 29.236C102.452 29.116 102.508 29 102.62 28.888C102.74 28.768 102.868 28.708 103.004 28.708C103.06 28.708 103.116 28.72 103.172 28.744C103.236 28.768 103.304 28.848 103.376 28.984C103.448 29.112 103.484 29.288 103.484 29.512Z" fill="black"/>
<path d="M113.256 29.596C113.52 29.596 113.652 29.676 113.652 29.836C113.652 29.996 113.516 30.076 113.244 30.076H106.08C105.808 30.076 105.672 29.996 105.672 29.836C105.672 29.676 105.804 29.596 106.068 29.596H113.256ZM113.244 31.924C113.516 31.924 113.652 32.004 113.652 32.164C113.652 32.324 113.52 32.404 113.256 32.404H106.068C105.804 32.404 105.672 32.324 105.672 32.164C105.672 32.004 105.808 31.924 106.08 31.924H113.244Z" fill="black"/>
<path d="M120.52 30.16C120.52 31.328 120.372 32.232 120.076 32.872C119.644 33.8 118.948 34.264 117.988 34.264C117.628 34.264 117.264 34.172 116.896 33.988C116.536 33.804 116.24 33.492 116.008 33.052C115.648 32.388 115.468 31.424 115.468 30.16C115.468 28.984 115.616 28.076 115.912 27.436C116.328 26.484 117.024 26.008 118 26.008C118.208 26.008 118.42 26.036 118.636 26.092C118.852 26.148 119.096 26.284 119.368 26.5C119.648 26.716 119.872 27 120.04 27.352C120.36 28.032 120.52 28.968 120.52 30.16ZM119.524 30.016C119.524 28.904 119.484 28.124 119.404 27.676C119.3 27.156 119.108 26.792 118.828 26.584C118.548 26.376 118.268 26.272 117.988 26.272C117.884 26.272 117.776 26.288 117.664 26.32C117.552 26.352 117.416 26.412 117.256 26.5C117.096 26.588 116.952 26.744 116.824 26.968C116.704 27.192 116.616 27.472 116.56 27.808C116.496 28.24 116.464 28.976 116.464 30.016C116.464 31.224 116.508 32.068 116.596 32.548C116.692 33.068 116.872 33.44 117.136 33.664C117.408 33.888 117.692 34 117.988 34C118.308 34 118.6 33.88 118.864 33.64C119.136 33.4 119.312 33.02 119.392 32.5C119.48 31.988 119.524 31.16 119.524 30.016Z" fill="black"/>
<path d="M104.484 42.512C104.484 42.68 104.456 42.928 104.4 43.256C104.344 43.584 104.248 43.976 104.112 44.432C103.976 44.88 103.808 45.304 103.608 45.704C103.416 46.096 103.16 46.432 102.84 46.712C102.528 46.984 102.184 47.12 101.808 47.12C101.336 47.12 100.956 46.996 100.668 46.748C100.396 46.5 100.26 46.136 100.26 45.656C100.26 45.216 100.452 44.484 100.836 43.46C101.044 42.932 101.148 42.56 101.148 42.344C101.148 42.224 101.128 42.132 101.088 42.068C101.048 42.004 101.008 41.968 100.968 41.96C100.936 41.952 100.892 41.948 100.836 41.948C100.596 41.948 100.368 42.072 100.152 42.32C99.936 42.568 99.76 42.94 99.624 43.436C99.6 43.532 99.576 43.592 99.552 43.616C99.536 43.64 99.504 43.652 99.456 43.652C99.368 43.652 99.324 43.616 99.324 43.544C99.324 43.496 99.352 43.384 99.408 43.208C99.472 43.032 99.56 42.828 99.672 42.596C99.792 42.364 99.956 42.16 100.164 41.984C100.38 41.8 100.616 41.708 100.872 41.708C101.152 41.708 101.38 41.804 101.556 41.996C101.732 42.18 101.82 42.404 101.82 42.668C101.82 42.828 101.74 43.112 101.58 43.52C101.18 44.584 100.98 45.352 100.98 45.824C100.98 46.528 101.272 46.88 101.856 46.88C102.192 46.88 102.504 46.736 102.792 46.448C103.088 46.152 103.316 45.808 103.476 45.416C103.644 45.016 103.776 44.648 103.872 44.312C103.968 43.968 104.016 43.72 104.016 43.568C104.016 43.12 103.872 42.768 103.584 42.512C103.496 42.424 103.452 42.332 103.452 42.236C103.452 42.116 103.508 42 103.62 41.888C103.74 41.768 103.868 41.708 104.004 41.708C104.06 41.708 104.116 41.72 104.172 41.744C104.236 41.768 104.304 41.848 104.376 41.984C104.448 42.112 104.484 42.288 104.484 42.512Z" fill="black"/>
<path d="M114.256 42.596C114.52 42.596 114.652 42.676 114.652 42.836C114.652 42.996 114.516 43.076 114.244 43.076H107.08C106.808 43.076 106.672 42.996 106.672 42.836C106.672 42.676 106.804 42.596 107.068 42.596H114.256ZM114.244 44.924C114.516 44.924 114.652 45.004 114.652 45.164C114.652 45.324 114.52 45.404 114.256 45.404H107.068C106.804 45.404 106.672 45.324 106.672 45.164C106.672 45.004 106.808 44.924 107.08 44.924H114.244Z" fill="black"/>
<path d="M121.028 47C120.748 46.976 120.1 46.964 119.084 46.964C118.068 46.964 117.42 46.976 117.14 47V46.628H117.524C118.028 46.628 118.34 46.592 118.46 46.52C118.58 46.448 118.64 46.292 118.64 46.052V39.836C118.224 40.044 117.7 40.148 117.068 40.148V39.776C118.028 39.776 118.756 39.52 119.252 39.008C119.388 39.008 119.468 39.024 119.492 39.056C119.516 39.088 119.528 39.176 119.528 39.32V46.052C119.528 46.292 119.584 46.448 119.696 46.52C119.816 46.592 120.132 46.628 120.644 46.628H121.028V47Z" fill="black"/>
<path d="M104.484 77.512C104.484 77.68 104.456 77.928 104.4 78.256C104.344 78.584 104.248 78.976 104.112 79.432C103.976 79.88 103.808 80.304 103.608 80.704C103.416 81.096 103.16 81.432 102.84 81.712C102.528 81.984 102.184 82.12 101.808 82.12C101.336 82.12 100.956 81.996 100.668 81.748C100.396 81.5 100.26 81.136 100.26 80.656C100.26 80.216 100.452 79.484 100.836 78.46C101.044 77.932 101.148 77.56 101.148 77.344C101.148 77.224 101.128 77.132 101.088 77.068C101.048 77.004 101.008 76.968 100.968 76.96C100.936 76.952 100.892 76.948 100.836 76.948C100.596 76.948 100.368 77.072 100.152 77.32C99.936 77.568 99.76 77.94 99.624 78.436C99.6 78.532 99.576 78.592 99.552 78.616C99.536 78.64 99.504 78.652 99.456 78.652C99.368 78.652 99.324 78.616 99.324 78.544C99.324 78.496 99.352 78.384 99.408 78.208C99.472 78.032 99.56 77.828 99.672 77.596C99.792 77.364 99.956 77.16 100.164 76.984C100.38 76.8 100.616 76.708 100.872 76.708C101.152 76.708 101.38 76.804 101.556 76.996C101.732 77.18 101.82 77.404 101.82 77.668C101.82 77.828 101.74 78.112 101.58 78.52C101.18 79.584 100.98 80.352 100.98 80.824C100.98 81.528 101.272 81.88 101.856 81.88C102.192 81.88 102.504 81.736 102.792 81.448C103.088 81.152 103.316 80.808 103.476 80.416C103.644 80.016 103.776 79.648 103.872 79.312C103.968 78.968 104.016 78.72 104.016 78.568C104.016 78.12 103.872 77.768 103.584 77.512C103.496 77.424 103.452 77.332 103.452 77.236C103.452 77.116 103.508 77 103.62 76.888C103.74 76.768 103.868 76.708 104.004 76.708C104.06 76.708 104.116 76.72 104.172 76.744C104.236 76.768 104.304 76.848 104.376 76.984C104.448 77.112 104.484 77.288 104.484 77.512Z" fill="black"/>
<path d="M114.256 77.596C114.52 77.596 114.652 77.676 114.652 77.836C114.652 77.996 114.516 78.076 114.244 78.076H107.08C106.808 78.076 106.672 77.996 106.672 77.836C106.672 77.676 106.804 77.596 107.068 77.596H114.256ZM114.244 79.924C114.516 79.924 114.652 80.004 114.652 80.164C114.652 80.324 114.52 80.404 114.256 80.404H107.068C106.804 80.404 106.672 80.324 106.672 80.164C106.672 80.004 106.808 79.924 107.08 79.924H114.244Z" fill="black"/>
<path d="M121.388 79.912L121.052 82H116.6C116.6 81.856 116.604 81.764 116.612 81.724C116.628 81.676 116.668 81.62 116.732 81.556L119.036 78.988C119.876 78.044 120.296 77.16 120.296 76.336C120.296 75.8 120.156 75.34 119.876 74.956C119.596 74.572 119.2 74.38 118.688 74.38C118.336 74.38 118.012 74.488 117.716 74.704C117.42 74.92 117.204 75.22 117.068 75.604C117.092 75.596 117.144 75.592 117.224 75.592C117.424 75.592 117.58 75.656 117.692 75.784C117.804 75.904 117.86 76.048 117.86 76.216C117.86 76.432 117.788 76.592 117.644 76.696C117.508 76.8 117.372 76.852 117.236 76.852C117.18 76.852 117.116 76.848 117.044 76.84C116.972 76.824 116.88 76.76 116.768 76.648C116.656 76.536 116.6 76.38 116.6 76.18C116.6 75.62 116.812 75.12 117.236 74.68C117.66 74.232 118.196 74.008 118.844 74.008C119.58 74.008 120.188 74.228 120.668 74.668C121.148 75.1 121.388 75.656 121.388 76.336C121.388 76.576 121.352 76.804 121.28 77.02C121.208 77.236 121.124 77.428 121.028 77.596C120.932 77.764 120.756 77.984 120.5 78.256C120.244 78.52 120.012 78.748 119.804 78.94C119.596 79.132 119.26 79.432 118.796 79.84L117.524 81.076H119.684C120.388 81.076 120.768 81.044 120.824 80.98C120.904 80.868 120.992 80.512 121.088 79.912H121.388Z" fill="black"/>
<path d="M196.484 42.512C196.484 42.68 196.456 42.928 196.4 43.256C196.344 43.584 196.248 43.976 196.112 44.432C195.976 44.88 195.808 45.304 195.608 45.704C195.416 46.096 195.16 46.432 194.84 46.712C194.528 46.984 194.184 47.12 193.808 47.12C193.336 47.12 192.956 46.996 192.668 46.748C192.396 46.5 192.26 46.136 192.26 45.656C192.26 45.216 192.452 44.484 192.836 43.46C193.044 42.932 193.148 42.56 193.148 42.344C193.148 42.224 193.128 42.132 193.088 42.068C193.048 42.004 193.008 41.968 192.968 41.96C192.936 41.952 192.892 41.948 192.836 41.948C192.596 41.948 192.368 42.072 192.152 42.32C191.936 42.568 191.76 42.94 191.624 43.436C191.6 43.532 191.576 43.592 191.552 43.616C191.536 43.64 191.504 43.652 191.456 43.652C191.368 43.652 191.324 43.616 191.324 43.544C191.324 43.496 191.352 43.384 191.408 43.208C191.472 43.032 191.56 42.828 191.672 42.596C191.792 42.364 191.956 42.16 192.164 41.984C192.38 41.8 192.616 41.708 192.872 41.708C193.152 41.708 193.38 41.804 193.556 41.996C193.732 42.18 193.82 42.404 193.82 42.668C193.82 42.828 193.74 43.112 193.58 43.52C193.18 44.584 192.98 45.352 192.98 45.824C192.98 46.528 193.272 46.88 193.856 46.88C194.192 46.88 194.504 46.736 194.792 46.448C195.088 46.152 195.316 45.808 195.476 45.416C195.644 45.016 195.776 44.648 195.872 44.312C195.968 43.968 196.016 43.72 196.016 43.568C196.016 43.12 195.872 42.768 195.584 42.512C195.496 42.424 195.452 42.332 195.452 42.236C195.452 42.116 195.508 42 195.62 41.888C195.74 41.768 195.868 41.708 196.004 41.708C196.06 41.708 196.116 41.72 196.172 41.744C196.236 41.768 196.304 41.848 196.376 41.984C196.448 42.112 196.484 42.288 196.484 42.512Z" fill="black"/>
<path d="M206.256 42.596C206.52 42.596 206.652 42.676 206.652 42.836C206.652 42.996 206.516 43.076 206.244 43.076H199.08C198.808 43.076 198.672 42.996 198.672 42.836C198.672 42.676 198.804 42.596 199.068 42.596H206.256ZM206.244 44.924C206.516 44.924 206.652 45.004 206.652 45.164C206.652 45.324 206.52 45.404 206.256 45.404H199.068C198.804 45.404 198.672 45.324 198.672 45.164C198.672 45.004 198.808 44.924 199.08 44.924H206.244Z" fill="black"/>
<path d="M211.312 44.756H208.132V44.06H211.312V44.756ZM217.024 47C216.744 46.976 216.096 46.964 215.08 46.964C214.064 46.964 213.416 46.976 213.136 47V46.628H213.52C214.024 46.628 214.336 46.592 214.456 46.52C214.576 46.448 214.636 46.292 214.636 46.052V39.836C214.22 40.044 213.696 40.148 213.064 40.148V39.776C214.024 39.776 214.752 39.52 215.248 39.008C215.384 39.008 215.464 39.024 215.488 39.056C215.512 39.088 215.524 39.176 215.524 39.32V46.052C215.524 46.292 215.58 46.448 215.692 46.52C215.812 46.592 216.128 46.628 216.64 46.628H217.024V47Z" fill="black"/>
<path d="M196.484 29.512C196.484 29.68 196.456 29.928 196.4 30.256C196.344 30.584 196.248 30.976 196.112 31.432C195.976 31.88 195.808 32.304 195.608 32.704C195.416 33.096 195.16 33.432 194.84 33.712C194.528 33.984 194.184 34.12 193.808 34.12C193.336 34.12 192.956 33.996 192.668 33.748C192.396 33.5 192.26 33.136 192.26 32.656C192.26 32.216 192.452 31.484 192.836 30.46C193.044 29.932 193.148 29.56 193.148 29.344C193.148 29.224 193.128 29.132 193.088 29.068C193.048 29.004 193.008 28.968 192.968 28.96C192.936 28.952 192.892 28.948 192.836 28.948C192.596 28.948 192.368 29.072 192.152 29.32C191.936 29.568 191.76 29.94 191.624 30.436C191.6 30.532 191.576 30.592 191.552 30.616C191.536 30.64 191.504 30.652 191.456 30.652C191.368 30.652 191.324 30.616 191.324 30.544C191.324 30.496 191.352 30.384 191.408 30.208C191.472 30.032 191.56 29.828 191.672 29.596C191.792 29.364 191.956 29.16 192.164 28.984C192.38 28.8 192.616 28.708 192.872 28.708C193.152 28.708 193.38 28.804 193.556 28.996C193.732 29.18 193.82 29.404 193.82 29.668C193.82 29.828 193.74 30.112 193.58 30.52C193.18 31.584 192.98 32.352 192.98 32.824C192.98 33.528 193.272 33.88 193.856 33.88C194.192 33.88 194.504 33.736 194.792 33.448C195.088 33.152 195.316 32.808 195.476 32.416C195.644 32.016 195.776 31.648 195.872 31.312C195.968 30.968 196.016 30.72 196.016 30.568C196.016 30.12 195.872 29.768 195.584 29.512C195.496 29.424 195.452 29.332 195.452 29.236C195.452 29.116 195.508 29 195.62 28.888C195.74 28.768 195.868 28.708 196.004 28.708C196.06 28.708 196.116 28.72 196.172 28.744C196.236 28.768 196.304 28.848 196.376 28.984C196.448 29.112 196.484 29.288 196.484 29.512Z" fill="black"/>
<path d="M206.256 29.596C206.52 29.596 206.652 29.676 206.652 29.836C206.652 29.996 206.516 30.076 206.244 30.076H199.08C198.808 30.076 198.672 29.996 198.672 29.836C198.672 29.676 198.804 29.596 199.068 29.596H206.256ZM206.244 31.924C206.516 31.924 206.652 32.004 206.652 32.164C206.652 32.324 206.52 32.404 206.256 32.404H199.068C198.804 32.404 198.672 32.324 198.672 32.164C198.672 32.004 198.808 31.924 199.08 31.924H206.244Z" fill="black"/>
<path d="M213.52 30.16C213.52 31.328 213.372 32.232 213.076 32.872C212.644 33.8 211.948 34.264 210.988 34.264C210.628 34.264 210.264 34.172 209.896 33.988C209.536 33.804 209.24 33.492 209.008 33.052C208.648 32.388 208.468 31.424 208.468 30.16C208.468 28.984 208.616 28.076 208.912 27.436C209.328 26.484 210.024 26.008 211 26.008C211.208 26.008 211.42 26.036 211.636 26.092C211.852 26.148 212.096 26.284 212.368 26.5C212.648 26.716 212.872 27 213.04 27.352C213.36 28.032 213.52 28.968 213.52 30.16ZM212.524 30.016C212.524 28.904 212.484 28.124 212.404 27.676C212.3 27.156 212.108 26.792 211.828 26.584C211.548 26.376 211.268 26.272 210.988 26.272C210.884 26.272 210.776 26.288 210.664 26.32C210.552 26.352 210.416 26.412 210.256 26.5C210.096 26.588 209.952 26.744 209.824 26.968C209.704 27.192 209.616 27.472 209.56 27.808C209.496 28.24 209.464 28.976 209.464 30.016C209.464 31.224 209.508 32.068 209.596 32.548C209.692 33.068 209.872 33.44 210.136 33.664C210.408 33.888 210.692 34 210.988 34C211.308 34 211.6 33.88 211.864 33.64C212.136 33.4 212.312 33.02 212.392 32.5C212.48 31.988 212.524 31.16 212.524 30.016Z" fill="black"/>
<path d="M104.484 91.512C104.484 91.68 104.456 91.928 104.4 92.256C104.344 92.584 104.248 92.976 104.112 93.432C103.976 93.88 103.808 94.304 103.608 94.704C103.416 95.096 103.16 95.432 102.84 95.712C102.528 95.984 102.184 96.12 101.808 96.12C101.336 96.12 100.956 95.996 100.668 95.748C100.396 95.5 100.26 95.136 100.26 94.656C100.26 94.216 100.452 93.484 100.836 92.46C101.044 91.932 101.148 91.56 101.148 91.344C101.148 91.224 101.128 91.132 101.088 91.068C101.048 91.004 101.008 90.968 100.968 90.96C100.936 90.952 100.892 90.948 100.836 90.948C100.596 90.948 100.368 91.072 100.152 91.32C99.936 91.568 99.76 91.94 99.624 92.436C99.6 92.532 99.576 92.592 99.552 92.616C99.536 92.64 99.504 92.652 99.456 92.652C99.368 92.652 99.324 92.616 99.324 92.544C99.324 92.496 99.352 92.384 99.408 92.208C99.472 92.032 99.56 91.828 99.672 91.596C99.792 91.364 99.956 91.16 100.164 90.984C100.38 90.8 100.616 90.708 100.872 90.708C101.152 90.708 101.38 90.804 101.556 90.996C101.732 91.18 101.82 91.404 101.82 91.668C101.82 91.828 101.74 92.112 101.58 92.52C101.18 93.584 100.98 94.352 100.98 94.824C100.98 95.528 101.272 95.88 101.856 95.88C102.192 95.88 102.504 95.736 102.792 95.448C103.088 95.152 103.316 94.808 103.476 94.416C103.644 94.016 103.776 93.648 103.872 93.312C103.968 92.968 104.016 92.72 104.016 92.568C104.016 92.12 103.872 91.768 103.584 91.512C103.496 91.424 103.452 91.332 103.452 91.236C103.452 91.116 103.508 91 103.62 90.888C103.74 90.768 103.868 90.708 104.004 90.708C104.06 90.708 104.116 90.72 104.172 90.744C104.236 90.768 104.304 90.848 104.376 90.984C104.448 91.112 104.484 91.288 104.484 91.512Z" fill="black"/>
<path d="M114.256 91.596C114.52 91.596 114.652 91.676 114.652 91.836C114.652 91.996 114.516 92.076 114.244 92.076H107.08C106.808 92.076 106.672 91.996 106.672 91.836C106.672 91.676 106.804 91.596 107.068 91.596H114.256ZM114.244 93.924C114.516 93.924 114.652 94.004 114.652 94.164C114.652 94.324 114.52 94.404 114.256 94.404H107.068C106.804 94.404 106.672 94.324 106.672 94.164C106.672 94.004 106.808 93.924 107.08 93.924H114.244Z" fill="black"/>
<path d="M119.312 93.756H116.132V93.06H119.312V93.756ZM125.384 93.912L125.048 96H120.596C120.596 95.856 120.6 95.764 120.608 95.724C120.624 95.676 120.664 95.62 120.728 95.556L123.032 92.988C123.872 92.044 124.292 91.16 124.292 90.336C124.292 89.8 124.152 89.34 123.872 88.956C123.592 88.572 123.196 88.38 122.684 88.38C122.332 88.38 122.008 88.488 121.712 88.704C121.416 88.92 121.2 89.22 121.064 89.604C121.088 89.596 121.14 89.592 121.22 89.592C121.42 89.592 121.576 89.656 121.688 89.784C121.8 89.904 121.856 90.048 121.856 90.216C121.856 90.432 121.784 90.592 121.64 90.696C121.504 90.8 121.368 90.852 121.232 90.852C121.176 90.852 121.112 90.848 121.04 90.84C120.968 90.824 120.876 90.76 120.764 90.648C120.652 90.536 120.596 90.38 120.596 90.18C120.596 89.62 120.808 89.12 121.232 88.68C121.656 88.232 122.192 88.008 122.84 88.008C123.576 88.008 124.184 88.228 124.664 88.668C125.144 89.1 125.384 89.656 125.384 90.336C125.384 90.576 125.348 90.804 125.276 91.02C125.204 91.236 125.12 91.428 125.024 91.596C124.928 91.764 124.752 91.984 124.496 92.256C124.24 92.52 124.008 92.748 123.8 92.94C123.592 93.132 123.256 93.432 122.792 93.84L121.52 95.076H123.68C124.384 95.076 124.764 95.044 124.82 94.98C124.9 94.868 124.988 94.512 125.084 93.912H125.384Z" fill="black"/>
<path d="M48.6464 126.354C48.8417 126.549 49.1583 126.549 49.3536 126.354L52.5355 123.172C52.7308 122.976 52.7308 122.66 52.5355 122.464C52.3403 122.269 52.0237 122.269 51.8284 122.464L49 125.293L46.1716 122.464C45.9763 122.269 45.6597 122.269 45.4645 122.464C45.2692 122.66 45.2692 122.976 45.4645 123.172L48.6464 126.354ZM48.5 20L48.5 126H49.5L49.5 20H48.5Z" fill="black"/>
<path d="M40.52 31.16C40.52 32.328 40.372 33.232 40.076 33.872C39.644 34.8 38.948 35.264 37.988 35.264C37.628 35.264 37.264 35.172 36.896 34.988C36.536 34.804 36.24 34.492 36.008 34.052C35.648 33.388 35.468 32.424 35.468 31.16C35.468 29.984 35.616 29.076 35.912 28.436C36.328 27.484 37.024 27.008 38 27.008C38.208 27.008 38.42 27.036 38.636 27.092C38.852 27.148 39.096 27.284 39.368 27.5C39.648 27.716 39.872 28 40.04 28.352C40.36 29.032 40.52 29.968 40.52 31.16ZM39.524 31.016C39.524 29.904 39.484 29.124 39.404 28.676C39.3 28.156 39.108 27.792 38.828 27.584C38.548 27.376 38.268 27.272 37.988 27.272C37.884 27.272 37.776 27.288 37.664 27.32C37.552 27.352 37.416 27.412 37.256 27.5C37.096 27.588 36.952 27.744 36.824 27.968C36.704 28.192 36.616 28.472 36.56 28.808C36.496 29.24 36.464 29.976 36.464 31.016C36.464 32.224 36.508 33.068 36.596 33.548C36.692 34.068 36.872 34.44 37.136 34.664C37.408 34.888 37.692 35 37.988 35C38.308 35 38.6 34.88 38.864 34.64C39.136 34.4 39.312 34.02 39.392 33.5C39.48 32.988 39.524 32.16 39.524 31.016Z" fill="black"/>
<path d="M40.028 58C39.748 57.976 39.1 57.964 38.084 57.964C37.068 57.964 36.42 57.976 36.14 58V57.628H36.524C37.028 57.628 37.34 57.592 37.46 57.52C37.58 57.448 37.64 57.292 37.64 57.052V50.836C37.224 51.044 36.7 51.148 36.068 51.148V50.776C37.028 50.776 37.756 50.52 38.252 50.008C38.388 50.008 38.468 50.024 38.492 50.056C38.516 50.088 38.528 50.176 38.528 50.32V57.052C38.528 57.292 38.584 57.448 38.696 57.52C38.816 57.592 39.132 57.628 39.644 57.628H40.028V58Z" fill="black"/>
<path d="M40.388 79.912L40.052 82H35.6C35.6 81.856 35.604 81.764 35.612 81.724C35.628 81.676 35.668 81.62 35.732 81.556L38.036 78.988C38.876 78.044 39.296 77.16 39.296 76.336C39.296 75.8 39.156 75.34 38.876 74.956C38.596 74.572 38.2 74.38 37.688 74.38C37.336 74.38 37.012 74.488 36.716 74.704C36.42 74.92 36.204 75.22 36.068 75.604C36.092 75.596 36.144 75.592 36.224 75.592C36.424 75.592 36.58 75.656 36.692 75.784C36.804 75.904 36.86 76.048 36.86 76.216C36.86 76.432 36.788 76.592 36.644 76.696C36.508 76.8 36.372 76.852 36.236 76.852C36.18 76.852 36.116 76.848 36.044 76.84C35.972 76.824 35.88 76.76 35.768 76.648C35.656 76.536 35.6 76.38 35.6 76.18C35.6 75.62 35.812 75.12 36.236 74.68C36.66 74.232 37.196 74.008 37.844 74.008C38.58 74.008 39.188 74.228 39.668 74.668C40.148 75.1 40.388 75.656 40.388 76.336C40.388 76.576 40.352 76.804 40.28 77.02C40.208 77.236 40.124 77.428 40.028 77.596C39.932 77.764 39.756 77.984 39.5 78.256C39.244 78.52 39.012 78.748 38.804 78.94C38.596 79.132 38.26 79.432 37.796 79.84L36.524 81.076H38.684C39.388 81.076 39.768 81.044 39.824 80.98C39.904 80.868 39.992 80.512 40.088 79.912H40.388Z" fill="black"/>
<path d="M40.484 103.948C40.484 104.572 40.236 105.116 39.74 105.58C39.252 106.036 38.648 106.264 37.928 106.264C37.264 106.264 36.692 106.084 36.212 105.724C35.74 105.364 35.504 104.916 35.504 104.38C35.504 104.14 35.572 103.964 35.708 103.852C35.844 103.74 36 103.684 36.176 103.684C36.36 103.684 36.516 103.744 36.644 103.864C36.78 103.984 36.848 104.148 36.848 104.356C36.848 104.58 36.768 104.756 36.608 104.884C36.456 105.004 36.272 105.048 36.056 105.016C36.248 105.336 36.52 105.568 36.872 105.712C37.224 105.856 37.564 105.928 37.892 105.928C38.236 105.928 38.548 105.78 38.828 105.484C39.108 105.188 39.248 104.676 39.248 103.948C39.248 103.332 39.128 102.848 38.888 102.496C38.648 102.136 38.292 101.956 37.82 101.956H37.292C37.172 101.956 37.092 101.952 37.052 101.944C37.02 101.928 37.004 101.888 37.004 101.824C37.004 101.744 37.064 101.696 37.184 101.68C37.304 101.68 37.46 101.668 37.652 101.644C38.116 101.628 38.472 101.42 38.72 101.02C38.944 100.644 39.056 100.188 39.056 99.652C39.056 99.164 38.94 98.82 38.708 98.62C38.476 98.412 38.208 98.308 37.904 98.308C37.624 98.308 37.328 98.368 37.016 98.488C36.712 98.6 36.476 98.788 36.308 99.052C36.804 99.052 37.052 99.252 37.052 99.652C37.052 99.828 36.996 99.976 36.884 100.096C36.772 100.208 36.624 100.264 36.44 100.264C36.264 100.264 36.116 100.208 35.996 100.096C35.884 99.984 35.828 99.832 35.828 99.64C35.828 99.184 36.032 98.8 36.44 98.488C36.848 98.168 37.352 98.008 37.952 98.008C38.544 98.008 39.06 98.164 39.5 98.476C39.94 98.788 40.16 99.184 40.16 99.664C40.16 100.136 40.004 100.568 39.692 100.96C39.38 101.344 38.976 101.616 38.48 101.776C39.088 101.896 39.572 102.164 39.932 102.58C40.3 102.988 40.484 103.444 40.484 103.948Z" fill="black"/>
<path d="M34.682 129.568C34.8407 129.353 34.9713 129.125 35.074 128.882C35.186 128.649 35.2653 128.448 35.312 128.28C35.368 128.112 35.438 127.855 35.522 127.51L35.508 127.496C35.0973 127.925 34.6307 128.14 34.108 128.14C33.6693 128.14 33.282 128.019 32.946 127.776C32.6193 127.524 32.456 127.099 32.456 126.502C32.456 125.97 32.6847 125.093 33.142 123.87C33.3847 123.254 33.506 122.82 33.506 122.568C33.506 122.428 33.4827 122.321 33.436 122.246C33.3893 122.171 33.3427 122.129 33.296 122.12C33.2587 122.111 33.2073 122.106 33.142 122.106C32.862 122.106 32.596 122.255 32.344 122.554C32.092 122.843 31.8867 123.273 31.728 123.842C31.7 123.954 31.672 124.024 31.644 124.052C31.6253 124.08 31.588 124.094 31.532 124.094C31.4293 124.094 31.378 124.052 31.378 123.968C31.378 123.912 31.4107 123.781 31.476 123.576C31.5507 123.371 31.6533 123.133 31.784 122.862C31.924 122.591 32.1153 122.353 32.358 122.148C32.61 121.933 32.8853 121.826 33.184 121.826C33.5107 121.826 33.7767 121.938 33.982 122.162C34.1873 122.377 34.29 122.638 34.29 122.946C34.29 123.114 34.2107 123.408 34.052 123.828C33.548 125.172 33.296 126.133 33.296 126.712C33.296 127.477 33.5807 127.86 34.15 127.86C34.682 127.86 35.1533 127.571 35.564 126.992C35.6293 126.899 35.69 126.754 35.746 126.558L36.782 122.442C36.866 122.125 37.0433 121.966 37.314 121.966C37.4167 121.966 37.5053 121.999 37.58 122.064C37.6547 122.129 37.692 122.213 37.692 122.316C37.692 122.335 37.678 122.414 37.65 122.554L36.278 128.014C36.082 128.798 35.6713 129.465 35.046 130.016C34.43 130.576 33.772 130.856 33.072 130.856C32.6707 130.856 32.3347 130.744 32.064 130.52C31.8027 130.296 31.672 130.007 31.672 129.652C31.672 129.353 31.7513 129.134 31.91 128.994C32.0687 128.863 32.2273 128.798 32.386 128.798C32.5073 128.798 32.6147 128.831 32.708 128.896C32.8107 128.971 32.862 129.083 32.862 129.232C32.862 129.4 32.792 129.554 32.652 129.694C32.5213 129.843 32.358 129.918 32.162 129.918C32.0967 129.918 32.05 129.913 32.022 129.904C32.1713 130.352 32.5213 130.576 33.072 130.576C33.6693 130.576 34.206 130.24 34.682 129.568Z" fill="black"/>
<path d="M45 79H53" stroke="black"/>
<path d="M45 103H53" stroke="black"/>
<path d="M45 55H53" stroke="black"/>
<path d="M45 31H53" stroke="black"/>
</g>
<defs>
<filter id="filter0_d" x="0" y="0" width="249" height="161" filterUnits="userSpaceOnUse" color-interpolation-filters="sRGB">
<feFlood flood-opacity="0" result="BackgroundImageFix"/>
<feColorMatrix in="SourceAlpha" type="matrix" values="0 0 0 0 0 0 0 0 0 0 0 0 0 0 0 0 0 0 127 0"/>
<feOffset dy="4"/>
<feGaussianBlur stdDeviation="8"/>
<feColorMatrix type="matrix" values="0 0 0 0 0 0 0 0 0 0 0 0 0 0 0 0 0 0 0.25 0"/>
<feBlend mode="normal" in2="BackgroundImageFix" result="effect1_dropShadow"/>
<feBlend mode="normal" in="SourceGraphic" in2="effect1_dropShadow" result="shape"/>
</filter>
</defs>
</svg>
