<svg width="406" height="239" viewBox="0 0 406 239" fill="none" xmlns="http://www.w3.org/2000/svg">
<g filter="url(#filter0_d)">
<rect width="374" height="207" transform="translate(16 12)" fill="white"/>
<path d="M214 91.5C214 124.913 186.913 152 153.5 152C120.087 152 93 124.913 93 91.5C93 58.0868 120.087 31 153.5 31C186.913 31 214 58.0868 214 91.5Z" fill="#E7E7E7"/>
<path d="M312 141.5C312 174.913 284.913 202 251.5 202C218.087 202 191 174.913 191 141.5C191 108.087 218.087 81 251.5 81C284.913 81 312 108.087 312 141.5Z" fill="#E7E7E7"/>
<path fill-rule="evenodd" clip-rule="evenodd" d="M213.947 94.0628C213.189 112.243 204.409 128.35 191.053 138.937C191.811 120.757 200.591 104.65 213.947 94.0628Z" fill="white"/>
<path fill-rule="evenodd" clip-rule="evenodd" d="M153.5 151C186.361 151 213 124.361 213 91.5C213 58.6391 186.361 32 153.5 32C120.639 32 94 58.6391 94 91.5C94 124.361 120.639 151 153.5 151ZM153.5 152C186.913 152 214 124.913 214 91.5C214 58.0868 186.913 31 153.5 31C120.087 31 93 58.0868 93 91.5C93 124.913 120.087 152 153.5 152Z" fill="black"/>
<path fill-rule="evenodd" clip-rule="evenodd" d="M251.5 201C284.361 201 311 174.361 311 141.5C311 108.639 284.361 82 251.5 82C218.639 82 192 108.639 192 141.5C192 174.361 218.639 201 251.5 201ZM251.5 202C284.913 202 312 174.913 312 141.5C312 108.087 284.913 81 251.5 81C218.087 81 191 108.087 191 141.5C191 174.913 218.087 202 251.5 202Z" fill="black"/>
<path d="M149.5 88L156.5 95M149.5 95L156.5 88" stroke="#BE2626" stroke-linecap="round"/>
<path d="M248.5 138L255.5 145M248.5 145L255.5 138" stroke="#BE2626" stroke-linecap="round"/>
<path d="M26 27L378 206" stroke="#808080" stroke-linecap="round" stroke-dasharray="4 3"/>
<path d="M206.861 119.28C201.085 130.66 179.988 105.64 173.873 117.689C179.988 105.64 147.34 103.379 153.116 92" stroke="#5A5A5A" stroke-width="0.5" stroke-linecap="round" stroke-linejoin="round"/>
<path d="M251.861 142.28C246.085 153.66 224.988 128.64 218.873 140.689C224.988 128.64 192.34 126.379 198.116 115" stroke="#5A5A5A" stroke-width="0.5" stroke-linecap="round" stroke-linejoin="round"/>
<path d="M173.06 121.361C172.924 121.265 172.744 121.217 172.52 121.217C172.184 121.217 171.868 121.353 171.572 121.625C171.444 121.737 171.308 121.905 171.164 122.129C171.02 122.353 170.936 122.505 170.912 122.585C170.872 122.769 170.828 122.941 170.78 123.101C170.756 123.189 170.724 123.321 170.684 123.497C170.644 123.665 170.612 123.793 170.588 123.881C170.572 123.945 170.516 124.161 170.42 124.529C170.332 124.889 170.248 125.229 170.168 125.549C170.088 125.861 170.044 126.033 170.036 126.065C169.972 126.281 169.828 126.389 169.604 126.389C169.516 126.389 169.44 126.361 169.376 126.305C169.32 126.249 169.292 126.177 169.292 126.089C169.292 126.001 169.364 125.689 169.508 125.153C169.596 124.825 169.676 124.497 169.748 124.169L170.084 122.873C170.22 122.273 170.288 121.905 170.288 121.769C170.288 121.401 170.164 121.217 169.916 121.217C169.7 121.217 169.524 121.345 169.388 121.601C169.26 121.849 169.14 122.193 169.028 122.633C168.996 122.769 168.968 122.853 168.944 122.885C168.928 122.909 168.896 122.921 168.848 122.921C168.76 122.921 168.716 122.885 168.716 122.813C168.716 122.789 168.732 122.713 168.764 122.585C168.804 122.449 168.852 122.285 168.908 122.093C168.972 121.893 169.036 121.729 169.1 121.601C169.324 121.185 169.608 120.977 169.952 120.977C170.208 120.977 170.436 121.061 170.636 121.229C170.836 121.389 170.956 121.621 170.996 121.925C171.428 121.293 171.94 120.977 172.532 120.977C172.82 120.977 173.052 121.049 173.228 121.193C173.412 121.329 173.504 121.497 173.504 121.697C173.504 121.873 173.444 122.025 173.324 122.153C173.204 122.281 173.06 122.345 172.892 122.345C172.788 122.345 172.696 122.313 172.616 122.249C172.536 122.185 172.496 122.089 172.496 121.961C172.496 121.825 172.544 121.701 172.64 121.589C172.744 121.469 172.884 121.393 173.06 121.361Z" fill="black"/>
<path d="M174.093 126.911C174.093 126.931 174.077 126.985 174.045 127.073C174.017 127.161 173.975 127.265 173.919 127.385C173.863 127.501 173.781 127.605 173.673 127.697C173.569 127.785 173.453 127.829 173.325 127.829C173.185 127.829 173.071 127.783 172.983 127.691C172.895 127.599 172.851 127.483 172.851 127.343C172.851 127.271 172.875 127.171 172.923 127.043L173.343 125.927C173.427 125.695 173.469 125.533 173.469 125.441C173.469 125.309 173.417 125.243 173.313 125.243C173.193 125.243 173.079 125.307 172.971 125.435C172.863 125.559 172.775 125.743 172.707 125.987C172.695 126.035 172.683 126.065 172.671 126.077C172.663 126.089 172.647 126.095 172.623 126.095C172.579 126.095 172.557 126.077 172.557 126.041C172.557 126.017 172.571 125.961 172.599 125.873C172.631 125.785 172.675 125.683 172.731 125.567C172.791 125.451 172.873 125.349 172.977 125.261C173.085 125.169 173.203 125.123 173.331 125.123C173.471 125.123 173.585 125.171 173.673 125.267C173.761 125.359 173.805 125.471 173.805 125.603C173.805 125.675 173.785 125.765 173.745 125.873L173.325 126.989C173.233 127.241 173.187 127.415 173.187 127.511C173.187 127.643 173.239 127.709 173.343 127.709C173.455 127.709 173.565 127.651 173.673 127.535C173.781 127.415 173.871 127.229 173.943 126.977C173.955 126.937 173.963 126.911 173.967 126.899C173.975 126.887 173.983 126.877 173.991 126.869C173.999 126.861 174.013 126.857 174.033 126.857C174.073 126.857 174.093 126.875 174.093 126.911ZM174.045 124.025C174.045 124.093 174.015 124.159 173.955 124.223C173.895 124.283 173.825 124.313 173.745 124.313C173.697 124.313 173.651 124.297 173.607 124.265C173.567 124.233 173.547 124.183 173.547 124.115C173.547 124.039 173.577 123.973 173.637 123.917C173.701 123.857 173.769 123.827 173.841 123.827C173.901 123.827 173.949 123.849 173.985 123.893C174.025 123.933 174.045 123.977 174.045 124.025Z" fill="black"/>
<path d="M218.06 144.361C217.924 144.265 217.744 144.217 217.52 144.217C217.184 144.217 216.868 144.353 216.572 144.625C216.444 144.737 216.308 144.905 216.164 145.129C216.02 145.353 215.936 145.505 215.912 145.585C215.872 145.769 215.828 145.941 215.78 146.101C215.756 146.189 215.724 146.321 215.684 146.497C215.644 146.665 215.612 146.793 215.588 146.881C215.572 146.945 215.516 147.161 215.42 147.529C215.332 147.889 215.248 148.229 215.168 148.549C215.088 148.861 215.044 149.033 215.036 149.065C214.972 149.281 214.828 149.389 214.604 149.389C214.516 149.389 214.44 149.361 214.376 149.305C214.32 149.249 214.292 149.177 214.292 149.089C214.292 149.001 214.364 148.689 214.508 148.153C214.596 147.825 214.676 147.497 214.748 147.169L215.084 145.873C215.22 145.273 215.288 144.905 215.288 144.769C215.288 144.401 215.164 144.217 214.916 144.217C214.7 144.217 214.524 144.345 214.388 144.601C214.26 144.849 214.14 145.193 214.028 145.633C213.996 145.769 213.968 145.853 213.944 145.885C213.928 145.909 213.896 145.921 213.848 145.921C213.76 145.921 213.716 145.885 213.716 145.813C213.716 145.789 213.732 145.713 213.764 145.585C213.804 145.449 213.852 145.285 213.908 145.093C213.972 144.893 214.036 144.729 214.1 144.601C214.324 144.185 214.608 143.977 214.952 143.977C215.208 143.977 215.436 144.061 215.636 144.229C215.836 144.389 215.956 144.621 215.996 144.925C216.428 144.293 216.94 143.977 217.532 143.977C217.82 143.977 218.052 144.049 218.228 144.193C218.412 144.329 218.504 144.497 218.504 144.697C218.504 144.873 218.444 145.025 218.324 145.153C218.204 145.281 218.06 145.345 217.892 145.345C217.788 145.345 217.696 145.313 217.616 145.249C217.536 145.185 217.496 145.089 217.496 144.961C217.496 144.825 217.544 144.701 217.64 144.589C217.744 144.469 217.884 144.393 218.06 144.361Z" fill="black"/>
<path d="M219.495 148.867L218.937 151.087C218.865 151.367 218.719 151.587 218.499 151.747C218.279 151.911 218.055 151.993 217.827 151.993C217.691 151.993 217.571 151.963 217.467 151.903C217.367 151.847 217.317 151.761 217.317 151.645C217.317 151.557 217.347 151.483 217.407 151.423C217.467 151.363 217.537 151.333 217.617 151.333C217.681 151.333 217.731 151.351 217.767 151.387C217.803 151.427 217.821 151.473 217.821 151.525C217.821 151.597 217.795 151.659 217.743 151.711C217.695 151.763 217.635 151.797 217.563 151.813C217.639 151.853 217.727 151.873 217.827 151.873C217.987 151.873 218.133 151.799 218.265 151.651C218.397 151.507 218.493 151.321 218.553 151.093L219.123 148.831C219.151 148.707 219.165 148.603 219.165 148.519C219.165 148.335 219.101 148.243 218.973 148.243C218.845 148.243 218.713 148.305 218.577 148.429C218.441 148.549 218.317 148.743 218.205 149.011C218.169 149.063 218.141 149.091 218.121 149.095C218.081 149.095 218.061 149.077 218.061 149.041C218.061 149.029 218.073 148.993 218.097 148.933C218.121 148.869 218.159 148.791 218.211 148.699C218.267 148.607 218.329 148.519 218.397 148.435C218.469 148.347 218.557 148.273 218.661 148.213C218.769 148.153 218.879 148.123 218.991 148.123C219.135 148.123 219.259 148.173 219.363 148.273C219.467 148.369 219.519 148.499 219.519 148.663C219.519 148.735 219.511 148.803 219.495 148.867ZM219.741 147.025C219.741 147.101 219.709 147.169 219.645 147.229C219.585 147.285 219.519 147.313 219.447 147.313C219.387 147.313 219.337 147.293 219.297 147.253C219.261 147.209 219.243 147.163 219.243 147.115C219.243 147.047 219.273 146.983 219.333 146.923C219.393 146.859 219.463 146.827 219.543 146.827C219.591 146.827 219.635 146.843 219.675 146.875C219.719 146.907 219.741 146.957 219.741 147.025Z" fill="black"/>
<path d="M89.5 22L96.5 29M89.5 29L96.5 22" stroke="#BE2626" stroke-linecap="round"/>
<path d="M153 92L151.191 83.5308L144.761 89.3322L153 92ZM92.4432 26.0024L147.921 87.4908L149.035 86.486L93.5568 24.9976L92.4432 26.0024Z" fill="#BE2626"/>
<path d="M252 142L248.509 134.074L243.391 141.06L252 142ZM92.5567 26.105L246.112 138.616L246.998 137.406L93.4433 24.895L92.5567 26.105Z" fill="#BE2626"/>
<path d="M134.472 98.484L134.076 100.068L133.812 101.148C133.708 101.572 133.644 101.812 133.62 101.868C133.532 102.036 133.396 102.12 133.212 102.12C133.124 102.12 133.048 102.092 132.984 102.036C132.928 101.98 132.9 101.908 132.9 101.82C132.9 101.732 132.972 101.42 133.116 100.884C133.204 100.556 133.284 100.228 133.356 99.9L133.692 98.604C133.828 98.004 133.896 97.636 133.896 97.5C133.896 97.132 133.772 96.948 133.524 96.948C133.308 96.948 133.132 97.076 132.996 97.332C132.868 97.58 132.748 97.924 132.636 98.364C132.604 98.5 132.576 98.584 132.552 98.616C132.536 98.64 132.504 98.652 132.456 98.652C132.368 98.652 132.324 98.616 132.324 98.544C132.324 98.52 132.34 98.444 132.372 98.316C132.404 98.18 132.452 98.016 132.516 97.824C132.58 97.624 132.644 97.46 132.708 97.332C132.916 96.916 133.2 96.708 133.56 96.708C133.84 96.708 134.08 96.804 134.28 96.996C134.488 97.18 134.6 97.436 134.616 97.764C135.12 97.06 135.736 96.708 136.464 96.708C136.888 96.708 137.212 96.816 137.436 97.032C137.66 97.248 137.78 97.528 137.796 97.872C138.324 97.096 138.968 96.708 139.728 96.708C140.168 96.708 140.5 96.824 140.724 97.056C140.948 97.288 141.06 97.592 141.06 97.968C141.06 98.416 140.808 99.312 140.304 100.656C140.176 101.008 140.112 101.284 140.112 101.484C140.112 101.748 140.216 101.88 140.424 101.88C140.664 101.88 140.888 101.756 141.096 101.508C141.312 101.252 141.488 100.888 141.624 100.416C141.648 100.336 141.664 100.284 141.672 100.26C141.688 100.236 141.704 100.216 141.72 100.2C141.736 100.184 141.764 100.176 141.804 100.176C141.884 100.176 141.924 100.212 141.924 100.284C141.924 100.308 141.908 100.38 141.876 100.5C141.844 100.62 141.784 100.776 141.696 100.968C141.616 101.152 141.52 101.328 141.408 101.496C141.304 101.664 141.16 101.812 140.976 101.94C140.792 102.06 140.596 102.12 140.388 102.12C140.108 102.12 139.88 102.028 139.704 101.844C139.528 101.66 139.44 101.428 139.44 101.148C139.44 101.004 139.496 100.784 139.608 100.488C140.096 99.16 140.34 98.26 140.34 97.788C140.34 97.228 140.124 96.948 139.692 96.948C139.444 96.948 139.208 97 138.984 97.104C138.76 97.208 138.576 97.332 138.432 97.476C138.288 97.62 138.16 97.776 138.048 97.944C137.936 98.104 137.856 98.236 137.808 98.34C137.76 98.444 137.732 98.512 137.724 98.544L137.004 101.412C136.956 101.596 136.92 101.728 136.896 101.808C136.872 101.88 136.824 101.948 136.752 102.012C136.68 102.084 136.588 102.12 136.476 102.12C136.388 102.12 136.312 102.092 136.248 102.036C136.192 101.98 136.164 101.908 136.164 101.82C136.164 101.764 136.204 101.584 136.284 101.28C136.316 101.12 136.432 100.66 136.632 99.9L136.932 98.664C137.028 98.288 137.076 97.996 137.076 97.788C137.076 97.228 136.86 96.948 136.428 96.948C135.98 96.948 135.584 97.108 135.24 97.428C135.104 97.54 134.972 97.684 134.844 97.86C134.724 98.028 134.636 98.164 134.58 98.268C134.524 98.372 134.488 98.444 134.472 98.484Z" fill="#BE2626"/>
<path d="M143.698 102.642C143.698 102.662 143.682 102.716 143.65 102.804C143.622 102.892 143.58 102.996 143.524 103.116C143.468 103.232 143.386 103.336 143.278 103.428C143.174 103.516 143.058 103.56 142.93 103.56C142.79 103.56 142.676 103.514 142.588 103.422C142.5 103.33 142.456 103.214 142.456 103.074C142.456 103.002 142.48 102.902 142.528 102.774L142.948 101.658C143.032 101.426 143.074 101.264 143.074 101.172C143.074 101.04 143.022 100.974 142.918 100.974C142.798 100.974 142.684 101.038 142.576 101.166C142.468 101.29 142.38 101.474 142.312 101.718C142.3 101.766 142.288 101.796 142.276 101.808C142.268 101.82 142.252 101.826 142.228 101.826C142.184 101.826 142.162 101.808 142.162 101.772C142.162 101.748 142.176 101.692 142.204 101.604C142.236 101.516 142.28 101.414 142.336 101.298C142.396 101.182 142.478 101.08 142.582 100.992C142.69 100.9 142.808 100.854 142.936 100.854C143.076 100.854 143.19 100.902 143.278 100.998C143.366 101.09 143.41 101.202 143.41 101.334C143.41 101.406 143.39 101.496 143.35 101.604L142.93 102.72C142.838 102.972 142.792 103.146 142.792 103.242C142.792 103.374 142.844 103.44 142.948 103.44C143.06 103.44 143.17 103.382 143.278 103.266C143.386 103.146 143.476 102.96 143.548 102.708C143.56 102.668 143.568 102.642 143.572 102.63C143.58 102.618 143.588 102.608 143.596 102.6C143.604 102.592 143.618 102.588 143.638 102.588C143.678 102.588 143.698 102.606 143.698 102.642ZM143.65 99.756C143.65 99.824 143.62 99.89 143.56 99.954C143.5 100.014 143.43 100.044 143.35 100.044C143.302 100.044 143.256 100.028 143.212 99.996C143.172 99.964 143.152 99.914 143.152 99.846C143.152 99.77 143.182 99.704 143.242 99.648C143.306 99.588 143.374 99.558 143.446 99.558C143.506 99.558 143.554 99.58 143.59 99.624C143.63 99.664 143.65 99.708 143.65 99.756Z" fill="#BE2626"/>
<path d="M134 94.5H141M141 94.5L139.5 93M141 94.5L139.5 96" stroke="#BE2626" stroke-width="0.6"/>
<path d="M252.472 127.484L252.076 129.068L251.812 130.148C251.708 130.572 251.644 130.812 251.62 130.868C251.532 131.036 251.396 131.12 251.212 131.12C251.124 131.12 251.048 131.092 250.984 131.036C250.928 130.98 250.9 130.908 250.9 130.82C250.9 130.732 250.972 130.42 251.116 129.884C251.204 129.556 251.284 129.228 251.356 128.9L251.692 127.604C251.828 127.004 251.896 126.636 251.896 126.5C251.896 126.132 251.772 125.948 251.524 125.948C251.308 125.948 251.132 126.076 250.996 126.332C250.868 126.58 250.748 126.924 250.636 127.364C250.604 127.5 250.576 127.584 250.552 127.616C250.536 127.64 250.504 127.652 250.456 127.652C250.368 127.652 250.324 127.616 250.324 127.544C250.324 127.52 250.34 127.444 250.372 127.316C250.404 127.18 250.452 127.016 250.516 126.824C250.58 126.624 250.644 126.46 250.708 126.332C250.916 125.916 251.2 125.708 251.56 125.708C251.84 125.708 252.08 125.804 252.28 125.996C252.488 126.18 252.6 126.436 252.616 126.764C253.12 126.06 253.736 125.708 254.464 125.708C254.888 125.708 255.212 125.816 255.436 126.032C255.66 126.248 255.78 126.528 255.796 126.872C256.324 126.096 256.968 125.708 257.728 125.708C258.168 125.708 258.5 125.824 258.724 126.056C258.948 126.288 259.06 126.592 259.06 126.968C259.06 127.416 258.808 128.312 258.304 129.656C258.176 130.008 258.112 130.284 258.112 130.484C258.112 130.748 258.216 130.88 258.424 130.88C258.664 130.88 258.888 130.756 259.096 130.508C259.312 130.252 259.488 129.888 259.624 129.416C259.648 129.336 259.664 129.284 259.672 129.26C259.688 129.236 259.704 129.216 259.72 129.2C259.736 129.184 259.764 129.176 259.804 129.176C259.884 129.176 259.924 129.212 259.924 129.284C259.924 129.308 259.908 129.38 259.876 129.5C259.844 129.62 259.784 129.776 259.696 129.968C259.616 130.152 259.52 130.328 259.408 130.496C259.304 130.664 259.16 130.812 258.976 130.94C258.792 131.06 258.596 131.12 258.388 131.12C258.108 131.12 257.88 131.028 257.704 130.844C257.528 130.66 257.44 130.428 257.44 130.148C257.44 130.004 257.496 129.784 257.608 129.488C258.096 128.16 258.34 127.26 258.34 126.788C258.34 126.228 258.124 125.948 257.692 125.948C257.444 125.948 257.208 126 256.984 126.104C256.76 126.208 256.576 126.332 256.432 126.476C256.288 126.62 256.16 126.776 256.048 126.944C255.936 127.104 255.856 127.236 255.808 127.34C255.76 127.444 255.732 127.512 255.724 127.544L255.004 130.412C254.956 130.596 254.92 130.728 254.896 130.808C254.872 130.88 254.824 130.948 254.752 131.012C254.68 131.084 254.588 131.12 254.476 131.12C254.388 131.12 254.312 131.092 254.248 131.036C254.192 130.98 254.164 130.908 254.164 130.82C254.164 130.764 254.204 130.584 254.284 130.28C254.316 130.12 254.432 129.66 254.632 128.9L254.932 127.664C255.028 127.288 255.076 126.996 255.076 126.788C255.076 126.228 254.86 125.948 254.428 125.948C253.98 125.948 253.584 126.108 253.24 126.428C253.104 126.54 252.972 126.684 252.844 126.86C252.724 127.028 252.636 127.164 252.58 127.268C252.524 127.372 252.488 127.444 252.472 127.484Z" fill="#BE2626"/>
<path d="M262.1 130.598L261.542 132.818C261.47 133.098 261.324 133.318 261.104 133.478C260.884 133.642 260.66 133.724 260.432 133.724C260.296 133.724 260.176 133.694 260.072 133.634C259.972 133.578 259.922 133.492 259.922 133.376C259.922 133.288 259.952 133.214 260.012 133.154C260.072 133.094 260.142 133.064 260.222 133.064C260.286 133.064 260.336 133.082 260.372 133.118C260.408 133.158 260.426 133.204 260.426 133.256C260.426 133.328 260.4 133.39 260.348 133.442C260.3 133.494 260.24 133.528 260.168 133.544C260.244 133.584 260.332 133.604 260.432 133.604C260.592 133.604 260.738 133.53 260.87 133.382C261.002 133.238 261.098 133.052 261.158 132.824L261.728 130.562C261.756 130.438 261.77 130.334 261.77 130.25C261.77 130.066 261.706 129.974 261.578 129.974C261.45 129.974 261.318 130.036 261.182 130.16C261.046 130.28 260.922 130.474 260.81 130.742C260.774 130.794 260.746 130.822 260.726 130.826C260.686 130.826 260.666 130.808 260.666 130.772C260.666 130.76 260.678 130.724 260.702 130.664C260.726 130.6 260.764 130.522 260.816 130.43C260.872 130.338 260.934 130.25 261.002 130.166C261.074 130.078 261.162 130.004 261.266 129.944C261.374 129.884 261.484 129.854 261.596 129.854C261.74 129.854 261.864 129.904 261.968 130.004C262.072 130.1 262.124 130.23 262.124 130.394C262.124 130.466 262.116 130.534 262.1 130.598ZM262.346 128.756C262.346 128.832 262.314 128.9 262.25 128.96C262.19 129.016 262.124 129.044 262.052 129.044C261.992 129.044 261.942 129.024 261.902 128.984C261.866 128.94 261.848 128.894 261.848 128.846C261.848 128.778 261.878 128.714 261.938 128.654C261.998 128.59 262.068 128.558 262.148 128.558C262.196 128.558 262.24 128.574 262.28 128.606C262.324 128.638 262.346 128.688 262.346 128.756Z" fill="#BE2626"/>
<path d="M252 123.5H259M259 123.5L257.5 122M259 123.5L257.5 125" stroke="#BE2626" stroke-width="0.6"/>
<path d="M82.52 33.16C82.52 34.328 82.372 35.232 82.076 35.872C81.644 36.8 80.948 37.264 79.988 37.264C79.628 37.264 79.264 37.172 78.896 36.988C78.536 36.804 78.24 36.492 78.008 36.052C77.648 35.388 77.468 34.424 77.468 33.16C77.468 31.984 77.616 31.076 77.912 30.436C78.328 29.484 79.024 29.008 80 29.008C80.208 29.008 80.42 29.036 80.636 29.092C80.852 29.148 81.096 29.284 81.368 29.5C81.648 29.716 81.872 30 82.04 30.352C82.36 31.032 82.52 31.968 82.52 33.16ZM81.524 33.016C81.524 31.904 81.484 31.124 81.404 30.676C81.3 30.156 81.108 29.792 80.828 29.584C80.548 29.376 80.268 29.272 79.988 29.272C79.884 29.272 79.776 29.288 79.664 29.32C79.552 29.352 79.416 29.412 79.256 29.5C79.096 29.588 78.952 29.744 78.824 29.968C78.704 30.192 78.616 30.472 78.56 30.808C78.496 31.24 78.464 31.976 78.464 33.016C78.464 34.224 78.508 35.068 78.596 35.548C78.692 36.068 78.872 36.44 79.136 36.664C79.408 36.888 79.692 37 79.988 37C80.308 37 80.6 36.88 80.864 36.64C81.136 36.4 81.312 36.02 81.392 35.5C81.48 34.988 81.524 34.16 81.524 33.016Z" fill="#BE2626"/>
<path d="M77 26.5H84M84 26.5L82.5 25M84 26.5L82.5 28" stroke="#BE2626" stroke-width="0.6"/>
<path d="M62.252 173.408C62.252 174.168 61.988 174.812 61.46 175.34C60.932 175.868 60.304 176.132 59.576 176.132C58.912 176.132 58.388 175.84 58.004 175.256L57.572 176H57.272V168.848C57.272 168.552 57.22 168.368 57.116 168.296C57.012 168.216 56.752 168.176 56.336 168.176V167.804L58.064 167.672V171.476C58.528 170.956 59.076 170.696 59.708 170.696C60.396 170.696 60.992 170.96 61.496 171.488C62 172.016 62.252 172.656 62.252 173.408ZM61.256 173.396C61.256 172.652 61.14 172.096 60.908 171.728C60.588 171.216 60.168 170.96 59.648 170.96C59.064 170.96 58.592 171.216 58.232 171.728C58.144 171.856 58.1 172 58.1 172.16V174.632C58.1 174.8 58.156 174.968 58.268 175.136C58.588 175.624 59.008 175.868 59.528 175.868C60.088 175.868 60.54 175.612 60.884 175.1C61.132 174.716 61.256 174.148 61.256 173.396ZM68.464 174.932C68.464 175.356 68.352 175.652 68.128 175.82C67.904 175.988 67.688 176.072 67.48 176.072C67.216 176.072 67 175.976 66.832 175.784C66.664 175.584 66.568 175.352 66.544 175.088C66.424 175.392 66.224 175.644 65.944 175.844C65.672 176.036 65.348 176.132 64.972 176.132C64.684 176.132 64.404 176.096 64.132 176.024C63.86 175.952 63.612 175.816 63.388 175.616C63.164 175.416 63.052 175.164 63.052 174.86C63.052 174.18 63.452 173.66 64.252 173.3C64.732 173.068 65.468 172.924 66.46 172.868V172.424C66.46 171.928 66.328 171.548 66.064 171.284C65.808 171.02 65.516 170.888 65.188 170.888C64.604 170.888 64.172 171.072 63.892 171.44C64.132 171.448 64.292 171.512 64.372 171.632C64.46 171.752 64.504 171.872 64.504 171.992C64.504 172.152 64.452 172.284 64.348 172.388C64.252 172.492 64.12 172.544 63.952 172.544C63.792 172.544 63.66 172.496 63.556 172.4C63.452 172.296 63.4 172.156 63.4 171.98C63.4 171.588 63.576 171.264 63.928 171.008C64.28 170.752 64.708 170.624 65.212 170.624C65.868 170.624 66.416 170.844 66.856 171.284C66.992 171.42 67.092 171.576 67.156 171.752C67.228 171.928 67.268 172.076 67.276 172.196C67.284 172.308 67.288 172.476 67.288 172.7V175.1C67.288 175.148 67.296 175.212 67.312 175.292C67.328 175.364 67.372 175.452 67.444 175.556C67.516 175.652 67.612 175.7 67.732 175.7C68.02 175.7 68.164 175.444 68.164 174.932V174.26H68.464V174.932ZM66.46 174.32V173.12C65.572 173.152 64.936 173.344 64.552 173.696C64.168 174.048 63.976 174.432 63.976 174.848C63.976 175.144 64.08 175.388 64.288 175.58C64.504 175.772 64.76 175.868 65.056 175.868C65.392 175.868 65.708 175.74 66.004 175.484C66.308 175.22 66.46 174.832 66.46 174.32ZM71.728 176L70.396 175.964L69.064 176V175.628C69.488 175.628 69.748 175.604 69.844 175.556C69.948 175.5 70 175.344 70 175.088V168.848C70 168.552 69.948 168.368 69.844 168.296C69.74 168.216 69.48 168.176 69.064 168.176V167.804L70.792 167.672V175.088C70.792 175.344 70.84 175.5 70.936 175.556C71.04 175.604 71.304 175.628 71.728 175.628V176ZM75.0678 176L73.7358 175.964L72.4038 176V175.628C72.8278 175.628 73.0878 175.604 73.1838 175.556C73.2878 175.5 73.3398 175.344 73.3398 175.088V168.848C73.3398 168.552 73.2878 168.368 73.1838 168.296C73.0798 168.216 72.8198 168.176 72.4038 168.176V167.804L74.1318 167.672V175.088C74.1318 175.344 74.1798 175.5 74.2758 175.556C74.3798 175.604 74.6438 175.628 75.0678 175.628V176ZM82.3078 176C81.4918 175.976 81.0758 175.964 81.0598 175.964L79.7397 176V175.628C80.1638 175.628 80.4238 175.604 80.5198 175.556C80.6238 175.5 80.6758 175.344 80.6758 175.088V171.86C80.6758 171.564 80.6238 171.38 80.5198 171.308C80.4238 171.236 80.1798 171.2 79.7878 171.2V170.828L81.4678 170.696V175.1C81.4678 175.34 81.5078 175.488 81.5878 175.544C81.6758 175.6 81.9158 175.628 82.3078 175.628V176ZM81.6478 168.752C81.6478 168.912 81.5878 169.06 81.4678 169.196C81.3478 169.324 81.1918 169.388 80.9998 169.388C80.8238 169.388 80.6718 169.324 80.5438 169.196C80.4238 169.068 80.3638 168.92 80.3638 168.752C80.3638 168.592 80.4238 168.448 80.5438 168.32C80.6638 168.184 80.8198 168.116 81.0118 168.116C81.1878 168.116 81.3358 168.18 81.4558 168.308C81.5838 168.436 81.6478 168.584 81.6478 168.752Z" fill="black"/>
<path d="M329.252 61.408C329.252 62.168 328.988 62.812 328.46 63.34C327.932 63.868 327.304 64.132 326.576 64.132C325.912 64.132 325.388 63.84 325.004 63.256L324.572 64H324.272V56.848C324.272 56.552 324.22 56.368 324.116 56.296C324.012 56.216 323.752 56.176 323.336 56.176V55.804L325.064 55.672V59.476C325.528 58.956 326.076 58.696 326.708 58.696C327.396 58.696 327.992 58.96 328.496 59.488C329 60.016 329.252 60.656 329.252 61.408ZM328.256 61.396C328.256 60.652 328.14 60.096 327.908 59.728C327.588 59.216 327.168 58.96 326.648 58.96C326.064 58.96 325.592 59.216 325.232 59.728C325.144 59.856 325.1 60 325.1 60.16V62.632C325.1 62.8 325.156 62.968 325.268 63.136C325.588 63.624 326.008 63.868 326.528 63.868C327.088 63.868 327.54 63.612 327.884 63.1C328.132 62.716 328.256 62.148 328.256 61.396ZM335.464 62.932C335.464 63.356 335.352 63.652 335.128 63.82C334.904 63.988 334.688 64.072 334.48 64.072C334.216 64.072 334 63.976 333.832 63.784C333.664 63.584 333.568 63.352 333.544 63.088C333.424 63.392 333.224 63.644 332.944 63.844C332.672 64.036 332.348 64.132 331.972 64.132C331.684 64.132 331.404 64.096 331.132 64.024C330.86 63.952 330.612 63.816 330.388 63.616C330.164 63.416 330.052 63.164 330.052 62.86C330.052 62.18 330.452 61.66 331.252 61.3C331.732 61.068 332.468 60.924 333.46 60.868V60.424C333.46 59.928 333.328 59.548 333.064 59.284C332.808 59.02 332.516 58.888 332.188 58.888C331.604 58.888 331.172 59.072 330.892 59.44C331.132 59.448 331.292 59.512 331.372 59.632C331.46 59.752 331.504 59.872 331.504 59.992C331.504 60.152 331.452 60.284 331.348 60.388C331.252 60.492 331.12 60.544 330.952 60.544C330.792 60.544 330.66 60.496 330.556 60.4C330.452 60.296 330.4 60.156 330.4 59.98C330.4 59.588 330.576 59.264 330.928 59.008C331.28 58.752 331.708 58.624 332.212 58.624C332.868 58.624 333.416 58.844 333.856 59.284C333.992 59.42 334.092 59.576 334.156 59.752C334.228 59.928 334.268 60.076 334.276 60.196C334.284 60.308 334.288 60.476 334.288 60.7V63.1C334.288 63.148 334.296 63.212 334.312 63.292C334.328 63.364 334.372 63.452 334.444 63.556C334.516 63.652 334.612 63.7 334.732 63.7C335.02 63.7 335.164 63.444 335.164 62.932V62.26H335.464V62.932ZM333.46 62.32V61.12C332.572 61.152 331.936 61.344 331.552 61.696C331.168 62.048 330.976 62.432 330.976 62.848C330.976 63.144 331.08 63.388 331.288 63.58C331.504 63.772 331.76 63.868 332.056 63.868C332.392 63.868 332.708 63.74 333.004 63.484C333.308 63.22 333.46 62.832 333.46 62.32ZM338.728 64L337.396 63.964L336.064 64V63.628C336.488 63.628 336.748 63.604 336.844 63.556C336.948 63.5 337 63.344 337 63.088V56.848C337 56.552 336.948 56.368 336.844 56.296C336.74 56.216 336.48 56.176 336.064 56.176V55.804L337.792 55.672V63.088C337.792 63.344 337.84 63.5 337.936 63.556C338.04 63.604 338.304 63.628 338.728 63.628V64ZM342.068 64L340.736 63.964L339.404 64V63.628C339.828 63.628 340.088 63.604 340.184 63.556C340.288 63.5 340.34 63.344 340.34 63.088V56.848C340.34 56.552 340.288 56.368 340.184 56.296C340.08 56.216 339.82 56.176 339.404 56.176V55.804L341.132 55.672V63.088C341.132 63.344 341.18 63.5 341.276 63.556C341.38 63.604 341.644 63.628 342.068 63.628V64ZM348.864 64.6C348.864 65.136 348.704 65.58 348.384 65.932C348.064 66.284 347.676 66.46 347.22 66.46C346.852 66.46 346.536 66.372 346.272 66.196C346 66.028 345.864 65.796 345.864 65.5C345.864 65.34 345.916 65.208 346.02 65.104C346.116 65 346.248 64.948 346.416 64.948C346.584 64.948 346.716 65 346.812 65.104C346.916 65.208 346.968 65.34 346.968 65.5C346.968 65.644 346.924 65.76 346.836 65.848C346.756 65.944 346.66 66.008 346.548 66.04C346.756 66.144 346.972 66.196 347.196 66.196C347.38 66.196 347.532 66.14 347.652 66.028C347.78 65.924 347.872 65.78 347.928 65.596C347.984 65.42 348.02 65.256 348.036 65.104C348.06 64.952 348.072 64.792 348.072 64.624V59.872C348.072 59.576 348.012 59.392 347.892 59.32C347.78 59.24 347.496 59.2 347.04 59.2V58.828L348.864 58.696V64.6ZM348.864 56.752C348.864 56.912 348.804 57.06 348.684 57.196C348.564 57.324 348.408 57.388 348.216 57.388C348.04 57.388 347.888 57.324 347.76 57.196C347.64 57.068 347.58 56.92 347.58 56.752C347.58 56.592 347.64 56.448 347.76 56.32C347.88 56.184 348.036 56.116 348.228 56.116C348.404 56.116 348.552 56.18 348.672 56.308C348.8 56.436 348.864 56.584 348.864 56.752Z" fill="black"/>
<path d="M123.356 151.381C123.29 151.185 123.078 151.079 122.881 151.144L119.68 152.212C119.483 152.277 119.377 152.489 119.442 152.686C119.508 152.882 119.72 152.989 119.917 152.923L122.763 151.974L123.712 154.82C123.777 155.017 123.989 155.123 124.186 155.058C124.382 154.992 124.489 154.78 124.423 154.583L123.356 151.381ZM88 173.375C95.8709 173.375 104.118 169.109 110.66 164.302C113.937 161.894 116.801 159.339 118.995 157.09C121.179 154.851 122.725 152.889 123.335 151.668L122.665 151.332C122.109 152.444 120.633 154.336 118.458 156.566C116.292 158.786 113.459 161.315 110.215 163.698C103.715 168.474 95.6291 172.625 88 172.625V173.375Z" fill="#808080"/>
<path d="M282.644 82.6186C282.71 82.8151 282.922 82.9212 283.119 82.8558L286.32 81.7885C286.517 81.723 286.623 81.5106 286.558 81.3141C286.492 81.1177 286.28 81.0115 286.083 81.077L283.237 82.0257L282.288 79.1796C282.223 78.9831 282.011 78.8769 281.814 78.9424C281.618 79.0079 281.511 79.2203 281.577 79.4168L282.644 82.6186ZM318 60.625C310.129 60.625 301.882 64.8909 295.34 69.6978C292.063 72.1062 289.199 74.6615 287.005 76.91C284.821 79.1488 283.275 81.1106 282.665 82.3323L283.335 82.6677C283.891 81.5561 285.367 79.6637 287.542 77.4337C289.708 75.2135 292.541 72.6854 295.785 70.3022C302.285 65.5257 310.371 61.375 318 61.375V60.625Z" fill="#808080"/>
</g>
<defs>
<filter id="filter0_d" x="0" y="0" width="406" height="239" filterUnits="userSpaceOnUse" color-interpolation-filters="sRGB">
<feFlood flood-opacity="0" result="BackgroundImageFix"/>
<feColorMatrix in="SourceAlpha" type="matrix" values="0 0 0 0 0 0 0 0 0 0 0 0 0 0 0 0 0 0 127 0"/>
<feOffset dy="4"/>
<feGaussianBlur stdDeviation="8"/>
<feColorMatrix type="matrix" values="0 0 0 0 0 0 0 0 0 0 0 0 0 0 0 0 0 0 0.25 0"/>
<feBlend mode="normal" in2="BackgroundImageFix" result="effect1_dropShadow"/>
<feBlend mode="normal" in="SourceGraphic" in2="effect1_dropShadow" result="shape"/>
</filter>
</defs>
</svg>
