<svg width="406" height="239" viewBox="0 0 406 239" fill="none" xmlns="http://www.w3.org/2000/svg">
<g filter="url(#filter0_d)">
<rect width="374" height="207" transform="translate(16 12)" fill="white"/>
<path d="M16 12H147V219H16V12Z" fill="#E7E7E7"/>
<path d="M248 115.5C248 148.913 220.913 176 187.5 176C154.087 176 127 148.913 127 115.5C127 82.0868 154.087 55 187.5 55C220.913 55 248 82.0868 248 115.5Z" fill="#E7E7E7"/>
<path fill-rule="evenodd" clip-rule="evenodd" d="M147 70.5549V160.445C134.72 149.372 127 133.338 127 115.5C127 97.6625 134.72 81.628 147 70.5549Z" fill="white"/>
<path d="M147 12V219" stroke="black"/>
<path fill-rule="evenodd" clip-rule="evenodd" d="M187.5 175C220.361 175 247 148.361 247 115.5C247 82.6391 220.361 56 187.5 56C154.639 56 128 82.6391 128 115.5C128 148.361 154.639 175 187.5 175ZM187.5 176C220.913 176 248 148.913 248 115.5C248 82.0868 220.913 55 187.5 55C154.087 55 127 82.0868 127 115.5C127 148.913 154.087 176 187.5 176Z" fill="black"/>
<path d="M140.036 105.972L138.344 112.692C138.288 112.916 138.26 113.128 138.26 113.328C138.26 113.696 138.384 113.88 138.632 113.88C138.784 113.88 138.92 113.8 139.04 113.64C139.168 113.48 139.264 113.312 139.328 113.136C139.392 112.952 139.46 112.712 139.532 112.416C139.556 112.312 139.576 112.248 139.592 112.224C139.616 112.192 139.652 112.176 139.7 112.176C139.78 112.176 139.82 112.212 139.82 112.284C139.82 112.308 139.804 112.388 139.772 112.524C139.74 112.652 139.692 112.812 139.628 113.004C139.572 113.196 139.516 113.352 139.46 113.472C139.244 113.904 138.956 114.12 138.596 114.12C138.372 114.12 138.156 114.048 137.948 113.904C137.74 113.76 137.608 113.528 137.552 113.208C137.04 113.816 136.52 114.12 135.992 114.12C135.568 114.12 135.208 113.952 134.912 113.616C134.624 113.272 134.48 112.812 134.48 112.236C134.48 111.356 134.776 110.548 135.368 109.812C135.968 109.076 136.612 108.708 137.3 108.708C137.796 108.708 138.156 108.972 138.38 109.5L139.112 106.584C139.136 106.512 139.148 106.444 139.148 106.38C139.148 106.332 139.14 106.296 139.124 106.272C139.108 106.24 139.052 106.212 138.956 106.188C138.868 106.164 138.732 106.152 138.548 106.152C138.372 106.152 138.284 106.112 138.284 106.032C138.284 105.928 138.308 105.864 138.356 105.84C138.404 105.816 138.508 105.796 138.668 105.78C138.74 105.772 138.84 105.764 138.968 105.756C139.104 105.74 139.204 105.732 139.268 105.732C139.468 105.692 139.688 105.672 139.928 105.672C140.024 105.672 140.072 105.712 140.072 105.792C140.072 105.816 140.06 105.876 140.036 105.972ZM137.612 112.572L138.2 110.22C138.232 110.156 138.248 110.092 138.248 110.028C138.248 109.956 138.228 109.848 138.188 109.704C138.148 109.552 138.048 109.388 137.888 109.212C137.736 109.036 137.54 108.948 137.3 108.948C137.06 108.948 136.808 109.06 136.544 109.284C136.288 109.5 136.06 109.812 135.86 110.22C135.732 110.5 135.6 110.912 135.464 111.456C135.328 111.992 135.26 112.416 135.26 112.728C135.26 113.088 135.328 113.372 135.464 113.58C135.6 113.78 135.788 113.88 136.028 113.88C136.484 113.88 136.936 113.596 137.384 113.028C137.488 112.884 137.564 112.732 137.612 112.572Z" fill="#BE2626"/>
<path d="M184.5 112L191.5 119M184.5 119L191.5 112" stroke="#BE2626" stroke-linecap="round"/>
<path d="M159.664 133.092C159.528 132.996 159.348 132.948 159.124 132.948C158.788 132.948 158.472 133.084 158.176 133.356C158.048 133.468 157.912 133.636 157.768 133.86C157.624 134.084 157.54 134.236 157.516 134.316C157.476 134.5 157.432 134.672 157.384 134.832C157.36 134.92 157.328 135.052 157.288 135.228C157.248 135.396 157.216 135.524 157.192 135.612C157.176 135.676 157.12 135.892 157.024 136.26C156.936 136.62 156.852 136.96 156.772 137.28C156.692 137.592 156.648 137.764 156.64 137.796C156.576 138.012 156.432 138.12 156.208 138.12C156.12 138.12 156.044 138.092 155.98 138.036C155.924 137.98 155.896 137.908 155.896 137.82C155.896 137.732 155.968 137.42 156.112 136.884C156.2 136.556 156.28 136.228 156.352 135.9L156.688 134.604C156.824 134.004 156.892 133.636 156.892 133.5C156.892 133.132 156.768 132.948 156.52 132.948C156.304 132.948 156.128 133.076 155.992 133.332C155.864 133.58 155.744 133.924 155.632 134.364C155.6 134.5 155.572 134.584 155.548 134.616C155.532 134.64 155.5 134.652 155.452 134.652C155.364 134.652 155.32 134.616 155.32 134.544C155.32 134.52 155.336 134.444 155.368 134.316C155.408 134.18 155.456 134.016 155.512 133.824C155.576 133.624 155.64 133.46 155.704 133.332C155.928 132.916 156.212 132.708 156.556 132.708C156.812 132.708 157.04 132.792 157.24 132.96C157.44 133.12 157.56 133.352 157.6 133.656C158.032 133.024 158.544 132.708 159.136 132.708C159.424 132.708 159.656 132.78 159.832 132.924C160.016 133.06 160.108 133.228 160.108 133.428C160.108 133.604 160.048 133.756 159.928 133.884C159.808 134.012 159.664 134.076 159.496 134.076C159.392 134.076 159.3 134.044 159.22 133.98C159.14 133.916 159.1 133.82 159.1 133.692C159.1 133.556 159.148 133.432 159.244 133.32C159.348 133.2 159.488 133.124 159.664 133.092Z" fill="black"/>
<path d="M161.1 137.598L160.542 139.818C160.47 140.098 160.324 140.318 160.104 140.478C159.884 140.642 159.66 140.724 159.432 140.724C159.296 140.724 159.176 140.694 159.072 140.634C158.972 140.578 158.922 140.492 158.922 140.376C158.922 140.288 158.952 140.214 159.012 140.154C159.072 140.094 159.142 140.064 159.222 140.064C159.286 140.064 159.336 140.082 159.372 140.118C159.408 140.158 159.426 140.204 159.426 140.256C159.426 140.328 159.4 140.39 159.348 140.442C159.3 140.494 159.24 140.528 159.168 140.544C159.244 140.584 159.332 140.604 159.432 140.604C159.592 140.604 159.738 140.53 159.87 140.382C160.002 140.238 160.098 140.052 160.158 139.824L160.728 137.562C160.756 137.438 160.77 137.334 160.77 137.25C160.77 137.066 160.706 136.974 160.578 136.974C160.45 136.974 160.318 137.036 160.182 137.16C160.046 137.28 159.922 137.474 159.81 137.742C159.774 137.794 159.746 137.822 159.726 137.826C159.686 137.826 159.666 137.808 159.666 137.772C159.666 137.76 159.678 137.724 159.702 137.664C159.726 137.6 159.764 137.522 159.816 137.43C159.872 137.338 159.934 137.25 160.002 137.166C160.074 137.078 160.162 137.004 160.266 136.944C160.374 136.884 160.484 136.854 160.596 136.854C160.74 136.854 160.864 136.904 160.968 137.004C161.072 137.1 161.124 137.23 161.124 137.394C161.124 137.466 161.116 137.534 161.1 137.598ZM161.346 135.756C161.346 135.832 161.314 135.9 161.25 135.96C161.19 136.016 161.124 136.044 161.052 136.044C160.992 136.044 160.942 136.024 160.902 135.984C160.866 135.94 160.848 135.894 160.848 135.846C160.848 135.778 160.878 135.714 160.938 135.654C160.998 135.59 161.068 135.558 161.148 135.558C161.196 135.558 161.24 135.574 161.28 135.606C161.324 135.638 161.346 135.688 161.346 135.756Z" fill="black"/>
<path d="M187.984 115.185C187.985 102.736 167.524 115.183 167.525 102.003C167.524 115.183 147.064 102.734 147.063 115.182" stroke="#999999" stroke-width="0.5" stroke-linecap="round" stroke-linejoin="round"/>
<path d="M170.188 94.104C170.02 94 169.816 93.948 169.576 93.948C169.312 93.948 169.08 94.064 168.88 94.296C168.68 94.52 168.532 94.82 168.436 95.196L168.016 96.828C167.856 97.492 167.776 97.908 167.776 98.076C167.776 98.324 167.832 98.52 167.944 98.664C168.056 98.808 168.216 98.88 168.424 98.88C168.72 98.88 169.016 98.748 169.312 98.484C169.608 98.212 169.832 97.828 169.984 97.332C170.024 97.228 170.076 97.176 170.14 97.176C170.22 97.176 170.26 97.212 170.26 97.284C170.26 97.364 170.216 97.5 170.128 97.692C170.048 97.876 169.932 98.08 169.78 98.304C169.636 98.52 169.436 98.712 169.18 98.88C168.932 99.04 168.668 99.12 168.388 99.12C168.124 99.12 167.872 99.044 167.632 98.892C167.4 98.74 167.24 98.5 167.152 98.172C166.832 98.804 166.42 99.12 165.916 99.12C165.628 99.12 165.376 99.056 165.16 98.928C164.944 98.8 164.836 98.62 164.836 98.388C164.836 98.204 164.896 98.052 165.016 97.932C165.144 97.812 165.284 97.752 165.436 97.752C165.556 97.752 165.652 97.788 165.724 97.86C165.804 97.924 165.844 98.016 165.844 98.136C165.844 98.24 165.804 98.356 165.724 98.484C165.644 98.604 165.508 98.684 165.316 98.724C165.484 98.828 165.688 98.88 165.928 98.88C166.472 98.88 166.86 98.42 167.092 97.5L167.5 95.856C167.644 95.28 167.716 94.908 167.716 94.74C167.716 94.54 167.668 94.36 167.572 94.2C167.476 94.032 167.308 93.948 167.068 93.948C166.916 93.948 166.756 93.984 166.588 94.056C166.428 94.12 166.24 94.28 166.024 94.536C165.808 94.792 165.636 95.124 165.508 95.532C165.468 95.612 165.42 95.652 165.364 95.652C165.276 95.652 165.232 95.616 165.232 95.544C165.232 95.464 165.272 95.332 165.352 95.148C165.44 94.956 165.556 94.752 165.7 94.536C165.852 94.312 166.052 94.12 166.3 93.96C166.556 93.792 166.824 93.708 167.104 93.708C167.736 93.708 168.148 94.024 168.34 94.656C168.396 94.536 168.464 94.416 168.544 94.296C168.632 94.176 168.772 94.048 168.964 93.912C169.156 93.776 169.364 93.708 169.588 93.708C169.868 93.708 170.116 93.772 170.332 93.9C170.556 94.028 170.668 94.208 170.668 94.44C170.668 94.608 170.608 94.756 170.488 94.884C170.376 95.012 170.232 95.076 170.056 95.076C169.952 95.076 169.86 95.044 169.78 94.98C169.7 94.916 169.66 94.82 169.66 94.692C169.66 94.564 169.704 94.444 169.792 94.332C169.88 94.212 170.012 94.136 170.188 94.104Z" fill="black"/>
<path d="M187.984 116C187.985 128.761 157.766 116.002 157.767 129.514C157.766 116.002 127.549 128.765 127.548 116.004" stroke="#999999" stroke-width="0.5" stroke-linecap="round" stroke-linejoin="round"/>
<path d="M231 116L223.5 111.67L223.5 120.33L231 116ZM188 116.75L224.25 116.75L224.25 115.25L188 115.25L188 116.75Z" fill="#0000D0"/>
<path d="M210.564 108.088L209.796 111.148C209.764 111.26 209.748 111.34 209.748 111.388C209.748 111.46 209.76 111.512 209.784 111.544C209.816 111.576 209.904 111.604 210.048 111.628C210.192 111.644 210.416 111.652 210.72 111.652C210.864 111.652 210.956 111.66 210.996 111.676C211.036 111.684 211.056 111.72 211.056 111.784C211.056 111.928 210.972 112 210.804 112C210.716 112 210.58 111.996 210.396 111.988C210.212 111.98 210.076 111.976 209.988 111.976H208.428C208.356 111.976 208.24 111.98 208.08 111.988C207.92 111.996 207.804 112 207.732 112C207.612 112 207.552 111.956 207.552 111.868C207.552 111.772 207.576 111.712 207.624 111.688C207.672 111.664 207.764 111.652 207.9 111.652C208.292 111.652 208.536 111.62 208.632 111.556C208.736 111.492 208.816 111.344 208.872 111.112L210.492 104.632C210.524 104.512 210.54 104.432 210.54 104.392C210.54 104.336 210.532 104.296 210.516 104.272C210.5 104.248 210.432 104.228 210.312 104.212C210.2 104.188 210.028 104.176 209.796 104.176C209.676 104.176 209.596 104.172 209.556 104.164C209.524 104.148 209.508 104.108 209.508 104.044C209.508 103.948 209.532 103.888 209.58 103.864C209.628 103.84 209.72 103.828 209.856 103.828H215.544C215.672 103.828 215.756 103.836 215.796 103.852C215.844 103.86 215.868 103.896 215.868 103.96C215.868 103.968 215.864 103.996 215.856 104.044C215.848 104.092 215.844 104.124 215.844 104.14L215.592 106.24C215.576 106.416 215.524 106.504 215.436 106.504C215.348 106.504 215.304 106.46 215.304 106.372C215.304 106.3 215.316 106.216 215.34 106.12C215.364 105.912 215.376 105.696 215.376 105.472C215.376 105.008 215.264 104.676 215.04 104.476C214.824 104.276 214.364 104.176 213.66 104.176H212.052C211.812 104.176 211.66 104.2 211.596 104.248C211.54 104.288 211.484 104.416 211.428 104.632L210.648 107.74H211.74C212.252 107.74 212.604 107.664 212.796 107.512C212.988 107.36 213.148 107.052 213.276 106.588C213.3 106.476 213.32 106.408 213.336 106.384C213.36 106.352 213.396 106.336 213.444 106.336C213.524 106.336 213.564 106.376 213.564 106.456L212.868 109.252C212.844 109.356 212.824 109.424 212.808 109.456C212.792 109.48 212.76 109.492 212.712 109.492C212.624 109.492 212.58 109.448 212.58 109.36C212.58 109.32 212.592 109.276 212.616 109.228C212.672 108.98 212.7 108.784 212.7 108.64C212.7 108.44 212.64 108.3 212.52 108.22C212.408 108.132 212.14 108.088 211.716 108.088H210.564Z" fill="#0000FF"/>
<path d="M215.844 111.052C215.76 111 215.658 110.974 215.538 110.974C215.406 110.974 215.29 111.032 215.19 111.148C215.09 111.26 215.016 111.41 214.968 111.598L214.758 112.414C214.678 112.746 214.638 112.954 214.638 113.038C214.638 113.162 214.666 113.26 214.722 113.332C214.778 113.404 214.858 113.44 214.962 113.44C215.11 113.44 215.258 113.374 215.406 113.242C215.554 113.106 215.666 112.914 215.742 112.666C215.762 112.614 215.788 112.588 215.82 112.588C215.86 112.588 215.88 112.606 215.88 112.642C215.88 112.682 215.858 112.75 215.814 112.846C215.774 112.938 215.716 113.04 215.64 113.152C215.568 113.26 215.468 113.356 215.34 113.44C215.216 113.52 215.084 113.56 214.944 113.56C214.812 113.56 214.686 113.522 214.566 113.446C214.45 113.37 214.37 113.25 214.326 113.086C214.166 113.402 213.96 113.56 213.708 113.56C213.564 113.56 213.438 113.528 213.33 113.464C213.222 113.4 213.168 113.31 213.168 113.194C213.168 113.102 213.198 113.026 213.258 112.966C213.322 112.906 213.392 112.876 213.468 112.876C213.528 112.876 213.576 112.894 213.612 112.93C213.652 112.962 213.672 113.008 213.672 113.068C213.672 113.12 213.652 113.178 213.612 113.242C213.572 113.302 213.504 113.342 213.408 113.362C213.492 113.414 213.594 113.44 213.714 113.44C213.986 113.44 214.18 113.21 214.296 112.75L214.5 111.928C214.572 111.64 214.608 111.454 214.608 111.37C214.608 111.27 214.584 111.18 214.536 111.1C214.488 111.016 214.404 110.974 214.284 110.974C214.208 110.974 214.128 110.992 214.044 111.028C213.964 111.06 213.87 111.14 213.762 111.268C213.654 111.396 213.568 111.562 213.504 111.766C213.484 111.806 213.46 111.826 213.432 111.826C213.388 111.826 213.366 111.808 213.366 111.772C213.366 111.732 213.386 111.666 213.426 111.574C213.47 111.478 213.528 111.376 213.6 111.268C213.676 111.156 213.776 111.06 213.9 110.98C214.028 110.896 214.162 110.854 214.302 110.854C214.618 110.854 214.824 111.012 214.92 111.328C214.948 111.268 214.982 111.208 215.022 111.148C215.066 111.088 215.136 111.024 215.232 110.956C215.328 110.888 215.432 110.854 215.544 110.854C215.684 110.854 215.808 110.886 215.916 110.95C216.028 111.014 216.084 111.104 216.084 111.22C216.084 111.304 216.054 111.378 215.994 111.442C215.938 111.506 215.866 111.538 215.778 111.538C215.726 111.538 215.68 111.522 215.64 111.49C215.6 111.458 215.58 111.41 215.58 111.346C215.58 111.282 215.602 111.222 215.646 111.166C215.69 111.106 215.756 111.068 215.844 111.052Z" fill="#0000FF"/>
<path d="M127.5 116L131.5 118.309V113.691L127.5 116ZM147 116L143 113.691V118.309L147 116ZM131.1 116.4H143.4V115.6H131.1V116.4Z" fill="#BE2626"/>
<path d="M186.472 73.484L186.076 75.068L185.812 76.148C185.708 76.572 185.644 76.812 185.62 76.868C185.532 77.036 185.396 77.12 185.212 77.12C185.124 77.12 185.048 77.092 184.984 77.036C184.928 76.98 184.9 76.908 184.9 76.82C184.9 76.732 184.972 76.42 185.116 75.884C185.204 75.556 185.284 75.228 185.356 74.9L185.692 73.604C185.828 73.004 185.896 72.636 185.896 72.5C185.896 72.132 185.772 71.948 185.524 71.948C185.308 71.948 185.132 72.076 184.996 72.332C184.868 72.58 184.748 72.924 184.636 73.364C184.604 73.5 184.576 73.584 184.552 73.616C184.536 73.64 184.504 73.652 184.456 73.652C184.368 73.652 184.324 73.616 184.324 73.544C184.324 73.52 184.34 73.444 184.372 73.316C184.404 73.18 184.452 73.016 184.516 72.824C184.58 72.624 184.644 72.46 184.708 72.332C184.916 71.916 185.2 71.708 185.56 71.708C185.84 71.708 186.08 71.804 186.28 71.996C186.488 72.18 186.6 72.436 186.616 72.764C187.12 72.06 187.736 71.708 188.464 71.708C188.888 71.708 189.212 71.816 189.436 72.032C189.66 72.248 189.78 72.528 189.796 72.872C190.324 72.096 190.968 71.708 191.728 71.708C192.168 71.708 192.5 71.824 192.724 72.056C192.948 72.288 193.06 72.592 193.06 72.968C193.06 73.416 192.808 74.312 192.304 75.656C192.176 76.008 192.112 76.284 192.112 76.484C192.112 76.748 192.216 76.88 192.424 76.88C192.664 76.88 192.888 76.756 193.096 76.508C193.312 76.252 193.488 75.888 193.624 75.416C193.648 75.336 193.664 75.284 193.672 75.26C193.688 75.236 193.704 75.216 193.72 75.2C193.736 75.184 193.764 75.176 193.804 75.176C193.884 75.176 193.924 75.212 193.924 75.284C193.924 75.308 193.908 75.38 193.876 75.5C193.844 75.62 193.784 75.776 193.696 75.968C193.616 76.152 193.52 76.328 193.408 76.496C193.304 76.664 193.16 76.812 192.976 76.94C192.792 77.06 192.596 77.12 192.388 77.12C192.108 77.12 191.88 77.028 191.704 76.844C191.528 76.66 191.44 76.428 191.44 76.148C191.44 76.004 191.496 75.784 191.608 75.488C192.096 74.16 192.34 73.26 192.34 72.788C192.34 72.228 192.124 71.948 191.692 71.948C191.444 71.948 191.208 72 190.984 72.104C190.76 72.208 190.576 72.332 190.432 72.476C190.288 72.62 190.16 72.776 190.048 72.944C189.936 73.104 189.856 73.236 189.808 73.34C189.76 73.444 189.732 73.512 189.724 73.544L189.004 76.412C188.956 76.596 188.92 76.728 188.896 76.808C188.872 76.88 188.824 76.948 188.752 77.012C188.68 77.084 188.588 77.12 188.476 77.12C188.388 77.12 188.312 77.092 188.248 77.036C188.192 76.98 188.164 76.908 188.164 76.82C188.164 76.764 188.204 76.584 188.284 76.28C188.316 76.12 188.432 75.66 188.632 74.9L188.932 73.664C189.028 73.288 189.076 72.996 189.076 72.788C189.076 72.228 188.86 71.948 188.428 71.948C187.98 71.948 187.584 72.108 187.24 72.428C187.104 72.54 186.972 72.684 186.844 72.86C186.724 73.028 186.636 73.164 186.58 73.268C186.524 73.372 186.488 73.444 186.472 73.484Z" fill="black"/>
<path d="M196.764 76.598L196.206 78.818C196.134 79.098 195.988 79.318 195.768 79.478C195.548 79.642 195.324 79.724 195.096 79.724C194.96 79.724 194.84 79.694 194.736 79.634C194.636 79.578 194.586 79.492 194.586 79.376C194.586 79.288 194.616 79.214 194.676 79.154C194.736 79.094 194.806 79.064 194.886 79.064C194.95 79.064 195 79.082 195.036 79.118C195.072 79.158 195.09 79.204 195.09 79.256C195.09 79.328 195.064 79.39 195.012 79.442C194.964 79.494 194.904 79.528 194.832 79.544C194.908 79.584 194.996 79.604 195.096 79.604C195.256 79.604 195.402 79.53 195.534 79.382C195.666 79.238 195.762 79.052 195.822 78.824L196.392 76.562C196.42 76.438 196.434 76.334 196.434 76.25C196.434 76.066 196.37 75.974 196.242 75.974C196.114 75.974 195.982 76.036 195.846 76.16C195.71 76.28 195.586 76.474 195.474 76.742C195.438 76.794 195.41 76.822 195.39 76.826C195.35 76.826 195.33 76.808 195.33 76.772C195.33 76.76 195.342 76.724 195.366 76.664C195.39 76.6 195.428 76.522 195.48 76.43C195.536 76.338 195.598 76.25 195.666 76.166C195.738 76.078 195.826 76.004 195.93 75.944C196.038 75.884 196.148 75.854 196.26 75.854C196.404 75.854 196.528 75.904 196.632 76.004C196.736 76.1 196.788 76.23 196.788 76.394C196.788 76.466 196.78 76.534 196.764 76.598ZM197.01 74.756C197.01 74.832 196.978 74.9 196.914 74.96C196.854 75.016 196.788 75.044 196.716 75.044C196.656 75.044 196.606 75.024 196.566 74.984C196.53 74.94 196.512 74.894 196.512 74.846C196.512 74.778 196.542 74.714 196.602 74.654C196.662 74.59 196.732 74.558 196.812 74.558C196.86 74.558 196.904 74.574 196.944 74.606C196.988 74.638 197.01 74.688 197.01 74.756Z" fill="black"/>
</g>
<defs>
<filter id="filter0_d" x="0" y="0" width="406" height="239" filterUnits="userSpaceOnUse" color-interpolation-filters="sRGB">
<feFlood flood-opacity="0" result="BackgroundImageFix"/>
<feColorMatrix in="SourceAlpha" type="matrix" values="0 0 0 0 0 0 0 0 0 0 0 0 0 0 0 0 0 0 127 0"/>
<feOffset dy="4"/>
<feGaussianBlur stdDeviation="8"/>
<feColorMatrix type="matrix" values="0 0 0 0 0 0 0 0 0 0 0 0 0 0 0 0 0 0 0.25 0"/>
<feBlend mode="normal" in2="BackgroundImageFix" result="effect1_dropShadow"/>
<feBlend mode="normal" in="SourceGraphic" in2="effect1_dropShadow" result="shape"/>
</filter>
</defs>
</svg>
