<svg width="276" height="116" viewBox="0 0 276 116" fill="none" xmlns="http://www.w3.org/2000/svg">
<g filter="url(#filter0_d)">
<rect width="244" height="84" transform="translate(16 12)" fill="white"/>
<path d="M184.133 55.482C184.399 55.4086 184.555 55.1333 184.482 54.8671L183.285 50.5291C183.212 50.2629 182.937 50.1066 182.67 50.1801C182.404 50.2535 182.248 50.5288 182.321 50.795L183.385 54.651L179.529 55.7147C179.263 55.7882 179.107 56.0635 179.18 56.3297C179.253 56.5959 179.529 56.7522 179.795 56.6787L184.133 55.482ZM92.2519 55.4319C96.6724 52.8533 103.444 50.8965 111.448 49.5872C119.44 48.2798 128.615 47.625 137.812 47.625C147.009 47.625 156.217 48.2799 164.271 49.5873C172.337 50.8966 179.205 52.8537 183.753 55.4349L184.247 54.5652C179.545 51.8964 172.538 49.916 164.432 48.6003C156.315 47.2827 147.053 46.625 137.812 46.625C128.572 46.625 119.341 47.2827 111.286 48.6003C103.243 49.916 96.3276 51.8967 91.7481 54.5681L92.2519 55.4319Z" fill="black"/>
<path d="M114.984 39.512C114.984 39.944 114.884 40.324 114.684 40.652C114.484 40.972 114.188 41.132 113.796 41.132C113.652 41.132 113.508 41.112 113.364 41.072C113.22 41.04 113.056 40.976 112.872 40.88C112.688 40.784 112.536 40.62 112.416 40.388C112.304 40.148 112.248 39.856 112.248 39.512V36.2H111.228V35.936C111.596 35.92 111.9 35.784 112.14 35.528C112.388 35.264 112.552 34.972 112.632 34.652C112.72 34.332 112.768 33.988 112.776 33.62H113.076V35.828H114.792V36.2H113.076V39.536C113.076 40.4 113.344 40.832 113.88 40.832C114.112 40.832 114.304 40.716 114.456 40.484C114.608 40.244 114.684 39.912 114.684 39.488V38.828H114.984V39.512ZM118.628 41C117.812 40.976 117.396 40.964 117.38 40.964L116.06 41V40.628C116.484 40.628 116.744 40.604 116.84 40.556C116.944 40.5 116.996 40.344 116.996 40.088V36.86C116.996 36.564 116.944 36.38 116.84 36.308C116.744 36.236 116.5 36.2 116.108 36.2V35.828L117.788 35.696V40.1C117.788 40.34 117.828 40.488 117.908 40.544C117.996 40.6 118.236 40.628 118.628 40.628V41ZM117.968 33.752C117.968 33.912 117.908 34.06 117.788 34.196C117.668 34.324 117.512 34.388 117.32 34.388C117.144 34.388 116.992 34.324 116.864 34.196C116.744 34.068 116.684 33.92 116.684 33.752C116.684 33.592 116.744 33.448 116.864 33.32C116.984 33.184 117.14 33.116 117.332 33.116C117.508 33.116 117.656 33.18 117.776 33.308C117.904 33.436 117.968 33.584 117.968 33.752ZM128.76 41L127.416 40.964L126.06 41V40.628C126.484 40.628 126.744 40.604 126.84 40.556C126.944 40.5 126.996 40.344 126.996 40.088V37.292C126.996 36.884 126.932 36.56 126.804 36.32C126.684 36.08 126.452 35.96 126.108 35.96C125.692 35.96 125.316 36.136 124.98 36.488C124.652 36.832 124.488 37.296 124.488 37.88V40.088C124.488 40.344 124.536 40.5 124.632 40.556C124.736 40.604 125 40.628 125.424 40.628V41L124.08 40.964L122.724 41V40.628C123.148 40.628 123.408 40.604 123.504 40.556C123.608 40.5 123.66 40.344 123.66 40.088V37.292C123.66 36.884 123.596 36.56 123.468 36.32C123.348 36.08 123.116 35.96 122.772 35.96C122.356 35.96 121.98 36.136 121.644 36.488C121.316 36.832 121.152 37.296 121.152 37.88V40.088C121.152 40.344 121.2 40.5 121.296 40.556C121.4 40.604 121.664 40.628 122.088 40.628V41L120.744 40.964L119.388 41V40.628C119.812 40.628 120.072 40.604 120.168 40.556C120.272 40.5 120.324 40.344 120.324 40.088V36.872C120.324 36.576 120.272 36.392 120.168 36.32C120.064 36.24 119.804 36.2 119.388 36.2V35.828L121.08 35.696V36.956C121.456 36.116 122.048 35.696 122.856 35.696C123.792 35.696 124.324 36.088 124.452 36.872C124.588 36.568 124.8 36.296 125.088 36.056C125.376 35.816 125.744 35.696 126.192 35.696C126.792 35.696 127.212 35.844 127.452 36.14C127.628 36.34 127.732 36.552 127.764 36.776C127.804 37 127.824 37.4 127.824 37.976V40.268C127.832 40.436 127.9 40.54 128.028 40.58C128.156 40.612 128.4 40.628 128.76 40.628V41ZM133.98 39.572C133.98 39.644 133.94 39.76 133.86 39.92C133.788 40.072 133.68 40.244 133.536 40.436C133.392 40.62 133.18 40.784 132.9 40.928C132.62 41.064 132.312 41.132 131.976 41.132C131.272 41.132 130.656 40.868 130.128 40.34C129.6 39.804 129.336 39.144 129.336 38.36C129.336 37.608 129.576 36.964 130.056 36.428C130.544 35.892 131.136 35.624 131.832 35.624C132.536 35.624 133.068 35.852 133.428 36.308C133.796 36.764 133.98 37.32 133.98 37.976C133.98 38.096 133.964 38.168 133.932 38.192C133.9 38.216 133.816 38.228 133.68 38.228H130.332C130.332 39.044 130.452 39.644 130.692 40.028C131.028 40.564 131.48 40.832 132.048 40.832C132.128 40.832 132.212 40.824 132.3 40.808C132.396 40.792 132.54 40.752 132.732 40.688C132.924 40.616 133.104 40.488 133.272 40.304C133.44 40.12 133.572 39.884 133.668 39.596C133.692 39.484 133.744 39.428 133.824 39.428C133.928 39.428 133.98 39.476 133.98 39.572ZM133.188 37.976C133.188 37.808 133.172 37.632 133.14 37.448C133.116 37.256 133.06 37.032 132.972 36.776C132.892 36.512 132.752 36.3 132.552 36.14C132.36 35.972 132.12 35.888 131.832 35.888C131.704 35.888 131.568 35.916 131.424 35.972C131.288 36.028 131.136 36.124 130.968 36.26C130.8 36.388 130.656 36.604 130.536 36.908C130.424 37.204 130.36 37.56 130.344 37.976H133.188ZM142.648 39.464C142.648 39.936 142.488 40.332 142.168 40.652C141.848 40.972 141.364 41.132 140.716 41.132C140.196 41.132 139.756 40.96 139.396 40.616C139.348 40.664 139.304 40.708 139.264 40.748C139.232 40.788 139.208 40.816 139.192 40.832C139.184 40.848 139.176 40.86 139.168 40.868C139.168 40.876 139.164 40.884 139.156 40.892C138.996 41.052 138.896 41.132 138.856 41.132C138.792 41.132 138.752 41.112 138.736 41.072C138.728 41.04 138.724 40.964 138.724 40.844V39.26C138.724 39.172 138.724 39.112 138.724 39.08C138.732 39.048 138.748 39.02 138.772 38.996C138.796 38.972 138.832 38.96 138.88 38.96C138.936 38.96 138.972 38.972 138.988 38.996C139.012 39.02 139.032 39.076 139.048 39.164C139.168 39.716 139.356 40.14 139.612 40.436C139.876 40.724 140.244 40.868 140.716 40.868C141.164 40.868 141.5 40.768 141.724 40.568C141.956 40.368 142.072 40.104 142.072 39.776C142.072 39.192 141.656 38.824 140.824 38.672C140.344 38.576 140.004 38.496 139.804 38.432C139.604 38.368 139.416 38.264 139.24 38.12C138.896 37.84 138.724 37.5 138.724 37.1C138.724 36.7 138.876 36.356 139.18 36.068C139.484 35.772 139.972 35.624 140.644 35.624C141.092 35.624 141.468 35.736 141.772 35.96C141.86 35.888 141.928 35.824 141.976 35.768C142.08 35.672 142.16 35.624 142.216 35.624C142.28 35.624 142.316 35.644 142.324 35.684C142.34 35.724 142.348 35.8 142.348 35.912V37.124C142.348 37.212 142.344 37.272 142.336 37.304C142.336 37.336 142.324 37.364 142.3 37.388C142.276 37.404 142.24 37.412 142.192 37.412C142.104 37.412 142.056 37.376 142.048 37.304C141.984 36.336 141.516 35.852 140.644 35.852C140.172 35.852 139.828 35.944 139.612 36.128C139.404 36.304 139.3 36.516 139.3 36.764C139.3 36.9 139.332 37.02 139.396 37.124C139.46 37.228 139.532 37.312 139.612 37.376C139.7 37.432 139.82 37.488 139.972 37.544C140.132 37.6 140.26 37.64 140.356 37.664C140.452 37.68 140.592 37.708 140.776 37.748C141.416 37.868 141.872 38.06 142.144 38.324C142.48 38.66 142.648 39.04 142.648 39.464ZM147.035 39.512C147.035 39.944 146.935 40.324 146.735 40.652C146.535 40.972 146.239 41.132 145.847 41.132C145.703 41.132 145.559 41.112 145.415 41.072C145.271 41.04 145.107 40.976 144.923 40.88C144.739 40.784 144.587 40.62 144.467 40.388C144.355 40.148 144.299 39.856 144.299 39.512V36.2H143.279V35.936C143.647 35.92 143.951 35.784 144.191 35.528C144.439 35.264 144.603 34.972 144.683 34.652C144.771 34.332 144.819 33.988 144.827 33.62H145.127V35.828H146.843V36.2H145.127V39.536C145.127 40.4 145.395 40.832 145.931 40.832C146.163 40.832 146.355 40.716 146.507 40.484C146.659 40.244 146.735 39.912 146.735 39.488V38.828H147.035V39.512ZM152.695 39.572C152.695 39.644 152.655 39.76 152.575 39.92C152.503 40.072 152.395 40.244 152.251 40.436C152.107 40.62 151.895 40.784 151.615 40.928C151.335 41.064 151.027 41.132 150.691 41.132C149.987 41.132 149.371 40.868 148.843 40.34C148.315 39.804 148.051 39.144 148.051 38.36C148.051 37.608 148.291 36.964 148.771 36.428C149.259 35.892 149.851 35.624 150.547 35.624C151.251 35.624 151.783 35.852 152.143 36.308C152.511 36.764 152.695 37.32 152.695 37.976C152.695 38.096 152.679 38.168 152.647 38.192C152.615 38.216 152.531 38.228 152.395 38.228H149.047C149.047 39.044 149.167 39.644 149.407 40.028C149.743 40.564 150.195 40.832 150.763 40.832C150.843 40.832 150.927 40.824 151.015 40.808C151.111 40.792 151.255 40.752 151.447 40.688C151.639 40.616 151.819 40.488 151.987 40.304C152.155 40.12 152.287 39.884 152.383 39.596C152.407 39.484 152.459 39.428 152.539 39.428C152.643 39.428 152.695 39.476 152.695 39.572ZM151.903 37.976C151.903 37.808 151.887 37.632 151.855 37.448C151.831 37.256 151.775 37.032 151.687 36.776C151.607 36.512 151.467 36.3 151.267 36.14C151.075 35.972 150.835 35.888 150.547 35.888C150.419 35.888 150.283 35.916 150.139 35.972C150.003 36.028 149.851 36.124 149.683 36.26C149.515 36.388 149.371 36.604 149.251 36.908C149.139 37.204 149.075 37.56 149.059 37.976H151.903ZM159.299 38.408C159.299 39.168 159.035 39.812 158.507 40.34C157.979 40.868 157.351 41.132 156.623 41.132C156.223 41.132 155.887 41.032 155.615 40.832C155.351 40.624 155.195 40.444 155.147 40.292V40.4V42.416C155.147 42.672 155.195 42.824 155.291 42.872C155.395 42.928 155.659 42.956 156.083 42.956V43.328L154.727 43.292L153.383 43.328V42.956C153.807 42.956 154.067 42.928 154.163 42.872C154.267 42.824 154.319 42.672 154.319 42.416V36.8C154.319 36.536 154.267 36.372 154.163 36.308C154.067 36.236 153.807 36.2 153.383 36.2V35.828L155.111 35.696V36.488C155.591 35.96 156.151 35.696 156.791 35.696C157.471 35.696 158.059 35.96 158.555 36.488C159.051 37.016 159.299 37.656 159.299 38.408ZM158.303 38.408C158.303 37.736 158.143 37.168 157.823 36.704C157.511 36.232 157.135 35.996 156.695 35.996C156.383 35.996 156.091 36.08 155.819 36.248C155.547 36.416 155.323 36.652 155.147 36.956V39.632C155.147 39.752 155.155 39.836 155.171 39.884C155.187 39.924 155.235 40.008 155.315 40.136C155.635 40.624 156.055 40.868 156.575 40.868C157.031 40.868 157.431 40.636 157.775 40.172C158.127 39.7 158.303 39.112 158.303 38.408Z" fill="black"/>
<path d="M113.742 59.84C113.742 60.4733 113.522 61.01 113.082 61.45C112.642 61.89 112.119 62.11 111.512 62.11C110.959 62.11 110.522 61.8667 110.202 61.38L109.842 62H109.592V56.04C109.592 55.7933 109.549 55.64 109.462 55.58C109.376 55.5133 109.159 55.48 108.812 55.48V55.17L110.252 55.06V58.23C110.639 57.7967 111.096 57.58 111.622 57.58C112.196 57.58 112.692 57.8 113.112 58.24C113.532 58.68 113.742 59.2133 113.742 59.84ZM112.912 59.83C112.912 59.21 112.816 58.7467 112.622 58.44C112.356 58.0133 112.006 57.8 111.572 57.8C111.086 57.8 110.692 58.0133 110.392 58.44C110.319 58.5467 110.282 58.6667 110.282 58.8V60.86C110.282 61 110.329 61.14 110.422 61.28C110.689 61.6867 111.039 61.89 111.472 61.89C111.939 61.89 112.316 61.6767 112.602 61.25C112.809 60.93 112.912 60.4567 112.912 59.83ZM118.886 58C118.439 58 118.129 58.2133 117.956 58.64L116.196 62.91C115.876 63.67 115.449 64.05 114.916 64.05C114.662 64.05 114.446 63.97 114.266 63.81C114.086 63.6567 113.996 63.4667 113.996 63.24C113.996 63.1 114.036 62.9933 114.116 62.92C114.202 62.8467 114.302 62.81 114.416 62.81C114.536 62.81 114.636 62.8467 114.716 62.92C114.796 63 114.836 63.1033 114.836 63.23C114.836 63.4767 114.706 63.6167 114.446 63.65C114.572 63.77 114.729 63.83 114.916 63.83C115.116 63.83 115.296 63.7567 115.456 63.61C115.616 63.4633 115.729 63.32 115.796 63.18C115.869 63.04 115.956 62.8433 116.056 62.59L116.306 62L114.806 58.35C114.739 58.19 114.656 58.0933 114.556 58.06C114.456 58.02 114.269 58 113.996 58V57.69C114.296 57.71 114.619 57.72 114.966 57.72L116.056 57.69V58C115.682 58 115.496 58.0867 115.496 58.26C115.496 58.28 115.516 58.34 115.556 58.44L116.666 61.13L117.676 58.67C117.716 58.5767 117.736 58.4967 117.736 58.43C117.736 58.1567 117.579 58.0133 117.266 58V57.69L118.136 57.72C118.409 57.72 118.659 57.71 118.886 57.69V58ZM127.769 62L126.329 62.11V61.21C126.049 61.81 125.619 62.11 125.039 62.11C124.746 62.11 124.499 62.0733 124.299 62C124.099 61.9267 123.949 61.8433 123.849 61.75C123.749 61.6567 123.672 61.52 123.619 61.34C123.566 61.16 123.536 61.0167 123.529 60.91C123.522 60.7967 123.519 60.6333 123.519 60.42V58.92C123.519 58.4667 123.486 58.2 123.419 58.12C123.352 58.04 123.126 58 122.739 58V57.69L124.209 57.58V60.9C124.209 61.06 124.216 61.1867 124.229 61.28C124.242 61.3733 124.276 61.4733 124.329 61.58C124.382 61.6867 124.472 61.7667 124.599 61.82C124.726 61.8667 124.889 61.89 125.089 61.89C125.449 61.89 125.739 61.7433 125.959 61.45C126.186 61.15 126.299 60.78 126.299 60.34V58.56C126.299 58.3133 126.256 58.16 126.169 58.1C126.082 58.0333 125.866 58 125.519 58V57.69L126.989 57.58V61.13C126.989 61.3767 127.032 61.5333 127.119 61.6C127.206 61.66 127.422 61.69 127.769 61.69V62ZM131.576 60.72C131.576 61.1133 131.442 61.4433 131.176 61.71C130.909 61.9767 130.506 62.11 129.966 62.11C129.532 62.11 129.166 61.9667 128.866 61.68C128.826 61.72 128.789 61.7567 128.756 61.79C128.729 61.8233 128.709 61.8467 128.696 61.86C128.689 61.8733 128.682 61.8833 128.676 61.89C128.676 61.8967 128.672 61.9033 128.666 61.91C128.532 62.0433 128.449 62.11 128.416 62.11C128.362 62.11 128.329 62.0933 128.316 62.06C128.309 62.0333 128.306 61.97 128.306 61.87V60.55C128.306 60.4767 128.306 60.4267 128.306 60.4C128.312 60.3733 128.326 60.35 128.346 60.33C128.366 60.31 128.396 60.3 128.436 60.3C128.482 60.3 128.512 60.31 128.526 60.33C128.546 60.35 128.562 60.3967 128.576 60.47C128.676 60.93 128.832 61.2833 129.046 61.53C129.266 61.77 129.572 61.89 129.966 61.89C130.339 61.89 130.619 61.8067 130.806 61.64C130.999 61.4733 131.096 61.2533 131.096 60.98C131.096 60.4933 130.749 60.1867 130.056 60.06C129.656 59.98 129.372 59.9133 129.206 59.86C129.039 59.8067 128.882 59.72 128.736 59.6C128.449 59.3667 128.306 59.0833 128.306 58.75C128.306 58.4167 128.432 58.13 128.686 57.89C128.939 57.6433 129.346 57.52 129.906 57.52C130.279 57.52 130.592 57.6133 130.846 57.8C130.919 57.74 130.976 57.6867 131.016 57.64C131.102 57.56 131.169 57.52 131.216 57.52C131.269 57.52 131.299 57.5367 131.306 57.57C131.319 57.6033 131.326 57.6667 131.326 57.76V58.77C131.326 58.8433 131.322 58.8933 131.316 58.92C131.316 58.9467 131.306 58.97 131.286 58.99C131.266 59.0033 131.236 59.01 131.196 59.01C131.122 59.01 131.082 58.98 131.076 58.92C131.022 58.1133 130.632 57.71 129.906 57.71C129.512 57.71 129.226 57.7867 129.046 57.94C128.872 58.0867 128.786 58.2633 128.786 58.47C128.786 58.5833 128.812 58.6833 128.866 58.77C128.919 58.8567 128.979 58.9267 129.046 58.98C129.119 59.0267 129.219 59.0733 129.346 59.12C129.479 59.1667 129.586 59.2 129.666 59.22C129.746 59.2333 129.862 59.2567 130.016 59.29C130.549 59.39 130.929 59.55 131.156 59.77C131.436 60.05 131.576 60.3667 131.576 60.72ZM134.381 62C133.701 61.98 133.354 61.97 133.341 61.97L132.241 62V61.69C132.594 61.69 132.811 61.67 132.891 61.63C132.978 61.5833 133.021 61.4533 133.021 61.24V58.55C133.021 58.3033 132.978 58.15 132.891 58.09C132.811 58.03 132.608 58 132.281 58V57.69L133.681 57.58V61.25C133.681 61.45 133.714 61.5733 133.781 61.62C133.854 61.6667 134.054 61.69 134.381 61.69V62ZM133.831 55.96C133.831 56.0933 133.781 56.2167 133.681 56.33C133.581 56.4367 133.451 56.49 133.291 56.49C133.144 56.49 133.018 56.4367 132.911 56.33C132.811 56.2233 132.761 56.1 132.761 55.96C132.761 55.8267 132.811 55.7067 132.911 55.6C133.011 55.4867 133.141 55.43 133.301 55.43C133.448 55.43 133.571 55.4833 133.671 55.59C133.778 55.6967 133.831 55.82 133.831 55.96ZM140.044 62L138.924 61.97L137.794 62V61.69C138.148 61.69 138.364 61.67 138.444 61.63C138.531 61.5833 138.574 61.4533 138.574 61.24V58.91C138.574 58.57 138.521 58.3 138.414 58.1C138.314 57.9 138.121 57.8 137.834 57.8C137.488 57.8 137.174 57.9467 136.894 58.24C136.621 58.5267 136.484 58.9133 136.484 59.4V61.24C136.484 61.4533 136.524 61.5833 136.604 61.63C136.691 61.67 136.911 61.69 137.264 61.69V62L136.144 61.97L135.014 62V61.69C135.368 61.69 135.584 61.67 135.664 61.63C135.751 61.5833 135.794 61.4533 135.794 61.24V58.56C135.794 58.3133 135.751 58.16 135.664 58.1C135.578 58.0333 135.361 58 135.014 58V57.69L136.424 57.58V58.63C136.738 57.93 137.231 57.58 137.904 57.58C138.404 57.58 138.754 57.7033 138.954 57.95C139.101 58.1167 139.188 58.2933 139.214 58.48C139.248 58.6667 139.264 59 139.264 59.48V61.39C139.271 61.53 139.328 61.6167 139.434 61.65C139.541 61.6767 139.744 61.69 140.044 61.69V62ZM145.101 57.96C145.101 58.06 145.068 58.1367 145.001 58.19C144.941 58.2367 144.878 58.26 144.811 58.26C144.731 58.26 144.661 58.2333 144.601 58.18C144.548 58.1267 144.521 58.0567 144.521 57.97C144.521 57.83 144.574 57.74 144.681 57.7L144.581 57.69C144.254 57.69 143.954 57.82 143.681 58.08C143.954 58.3333 144.091 58.6567 144.091 59.05C144.091 59.4433 143.934 59.7867 143.621 60.08C143.308 60.3667 142.924 60.51 142.471 60.51C142.098 60.51 141.768 60.4067 141.481 60.2C141.368 60.3333 141.311 60.49 141.311 60.67C141.311 60.8367 141.361 60.9867 141.461 61.12C141.561 61.2467 141.688 61.32 141.841 61.34C141.888 61.3467 142.138 61.35 142.591 61.35C142.858 61.35 143.064 61.3533 143.211 61.36C143.358 61.3667 143.534 61.3933 143.741 61.44C143.954 61.48 144.144 61.5433 144.311 61.63C144.744 61.87 144.961 62.25 144.961 62.77C144.961 63.15 144.741 63.46 144.301 63.7C143.868 63.94 143.348 64.06 142.741 64.06C142.128 64.06 141.604 63.9367 141.171 63.69C140.744 63.45 140.531 63.15 140.531 62.79C140.531 62.5767 140.611 62.3767 140.771 62.19C140.938 62.0033 141.164 61.87 141.451 61.79C141.158 61.6033 141.011 61.3067 141.011 60.9C141.011 60.5867 141.114 60.31 141.321 60.07C141.008 59.81 140.851 59.4667 140.851 59.04C140.851 58.6467 141.008 58.3067 141.321 58.02C141.634 57.7267 142.018 57.58 142.471 57.58C142.871 57.58 143.224 57.7 143.531 57.94C143.851 57.6267 144.204 57.47 144.591 57.47C144.764 57.47 144.891 57.5233 144.971 57.63C145.058 57.7367 145.101 57.8467 145.101 57.96ZM143.341 59.04C143.341 58.22 143.051 57.81 142.471 57.81C142.178 57.81 141.941 57.9433 141.761 58.21C141.654 58.39 141.601 58.67 141.601 59.05C141.601 59.87 141.891 60.28 142.471 60.28C142.764 60.28 143.001 60.1467 143.181 59.88C143.288 59.7 143.341 59.42 143.341 59.04ZM144.441 62.79C144.441 62.59 144.384 62.4267 144.271 62.3C144.158 62.1733 143.984 62.0833 143.751 62.03C143.518 61.9833 143.318 61.9567 143.151 61.95C142.991 61.9367 142.761 61.93 142.461 61.93H141.871C141.644 61.9433 141.451 62.0333 141.291 62.2C141.131 62.3667 141.051 62.5633 141.051 62.79C141.051 63.0633 141.211 63.3033 141.531 63.51C141.858 63.7233 142.264 63.83 142.751 63.83C143.231 63.83 143.631 63.7267 143.951 63.52C144.278 63.3133 144.441 63.07 144.441 62.79ZM151.901 60.76C151.901 61.12 151.818 61.4367 151.651 61.71C151.484 61.9767 151.238 62.11 150.911 62.11C150.791 62.11 150.671 62.0933 150.551 62.06C150.431 62.0333 150.294 61.98 150.141 61.9C149.988 61.82 149.861 61.6833 149.761 61.49C149.668 61.29 149.621 61.0467 149.621 60.76V58H148.771V57.78C149.078 57.7667 149.331 57.6533 149.531 57.44C149.738 57.22 149.874 56.9767 149.941 56.71C150.014 56.4433 150.054 56.1567 150.061 55.85H150.311V57.69H151.741V58H150.311V60.78C150.311 61.5 150.534 61.86 150.981 61.86C151.174 61.86 151.334 61.7633 151.461 61.57C151.588 61.37 151.651 61.0933 151.651 60.74V60.19H151.901V60.76ZM157.818 62L156.698 61.97L155.568 62V61.69C155.921 61.69 156.138 61.67 156.218 61.63C156.304 61.5833 156.348 61.4533 156.348 61.24V58.91C156.348 58.57 156.294 58.3 156.188 58.1C156.088 57.9 155.894 57.8 155.608 57.8C155.261 57.8 154.948 57.9467 154.668 58.24C154.394 58.5267 154.258 58.9133 154.258 59.4V61.24C154.258 61.4533 154.298 61.5833 154.378 61.63C154.464 61.67 154.684 61.69 155.038 61.69V62L153.918 61.97L152.788 62V61.69C153.141 61.69 153.358 61.67 153.438 61.63C153.524 61.5833 153.568 61.4533 153.568 61.24V56.04C153.568 55.7933 153.524 55.64 153.438 55.58C153.351 55.5133 153.134 55.48 152.788 55.48V55.17L154.228 55.06V58.54H154.238C154.344 58.3 154.518 58.08 154.758 57.88C154.998 57.68 155.304 57.58 155.678 57.58C156.178 57.58 156.528 57.7033 156.728 57.95C156.874 58.1167 156.961 58.2933 156.988 58.48C157.021 58.6667 157.038 59 157.038 59.48V61.39C157.044 61.53 157.101 61.6167 157.208 61.65C157.314 61.6767 157.518 61.69 157.818 61.69V62ZM162.174 60.81C162.174 60.87 162.141 60.9667 162.074 61.1C162.014 61.2267 161.924 61.37 161.804 61.53C161.684 61.6833 161.508 61.82 161.274 61.94C161.041 62.0533 160.784 62.11 160.504 62.11C159.918 62.11 159.404 61.89 158.964 61.45C158.524 61.0033 158.304 60.4533 158.304 59.8C158.304 59.1733 158.504 58.6367 158.904 58.19C159.311 57.7433 159.804 57.52 160.384 57.52C160.971 57.52 161.414 57.71 161.714 58.09C162.021 58.47 162.174 58.9333 162.174 59.48C162.174 59.58 162.161 59.64 162.134 59.66C162.108 59.68 162.038 59.69 161.924 59.69H159.134C159.134 60.37 159.234 60.87 159.434 61.19C159.714 61.6367 160.091 61.86 160.564 61.86C160.631 61.86 160.701 61.8533 160.774 61.84C160.854 61.8267 160.974 61.7933 161.134 61.74C161.294 61.68 161.444 61.5733 161.584 61.42C161.724 61.2667 161.834 61.07 161.914 60.83C161.934 60.7367 161.978 60.69 162.044 60.69C162.131 60.69 162.174 60.73 162.174 60.81ZM161.514 59.48C161.514 59.34 161.501 59.1933 161.474 59.04C161.454 58.88 161.408 58.6933 161.334 58.48C161.268 58.26 161.151 58.0833 160.984 57.95C160.824 57.81 160.624 57.74 160.384 57.74C160.278 57.74 160.164 57.7633 160.044 57.81C159.931 57.8567 159.804 57.9367 159.664 58.05C159.524 58.1567 159.404 58.3367 159.304 58.59C159.211 58.8367 159.158 59.1333 159.144 59.48H161.514ZM90.1577 74.01C90.1577 74.3633 90.0843 74.7 89.9377 75.02C89.791 75.34 89.6477 75.5733 89.5077 75.72C89.3677 75.8733 89.271 75.95 89.2177 75.95C89.151 75.95 89.1177 75.9133 89.1177 75.84C89.1177 75.8067 89.1577 75.75 89.2377 75.67C89.7043 75.21 89.9377 74.6567 89.9377 74.01L89.9177 73.83C89.9043 73.8367 89.8943 73.8467 89.8877 73.86C89.781 73.9667 89.6477 74.02 89.4877 74.02C89.321 74.02 89.191 73.9667 89.0977 73.86C89.0043 73.7533 88.9577 73.63 88.9577 73.49C88.9577 73.35 89.0043 73.2267 89.0977 73.12C89.191 73.0133 89.321 72.96 89.4877 72.96C89.6943 72.96 89.8577 73.06 89.9777 73.26C90.0977 73.4533 90.1577 73.7033 90.1577 74.01ZM92.0977 74.01C92.0977 74.3633 92.0243 74.7 91.8777 75.02C91.731 75.34 91.5877 75.5733 91.4477 75.72C91.3077 75.8733 91.211 75.95 91.1577 75.95C91.091 75.95 91.0577 75.9133 91.0577 75.84C91.0577 75.8067 91.0977 75.75 91.1777 75.67C91.6443 75.21 91.8777 74.6567 91.8777 74.01L91.8577 73.83C91.8443 73.8367 91.8343 73.8467 91.8277 73.86C91.721 73.9667 91.5877 74.02 91.4277 74.02C91.261 74.02 91.131 73.9667 91.0377 73.86C90.9443 73.7533 90.8977 73.63 90.8977 73.49C90.8977 73.35 90.9443 73.2267 91.0377 73.12C91.131 73.0133 91.261 72.96 91.4277 72.96C91.6343 72.96 91.7977 73.06 91.9177 73.26C92.0377 73.4533 92.0977 73.7033 92.0977 74.01ZM96.1345 72.76C96.1345 73.12 96.0511 73.4367 95.8845 73.71C95.7178 73.9767 95.4711 74.11 95.1445 74.11C95.0245 74.11 94.9045 74.0933 94.7845 74.06C94.6645 74.0333 94.5278 73.98 94.3745 73.9C94.2211 73.82 94.0945 73.6833 93.9945 73.49C93.9011 73.29 93.8545 73.0467 93.8545 72.76V70H93.0045V69.78C93.3111 69.7667 93.5645 69.6533 93.7645 69.44C93.9711 69.22 94.1078 68.9767 94.1745 68.71C94.2478 68.4433 94.2878 68.1567 94.2945 67.85H94.5445V69.69H95.9745V70H94.5445V72.78C94.5445 73.5 94.7678 73.86 95.2145 73.86C95.4078 73.86 95.5678 73.7633 95.6945 73.57C95.8211 73.37 95.8845 73.0933 95.8845 72.74V72.19H96.1345V72.76ZM99.1712 74C98.4912 73.98 98.1445 73.97 98.1312 73.97L97.0312 74V73.69C97.3845 73.69 97.6012 73.67 97.6812 73.63C97.7678 73.5833 97.8112 73.4533 97.8112 73.24V70.55C97.8112 70.3033 97.7678 70.15 97.6812 70.09C97.6012 70.03 97.3978 70 97.0712 70V69.69L98.4712 69.58V73.25C98.4712 73.45 98.5045 73.5733 98.5712 73.62C98.6445 73.6667 98.8445 73.69 99.1712 73.69V74ZM98.6212 67.96C98.6212 68.0933 98.5712 68.2167 98.4712 68.33C98.3712 68.4367 98.2412 68.49 98.0812 68.49C97.9345 68.49 97.8078 68.4367 97.7012 68.33C97.6012 68.2233 97.5512 68.1 97.5512 67.96C97.5512 67.8267 97.6012 67.7067 97.7012 67.6C97.8012 67.4867 97.9312 67.43 98.0912 67.43C98.2378 67.43 98.3612 67.4833 98.4612 67.59C98.5678 67.6967 98.6212 67.82 98.6212 67.96ZM107.614 74L106.494 73.97L105.364 74V73.69C105.718 73.69 105.934 73.67 106.014 73.63C106.101 73.5833 106.144 73.4533 106.144 73.24V70.91C106.144 70.57 106.091 70.3 105.984 70.1C105.884 69.9 105.691 69.8 105.404 69.8C105.058 69.8 104.744 69.9467 104.464 70.24C104.191 70.5267 104.054 70.9133 104.054 71.4V73.24C104.054 73.4533 104.094 73.5833 104.174 73.63C104.261 73.67 104.481 73.69 104.834 73.69V74L103.714 73.97L102.584 74V73.69C102.938 73.69 103.154 73.67 103.234 73.63C103.321 73.5833 103.364 73.4533 103.364 73.24V70.91C103.364 70.57 103.311 70.3 103.204 70.1C103.104 69.9 102.911 69.8 102.624 69.8C102.278 69.8 101.964 69.9467 101.684 70.24C101.411 70.5267 101.274 70.9133 101.274 71.4V73.24C101.274 73.4533 101.314 73.5833 101.394 73.63C101.481 73.67 101.701 73.69 102.054 73.69V74L100.934 73.97L99.8044 74V73.69C100.158 73.69 100.374 73.67 100.454 73.63C100.541 73.5833 100.584 73.4533 100.584 73.24V70.56C100.584 70.3133 100.541 70.16 100.454 70.1C100.368 70.0333 100.151 70 99.8044 70V69.69L101.214 69.58V70.63C101.528 69.93 102.021 69.58 102.694 69.58C103.474 69.58 103.918 69.9067 104.024 70.56C104.138 70.3067 104.314 70.08 104.554 69.88C104.794 69.68 105.101 69.58 105.474 69.58C105.974 69.58 106.324 69.7033 106.524 69.95C106.671 70.1167 106.758 70.2933 106.784 70.48C106.818 70.6667 106.834 71 106.834 71.48V73.39C106.841 73.53 106.898 73.6167 107.004 73.65C107.111 73.6767 107.314 73.69 107.614 73.69V74ZM111.964 72.81C111.964 72.87 111.931 72.9667 111.864 73.1C111.804 73.2267 111.714 73.37 111.594 73.53C111.474 73.6833 111.298 73.82 111.064 73.94C110.831 74.0533 110.574 74.11 110.294 74.11C109.708 74.11 109.194 73.89 108.754 73.45C108.314 73.0033 108.094 72.4533 108.094 71.8C108.094 71.1733 108.294 70.6367 108.694 70.19C109.101 69.7433 109.594 69.52 110.174 69.52C110.761 69.52 111.204 69.71 111.504 70.09C111.811 70.47 111.964 70.9333 111.964 71.48C111.964 71.58 111.951 71.64 111.924 71.66C111.898 71.68 111.828 71.69 111.714 71.69H108.924C108.924 72.37 109.024 72.87 109.224 73.19C109.504 73.6367 109.881 73.86 110.354 73.86C110.421 73.86 110.491 73.8533 110.564 73.84C110.644 73.8267 110.764 73.7933 110.924 73.74C111.084 73.68 111.234 73.5733 111.374 73.42C111.514 73.2667 111.624 73.07 111.704 72.83C111.724 72.7367 111.768 72.69 111.834 72.69C111.921 72.69 111.964 72.73 111.964 72.81ZM111.304 71.48C111.304 71.34 111.291 71.1933 111.264 71.04C111.244 70.88 111.198 70.6933 111.124 70.48C111.058 70.26 110.941 70.0833 110.774 69.95C110.614 69.81 110.414 69.74 110.174 69.74C110.068 69.74 109.954 69.7633 109.834 69.81C109.721 69.8567 109.594 69.9367 109.454 70.05C109.314 70.1567 109.194 70.3367 109.094 70.59C109.001 70.8367 108.948 71.1333 108.934 71.48H111.304ZM119.188 72.72C119.188 73.1133 119.055 73.4433 118.788 73.71C118.521 73.9767 118.118 74.11 117.578 74.11C117.145 74.11 116.778 73.9667 116.478 73.68C116.438 73.72 116.401 73.7567 116.368 73.79C116.341 73.8233 116.321 73.8467 116.308 73.86C116.301 73.8733 116.295 73.8833 116.288 73.89C116.288 73.8967 116.285 73.9033 116.278 73.91C116.145 74.0433 116.061 74.11 116.028 74.11C115.975 74.11 115.941 74.0933 115.928 74.06C115.921 74.0333 115.918 73.97 115.918 73.87V72.55C115.918 72.4767 115.918 72.4267 115.918 72.4C115.925 72.3733 115.938 72.35 115.958 72.33C115.978 72.31 116.008 72.3 116.048 72.3C116.095 72.3 116.125 72.31 116.138 72.33C116.158 72.35 116.175 72.3967 116.188 72.47C116.288 72.93 116.445 73.2833 116.658 73.53C116.878 73.77 117.185 73.89 117.578 73.89C117.951 73.89 118.231 73.8067 118.418 73.64C118.611 73.4733 118.708 73.2533 118.708 72.98C118.708 72.4933 118.361 72.1867 117.668 72.06C117.268 71.98 116.985 71.9133 116.818 71.86C116.651 71.8067 116.495 71.72 116.348 71.6C116.061 71.3667 115.918 71.0833 115.918 70.75C115.918 70.4167 116.045 70.13 116.298 69.89C116.551 69.6433 116.958 69.52 117.518 69.52C117.891 69.52 118.205 69.6133 118.458 69.8C118.531 69.74 118.588 69.6867 118.628 69.64C118.715 69.56 118.781 69.52 118.828 69.52C118.881 69.52 118.911 69.5367 118.918 69.57C118.931 69.6033 118.938 69.6667 118.938 69.76V70.77C118.938 70.8433 118.935 70.8933 118.928 70.92C118.928 70.9467 118.918 70.97 118.898 70.99C118.878 71.0033 118.848 71.01 118.808 71.01C118.735 71.01 118.695 70.98 118.688 70.92C118.635 70.1133 118.245 69.71 117.518 69.71C117.125 69.71 116.838 69.7867 116.658 69.94C116.485 70.0867 116.398 70.2633 116.398 70.47C116.398 70.5833 116.425 70.6833 116.478 70.77C116.531 70.8567 116.591 70.9267 116.658 70.98C116.731 71.0267 116.831 71.0733 116.958 71.12C117.091 71.1667 117.198 71.2 117.278 71.22C117.358 71.2333 117.475 71.2567 117.628 71.29C118.161 71.39 118.541 71.55 118.768 71.77C119.048 72.05 119.188 72.3667 119.188 72.72ZM122.843 72.76C122.843 73.12 122.76 73.4367 122.593 73.71C122.427 73.9767 122.18 74.11 121.853 74.11C121.733 74.11 121.613 74.0933 121.493 74.06C121.373 74.0333 121.237 73.98 121.083 73.9C120.93 73.82 120.803 73.6833 120.703 73.49C120.61 73.29 120.563 73.0467 120.563 72.76V70H119.713V69.78C120.02 69.7667 120.273 69.6533 120.473 69.44C120.68 69.22 120.817 68.9767 120.883 68.71C120.957 68.4433 120.997 68.1567 121.003 67.85H121.253V69.69H122.683V70H121.253V72.78C121.253 73.5 121.477 73.86 121.923 73.86C122.117 73.86 122.277 73.7633 122.403 73.57C122.53 73.37 122.593 73.0933 122.593 72.74V72.19H122.843V72.76ZM127.56 72.81C127.56 72.87 127.527 72.9667 127.46 73.1C127.4 73.2267 127.31 73.37 127.19 73.53C127.07 73.6833 126.893 73.82 126.66 73.94C126.427 74.0533 126.17 74.11 125.89 74.11C125.303 74.11 124.79 73.89 124.35 73.45C123.91 73.0033 123.69 72.4533 123.69 71.8C123.69 71.1733 123.89 70.6367 124.29 70.19C124.697 69.7433 125.19 69.52 125.77 69.52C126.357 69.52 126.8 69.71 127.1 70.09C127.407 70.47 127.56 70.9333 127.56 71.48C127.56 71.58 127.547 71.64 127.52 71.66C127.493 71.68 127.423 71.69 127.31 71.69H124.52C124.52 72.37 124.62 72.87 124.82 73.19C125.1 73.6367 125.477 73.86 125.95 73.86C126.017 73.86 126.087 73.8533 126.16 73.84C126.24 73.8267 126.36 73.7933 126.52 73.74C126.68 73.68 126.83 73.5733 126.97 73.42C127.11 73.2667 127.22 73.07 127.3 72.83C127.32 72.7367 127.363 72.69 127.43 72.69C127.517 72.69 127.56 72.73 127.56 72.81ZM126.9 71.48C126.9 71.34 126.887 71.1933 126.86 71.04C126.84 70.88 126.793 70.6933 126.72 70.48C126.653 70.26 126.537 70.0833 126.37 69.95C126.21 69.81 126.01 69.74 125.77 69.74C125.663 69.74 125.55 69.7633 125.43 69.81C125.317 69.8567 125.19 69.9367 125.05 70.05C124.91 70.1567 124.79 70.3367 124.69 70.59C124.597 70.8367 124.543 71.1333 124.53 71.48H126.9ZM133.064 71.84C133.064 72.4733 132.844 73.01 132.404 73.45C131.964 73.89 131.44 74.11 130.834 74.11C130.5 74.11 130.22 74.0267 129.994 73.86C129.774 73.6867 129.644 73.5367 129.604 73.41V73.5V75.18C129.604 75.3933 129.644 75.52 129.724 75.56C129.81 75.6067 130.03 75.63 130.384 75.63V75.94L129.254 75.91L128.134 75.94V75.63C128.487 75.63 128.704 75.6067 128.784 75.56C128.87 75.52 128.914 75.3933 128.914 75.18V70.5C128.914 70.28 128.87 70.1433 128.784 70.09C128.704 70.03 128.487 70 128.134 70V69.69L129.574 69.58V70.24C129.974 69.8 130.44 69.58 130.974 69.58C131.54 69.58 132.03 69.8 132.444 70.24C132.857 70.68 133.064 71.2133 133.064 71.84ZM132.234 71.84C132.234 71.28 132.1 70.8067 131.834 70.42C131.574 70.0267 131.26 69.83 130.894 69.83C130.634 69.83 130.39 69.9 130.164 70.04C129.937 70.18 129.75 70.3767 129.604 70.63V72.86C129.604 72.96 129.61 73.03 129.624 73.07C129.637 73.1033 129.677 73.1733 129.744 73.28C130.01 73.6867 130.36 73.89 130.794 73.89C131.174 73.89 131.507 73.6967 131.794 73.31C132.087 72.9167 132.234 72.4267 132.234 71.84ZM140.89 72.81C140.89 72.87 140.857 72.9667 140.79 73.1C140.73 73.2267 140.64 73.37 140.52 73.53C140.4 73.6833 140.224 73.82 139.99 73.94C139.757 74.0533 139.5 74.11 139.22 74.11C138.634 74.11 138.12 73.89 137.68 73.45C137.24 73.0033 137.02 72.4533 137.02 71.8C137.02 71.1733 137.22 70.6367 137.62 70.19C138.027 69.7433 138.52 69.52 139.1 69.52C139.687 69.52 140.13 69.71 140.43 70.09C140.737 70.47 140.89 70.9333 140.89 71.48C140.89 71.58 140.877 71.64 140.85 71.66C140.824 71.68 140.754 71.69 140.64 71.69H137.85C137.85 72.37 137.95 72.87 138.15 73.19C138.43 73.6367 138.807 73.86 139.28 73.86C139.347 73.86 139.417 73.8533 139.49 73.84C139.57 73.8267 139.69 73.7933 139.85 73.74C140.01 73.68 140.16 73.5733 140.3 73.42C140.44 73.2667 140.55 73.07 140.63 72.83C140.65 72.7367 140.694 72.69 140.76 72.69C140.847 72.69 140.89 72.73 140.89 72.81ZM140.23 71.48C140.23 71.34 140.217 71.1933 140.19 71.04C140.17 70.88 140.124 70.6933 140.05 70.48C139.984 70.26 139.867 70.0833 139.7 69.95C139.54 69.81 139.34 69.74 139.1 69.74C138.994 69.74 138.88 69.7633 138.76 69.81C138.647 69.8567 138.52 69.9367 138.38 70.05C138.24 70.1567 138.12 70.3367 138.02 70.59C137.927 70.8367 137.874 71.1333 137.86 71.48H140.23ZM146.454 75.94L145.324 75.91L144.204 75.94V75.63C144.557 75.63 144.774 75.6067 144.854 75.56C144.94 75.52 144.984 75.3933 144.984 75.18V73.39C144.617 73.87 144.174 74.11 143.654 74.11C143.074 74.11 142.574 73.89 142.154 73.45C141.734 73.0033 141.524 72.47 141.524 71.85C141.524 71.21 141.744 70.6733 142.184 70.24C142.624 69.8 143.14 69.58 143.734 69.58C143.98 69.58 144.204 69.64 144.404 69.76C144.61 69.88 144.757 70 144.844 70.12C144.937 70.24 145.014 70.3633 145.074 70.49L145.454 69.58H145.674V75.18C145.674 75.3933 145.714 75.52 145.794 75.56C145.88 75.6067 146.1 75.63 146.454 75.63V75.94ZM145.014 72.64V71.23C145.014 70.9167 144.9 70.6067 144.674 70.3C144.454 69.9867 144.16 69.83 143.794 69.83C143.414 69.83 143.077 70.0233 142.784 70.41C142.497 70.79 142.354 71.27 142.354 71.85C142.354 72.4233 142.484 72.9067 142.744 73.3C143.01 73.6933 143.327 73.89 143.694 73.89C144.054 73.89 144.36 73.7533 144.614 73.48C144.88 73.1867 145.014 72.9067 145.014 72.64ZM151.817 74L150.377 74.11V73.21C150.097 73.81 149.667 74.11 149.087 74.11C148.793 74.11 148.547 74.0733 148.347 74C148.147 73.9267 147.997 73.8433 147.897 73.75C147.797 73.6567 147.72 73.52 147.667 73.34C147.613 73.16 147.583 73.0167 147.577 72.91C147.57 72.7967 147.567 72.6333 147.567 72.42V70.92C147.567 70.4667 147.533 70.2 147.467 70.12C147.4 70.04 147.173 70 146.787 70V69.69L148.257 69.58V72.9C148.257 73.06 148.263 73.1867 148.277 73.28C148.29 73.3733 148.323 73.4733 148.377 73.58C148.43 73.6867 148.52 73.7667 148.647 73.82C148.773 73.8667 148.937 73.89 149.137 73.89C149.497 73.89 149.787 73.7433 150.007 73.45C150.233 73.15 150.347 72.78 150.347 72.34V70.56C150.347 70.3133 150.303 70.16 150.217 70.1C150.13 70.0333 149.913 70 149.567 70V69.69L151.037 69.58V73.13C151.037 73.3767 151.08 73.5333 151.167 73.6C151.253 73.66 151.47 73.69 151.817 73.69V74ZM156.853 73.11C156.853 73.4633 156.76 73.71 156.573 73.85C156.387 73.99 156.207 74.06 156.033 74.06C155.813 74.06 155.633 73.98 155.493 73.82C155.353 73.6533 155.273 73.46 155.253 73.24C155.153 73.4933 154.987 73.7033 154.753 73.87C154.527 74.03 154.257 74.11 153.943 74.11C153.703 74.11 153.47 74.08 153.243 74.02C153.017 73.96 152.81 73.8467 152.623 73.68C152.437 73.5133 152.343 73.3033 152.343 73.05C152.343 72.4833 152.677 72.05 153.343 71.75C153.743 71.5567 154.357 71.4367 155.183 71.39V71.02C155.183 70.6067 155.073 70.29 154.853 70.07C154.64 69.85 154.397 69.74 154.123 69.74C153.637 69.74 153.277 69.8933 153.043 70.2C153.243 70.2067 153.377 70.26 153.443 70.36C153.517 70.46 153.553 70.56 153.553 70.66C153.553 70.7933 153.51 70.9033 153.423 70.99C153.343 71.0767 153.233 71.12 153.093 71.12C152.96 71.12 152.85 71.08 152.763 71C152.677 70.9133 152.633 70.7967 152.633 70.65C152.633 70.3233 152.78 70.0533 153.073 69.84C153.367 69.6267 153.723 69.52 154.143 69.52C154.69 69.52 155.147 69.7033 155.513 70.07C155.627 70.1833 155.71 70.3133 155.763 70.46C155.823 70.6067 155.857 70.73 155.863 70.83C155.87 70.9233 155.873 71.0633 155.873 71.25V73.25C155.873 73.29 155.88 73.3433 155.893 73.41C155.907 73.47 155.943 73.5433 156.003 73.63C156.063 73.71 156.143 73.75 156.243 73.75C156.483 73.75 156.603 73.5367 156.603 73.11V72.55H156.853V73.11ZM155.183 72.6V71.6C154.443 71.6267 153.913 71.7867 153.593 72.08C153.273 72.3733 153.113 72.6933 153.113 73.04C153.113 73.2867 153.2 73.49 153.373 73.65C153.553 73.81 153.767 73.89 154.013 73.89C154.293 73.89 154.557 73.7833 154.803 73.57C155.057 73.35 155.183 73.0267 155.183 72.6ZM160.343 72.76C160.343 73.12 160.26 73.4367 160.093 73.71C159.927 73.9767 159.68 74.11 159.353 74.11C159.233 74.11 159.113 74.0933 158.993 74.06C158.873 74.0333 158.737 73.98 158.583 73.9C158.43 73.82 158.303 73.6833 158.203 73.49C158.11 73.29 158.063 73.0467 158.063 72.76V70H157.213V69.78C157.52 69.7667 157.773 69.6533 157.973 69.44C158.18 69.22 158.317 68.9767 158.383 68.71C158.457 68.4433 158.497 68.1567 158.503 67.85H158.753V69.69H160.183V70H158.753V72.78C158.753 73.5 158.977 73.86 159.423 73.86C159.617 73.86 159.777 73.7633 159.903 73.57C160.03 73.37 160.093 73.0933 160.093 72.74V72.19H160.343V72.76ZM163.38 74C162.7 73.98 162.353 73.97 162.34 73.97L161.24 74V73.69C161.593 73.69 161.81 73.67 161.89 73.63C161.977 73.5833 162.02 73.4533 162.02 73.24V70.55C162.02 70.3033 161.977 70.15 161.89 70.09C161.81 70.03 161.607 70 161.28 70V69.69L162.68 69.58V73.25C162.68 73.45 162.713 73.5733 162.78 73.62C162.853 73.6667 163.053 73.69 163.38 73.69V74ZM162.83 67.96C162.83 68.0933 162.78 68.2167 162.68 68.33C162.58 68.4367 162.45 68.49 162.29 68.49C162.143 68.49 162.017 68.4367 161.91 68.33C161.81 68.2233 161.76 68.1 161.76 67.96C161.76 67.8267 161.81 67.7067 161.91 67.6C162.01 67.4867 162.14 67.43 162.3 67.43C162.447 67.43 162.57 67.4833 162.67 67.59C162.777 67.6967 162.83 67.82 162.83 67.96ZM168.403 71.86C168.403 72.4867 168.183 73.02 167.743 73.46C167.31 73.8933 166.79 74.11 166.183 74.11C165.59 74.11 165.073 73.8933 164.633 73.46C164.193 73.0267 163.973 72.4933 163.973 71.86C163.973 71.2267 164.187 70.68 164.613 70.22C165.047 69.7533 165.573 69.52 166.193 69.52C166.8 69.52 167.32 69.75 167.753 70.21C168.187 70.67 168.403 71.22 168.403 71.86ZM167.573 71.78C167.573 71.14 167.487 70.6767 167.313 70.39C167.053 69.9567 166.677 69.74 166.183 69.74C165.97 69.74 165.757 69.7967 165.543 69.91C165.337 70.0233 165.17 70.19 165.043 70.41C164.883 70.7033 164.803 71.16 164.803 71.78C164.803 72.4267 164.887 72.8967 165.053 73.19C165.313 73.6367 165.693 73.86 166.193 73.86C166.44 73.86 166.667 73.7933 166.873 73.66C167.08 73.5267 167.24 73.3467 167.353 73.12C167.5 72.8267 167.573 72.38 167.573 71.78ZM174.043 74L172.923 73.97L171.793 74V73.69C172.147 73.69 172.363 73.67 172.443 73.63C172.53 73.5833 172.573 73.4533 172.573 73.24V70.91C172.573 70.57 172.52 70.3 172.413 70.1C172.313 69.9 172.12 69.8 171.833 69.8C171.487 69.8 171.173 69.9467 170.893 70.24C170.62 70.5267 170.483 70.9133 170.483 71.4V73.24C170.483 73.4533 170.523 73.5833 170.603 73.63C170.69 73.67 170.91 73.69 171.263 73.69V74L170.143 73.97L169.013 74V73.69C169.367 73.69 169.583 73.67 169.663 73.63C169.75 73.5833 169.793 73.4533 169.793 73.24V70.56C169.793 70.3133 169.75 70.16 169.663 70.1C169.577 70.0333 169.36 70 169.013 70V69.69L170.423 69.58V70.63C170.737 69.93 171.23 69.58 171.903 69.58C172.403 69.58 172.753 69.7033 172.953 69.95C173.1 70.1167 173.187 70.2933 173.213 70.48C173.247 70.6667 173.263 71 173.263 71.48V73.39C173.27 73.53 173.327 73.6167 173.433 73.65C173.54 73.6767 173.743 73.69 174.043 73.69V74ZM177.85 72.72C177.85 73.1133 177.717 73.4433 177.45 73.71C177.183 73.9767 176.78 74.11 176.24 74.11C175.807 74.11 175.44 73.9667 175.14 73.68C175.1 73.72 175.063 73.7567 175.03 73.79C175.003 73.8233 174.983 73.8467 174.97 73.86C174.963 73.8733 174.957 73.8833 174.95 73.89C174.95 73.8967 174.947 73.9033 174.94 73.91C174.807 74.0433 174.723 74.11 174.69 74.11C174.637 74.11 174.603 74.0933 174.59 74.06C174.583 74.0333 174.58 73.97 174.58 73.87V72.55C174.58 72.4767 174.58 72.4267 174.58 72.4C174.587 72.3733 174.6 72.35 174.62 72.33C174.64 72.31 174.67 72.3 174.71 72.3C174.757 72.3 174.787 72.31 174.8 72.33C174.82 72.35 174.837 72.3967 174.85 72.47C174.95 72.93 175.107 73.2833 175.32 73.53C175.54 73.77 175.847 73.89 176.24 73.89C176.613 73.89 176.893 73.8067 177.08 73.64C177.273 73.4733 177.37 73.2533 177.37 72.98C177.37 72.4933 177.023 72.1867 176.33 72.06C175.93 71.98 175.647 71.9133 175.48 71.86C175.313 71.8067 175.157 71.72 175.01 71.6C174.723 71.3667 174.58 71.0833 174.58 70.75C174.58 70.4167 174.707 70.13 174.96 69.89C175.213 69.6433 175.62 69.52 176.18 69.52C176.553 69.52 176.867 69.6133 177.12 69.8C177.193 69.74 177.25 69.6867 177.29 69.64C177.377 69.56 177.443 69.52 177.49 69.52C177.543 69.52 177.573 69.5367 177.58 69.57C177.593 69.6033 177.6 69.6667 177.6 69.76V70.77C177.6 70.8433 177.597 70.8933 177.59 70.92C177.59 70.9467 177.58 70.97 177.56 70.99C177.54 71.0033 177.51 71.01 177.47 71.01C177.397 71.01 177.357 70.98 177.35 70.92C177.297 70.1133 176.907 69.71 176.18 69.71C175.787 69.71 175.5 69.7867 175.32 69.94C175.147 70.0867 175.06 70.2633 175.06 70.47C175.06 70.5833 175.087 70.6833 175.14 70.77C175.193 70.8567 175.253 70.9267 175.32 70.98C175.393 71.0267 175.493 71.0733 175.62 71.12C175.753 71.1667 175.86 71.2 175.94 71.22C176.02 71.2333 176.137 71.2567 176.29 71.29C176.823 71.39 177.203 71.55 177.43 71.77C177.71 72.05 177.85 72.3667 177.85 72.72ZM179.966 69.16C180.059 69.2667 180.106 69.39 180.106 69.53C180.106 69.67 180.059 69.7933 179.966 69.9C179.872 70.0067 179.742 70.06 179.576 70.06C179.369 70.06 179.206 69.9633 179.086 69.77C178.966 69.57 178.906 69.3167 178.906 69.01C178.906 68.6567 178.979 68.32 179.126 68C179.272 67.68 179.416 67.4467 179.556 67.3C179.696 67.1467 179.792 67.07 179.846 67.07C179.912 67.07 179.946 67.1067 179.946 67.18C179.946 67.2133 179.906 67.27 179.826 67.35C179.359 67.81 179.126 68.3633 179.126 69.01L179.146 69.19C179.159 69.1833 179.169 69.1733 179.176 69.16C179.282 69.0533 179.416 69 179.576 69C179.742 69 179.872 69.0533 179.966 69.16ZM181.906 69.16C181.999 69.2667 182.046 69.39 182.046 69.53C182.046 69.67 181.999 69.7933 181.906 69.9C181.812 70.0067 181.682 70.06 181.516 70.06C181.309 70.06 181.146 69.9633 181.026 69.77C180.906 69.57 180.846 69.3167 180.846 69.01C180.846 68.6567 180.919 68.32 181.066 68C181.212 67.68 181.356 67.4467 181.496 67.3C181.636 67.1467 181.732 67.07 181.786 67.07C181.852 67.07 181.886 67.1067 181.886 67.18C181.886 67.2133 181.846 67.27 181.766 67.35C181.299 67.81 181.066 68.3633 181.066 69.01L181.086 69.19C181.099 69.1833 181.109 69.1733 181.116 69.16C181.222 69.0533 181.356 69 181.516 69C181.682 69 181.812 69.0533 181.906 69.16Z" fill="black"/>
<circle cx="54.5" cy="54.5" r="29" fill="#E7E7E7" stroke="black"/>
<path d="M46.1286 36.464C46.1286 36.936 45.9686 37.332 45.6486 37.652C45.3286 37.972 44.8446 38.132 44.1966 38.132C43.6766 38.132 43.2366 37.96 42.8766 37.616C42.8286 37.664 42.7846 37.708 42.7446 37.748C42.7126 37.788 42.6886 37.816 42.6726 37.832C42.6646 37.848 42.6566 37.86 42.6486 37.868C42.6486 37.876 42.6446 37.884 42.6366 37.892C42.4766 38.052 42.3766 38.132 42.3366 38.132C42.2726 38.132 42.2326 38.112 42.2166 38.072C42.2086 38.04 42.2046 37.964 42.2046 37.844V36.26C42.2046 36.172 42.2046 36.112 42.2046 36.08C42.2126 36.048 42.2286 36.02 42.2526 35.996C42.2766 35.972 42.3126 35.96 42.3606 35.96C42.4166 35.96 42.4526 35.972 42.4686 35.996C42.4926 36.02 42.5126 36.076 42.5286 36.164C42.6486 36.716 42.8366 37.14 43.0926 37.436C43.3566 37.724 43.7246 37.868 44.1966 37.868C44.6446 37.868 44.9806 37.768 45.2046 37.568C45.4366 37.368 45.5526 37.104 45.5526 36.776C45.5526 36.192 45.1366 35.824 44.3046 35.672C43.8246 35.576 43.4846 35.496 43.2846 35.432C43.0846 35.368 42.8966 35.264 42.7206 35.12C42.3766 34.84 42.2046 34.5 42.2046 34.1C42.2046 33.7 42.3566 33.356 42.6606 33.068C42.9646 32.772 43.4526 32.624 44.1246 32.624C44.5726 32.624 44.9486 32.736 45.2526 32.96C45.3406 32.888 45.4086 32.824 45.4566 32.768C45.5606 32.672 45.6406 32.624 45.6966 32.624C45.7606 32.624 45.7966 32.644 45.8046 32.684C45.8206 32.724 45.8286 32.8 45.8286 32.912V34.124C45.8286 34.212 45.8246 34.272 45.8166 34.304C45.8166 34.336 45.8046 34.364 45.7806 34.388C45.7566 34.404 45.7206 34.412 45.6726 34.412C45.5846 34.412 45.5366 34.376 45.5286 34.304C45.4646 33.336 44.9966 32.852 44.1246 32.852C43.6526 32.852 43.3086 32.944 43.0926 33.128C42.8846 33.304 42.7806 33.516 42.7806 33.764C42.7806 33.9 42.8126 34.02 42.8766 34.124C42.9406 34.228 43.0126 34.312 43.0926 34.376C43.1806 34.432 43.3006 34.488 43.4526 34.544C43.6126 34.6 43.7406 34.64 43.8366 34.664C43.9326 34.68 44.0726 34.708 44.2566 34.748C44.8966 34.868 45.3526 35.06 45.6246 35.324C45.9606 35.66 46.1286 36.04 46.1286 36.464ZM50.5153 36.512C50.5153 36.944 50.4153 37.324 50.2153 37.652C50.0153 37.972 49.7193 38.132 49.3273 38.132C49.1833 38.132 49.0393 38.112 48.8953 38.072C48.7513 38.04 48.5873 37.976 48.4033 37.88C48.2193 37.784 48.0673 37.62 47.9473 37.388C47.8353 37.148 47.7793 36.856 47.7793 36.512V33.2H46.7593V32.936C47.1273 32.92 47.4313 32.784 47.6713 32.528C47.9193 32.264 48.0833 31.972 48.1633 31.652C48.2513 31.332 48.2993 30.988 48.3073 30.62H48.6073V32.828H50.3233V33.2H48.6073V36.536C48.6073 37.4 48.8753 37.832 49.4113 37.832C49.6433 37.832 49.8353 37.716 49.9873 37.484C50.1393 37.244 50.2153 36.912 50.2153 36.488V35.828H50.5153V36.512ZM56.9913 36.932C56.9913 37.356 56.8793 37.652 56.6553 37.82C56.4313 37.988 56.2153 38.072 56.0073 38.072C55.7433 38.072 55.5273 37.976 55.3593 37.784C55.1913 37.584 55.0953 37.352 55.0713 37.088C54.9513 37.392 54.7513 37.644 54.4713 37.844C54.1993 38.036 53.8753 38.132 53.4993 38.132C53.2113 38.132 52.9313 38.096 52.6593 38.024C52.3873 37.952 52.1393 37.816 51.9153 37.616C51.6913 37.416 51.5793 37.164 51.5793 36.86C51.5793 36.18 51.9793 35.66 52.7793 35.3C53.2593 35.068 53.9953 34.924 54.9873 34.868V34.424C54.9873 33.928 54.8553 33.548 54.5913 33.284C54.3353 33.02 54.0433 32.888 53.7153 32.888C53.1313 32.888 52.6993 33.072 52.4193 33.44C52.6593 33.448 52.8193 33.512 52.8993 33.632C52.9873 33.752 53.0313 33.872 53.0313 33.992C53.0313 34.152 52.9793 34.284 52.8753 34.388C52.7793 34.492 52.6473 34.544 52.4793 34.544C52.3193 34.544 52.1873 34.496 52.0833 34.4C51.9793 34.296 51.9273 34.156 51.9273 33.98C51.9273 33.588 52.1033 33.264 52.4553 33.008C52.8073 32.752 53.2353 32.624 53.7393 32.624C54.3953 32.624 54.9433 32.844 55.3833 33.284C55.5193 33.42 55.6193 33.576 55.6833 33.752C55.7553 33.928 55.7953 34.076 55.8033 34.196C55.8113 34.308 55.8153 34.476 55.8153 34.7V37.1C55.8153 37.148 55.8233 37.212 55.8393 37.292C55.8553 37.364 55.8993 37.452 55.9713 37.556C56.0433 37.652 56.1393 37.7 56.2593 37.7C56.5473 37.7 56.6913 37.444 56.6913 36.932V36.26H56.9913V36.932ZM54.9873 36.32V35.12C54.0993 35.152 53.4633 35.344 53.0793 35.696C52.6953 36.048 52.5033 36.432 52.5033 36.848C52.5033 37.144 52.6073 37.388 52.8153 37.58C53.0313 37.772 53.2873 37.868 53.5833 37.868C53.9193 37.868 54.2353 37.74 54.5313 37.484C54.8353 37.22 54.9873 36.832 54.9873 36.32ZM61.1793 36.512C61.1793 36.944 61.0793 37.324 60.8793 37.652C60.6793 37.972 60.3833 38.132 59.9913 38.132C59.8473 38.132 59.7033 38.112 59.5593 38.072C59.4153 38.04 59.2513 37.976 59.0673 37.88C58.8833 37.784 58.7313 37.62 58.6113 37.388C58.4993 37.148 58.4433 36.856 58.4433 36.512V33.2H57.4233V32.936C57.7913 32.92 58.0953 32.784 58.3353 32.528C58.5833 32.264 58.7473 31.972 58.8273 31.652C58.9153 31.332 58.9633 30.988 58.9713 30.62H59.2713V32.828H60.9873V33.2H59.2713V36.536C59.2713 37.4 59.5393 37.832 60.0753 37.832C60.3073 37.832 60.4993 37.716 60.6513 37.484C60.8033 37.244 60.8793 36.912 60.8793 36.488V35.828H61.1793V36.512ZM66.8394 36.572C66.8394 36.644 66.7994 36.76 66.7194 36.92C66.6474 37.072 66.5394 37.244 66.3954 37.436C66.2514 37.62 66.0394 37.784 65.7594 37.928C65.4794 38.064 65.1714 38.132 64.8354 38.132C64.1314 38.132 63.5154 37.868 62.9874 37.34C62.4594 36.804 62.1954 36.144 62.1954 35.36C62.1954 34.608 62.4354 33.964 62.9154 33.428C63.4034 32.892 63.9954 32.624 64.6914 32.624C65.3954 32.624 65.9274 32.852 66.2874 33.308C66.6554 33.764 66.8394 34.32 66.8394 34.976C66.8394 35.096 66.8234 35.168 66.7914 35.192C66.7594 35.216 66.6754 35.228 66.5394 35.228H63.1914C63.1914 36.044 63.3114 36.644 63.5514 37.028C63.8874 37.564 64.3394 37.832 64.9074 37.832C64.9874 37.832 65.0714 37.824 65.1594 37.808C65.2554 37.792 65.3994 37.752 65.5914 37.688C65.7834 37.616 65.9634 37.488 66.1314 37.304C66.2994 37.12 66.4314 36.884 66.5274 36.596C66.5514 36.484 66.6034 36.428 66.6834 36.428C66.7874 36.428 66.8394 36.476 66.8394 36.572ZM66.0474 34.976C66.0474 34.808 66.0314 34.632 65.9994 34.448C65.9754 34.256 65.9194 34.032 65.8314 33.776C65.7514 33.512 65.6114 33.3 65.4114 33.14C65.2194 32.972 64.9794 32.888 64.6914 32.888C64.5634 32.888 64.4274 32.916 64.2834 32.972C64.1474 33.028 63.9954 33.124 63.8274 33.26C63.6594 33.388 63.5154 33.604 63.3954 33.908C63.2834 34.204 63.2194 34.56 63.2034 34.976H66.0474ZM40.5737 50.4C40.5737 50.4667 40.5403 50.5 40.4737 50.5C40.427 50.5 40.3237 50.4333 40.1637 50.3C40.0037 50.1667 39.8003 49.9467 39.5537 49.64C39.307 49.3333 39.0937 48.9933 38.9137 48.62C38.4737 47.7133 38.2537 46.6733 38.2537 45.5C38.2537 44.3733 38.4637 43.3567 38.8837 42.45C39.0637 42.07 39.277 41.72 39.5237 41.4C39.777 41.08 39.987 40.85 40.1537 40.71C40.3203 40.57 40.427 40.5 40.4737 40.5C40.5403 40.5 40.5737 40.5333 40.5737 40.6C40.5737 40.6333 40.5303 40.69 40.4437 40.77C39.3703 41.8633 38.8337 43.44 38.8337 45.5C38.8337 47.5667 39.357 49.1267 40.4037 50.18C40.517 50.2933 40.5737 50.3667 40.5737 50.4ZM46.3604 45.84C46.3604 46.4733 46.1404 47.01 45.7004 47.45C45.2604 47.89 44.7371 48.11 44.1304 48.11C43.5771 48.11 43.1404 47.8667 42.8204 47.38L42.4604 48H42.2104V42.04C42.2104 41.7933 42.1671 41.64 42.0804 41.58C41.9937 41.5133 41.7771 41.48 41.4304 41.48V41.17L42.8704 41.06V44.23C43.2571 43.7967 43.7137 43.58 44.2404 43.58C44.8137 43.58 45.3104 43.8 45.7304 44.24C46.1504 44.68 46.3604 45.2133 46.3604 45.84ZM45.5304 45.83C45.5304 45.21 45.4337 44.7467 45.2404 44.44C44.9737 44.0133 44.6237 43.8 44.1904 43.8C43.7037 43.8 43.3104 44.0133 43.0104 44.44C42.9371 44.5467 42.9004 44.6667 42.9004 44.8V46.86C42.9004 47 42.9471 47.14 43.0404 47.28C43.3071 47.6867 43.6571 47.89 44.0904 47.89C44.5571 47.89 44.9337 47.6767 45.2204 47.25C45.4271 46.93 45.5304 46.4567 45.5304 45.83ZM51.1402 46.81C51.1402 46.87 51.1069 46.9667 51.0402 47.1C50.9802 47.2267 50.8902 47.37 50.7702 47.53C50.6502 47.6833 50.4736 47.82 50.2402 47.94C50.0069 48.0533 49.7502 48.11 49.4702 48.11C48.8836 48.11 48.3702 47.89 47.9302 47.45C47.4902 47.0033 47.2702 46.4533 47.2702 45.8C47.2702 45.1733 47.4702 44.6367 47.8702 44.19C48.2769 43.7433 48.7702 43.52 49.3502 43.52C49.9369 43.52 50.3802 43.71 50.6802 44.09C50.9869 44.47 51.1402 44.9333 51.1402 45.48C51.1402 45.58 51.1269 45.64 51.1002 45.66C51.0736 45.68 51.0036 45.69 50.8902 45.69H48.1002C48.1002 46.37 48.2002 46.87 48.4002 47.19C48.6802 47.6367 49.0569 47.86 49.5302 47.86C49.5969 47.86 49.6669 47.8533 49.7402 47.84C49.8202 47.8267 49.9402 47.7933 50.1002 47.74C50.2602 47.68 50.4102 47.5733 50.5502 47.42C50.6902 47.2667 50.8002 47.07 50.8802 46.83C50.9002 46.7367 50.9436 46.69 51.0102 46.69C51.0969 46.69 51.1402 46.73 51.1402 46.81ZM50.4802 45.48C50.4802 45.34 50.4669 45.1933 50.4402 45.04C50.4202 44.88 50.3736 44.6933 50.3002 44.48C50.2336 44.26 50.1169 44.0833 49.9502 43.95C49.7902 43.81 49.5902 43.74 49.3502 43.74C49.2436 43.74 49.1302 43.7633 49.0102 43.81C48.8969 43.8567 48.7702 43.9367 48.6302 44.05C48.4902 44.1567 48.3702 44.3367 48.2702 44.59C48.1769 44.8367 48.1236 45.1333 48.1102 45.48H50.4802ZM55.0036 41.65C55.0036 41.7767 54.9636 41.8833 54.8836 41.97C54.8103 42.05 54.7036 42.09 54.5636 42.09C54.4303 42.09 54.3236 42.05 54.2436 41.97C54.1703 41.8833 54.1336 41.78 54.1336 41.66C54.1336 41.4467 54.2336 41.3067 54.4336 41.24C54.3336 41.1933 54.2236 41.17 54.1036 41.17C53.8636 41.17 53.6503 41.2933 53.4636 41.54C53.2769 41.7867 53.1836 42.1167 53.1836 42.53V43.69H54.3536V44H53.2136V47.22C53.2136 47.4133 53.2536 47.54 53.3336 47.6C53.4136 47.66 53.6269 47.69 53.9736 47.69H54.1836V48C53.9169 47.98 53.4936 47.97 52.9136 47.97L51.7736 48V47.69C52.1269 47.69 52.3436 47.67 52.4236 47.63C52.5103 47.5833 52.5536 47.4533 52.5536 47.24V44H51.7636V43.69H52.5536V42.54C52.5536 42.0467 52.7136 41.66 53.0336 41.38C53.3536 41.0933 53.7103 40.95 54.1036 40.95C54.3636 40.95 54.5769 41.02 54.7436 41.16C54.9169 41.3 55.0036 41.4633 55.0036 41.65ZM59.2002 45.86C59.2002 46.4867 58.9802 47.02 58.5402 47.46C58.1069 47.8933 57.5869 48.11 56.9802 48.11C56.3869 48.11 55.8702 47.8933 55.4302 47.46C54.9902 47.0267 54.7702 46.4933 54.7702 45.86C54.7702 45.2267 54.9836 44.68 55.4102 44.22C55.8436 43.7533 56.3702 43.52 56.9902 43.52C57.5969 43.52 58.1169 43.75 58.5502 44.21C58.9836 44.67 59.2002 45.22 59.2002 45.86ZM58.3702 45.78C58.3702 45.14 58.2836 44.6767 58.1102 44.39C57.8502 43.9567 57.4736 43.74 56.9802 43.74C56.7669 43.74 56.5536 43.7967 56.3402 43.91C56.1336 44.0233 55.9669 44.19 55.8402 44.41C55.6802 44.7033 55.6002 45.16 55.6002 45.78C55.6002 46.4267 55.6836 46.8967 55.8502 47.19C56.1102 47.6367 56.4902 47.86 56.9902 47.86C57.2369 47.86 57.4636 47.7933 57.6702 47.66C57.8769 47.5267 58.0369 47.3467 58.1502 47.12C58.2969 46.8267 58.3702 46.38 58.3702 45.78ZM63.1302 44.19C63.1302 44.3367 63.0836 44.4467 62.9902 44.52C62.9036 44.5933 62.8069 44.63 62.7002 44.63C62.5802 44.63 62.4769 44.5933 62.3902 44.52C62.3102 44.44 62.2702 44.3333 62.2702 44.2C62.2702 44.12 62.2869 44.05 62.3202 43.99C62.3602 43.9233 62.3936 43.88 62.4202 43.86C62.4536 43.8333 62.4802 43.8167 62.5002 43.81C62.4869 43.8033 62.4502 43.8 62.3902 43.8C62.0236 43.8 61.7336 43.9833 61.5202 44.35C61.3136 44.7167 61.2102 45.16 61.2102 45.68V47.22C61.2102 47.4133 61.2502 47.54 61.3302 47.6C61.4102 47.66 61.6236 47.69 61.9702 47.69H62.1802V48C61.9136 47.98 61.4902 47.97 60.9102 47.97L59.7702 48V47.69C60.1236 47.69 60.3402 47.67 60.4202 47.63C60.5069 47.5833 60.5502 47.4533 60.5502 47.24V44.56C60.5502 44.3133 60.5069 44.16 60.4202 44.1C60.3336 44.0333 60.1169 44 59.7702 44V43.69L61.1602 43.58V44.68C61.2536 44.3933 61.4002 44.14 61.6002 43.92C61.8002 43.6933 62.0636 43.58 62.3902 43.58C62.6036 43.58 62.7802 43.64 62.9202 43.76C63.0602 43.88 63.1302 44.0233 63.1302 44.19ZM67.5563 46.81C67.5563 46.87 67.5229 46.9667 67.4563 47.1C67.3963 47.2267 67.3063 47.37 67.1863 47.53C67.0663 47.6833 66.8896 47.82 66.6563 47.94C66.4229 48.0533 66.1663 48.11 65.8863 48.11C65.2996 48.11 64.7863 47.89 64.3463 47.45C63.9063 47.0033 63.6863 46.4533 63.6863 45.8C63.6863 45.1733 63.8863 44.6367 64.2863 44.19C64.6929 43.7433 65.1863 43.52 65.7663 43.52C66.3529 43.52 66.7963 43.71 67.0963 44.09C67.4029 44.47 67.5563 44.9333 67.5563 45.48C67.5563 45.58 67.5429 45.64 67.5163 45.66C67.4896 45.68 67.4196 45.69 67.3063 45.69H64.5163C64.5163 46.37 64.6163 46.87 64.8163 47.19C65.0963 47.6367 65.4729 47.86 65.9463 47.86C66.0129 47.86 66.0829 47.8533 66.1563 47.84C66.2363 47.8267 66.3563 47.7933 66.5163 47.74C66.6763 47.68 66.8263 47.5733 66.9663 47.42C67.1063 47.2667 67.2163 47.07 67.2963 46.83C67.3163 46.7367 67.3596 46.69 67.4263 46.69C67.5129 46.69 67.5563 46.73 67.5563 46.81ZM66.8963 45.48C66.8963 45.34 66.8829 45.1933 66.8563 45.04C66.8363 44.88 66.7896 44.6933 66.7163 44.48C66.6496 44.26 66.5329 44.0833 66.3663 43.95C66.2063 43.81 66.0063 43.74 65.7663 43.74C65.6596 43.74 65.5463 43.7633 65.4263 43.81C65.3129 43.8567 65.1863 43.9367 65.0463 44.05C64.9063 44.1567 64.7863 44.3367 64.6863 44.59C64.5929 44.8367 64.5396 45.1333 64.5263 45.48H66.8963ZM70.7396 45.5C70.7396 46.6267 70.5296 47.6433 70.1096 48.55C69.9296 48.93 69.7129 49.28 69.4596 49.6C69.2129 49.92 69.0063 50.15 68.8396 50.29C68.6729 50.43 68.5663 50.5 68.5196 50.5C68.4529 50.5 68.4196 50.4667 68.4196 50.4C68.4196 50.3667 68.4629 50.31 68.5496 50.23C69.6229 49.1367 70.1596 47.56 70.1596 45.5C70.1596 43.4333 69.6429 41.8767 68.6096 40.83C68.4829 40.71 68.4196 40.6333 68.4196 40.6C68.4196 40.5333 68.4529 40.5 68.5196 40.5C68.5663 40.5 68.6696 40.5667 68.8296 40.7C68.9896 40.8333 69.1929 41.0533 69.4396 41.36C69.6863 41.6667 69.8996 42.0067 70.0796 42.38C70.5196 43.2867 70.7396 44.3267 70.7396 45.5Z" fill="black"/>
<path d="M46.688 57.104C46.52 57 46.316 56.948 46.076 56.948C45.812 56.948 45.58 57.064 45.38 57.296C45.18 57.52 45.032 57.82 44.936 58.196L44.516 59.828C44.356 60.492 44.276 60.908 44.276 61.076C44.276 61.324 44.332 61.52 44.444 61.664C44.556 61.808 44.716 61.88 44.924 61.88C45.22 61.88 45.516 61.748 45.812 61.484C46.108 61.212 46.332 60.828 46.484 60.332C46.524 60.228 46.576 60.176 46.64 60.176C46.72 60.176 46.76 60.212 46.76 60.284C46.76 60.364 46.716 60.5 46.628 60.692C46.548 60.876 46.432 61.08 46.28 61.304C46.136 61.52 45.936 61.712 45.68 61.88C45.432 62.04 45.168 62.12 44.888 62.12C44.624 62.12 44.372 62.044 44.132 61.892C43.9 61.74 43.74 61.5 43.652 61.172C43.332 61.804 42.92 62.12 42.416 62.12C42.128 62.12 41.876 62.056 41.66 61.928C41.444 61.8 41.336 61.62 41.336 61.388C41.336 61.204 41.396 61.052 41.516 60.932C41.644 60.812 41.784 60.752 41.936 60.752C42.056 60.752 42.152 60.788 42.224 60.86C42.304 60.924 42.344 61.016 42.344 61.136C42.344 61.24 42.304 61.356 42.224 61.484C42.144 61.604 42.008 61.684 41.816 61.724C41.984 61.828 42.188 61.88 42.428 61.88C42.972 61.88 43.36 61.42 43.592 60.5L44 58.856C44.144 58.28 44.216 57.908 44.216 57.74C44.216 57.54 44.168 57.36 44.072 57.2C43.976 57.032 43.808 56.948 43.568 56.948C43.416 56.948 43.256 56.984 43.088 57.056C42.928 57.12 42.74 57.28 42.524 57.536C42.308 57.792 42.136 58.124 42.008 58.532C41.968 58.612 41.92 58.652 41.864 58.652C41.776 58.652 41.732 58.616 41.732 58.544C41.732 58.464 41.772 58.332 41.852 58.148C41.94 57.956 42.056 57.752 42.2 57.536C42.352 57.312 42.552 57.12 42.8 56.96C43.056 56.792 43.324 56.708 43.604 56.708C44.236 56.708 44.648 57.024 44.84 57.656C44.896 57.536 44.964 57.416 45.044 57.296C45.132 57.176 45.272 57.048 45.464 56.912C45.656 56.776 45.864 56.708 46.088 56.708C46.368 56.708 46.616 56.772 46.832 56.9C47.056 57.028 47.168 57.208 47.168 57.44C47.168 57.608 47.108 57.756 46.988 57.884C46.876 58.012 46.732 58.076 46.556 58.076C46.452 58.076 46.36 58.044 46.28 57.98C46.2 57.916 46.16 57.82 46.16 57.692C46.16 57.564 46.204 57.444 46.292 57.332C46.38 57.212 46.512 57.136 46.688 57.104Z" fill="black"/>
<path d="M61.156 63.344C61.292 63.16 61.404 62.964 61.492 62.756C61.588 62.556 61.656 62.384 61.696 62.24C61.744 62.096 61.804 61.876 61.876 61.58L61.864 61.568C61.512 61.936 61.112 62.12 60.664 62.12C60.288 62.12 59.956 62.016 59.668 61.808C59.388 61.592 59.248 61.228 59.248 60.716C59.248 60.26 59.444 59.508 59.836 58.46C60.044 57.932 60.148 57.56 60.148 57.344C60.148 57.224 60.128 57.132 60.088 57.068C60.048 57.004 60.008 56.968 59.968 56.96C59.936 56.952 59.892 56.948 59.836 56.948C59.596 56.948 59.368 57.076 59.152 57.332C58.936 57.58 58.76 57.948 58.624 58.436C58.6 58.532 58.576 58.592 58.552 58.616C58.536 58.64 58.504 58.652 58.456 58.652C58.368 58.652 58.324 58.616 58.324 58.544C58.324 58.496 58.352 58.384 58.408 58.208C58.472 58.032 58.56 57.828 58.672 57.596C58.792 57.364 58.956 57.16 59.164 56.984C59.38 56.8 59.616 56.708 59.872 56.708C60.152 56.708 60.38 56.804 60.556 56.996C60.732 57.18 60.82 57.404 60.82 57.668C60.82 57.812 60.752 58.064 60.616 58.424C60.184 59.576 59.968 60.4 59.968 60.896C59.968 61.552 60.212 61.88 60.7 61.88C61.156 61.88 61.56 61.632 61.912 61.136C61.968 61.056 62.02 60.932 62.068 60.764L62.956 57.236C63.028 56.964 63.18 56.828 63.412 56.828C63.5 56.828 63.576 56.856 63.64 56.912C63.704 56.968 63.736 57.04 63.736 57.128C63.736 57.144 63.724 57.212 63.7 57.332L62.524 62.012C62.356 62.684 62.004 63.256 61.468 63.728C60.94 64.208 60.376 64.448 59.776 64.448C59.432 64.448 59.144 64.352 58.912 64.16C58.688 63.968 58.576 63.72 58.576 63.416C58.576 63.16 58.644 62.972 58.78 62.852C58.916 62.74 59.052 62.684 59.188 62.684C59.292 62.684 59.384 62.712 59.464 62.768C59.552 62.832 59.596 62.928 59.596 63.056C59.596 63.2 59.536 63.332 59.416 63.452C59.304 63.58 59.164 63.644 58.996 63.644C58.94 63.644 58.9 63.64 58.876 63.632C59.004 64.016 59.304 64.208 59.776 64.208C60.288 64.208 60.748 63.92 61.156 63.344Z" fill="black"/>
<path d="M46.484 68.512C46.484 68.68 46.456 68.928 46.4 69.256C46.344 69.584 46.248 69.976 46.112 70.432C45.976 70.88 45.808 71.304 45.608 71.704C45.416 72.096 45.16 72.432 44.84 72.712C44.528 72.984 44.184 73.12 43.808 73.12C43.336 73.12 42.956 72.996 42.668 72.748C42.396 72.5 42.26 72.136 42.26 71.656C42.26 71.216 42.452 70.484 42.836 69.46C43.044 68.932 43.148 68.56 43.148 68.344C43.148 68.224 43.128 68.132 43.088 68.068C43.048 68.004 43.008 67.968 42.968 67.96C42.936 67.952 42.892 67.948 42.836 67.948C42.596 67.948 42.368 68.072 42.152 68.32C41.936 68.568 41.76 68.94 41.624 69.436C41.6 69.532 41.576 69.592 41.552 69.616C41.536 69.64 41.504 69.652 41.456 69.652C41.368 69.652 41.324 69.616 41.324 69.544C41.324 69.496 41.352 69.384 41.408 69.208C41.472 69.032 41.56 68.828 41.672 68.596C41.792 68.364 41.956 68.16 42.164 67.984C42.38 67.8 42.616 67.708 42.872 67.708C43.152 67.708 43.38 67.804 43.556 67.996C43.732 68.18 43.82 68.404 43.82 68.668C43.82 68.828 43.74 69.112 43.58 69.52C43.18 70.584 42.98 71.352 42.98 71.824C42.98 72.528 43.272 72.88 43.856 72.88C44.192 72.88 44.504 72.736 44.792 72.448C45.088 72.152 45.316 71.808 45.476 71.416C45.644 71.016 45.776 70.648 45.872 70.312C45.968 69.968 46.016 69.72 46.016 69.568C46.016 69.12 45.872 68.768 45.584 68.512C45.496 68.424 45.452 68.332 45.452 68.236C45.452 68.116 45.508 68 45.62 67.888C45.74 67.768 45.868 67.708 46.004 67.708C46.06 67.708 46.116 67.72 46.172 67.744C46.236 67.768 46.304 67.848 46.376 67.984C46.448 68.112 46.484 68.288 46.484 68.512Z" fill="black"/>
<path d="M48.792 71.736C48.68 71.6667 48.544 71.632 48.384 71.632C48.208 71.632 48.0533 71.7093 47.92 71.864C47.7867 72.0133 47.688 72.2133 47.624 72.464L47.344 73.552C47.2373 73.9947 47.184 74.272 47.184 74.384C47.184 74.5493 47.2213 74.68 47.296 74.776C47.3707 74.872 47.4773 74.92 47.616 74.92C47.8133 74.92 48.0107 74.832 48.208 74.656C48.4053 74.4747 48.5547 74.2187 48.656 73.888C48.6827 73.8187 48.7173 73.784 48.76 73.784C48.8133 73.784 48.84 73.808 48.84 73.856C48.84 73.9093 48.8107 74 48.752 74.128C48.6987 74.2507 48.6213 74.3867 48.52 74.536C48.424 74.68 48.2907 74.808 48.12 74.92C47.9547 75.0267 47.7787 75.08 47.592 75.08C47.416 75.08 47.248 75.0293 47.088 74.928C46.9333 74.8267 46.8267 74.6667 46.768 74.448C46.5547 74.8693 46.28 75.08 45.944 75.08C45.752 75.08 45.584 75.0373 45.44 74.952C45.296 74.8667 45.224 74.7467 45.224 74.592C45.224 74.4693 45.264 74.368 45.344 74.288C45.4293 74.208 45.5227 74.168 45.624 74.168C45.704 74.168 45.768 74.192 45.816 74.24C45.8693 74.2827 45.896 74.344 45.896 74.424C45.896 74.4933 45.8693 74.5707 45.816 74.656C45.7627 74.736 45.672 74.7893 45.544 74.816C45.656 74.8853 45.792 74.92 45.952 74.92C46.3147 74.92 46.5733 74.6133 46.728 74L47 72.904C47.096 72.52 47.144 72.272 47.144 72.16C47.144 72.0267 47.112 71.9067 47.048 71.8C46.984 71.688 46.872 71.632 46.712 71.632C46.6107 71.632 46.504 71.656 46.392 71.704C46.2853 71.7467 46.16 71.8533 46.016 72.024C45.872 72.1947 45.7573 72.416 45.672 72.688C45.6453 72.7413 45.6133 72.768 45.576 72.768C45.5173 72.768 45.488 72.744 45.488 72.696C45.488 72.6427 45.5147 72.5547 45.568 72.432C45.6267 72.304 45.704 72.168 45.8 72.024C45.9013 71.8747 46.0347 71.7467 46.2 71.64C46.3707 71.528 46.5493 71.472 46.736 71.472C47.1573 71.472 47.432 71.6827 47.56 72.104C47.5973 72.024 47.6427 71.944 47.696 71.864C47.7547 71.784 47.848 71.6987 47.976 71.608C48.104 71.5173 48.2427 71.472 48.392 71.472C48.5787 71.472 48.744 71.5147 48.888 71.6C49.0373 71.6853 49.112 71.8053 49.112 71.96C49.112 72.072 49.072 72.1707 48.992 72.256C48.9173 72.3413 48.8213 72.384 48.704 72.384C48.6347 72.384 48.5733 72.3627 48.52 72.32C48.4667 72.2773 48.44 72.2133 48.44 72.128C48.44 72.0427 48.4693 71.9627 48.528 71.888C48.5867 71.808 48.6747 71.7573 48.792 71.736Z" fill="black"/>
<path d="M63.484 68.512C63.484 68.68 63.456 68.928 63.4 69.256C63.344 69.584 63.248 69.976 63.112 70.432C62.976 70.88 62.808 71.304 62.608 71.704C62.416 72.096 62.16 72.432 61.84 72.712C61.528 72.984 61.184 73.12 60.808 73.12C60.336 73.12 59.956 72.996 59.668 72.748C59.396 72.5 59.26 72.136 59.26 71.656C59.26 71.216 59.452 70.484 59.836 69.46C60.044 68.932 60.148 68.56 60.148 68.344C60.148 68.224 60.128 68.132 60.088 68.068C60.048 68.004 60.008 67.968 59.968 67.96C59.936 67.952 59.892 67.948 59.836 67.948C59.596 67.948 59.368 68.072 59.152 68.32C58.936 68.568 58.76 68.94 58.624 69.436C58.6 69.532 58.576 69.592 58.552 69.616C58.536 69.64 58.504 69.652 58.456 69.652C58.368 69.652 58.324 69.616 58.324 69.544C58.324 69.496 58.352 69.384 58.408 69.208C58.472 69.032 58.56 68.828 58.672 68.596C58.792 68.364 58.956 68.16 59.164 67.984C59.38 67.8 59.616 67.708 59.872 67.708C60.152 67.708 60.38 67.804 60.556 67.996C60.732 68.18 60.82 68.404 60.82 68.668C60.82 68.828 60.74 69.112 60.58 69.52C60.18 70.584 59.98 71.352 59.98 71.824C59.98 72.528 60.272 72.88 60.856 72.88C61.192 72.88 61.504 72.736 61.792 72.448C62.088 72.152 62.316 71.808 62.476 71.416C62.644 71.016 62.776 70.648 62.872 70.312C62.968 69.968 63.016 69.72 63.016 69.568C63.016 69.12 62.872 68.768 62.584 68.512C62.496 68.424 62.452 68.332 62.452 68.236C62.452 68.116 62.508 68 62.62 67.888C62.74 67.768 62.868 67.708 63.004 67.708C63.06 67.708 63.116 67.72 63.172 67.744C63.236 67.768 63.304 67.848 63.376 67.984C63.448 68.112 63.484 68.288 63.484 68.512Z" fill="black"/>
<path d="M65.104 75.896C65.1947 75.7733 65.2693 75.6427 65.328 75.504C65.392 75.3707 65.4373 75.256 65.464 75.16C65.496 75.064 65.536 74.9173 65.584 74.72L65.576 74.712C65.3413 74.9573 65.0747 75.08 64.776 75.08C64.5253 75.08 64.304 75.0107 64.112 74.872C63.9253 74.728 63.832 74.4853 63.832 74.144C63.832 73.84 63.9627 73.3387 64.224 72.64C64.3627 72.288 64.432 72.04 64.432 71.896C64.432 71.816 64.4187 71.7547 64.392 71.712C64.3653 71.6693 64.3387 71.6453 64.312 71.64C64.2907 71.6347 64.2613 71.632 64.224 71.632C64.064 71.632 63.912 71.7173 63.768 71.888C63.624 72.0533 63.5067 72.2987 63.416 72.624C63.4 72.688 63.384 72.728 63.368 72.744C63.3573 72.76 63.336 72.768 63.304 72.768C63.2453 72.768 63.216 72.744 63.216 72.696C63.216 72.664 63.2347 72.5893 63.272 72.472C63.3147 72.3547 63.3733 72.2187 63.448 72.064C63.528 71.9093 63.6373 71.7733 63.776 71.656C63.92 71.5333 64.0773 71.472 64.248 71.472C64.4347 71.472 64.5867 71.536 64.704 71.664C64.8213 71.7867 64.88 71.936 64.88 72.112C64.88 72.208 64.8347 72.376 64.744 72.616C64.456 73.384 64.312 73.9333 64.312 74.264C64.312 74.7013 64.4747 74.92 64.8 74.92C65.104 74.92 65.3733 74.7547 65.608 74.424C65.6453 74.3707 65.68 74.288 65.712 74.176L66.304 71.824C66.352 71.6427 66.4533 71.552 66.608 71.552C66.6667 71.552 66.7173 71.5707 66.76 71.608C66.8027 71.6453 66.824 71.6933 66.824 71.752C66.824 71.7627 66.816 71.808 66.8 71.888L66.016 75.008C65.904 75.456 65.6693 75.8373 65.312 76.152C64.96 76.472 64.584 76.632 64.184 76.632C63.9547 76.632 63.7627 76.568 63.608 76.44C63.4587 76.312 63.384 76.1467 63.384 75.944C63.384 75.7733 63.4293 75.648 63.52 75.568C63.6107 75.4933 63.7013 75.456 63.792 75.456C63.8613 75.456 63.9227 75.4747 63.976 75.512C64.0347 75.5547 64.064 75.6187 64.064 75.704C64.064 75.8 64.024 75.888 63.944 75.968C63.8693 76.0533 63.776 76.096 63.664 76.096C63.6267 76.096 63.6 76.0933 63.584 76.088C63.6693 76.344 63.8693 76.472 64.184 76.472C64.5253 76.472 64.832 76.28 65.104 75.896Z" fill="black"/>
<circle cx="220.5" cy="54.5" r="29" fill="#E7E7E7" stroke="black"/>
<path d="M213.129 35.464C213.129 35.936 212.969 36.332 212.649 36.652C212.329 36.972 211.845 37.132 211.197 37.132C210.677 37.132 210.237 36.96 209.877 36.616C209.829 36.664 209.785 36.708 209.745 36.748C209.713 36.788 209.689 36.816 209.673 36.832C209.665 36.848 209.657 36.86 209.649 36.868C209.649 36.876 209.645 36.884 209.637 36.892C209.477 37.052 209.377 37.132 209.337 37.132C209.273 37.132 209.233 37.112 209.217 37.072C209.209 37.04 209.205 36.964 209.205 36.844V35.26C209.205 35.172 209.205 35.112 209.205 35.08C209.213 35.048 209.229 35.02 209.253 34.996C209.277 34.972 209.313 34.96 209.361 34.96C209.417 34.96 209.453 34.972 209.469 34.996C209.493 35.02 209.513 35.076 209.529 35.164C209.649 35.716 209.837 36.14 210.093 36.436C210.357 36.724 210.725 36.868 211.197 36.868C211.645 36.868 211.981 36.768 212.205 36.568C212.437 36.368 212.553 36.104 212.553 35.776C212.553 35.192 212.137 34.824 211.305 34.672C210.825 34.576 210.485 34.496 210.285 34.432C210.085 34.368 209.897 34.264 209.721 34.12C209.377 33.84 209.205 33.5 209.205 33.1C209.205 32.7 209.357 32.356 209.661 32.068C209.965 31.772 210.453 31.624 211.125 31.624C211.573 31.624 211.949 31.736 212.253 31.96C212.341 31.888 212.409 31.824 212.457 31.768C212.561 31.672 212.641 31.624 212.697 31.624C212.761 31.624 212.797 31.644 212.805 31.684C212.821 31.724 212.829 31.8 212.829 31.912V33.124C212.829 33.212 212.825 33.272 212.817 33.304C212.817 33.336 212.805 33.364 212.781 33.388C212.757 33.404 212.721 33.412 212.673 33.412C212.585 33.412 212.537 33.376 212.529 33.304C212.465 32.336 211.997 31.852 211.125 31.852C210.653 31.852 210.309 31.944 210.093 32.128C209.885 32.304 209.781 32.516 209.781 32.764C209.781 32.9 209.813 33.02 209.877 33.124C209.941 33.228 210.013 33.312 210.093 33.376C210.181 33.432 210.301 33.488 210.453 33.544C210.613 33.6 210.741 33.64 210.837 33.664C210.933 33.68 211.073 33.708 211.257 33.748C211.897 33.868 212.353 34.06 212.625 34.324C212.961 34.66 213.129 35.04 213.129 35.464ZM217.515 35.512C217.515 35.944 217.415 36.324 217.215 36.652C217.015 36.972 216.719 37.132 216.327 37.132C216.183 37.132 216.039 37.112 215.895 37.072C215.751 37.04 215.587 36.976 215.403 36.88C215.219 36.784 215.067 36.62 214.947 36.388C214.835 36.148 214.779 35.856 214.779 35.512V32.2H213.759V31.936C214.127 31.92 214.431 31.784 214.671 31.528C214.919 31.264 215.083 30.972 215.163 30.652C215.251 30.332 215.299 29.988 215.307 29.62H215.607V31.828H217.323V32.2H215.607V35.536C215.607 36.4 215.875 36.832 216.411 36.832C216.643 36.832 216.835 36.716 216.987 36.484C217.139 36.244 217.215 35.912 217.215 35.488V34.828H217.515V35.512ZM223.991 35.932C223.991 36.356 223.879 36.652 223.655 36.82C223.431 36.988 223.215 37.072 223.007 37.072C222.743 37.072 222.527 36.976 222.359 36.784C222.191 36.584 222.095 36.352 222.071 36.088C221.951 36.392 221.751 36.644 221.471 36.844C221.199 37.036 220.875 37.132 220.499 37.132C220.211 37.132 219.931 37.096 219.659 37.024C219.387 36.952 219.139 36.816 218.915 36.616C218.691 36.416 218.579 36.164 218.579 35.86C218.579 35.18 218.979 34.66 219.779 34.3C220.259 34.068 220.995 33.924 221.987 33.868V33.424C221.987 32.928 221.855 32.548 221.591 32.284C221.335 32.02 221.043 31.888 220.715 31.888C220.131 31.888 219.699 32.072 219.419 32.44C219.659 32.448 219.819 32.512 219.899 32.632C219.987 32.752 220.031 32.872 220.031 32.992C220.031 33.152 219.979 33.284 219.875 33.388C219.779 33.492 219.647 33.544 219.479 33.544C219.319 33.544 219.187 33.496 219.083 33.4C218.979 33.296 218.927 33.156 218.927 32.98C218.927 32.588 219.103 32.264 219.455 32.008C219.807 31.752 220.235 31.624 220.739 31.624C221.395 31.624 221.943 31.844 222.383 32.284C222.519 32.42 222.619 32.576 222.683 32.752C222.755 32.928 222.795 33.076 222.803 33.196C222.811 33.308 222.815 33.476 222.815 33.7V36.1C222.815 36.148 222.823 36.212 222.839 36.292C222.855 36.364 222.899 36.452 222.971 36.556C223.043 36.652 223.139 36.7 223.259 36.7C223.547 36.7 223.691 36.444 223.691 35.932V35.26H223.991V35.932ZM221.987 35.32V34.12C221.099 34.152 220.463 34.344 220.079 34.696C219.695 35.048 219.503 35.432 219.503 35.848C219.503 36.144 219.607 36.388 219.815 36.58C220.031 36.772 220.287 36.868 220.583 36.868C220.919 36.868 221.235 36.74 221.531 36.484C221.835 36.22 221.987 35.832 221.987 35.32ZM228.179 35.512C228.179 35.944 228.079 36.324 227.879 36.652C227.679 36.972 227.383 37.132 226.991 37.132C226.847 37.132 226.703 37.112 226.559 37.072C226.415 37.04 226.251 36.976 226.067 36.88C225.883 36.784 225.731 36.62 225.611 36.388C225.499 36.148 225.443 35.856 225.443 35.512V32.2H224.423V31.936C224.791 31.92 225.095 31.784 225.335 31.528C225.583 31.264 225.747 30.972 225.827 30.652C225.915 30.332 225.963 29.988 225.971 29.62H226.271V31.828H227.987V32.2H226.271V35.536C226.271 36.4 226.539 36.832 227.075 36.832C227.307 36.832 227.499 36.716 227.651 36.484C227.803 36.244 227.879 35.912 227.879 35.488V34.828H228.179V35.512ZM233.839 35.572C233.839 35.644 233.799 35.76 233.719 35.92C233.647 36.072 233.539 36.244 233.395 36.436C233.251 36.62 233.039 36.784 232.759 36.928C232.479 37.064 232.171 37.132 231.835 37.132C231.131 37.132 230.515 36.868 229.987 36.34C229.459 35.804 229.195 35.144 229.195 34.36C229.195 33.608 229.435 32.964 229.915 32.428C230.403 31.892 230.995 31.624 231.691 31.624C232.395 31.624 232.927 31.852 233.287 32.308C233.655 32.764 233.839 33.32 233.839 33.976C233.839 34.096 233.823 34.168 233.791 34.192C233.759 34.216 233.675 34.228 233.539 34.228H230.191C230.191 35.044 230.311 35.644 230.551 36.028C230.887 36.564 231.339 36.832 231.907 36.832C231.987 36.832 232.071 36.824 232.159 36.808C232.255 36.792 232.399 36.752 232.591 36.688C232.783 36.616 232.963 36.488 233.131 36.304C233.299 36.12 233.431 35.884 233.527 35.596C233.551 35.484 233.603 35.428 233.683 35.428C233.787 35.428 233.839 35.476 233.839 35.572ZM233.047 33.976C233.047 33.808 233.031 33.632 232.999 33.448C232.975 33.256 232.919 33.032 232.831 32.776C232.751 32.512 232.611 32.3 232.411 32.14C232.219 31.972 231.979 31.888 231.691 31.888C231.563 31.888 231.427 31.916 231.283 31.972C231.147 32.028 230.995 32.124 230.827 32.26C230.659 32.388 230.515 32.604 230.395 32.908C230.283 33.204 230.219 33.56 230.203 33.976H233.047ZM210.772 49.4C210.772 49.4667 210.739 49.5 210.672 49.5C210.625 49.5 210.522 49.4333 210.362 49.3C210.202 49.1667 209.999 48.9467 209.752 48.64C209.505 48.3333 209.292 47.9933 209.112 47.62C208.672 46.7133 208.452 45.6733 208.452 44.5C208.452 43.3733 208.662 42.3567 209.082 41.45C209.262 41.07 209.475 40.72 209.722 40.4C209.975 40.08 210.185 39.85 210.352 39.71C210.519 39.57 210.625 39.5 210.672 39.5C210.739 39.5 210.772 39.5333 210.772 39.6C210.772 39.6333 210.729 39.69 210.642 39.77C209.569 40.8633 209.032 42.44 209.032 44.5C209.032 46.5667 209.555 48.1267 210.602 49.18C210.715 49.2933 210.772 49.3667 210.772 49.4ZM216.179 46.11C216.179 46.4633 216.085 46.71 215.899 46.85C215.712 46.99 215.532 47.06 215.359 47.06C215.139 47.06 214.959 46.98 214.819 46.82C214.679 46.6533 214.599 46.46 214.579 46.24C214.479 46.4933 214.312 46.7033 214.079 46.87C213.852 47.03 213.582 47.11 213.269 47.11C213.029 47.11 212.795 47.08 212.569 47.02C212.342 46.96 212.135 46.8467 211.949 46.68C211.762 46.5133 211.669 46.3033 211.669 46.05C211.669 45.4833 212.002 45.05 212.669 44.75C213.069 44.5567 213.682 44.4367 214.509 44.39V44.02C214.509 43.6067 214.399 43.29 214.179 43.07C213.965 42.85 213.722 42.74 213.449 42.74C212.962 42.74 212.602 42.8933 212.369 43.2C212.569 43.2067 212.702 43.26 212.769 43.36C212.842 43.46 212.879 43.56 212.879 43.66C212.879 43.7933 212.835 43.9033 212.749 43.99C212.669 44.0767 212.559 44.12 212.419 44.12C212.285 44.12 212.175 44.08 212.089 44C212.002 43.9133 211.959 43.7967 211.959 43.65C211.959 43.3233 212.105 43.0533 212.399 42.84C212.692 42.6267 213.049 42.52 213.469 42.52C214.015 42.52 214.472 42.7033 214.839 43.07C214.952 43.1833 215.035 43.3133 215.089 43.46C215.149 43.6067 215.182 43.73 215.189 43.83C215.195 43.9233 215.199 44.0633 215.199 44.25V46.25C215.199 46.29 215.205 46.3433 215.219 46.41C215.232 46.47 215.269 46.5433 215.329 46.63C215.389 46.71 215.469 46.75 215.569 46.75C215.809 46.75 215.929 46.5367 215.929 46.11V45.55H216.179V46.11ZM214.509 45.6V44.6C213.769 44.6267 213.239 44.7867 212.919 45.08C212.599 45.3733 212.439 45.6933 212.439 46.04C212.439 46.2867 212.525 46.49 212.699 46.65C212.879 46.81 213.092 46.89 213.339 46.89C213.619 46.89 213.882 46.7833 214.129 46.57C214.382 46.35 214.509 46.0267 214.509 45.6ZM219.919 40.65C219.919 40.7767 219.879 40.8833 219.799 40.97C219.725 41.05 219.619 41.09 219.479 41.09C219.345 41.09 219.239 41.05 219.159 40.97C219.085 40.8833 219.049 40.78 219.049 40.66C219.049 40.4467 219.149 40.3067 219.349 40.24C219.249 40.1933 219.139 40.17 219.019 40.17C218.779 40.17 218.565 40.2933 218.379 40.54C218.192 40.7867 218.099 41.1167 218.099 41.53V42.69H219.269V43H218.129V46.22C218.129 46.4133 218.169 46.54 218.249 46.6C218.329 46.66 218.542 46.69 218.889 46.69H219.099V47C218.832 46.98 218.409 46.97 217.829 46.97L216.689 47V46.69C217.042 46.69 217.259 46.67 217.339 46.63C217.425 46.5833 217.469 46.4533 217.469 46.24V43H216.679V42.69H217.469V41.54C217.469 41.0467 217.629 40.66 217.949 40.38C218.269 40.0933 218.625 39.95 219.019 39.95C219.279 39.95 219.492 40.02 219.659 40.16C219.832 40.3 219.919 40.4633 219.919 40.65ZM222.725 45.76C222.725 46.12 222.642 46.4367 222.475 46.71C222.309 46.9767 222.062 47.11 221.735 47.11C221.615 47.11 221.495 47.0933 221.375 47.06C221.255 47.0333 221.119 46.98 220.965 46.9C220.812 46.82 220.685 46.6833 220.585 46.49C220.492 46.29 220.445 46.0467 220.445 45.76V43H219.595V42.78C219.902 42.7667 220.155 42.6533 220.355 42.44C220.562 42.22 220.699 41.9767 220.765 41.71C220.839 41.4433 220.879 41.1567 220.885 40.85H221.135V42.69H222.565V43H221.135V45.78C221.135 46.5 221.359 46.86 221.805 46.86C221.999 46.86 222.159 46.7633 222.285 46.57C222.412 46.37 222.475 46.0933 222.475 45.74V45.19H222.725V45.76ZM227.442 45.81C227.442 45.87 227.409 45.9667 227.342 46.1C227.282 46.2267 227.192 46.37 227.072 46.53C226.952 46.6833 226.775 46.82 226.542 46.94C226.309 47.0533 226.052 47.11 225.772 47.11C225.185 47.11 224.672 46.89 224.232 46.45C223.792 46.0033 223.572 45.4533 223.572 44.8C223.572 44.1733 223.772 43.6367 224.172 43.19C224.579 42.7433 225.072 42.52 225.652 42.52C226.239 42.52 226.682 42.71 226.982 43.09C227.289 43.47 227.442 43.9333 227.442 44.48C227.442 44.58 227.429 44.64 227.402 44.66C227.375 44.68 227.305 44.69 227.192 44.69H224.402C224.402 45.37 224.502 45.87 224.702 46.19C224.982 46.6367 225.359 46.86 225.832 46.86C225.899 46.86 225.969 46.8533 226.042 46.84C226.122 46.8267 226.242 46.7933 226.402 46.74C226.562 46.68 226.712 46.5733 226.852 46.42C226.992 46.2667 227.102 46.07 227.182 45.83C227.202 45.7367 227.245 45.69 227.312 45.69C227.399 45.69 227.442 45.73 227.442 45.81ZM226.782 44.48C226.782 44.34 226.769 44.1933 226.742 44.04C226.722 43.88 226.675 43.6933 226.602 43.48C226.535 43.26 226.419 43.0833 226.252 42.95C226.092 42.81 225.892 42.74 225.652 42.74C225.545 42.74 225.432 42.7633 225.312 42.81C225.199 42.8567 225.072 42.9367 224.932 43.05C224.792 43.1567 224.672 43.3367 224.572 43.59C224.479 43.8367 224.425 44.1333 224.412 44.48H226.782ZM231.375 43.19C231.375 43.3367 231.329 43.4467 231.235 43.52C231.149 43.5933 231.052 43.63 230.945 43.63C230.825 43.63 230.722 43.5933 230.635 43.52C230.555 43.44 230.515 43.3333 230.515 43.2C230.515 43.12 230.532 43.05 230.565 42.99C230.605 42.9233 230.639 42.88 230.665 42.86C230.699 42.8333 230.725 42.8167 230.745 42.81C230.732 42.8033 230.695 42.8 230.635 42.8C230.269 42.8 229.979 42.9833 229.765 43.35C229.559 43.7167 229.455 44.16 229.455 44.68V46.22C229.455 46.4133 229.495 46.54 229.575 46.6C229.655 46.66 229.869 46.69 230.215 46.69H230.425V47C230.159 46.98 229.735 46.97 229.155 46.97L228.015 47V46.69C228.369 46.69 228.585 46.67 228.665 46.63C228.752 46.5833 228.795 46.4533 228.795 46.24V43.56C228.795 43.3133 228.752 43.16 228.665 43.1C228.579 43.0333 228.362 43 228.015 43V42.69L229.405 42.58V43.68C229.499 43.3933 229.645 43.14 229.845 42.92C230.045 42.6933 230.309 42.58 230.635 42.58C230.849 42.58 231.025 42.64 231.165 42.76C231.305 42.88 231.375 43.0233 231.375 43.19ZM234.541 44.5C234.541 45.6267 234.331 46.6433 233.911 47.55C233.731 47.93 233.515 48.28 233.261 48.6C233.015 48.92 232.808 49.15 232.641 49.29C232.475 49.43 232.368 49.5 232.321 49.5C232.255 49.5 232.221 49.4667 232.221 49.4C232.221 49.3667 232.265 49.31 232.351 49.23C233.425 48.1367 233.961 46.56 233.961 44.5C233.961 42.4333 233.445 40.8767 232.411 39.83C232.285 39.71 232.221 39.6333 232.221 39.6C232.221 39.5333 232.255 39.5 232.321 39.5C232.368 39.5 232.471 39.5667 232.631 39.7C232.791 39.8333 232.995 40.0533 233.241 40.36C233.488 40.6667 233.701 41.0067 233.881 41.38C234.321 42.2867 234.541 43.3267 234.541 44.5Z" fill="black"/>
<path d="M213.688 56.104C213.52 56 213.316 55.948 213.076 55.948C212.812 55.948 212.58 56.064 212.38 56.296C212.18 56.52 212.032 56.82 211.936 57.196L211.516 58.828C211.356 59.492 211.276 59.908 211.276 60.076C211.276 60.324 211.332 60.52 211.444 60.664C211.556 60.808 211.716 60.88 211.924 60.88C212.22 60.88 212.516 60.748 212.812 60.484C213.108 60.212 213.332 59.828 213.484 59.332C213.524 59.228 213.576 59.176 213.64 59.176C213.72 59.176 213.76 59.212 213.76 59.284C213.76 59.364 213.716 59.5 213.628 59.692C213.548 59.876 213.432 60.08 213.28 60.304C213.136 60.52 212.936 60.712 212.68 60.88C212.432 61.04 212.168 61.12 211.888 61.12C211.624 61.12 211.372 61.044 211.132 60.892C210.9 60.74 210.74 60.5 210.652 60.172C210.332 60.804 209.92 61.12 209.416 61.12C209.128 61.12 208.876 61.056 208.66 60.928C208.444 60.8 208.336 60.62 208.336 60.388C208.336 60.204 208.396 60.052 208.516 59.932C208.644 59.812 208.784 59.752 208.936 59.752C209.056 59.752 209.152 59.788 209.224 59.86C209.304 59.924 209.344 60.016 209.344 60.136C209.344 60.24 209.304 60.356 209.224 60.484C209.144 60.604 209.008 60.684 208.816 60.724C208.984 60.828 209.188 60.88 209.428 60.88C209.972 60.88 210.36 60.42 210.592 59.5L211 57.856C211.144 57.28 211.216 56.908 211.216 56.74C211.216 56.54 211.168 56.36 211.072 56.2C210.976 56.032 210.808 55.948 210.568 55.948C210.416 55.948 210.256 55.984 210.088 56.056C209.928 56.12 209.74 56.28 209.524 56.536C209.308 56.792 209.136 57.124 209.008 57.532C208.968 57.612 208.92 57.652 208.864 57.652C208.776 57.652 208.732 57.616 208.732 57.544C208.732 57.464 208.772 57.332 208.852 57.148C208.94 56.956 209.056 56.752 209.2 56.536C209.352 56.312 209.552 56.12 209.8 55.96C210.056 55.792 210.324 55.708 210.604 55.708C211.236 55.708 211.648 56.024 211.84 56.656C211.896 56.536 211.964 56.416 212.044 56.296C212.132 56.176 212.272 56.048 212.464 55.912C212.656 55.776 212.864 55.708 213.088 55.708C213.368 55.708 213.616 55.772 213.832 55.9C214.056 56.028 214.168 56.208 214.168 56.44C214.168 56.608 214.108 56.756 213.988 56.884C213.876 57.012 213.732 57.076 213.556 57.076C213.452 57.076 213.36 57.044 213.28 56.98C213.2 56.916 213.16 56.82 213.16 56.692C213.16 56.564 213.204 56.444 213.292 56.332C213.38 56.212 213.512 56.136 213.688 56.104Z" fill="black"/>
<path d="M228.156 62.344C228.292 62.16 228.404 61.964 228.492 61.756C228.588 61.556 228.656 61.384 228.696 61.24C228.744 61.096 228.804 60.876 228.876 60.58L228.864 60.568C228.512 60.936 228.112 61.12 227.664 61.12C227.288 61.12 226.956 61.016 226.668 60.808C226.388 60.592 226.248 60.228 226.248 59.716C226.248 59.26 226.444 58.508 226.836 57.46C227.044 56.932 227.148 56.56 227.148 56.344C227.148 56.224 227.128 56.132 227.088 56.068C227.048 56.004 227.008 55.968 226.968 55.96C226.936 55.952 226.892 55.948 226.836 55.948C226.596 55.948 226.368 56.076 226.152 56.332C225.936 56.58 225.76 56.948 225.624 57.436C225.6 57.532 225.576 57.592 225.552 57.616C225.536 57.64 225.504 57.652 225.456 57.652C225.368 57.652 225.324 57.616 225.324 57.544C225.324 57.496 225.352 57.384 225.408 57.208C225.472 57.032 225.56 56.828 225.672 56.596C225.792 56.364 225.956 56.16 226.164 55.984C226.38 55.8 226.616 55.708 226.872 55.708C227.152 55.708 227.38 55.804 227.556 55.996C227.732 56.18 227.82 56.404 227.82 56.668C227.82 56.812 227.752 57.064 227.616 57.424C227.184 58.576 226.968 59.4 226.968 59.896C226.968 60.552 227.212 60.88 227.7 60.88C228.156 60.88 228.56 60.632 228.912 60.136C228.968 60.056 229.02 59.932 229.068 59.764L229.956 56.236C230.028 55.964 230.18 55.828 230.412 55.828C230.5 55.828 230.576 55.856 230.64 55.912C230.704 55.968 230.736 56.04 230.736 56.128C230.736 56.144 230.724 56.212 230.7 56.332L229.524 61.012C229.356 61.684 229.004 62.256 228.468 62.728C227.94 63.208 227.376 63.448 226.776 63.448C226.432 63.448 226.144 63.352 225.912 63.16C225.688 62.968 225.576 62.72 225.576 62.416C225.576 62.16 225.644 61.972 225.78 61.852C225.916 61.74 226.052 61.684 226.188 61.684C226.292 61.684 226.384 61.712 226.464 61.768C226.552 61.832 226.596 61.928 226.596 62.056C226.596 62.2 226.536 62.332 226.416 62.452C226.304 62.58 226.164 62.644 225.996 62.644C225.94 62.644 225.9 62.64 225.876 62.632C226.004 63.016 226.304 63.208 226.776 63.208C227.288 63.208 227.748 62.92 228.156 62.344Z" fill="black"/>
<path d="M213.484 69.512C213.484 69.68 213.456 69.928 213.4 70.256C213.344 70.584 213.248 70.976 213.112 71.432C212.976 71.88 212.808 72.304 212.608 72.704C212.416 73.096 212.16 73.432 211.84 73.712C211.528 73.984 211.184 74.12 210.808 74.12C210.336 74.12 209.956 73.996 209.668 73.748C209.396 73.5 209.26 73.136 209.26 72.656C209.26 72.216 209.452 71.484 209.836 70.46C210.044 69.932 210.148 69.56 210.148 69.344C210.148 69.224 210.128 69.132 210.088 69.068C210.048 69.004 210.008 68.968 209.968 68.96C209.936 68.952 209.892 68.948 209.836 68.948C209.596 68.948 209.368 69.072 209.152 69.32C208.936 69.568 208.76 69.94 208.624 70.436C208.6 70.532 208.576 70.592 208.552 70.616C208.536 70.64 208.504 70.652 208.456 70.652C208.368 70.652 208.324 70.616 208.324 70.544C208.324 70.496 208.352 70.384 208.408 70.208C208.472 70.032 208.56 69.828 208.672 69.596C208.792 69.364 208.956 69.16 209.164 68.984C209.38 68.8 209.616 68.708 209.872 68.708C210.152 68.708 210.38 68.804 210.556 68.996C210.732 69.18 210.82 69.404 210.82 69.668C210.82 69.828 210.74 70.112 210.58 70.52C210.18 71.584 209.98 72.352 209.98 72.824C209.98 73.528 210.272 73.88 210.856 73.88C211.192 73.88 211.504 73.736 211.792 73.448C212.088 73.152 212.316 72.808 212.476 72.416C212.644 72.016 212.776 71.648 212.872 71.312C212.968 70.968 213.016 70.72 213.016 70.568C213.016 70.12 212.872 69.768 212.584 69.512C212.496 69.424 212.452 69.332 212.452 69.236C212.452 69.116 212.508 69 212.62 68.888C212.74 68.768 212.868 68.708 213.004 68.708C213.06 68.708 213.116 68.72 213.172 68.744C213.236 68.768 213.304 68.848 213.376 68.984C213.448 69.112 213.484 69.288 213.484 69.512Z" fill="black"/>
<path d="M215.792 72.736C215.68 72.6667 215.544 72.632 215.384 72.632C215.208 72.632 215.053 72.7093 214.92 72.864C214.787 73.0133 214.688 73.2133 214.624 73.464L214.344 74.552C214.237 74.9947 214.184 75.272 214.184 75.384C214.184 75.5493 214.221 75.68 214.296 75.776C214.371 75.872 214.477 75.92 214.616 75.92C214.813 75.92 215.011 75.832 215.208 75.656C215.405 75.4747 215.555 75.2187 215.656 74.888C215.683 74.8187 215.717 74.784 215.76 74.784C215.813 74.784 215.84 74.808 215.84 74.856C215.84 74.9093 215.811 75 215.752 75.128C215.699 75.2507 215.621 75.3867 215.52 75.536C215.424 75.68 215.291 75.808 215.12 75.92C214.955 76.0267 214.779 76.08 214.592 76.08C214.416 76.08 214.248 76.0293 214.088 75.928C213.933 75.8267 213.827 75.6667 213.768 75.448C213.555 75.8693 213.28 76.08 212.944 76.08C212.752 76.08 212.584 76.0373 212.44 75.952C212.296 75.8667 212.224 75.7467 212.224 75.592C212.224 75.4693 212.264 75.368 212.344 75.288C212.429 75.208 212.523 75.168 212.624 75.168C212.704 75.168 212.768 75.192 212.816 75.24C212.869 75.2827 212.896 75.344 212.896 75.424C212.896 75.4933 212.869 75.5707 212.816 75.656C212.763 75.736 212.672 75.7893 212.544 75.816C212.656 75.8853 212.792 75.92 212.952 75.92C213.315 75.92 213.573 75.6133 213.728 75L214 73.904C214.096 73.52 214.144 73.272 214.144 73.16C214.144 73.0267 214.112 72.9067 214.048 72.8C213.984 72.688 213.872 72.632 213.712 72.632C213.611 72.632 213.504 72.656 213.392 72.704C213.285 72.7467 213.16 72.8533 213.016 73.024C212.872 73.1947 212.757 73.416 212.672 73.688C212.645 73.7413 212.613 73.768 212.576 73.768C212.517 73.768 212.488 73.744 212.488 73.696C212.488 73.6427 212.515 73.5547 212.568 73.432C212.627 73.304 212.704 73.168 212.8 73.024C212.901 72.8747 213.035 72.7467 213.2 72.64C213.371 72.528 213.549 72.472 213.736 72.472C214.157 72.472 214.432 72.6827 214.56 73.104C214.597 73.024 214.643 72.944 214.696 72.864C214.755 72.784 214.848 72.6987 214.976 72.608C215.104 72.5173 215.243 72.472 215.392 72.472C215.579 72.472 215.744 72.5147 215.888 72.6C216.037 72.6853 216.112 72.8053 216.112 72.96C216.112 73.072 216.072 73.1707 215.992 73.256C215.917 73.3413 215.821 73.384 215.704 73.384C215.635 73.384 215.573 73.3627 215.52 73.32C215.467 73.2773 215.44 73.2133 215.44 73.128C215.44 73.0427 215.469 72.9627 215.528 72.888C215.587 72.808 215.675 72.7573 215.792 72.736Z" fill="black"/>
<path d="M230.484 69.512C230.484 69.68 230.456 69.928 230.4 70.256C230.344 70.584 230.248 70.976 230.112 71.432C229.976 71.88 229.808 72.304 229.608 72.704C229.416 73.096 229.16 73.432 228.84 73.712C228.528 73.984 228.184 74.12 227.808 74.12C227.336 74.12 226.956 73.996 226.668 73.748C226.396 73.5 226.26 73.136 226.26 72.656C226.26 72.216 226.452 71.484 226.836 70.46C227.044 69.932 227.148 69.56 227.148 69.344C227.148 69.224 227.128 69.132 227.088 69.068C227.048 69.004 227.008 68.968 226.968 68.96C226.936 68.952 226.892 68.948 226.836 68.948C226.596 68.948 226.368 69.072 226.152 69.32C225.936 69.568 225.76 69.94 225.624 70.436C225.6 70.532 225.576 70.592 225.552 70.616C225.536 70.64 225.504 70.652 225.456 70.652C225.368 70.652 225.324 70.616 225.324 70.544C225.324 70.496 225.352 70.384 225.408 70.208C225.472 70.032 225.56 69.828 225.672 69.596C225.792 69.364 225.956 69.16 226.164 68.984C226.38 68.8 226.616 68.708 226.872 68.708C227.152 68.708 227.38 68.804 227.556 68.996C227.732 69.18 227.82 69.404 227.82 69.668C227.82 69.828 227.74 70.112 227.58 70.52C227.18 71.584 226.98 72.352 226.98 72.824C226.98 73.528 227.272 73.88 227.856 73.88C228.192 73.88 228.504 73.736 228.792 73.448C229.088 73.152 229.316 72.808 229.476 72.416C229.644 72.016 229.776 71.648 229.872 71.312C229.968 70.968 230.016 70.72 230.016 70.568C230.016 70.12 229.872 69.768 229.584 69.512C229.496 69.424 229.452 69.332 229.452 69.236C229.452 69.116 229.508 69 229.62 68.888C229.74 68.768 229.868 68.708 230.004 68.708C230.06 68.708 230.116 68.72 230.172 68.744C230.236 68.768 230.304 68.848 230.376 68.984C230.448 69.112 230.484 69.288 230.484 69.512Z" fill="black"/>
<path d="M232.104 76.896C232.195 76.7733 232.269 76.6427 232.328 76.504C232.392 76.3707 232.437 76.256 232.464 76.16C232.496 76.064 232.536 75.9173 232.584 75.72L232.576 75.712C232.341 75.9573 232.075 76.08 231.776 76.08C231.525 76.08 231.304 76.0107 231.112 75.872C230.925 75.728 230.832 75.4853 230.832 75.144C230.832 74.84 230.963 74.3387 231.224 73.64C231.363 73.288 231.432 73.04 231.432 72.896C231.432 72.816 231.419 72.7547 231.392 72.712C231.365 72.6693 231.339 72.6453 231.312 72.64C231.291 72.6347 231.261 72.632 231.224 72.632C231.064 72.632 230.912 72.7173 230.768 72.888C230.624 73.0533 230.507 73.2987 230.416 73.624C230.4 73.688 230.384 73.728 230.368 73.744C230.357 73.76 230.336 73.768 230.304 73.768C230.245 73.768 230.216 73.744 230.216 73.696C230.216 73.664 230.235 73.5893 230.272 73.472C230.315 73.3547 230.373 73.2187 230.448 73.064C230.528 72.9093 230.637 72.7733 230.776 72.656C230.92 72.5333 231.077 72.472 231.248 72.472C231.435 72.472 231.587 72.536 231.704 72.664C231.821 72.7867 231.88 72.936 231.88 73.112C231.88 73.208 231.835 73.376 231.744 73.616C231.456 74.384 231.312 74.9333 231.312 75.264C231.312 75.7013 231.475 75.92 231.8 75.92C232.104 75.92 232.373 75.7547 232.608 75.424C232.645 75.3707 232.68 75.288 232.712 75.176L233.304 72.824C233.352 72.6427 233.453 72.552 233.608 72.552C233.667 72.552 233.717 72.5707 233.76 72.608C233.803 72.6453 233.824 72.6933 233.824 72.752C233.824 72.7627 233.816 72.808 233.8 72.888L233.016 76.008C232.904 76.456 232.669 76.8373 232.312 77.152C231.96 77.472 231.584 77.632 231.184 77.632C230.955 77.632 230.763 77.568 230.608 77.44C230.459 77.312 230.384 77.1467 230.384 76.944C230.384 76.7733 230.429 76.648 230.52 76.568C230.611 76.4933 230.701 76.456 230.792 76.456C230.861 76.456 230.923 76.4747 230.976 76.512C231.035 76.5547 231.064 76.6187 231.064 76.704C231.064 76.8 231.024 76.888 230.944 76.968C230.869 77.0533 230.776 77.096 230.664 77.096C230.627 77.096 230.6 77.0933 230.584 77.088C230.669 77.344 230.869 77.472 231.184 77.472C231.525 77.472 231.832 77.28 232.104 76.896Z" fill="black"/>
<path d="M216.584 51.52C216.723 51.52 216.843 51.568 216.944 51.664C217.045 51.76 217.096 51.8693 217.096 51.992C217.096 52.0187 217.091 52.0587 217.08 52.112C217.075 52.1493 216.84 52.744 216.376 53.896C215.917 55.048 215.683 55.6293 215.672 55.64C215.661 55.6507 215.648 55.656 215.632 55.656C215.595 55.656 215.533 55.6427 215.448 55.616C215.309 55.568 215.24 55.5333 215.24 55.512C215.24 55.4747 215.387 54.856 215.68 53.656C215.979 52.456 216.141 51.8293 216.168 51.776C216.243 51.6053 216.381 51.52 216.584 51.52Z" fill="black"/>
<path d="M233.584 51.52C233.723 51.52 233.843 51.568 233.944 51.664C234.045 51.76 234.096 51.8693 234.096 51.992C234.096 52.0187 234.091 52.0587 234.08 52.112C234.075 52.1493 233.84 52.744 233.376 53.896C232.917 55.048 232.683 55.6293 232.672 55.64C232.661 55.6507 232.648 55.656 232.632 55.656C232.595 55.656 232.533 55.6427 232.448 55.616C232.309 55.568 232.24 55.5333 232.24 55.512C232.24 55.4747 232.387 54.856 232.68 53.656C232.979 52.456 233.141 51.8293 233.168 51.776C233.243 51.6053 233.381 51.52 233.584 51.52Z" fill="black"/>
<path d="M233.584 64.52C233.723 64.52 233.843 64.568 233.944 64.664C234.045 64.76 234.096 64.8693 234.096 64.992C234.096 65.0187 234.091 65.0587 234.08 65.112C234.075 65.1493 233.84 65.744 233.376 66.896C232.917 68.048 232.683 68.6293 232.672 68.64C232.661 68.6507 232.648 68.656 232.632 68.656C232.595 68.656 232.533 68.6427 232.448 68.616C232.309 68.568 232.24 68.5333 232.24 68.512C232.24 68.4747 232.387 67.856 232.68 66.656C232.979 65.456 233.141 64.8293 233.168 64.776C233.243 64.6053 233.381 64.52 233.584 64.52Z" fill="black"/>
<path d="M216.584 64.52C216.723 64.52 216.843 64.568 216.944 64.664C217.045 64.76 217.096 64.8693 217.096 64.992C217.096 65.0187 217.091 65.0587 217.08 65.112C217.075 65.1493 216.84 65.744 216.376 66.896C215.917 68.048 215.683 68.6293 215.672 68.64C215.661 68.6507 215.648 68.656 215.632 68.656C215.595 68.656 215.533 68.6427 215.448 68.616C215.309 68.568 215.24 68.5333 215.24 68.512C215.24 68.4747 215.387 67.856 215.68 66.656C215.979 65.456 216.141 64.8293 216.168 64.776C216.243 64.6053 216.381 64.52 216.584 64.52Z" fill="black"/>
</g>
<defs>
<filter id="filter0_d" x="0" y="0" width="276" height="116" filterUnits="userSpaceOnUse" color-interpolation-filters="sRGB">
<feFlood flood-opacity="0" result="BackgroundImageFix"/>
<feColorMatrix in="SourceAlpha" type="matrix" values="0 0 0 0 0 0 0 0 0 0 0 0 0 0 0 0 0 0 127 0"/>
<feOffset dy="4"/>
<feGaussianBlur stdDeviation="8"/>
<feColorMatrix type="matrix" values="0 0 0 0 0 0 0 0 0 0 0 0 0 0 0 0 0 0 0.25 0"/>
<feBlend mode="normal" in2="BackgroundImageFix" result="effect1_dropShadow"/>
<feBlend mode="normal" in="SourceGraphic" in2="effect1_dropShadow" result="shape"/>
</filter>
</defs>
</svg>
