<svg width="406" height="239" viewBox="0 0 406 239" fill="none" xmlns="http://www.w3.org/2000/svg">
<g filter="url(#filter0_d)">
<rect width="374" height="207" transform="translate(16 12)" fill="white"/>
<path d="M230 99.5C230 132.913 202.913 160 169.5 160C136.087 160 109 132.913 109 99.5C109 66.0868 136.087 39 169.5 39C202.913 39 230 66.0868 230 99.5Z" fill="#E7E7E7"/>
<path d="M316 143.5C316 176.913 288.913 204 255.5 204C222.087 204 195 176.913 195 143.5C195 110.087 222.087 83 255.5 83C288.913 83 316 110.087 316 143.5Z" fill="#E7E7E7"/>
<path fill-rule="evenodd" clip-rule="evenodd" d="M195.899 153.952C216.085 144.147 230 123.448 230 99.5C230 95.9357 229.692 92.4434 229.101 89.0483C208.915 98.853 195 119.552 195 143.5C195 147.064 195.308 150.557 195.899 153.952Z" fill="white"/>
<path fill-rule="evenodd" clip-rule="evenodd" d="M169.5 159C202.361 159 229 132.361 229 99.5C229 66.6391 202.361 40 169.5 40C136.639 40 110 66.6391 110 99.5C110 132.361 136.639 159 169.5 159ZM169.5 160C202.913 160 230 132.913 230 99.5C230 66.0868 202.913 39 169.5 39C136.087 39 109 66.0868 109 99.5C109 132.913 136.087 160 169.5 160Z" fill="black"/>
<path fill-rule="evenodd" clip-rule="evenodd" d="M255.5 203C288.361 203 315 176.361 315 143.5C315 110.639 288.361 84 255.5 84C222.639 84 196 110.639 196 143.5C196 176.361 222.639 203 255.5 203ZM255.5 204C288.913 204 316 176.913 316 143.5C316 110.087 288.913 83 255.5 83C222.087 83 195 110.087 195 143.5C195 176.913 222.087 204 255.5 204Z" fill="black"/>
<path d="M168.636 99.8639C174.412 88.4847 195.691 113.596 201.806 101.548C195.691 113.596 228.521 115.95 222.745 127.329" stroke="#999999" stroke-width="0.5" stroke-linecap="round" stroke-linejoin="round"/>
<path d="M255.861 144.28C250.085 155.66 228.988 130.64 222.873 142.689C228.988 130.64 196.34 128.379 202.116 117" stroke="#999999" stroke-width="0.5" stroke-linecap="round" stroke-linejoin="round"/>
<path d="M228.736 122.6C227.96 122.432 227.572 122.044 227.572 121.436C227.572 121.292 227.604 121.132 227.668 120.956C227.732 120.78 227.832 120.596 227.968 120.404C228.112 120.204 228.32 120.04 228.592 119.912C228.872 119.776 229.196 119.708 229.564 119.708C230.004 119.708 230.344 119.812 230.584 120.02C230.832 120.22 230.956 120.456 230.956 120.728C230.956 120.952 230.9 121.116 230.788 121.22C230.676 121.316 230.564 121.364 230.452 121.364C230.38 121.364 230.304 121.34 230.224 121.292C230.152 121.236 230.116 121.152 230.116 121.04C230.116 121.008 230.12 120.964 230.128 120.908C230.144 120.852 230.196 120.784 230.284 120.704C230.38 120.616 230.508 120.572 230.668 120.572C230.612 120.364 230.48 120.208 230.272 120.104C230.064 120 229.824 119.948 229.552 119.948C229.336 119.948 229.144 119.98 228.976 120.044C228.808 120.108 228.676 120.184 228.58 120.272C228.484 120.36 228.404 120.46 228.34 120.572C228.284 120.676 228.244 120.768 228.22 120.848C228.204 120.928 228.196 120.996 228.196 121.052C228.196 121.22 228.248 121.36 228.352 121.472C228.464 121.576 228.564 121.644 228.652 121.676C228.748 121.708 228.876 121.74 229.036 121.772C229.404 121.844 229.668 121.908 229.828 121.964C229.988 122.02 230.136 122.116 230.272 122.252C230.528 122.508 230.656 122.808 230.656 123.152C230.656 123.328 230.616 123.52 230.536 123.728C230.456 123.936 230.332 124.148 230.164 124.364C229.996 124.58 229.748 124.76 229.42 124.904C229.092 125.048 228.716 125.12 228.292 125.12C227.804 125.12 227.4 125.016 227.08 124.808C226.768 124.6 226.612 124.32 226.612 123.968C226.612 123.72 226.676 123.536 226.804 123.416C226.932 123.288 227.072 123.224 227.224 123.224C227.496 123.224 227.632 123.352 227.632 123.608C227.632 123.76 227.564 123.9 227.428 124.028C227.3 124.156 227.128 124.208 226.912 124.184C227.08 124.648 227.544 124.88 228.304 124.88C228.632 124.88 228.916 124.828 229.156 124.724C229.396 124.62 229.576 124.492 229.696 124.34C229.816 124.188 229.9 124.044 229.948 123.908C230.004 123.772 230.032 123.648 230.032 123.536C230.032 123.136 229.8 122.864 229.336 122.72C229.32 122.72 229.236 122.704 229.084 122.672C228.932 122.64 228.816 122.616 228.736 122.6Z" fill="#BE2626"/>
<path d="M233.578 126.172C233.646 126.08 233.702 125.982 233.746 125.878C233.794 125.778 233.828 125.692 233.848 125.62C233.872 125.548 233.902 125.438 233.938 125.29L233.932 125.284C233.756 125.468 233.556 125.56 233.332 125.56C233.144 125.56 232.978 125.508 232.834 125.404C232.694 125.296 232.624 125.114 232.624 124.858C232.624 124.63 232.722 124.254 232.918 123.73C233.022 123.466 233.074 123.28 233.074 123.172C233.074 123.112 233.064 123.066 233.044 123.034C233.024 123.002 233.004 122.984 232.984 122.98C232.968 122.976 232.946 122.974 232.918 122.974C232.798 122.974 232.684 123.038 232.576 123.166C232.468 123.29 232.38 123.474 232.312 123.718C232.3 123.766 232.288 123.796 232.276 123.808C232.268 123.82 232.252 123.826 232.228 123.826C232.184 123.826 232.162 123.808 232.162 123.772C232.162 123.748 232.176 123.692 232.204 123.604C232.236 123.516 232.28 123.414 232.336 123.298C232.396 123.182 232.478 123.08 232.582 122.992C232.69 122.9 232.808 122.854 232.936 122.854C233.076 122.854 233.19 122.902 233.278 122.998C233.366 123.09 233.41 123.202 233.41 123.334C233.41 123.406 233.376 123.532 233.308 123.712C233.092 124.288 232.984 124.7 232.984 124.948C232.984 125.276 233.106 125.44 233.35 125.44C233.578 125.44 233.78 125.316 233.956 125.068C233.984 125.028 234.01 124.966 234.034 124.882L234.478 123.118C234.514 122.982 234.59 122.914 234.706 122.914C234.75 122.914 234.788 122.928 234.82 122.956C234.852 122.984 234.868 123.02 234.868 123.064C234.868 123.072 234.862 123.106 234.85 123.166L234.262 125.506C234.178 125.842 234.002 126.128 233.734 126.364C233.47 126.604 233.188 126.724 232.888 126.724C232.716 126.724 232.572 126.676 232.456 126.58C232.344 126.484 232.288 126.36 232.288 126.208C232.288 126.08 232.322 125.986 232.39 125.926C232.458 125.87 232.526 125.842 232.594 125.842C232.646 125.842 232.692 125.856 232.732 125.884C232.776 125.916 232.798 125.964 232.798 126.028C232.798 126.1 232.768 126.166 232.708 126.226C232.652 126.29 232.582 126.322 232.498 126.322C232.47 126.322 232.45 126.32 232.438 126.316C232.502 126.508 232.652 126.604 232.888 126.604C233.144 126.604 233.374 126.46 233.578 126.172Z" fill="#BE2626"/>
<path d="M212.736 111.6C211.96 111.432 211.572 111.044 211.572 110.436C211.572 110.292 211.604 110.132 211.668 109.956C211.732 109.78 211.832 109.596 211.968 109.404C212.112 109.204 212.32 109.04 212.592 108.912C212.872 108.776 213.196 108.708 213.564 108.708C214.004 108.708 214.344 108.812 214.584 109.02C214.832 109.22 214.956 109.456 214.956 109.728C214.956 109.952 214.9 110.116 214.788 110.22C214.676 110.316 214.564 110.364 214.452 110.364C214.38 110.364 214.304 110.34 214.224 110.292C214.152 110.236 214.116 110.152 214.116 110.04C214.116 110.008 214.12 109.964 214.128 109.908C214.144 109.852 214.196 109.784 214.284 109.704C214.38 109.616 214.508 109.572 214.668 109.572C214.612 109.364 214.48 109.208 214.272 109.104C214.064 109 213.824 108.948 213.552 108.948C213.336 108.948 213.144 108.98 212.976 109.044C212.808 109.108 212.676 109.184 212.58 109.272C212.484 109.36 212.404 109.46 212.34 109.572C212.284 109.676 212.244 109.768 212.22 109.848C212.204 109.928 212.196 109.996 212.196 110.052C212.196 110.22 212.248 110.36 212.352 110.472C212.464 110.576 212.564 110.644 212.652 110.676C212.748 110.708 212.876 110.74 213.036 110.772C213.404 110.844 213.668 110.908 213.828 110.964C213.988 111.02 214.136 111.116 214.272 111.252C214.528 111.508 214.656 111.808 214.656 112.152C214.656 112.328 214.616 112.52 214.536 112.728C214.456 112.936 214.332 113.148 214.164 113.364C213.996 113.58 213.748 113.76 213.42 113.904C213.092 114.048 212.716 114.12 212.292 114.12C211.804 114.12 211.4 114.016 211.08 113.808C210.768 113.6 210.612 113.32 210.612 112.968C210.612 112.72 210.676 112.536 210.804 112.416C210.932 112.288 211.072 112.224 211.224 112.224C211.496 112.224 211.632 112.352 211.632 112.608C211.632 112.76 211.564 112.9 211.428 113.028C211.3 113.156 211.128 113.208 210.912 113.184C211.08 113.648 211.544 113.88 212.304 113.88C212.632 113.88 212.916 113.828 213.156 113.724C213.396 113.62 213.576 113.492 213.696 113.34C213.816 113.188 213.9 113.044 213.948 112.908C214.004 112.772 214.032 112.648 214.032 112.536C214.032 112.136 213.8 111.864 213.336 111.72C213.32 111.72 213.236 111.704 213.084 111.672C212.932 111.64 212.816 111.616 212.736 111.6Z" fill="#BE2626"/>
<path d="M218.844 112.052C218.76 112 218.658 111.974 218.538 111.974C218.406 111.974 218.29 112.032 218.19 112.148C218.09 112.26 218.016 112.41 217.968 112.598L217.758 113.414C217.678 113.746 217.638 113.954 217.638 114.038C217.638 114.162 217.666 114.26 217.722 114.332C217.778 114.404 217.858 114.44 217.962 114.44C218.11 114.44 218.258 114.374 218.406 114.242C218.554 114.106 218.666 113.914 218.742 113.666C218.762 113.614 218.788 113.588 218.82 113.588C218.86 113.588 218.88 113.606 218.88 113.642C218.88 113.682 218.858 113.75 218.814 113.846C218.774 113.938 218.716 114.04 218.64 114.152C218.568 114.26 218.468 114.356 218.34 114.44C218.216 114.52 218.084 114.56 217.944 114.56C217.812 114.56 217.686 114.522 217.566 114.446C217.45 114.37 217.37 114.25 217.326 114.086C217.166 114.402 216.96 114.56 216.708 114.56C216.564 114.56 216.438 114.528 216.33 114.464C216.222 114.4 216.168 114.31 216.168 114.194C216.168 114.102 216.198 114.026 216.258 113.966C216.322 113.906 216.392 113.876 216.468 113.876C216.528 113.876 216.576 113.894 216.612 113.93C216.652 113.962 216.672 114.008 216.672 114.068C216.672 114.12 216.652 114.178 216.612 114.242C216.572 114.302 216.504 114.342 216.408 114.362C216.492 114.414 216.594 114.44 216.714 114.44C216.986 114.44 217.18 114.21 217.296 113.75L217.5 112.928C217.572 112.64 217.608 112.454 217.608 112.37C217.608 112.27 217.584 112.18 217.536 112.1C217.488 112.016 217.404 111.974 217.284 111.974C217.208 111.974 217.128 111.992 217.044 112.028C216.964 112.06 216.87 112.14 216.762 112.268C216.654 112.396 216.568 112.562 216.504 112.766C216.484 112.806 216.46 112.826 216.432 112.826C216.388 112.826 216.366 112.808 216.366 112.772C216.366 112.732 216.386 112.666 216.426 112.574C216.47 112.478 216.528 112.376 216.6 112.268C216.676 112.156 216.776 112.06 216.9 111.98C217.028 111.896 217.162 111.854 217.302 111.854C217.618 111.854 217.824 112.012 217.92 112.328C217.948 112.268 217.982 112.208 218.022 112.148C218.066 112.088 218.136 112.024 218.232 111.956C218.328 111.888 218.432 111.854 218.544 111.854C218.684 111.854 218.808 111.886 218.916 111.95C219.028 112.014 219.084 112.104 219.084 112.22C219.084 112.304 219.054 112.378 218.994 112.442C218.938 112.506 218.866 112.538 218.778 112.538C218.726 112.538 218.68 112.522 218.64 112.49C218.6 112.458 218.58 112.41 218.58 112.346C218.58 112.282 218.602 112.222 218.646 112.166C218.69 112.106 218.756 112.068 218.844 112.052Z" fill="#BE2626"/>
<path d="M209.736 126.6C208.96 126.432 208.572 126.044 208.572 125.436C208.572 125.292 208.604 125.132 208.668 124.956C208.732 124.78 208.832 124.596 208.968 124.404C209.112 124.204 209.32 124.04 209.592 123.912C209.872 123.776 210.196 123.708 210.564 123.708C211.004 123.708 211.344 123.812 211.584 124.02C211.832 124.22 211.956 124.456 211.956 124.728C211.956 124.952 211.9 125.116 211.788 125.22C211.676 125.316 211.564 125.364 211.452 125.364C211.38 125.364 211.304 125.34 211.224 125.292C211.152 125.236 211.116 125.152 211.116 125.04C211.116 125.008 211.12 124.964 211.128 124.908C211.144 124.852 211.196 124.784 211.284 124.704C211.38 124.616 211.508 124.572 211.668 124.572C211.612 124.364 211.48 124.208 211.272 124.104C211.064 124 210.824 123.948 210.552 123.948C210.336 123.948 210.144 123.98 209.976 124.044C209.808 124.108 209.676 124.184 209.58 124.272C209.484 124.36 209.404 124.46 209.34 124.572C209.284 124.676 209.244 124.768 209.22 124.848C209.204 124.928 209.196 124.996 209.196 125.052C209.196 125.22 209.248 125.36 209.352 125.472C209.464 125.576 209.564 125.644 209.652 125.676C209.748 125.708 209.876 125.74 210.036 125.772C210.404 125.844 210.668 125.908 210.828 125.964C210.988 126.02 211.136 126.116 211.272 126.252C211.528 126.508 211.656 126.808 211.656 127.152C211.656 127.328 211.616 127.52 211.536 127.728C211.456 127.936 211.332 128.148 211.164 128.364C210.996 128.58 210.748 128.76 210.42 128.904C210.092 129.048 209.716 129.12 209.292 129.12C208.804 129.12 208.4 129.016 208.08 128.808C207.768 128.6 207.612 128.32 207.612 127.968C207.612 127.72 207.676 127.536 207.804 127.416C207.932 127.288 208.072 127.224 208.224 127.224C208.496 127.224 208.632 127.352 208.632 127.608C208.632 127.76 208.564 127.9 208.428 128.028C208.3 128.156 208.128 128.208 207.912 128.184C208.08 128.648 208.544 128.88 209.304 128.88C209.632 128.88 209.916 128.828 210.156 128.724C210.396 128.62 210.576 128.492 210.696 128.34C210.816 128.188 210.9 128.044 210.948 127.908C211.004 127.772 211.032 127.648 211.032 127.536C211.032 127.136 210.8 126.864 210.336 126.72C210.32 126.72 210.236 126.704 210.084 126.672C209.932 126.64 209.816 126.616 209.736 126.6Z" fill="#BE2626"/>
<path d="M165.5 96L172.5 103M165.5 103L172.5 96" stroke="#BE2626" stroke-linecap="round"/>
<path d="M252.5 140L259.5 147M252.5 147L259.5 140" stroke="#BE2626" stroke-linecap="round"/>
<path d="M26 27L378 206" stroke="#808080" stroke-linecap="round" stroke-dasharray="4 3"/>
<path d="M205.664 93.092C205.528 92.996 205.348 92.948 205.124 92.948C204.788 92.948 204.472 93.084 204.176 93.356C204.048 93.468 203.912 93.636 203.768 93.86C203.624 94.084 203.54 94.236 203.516 94.316C203.476 94.5 203.432 94.672 203.384 94.832C203.36 94.92 203.328 95.052 203.288 95.228C203.248 95.396 203.216 95.524 203.192 95.612C203.176 95.676 203.12 95.892 203.024 96.26C202.936 96.62 202.852 96.96 202.772 97.28C202.692 97.592 202.648 97.764 202.64 97.796C202.576 98.012 202.432 98.12 202.208 98.12C202.12 98.12 202.044 98.092 201.98 98.036C201.924 97.98 201.896 97.908 201.896 97.82C201.896 97.732 201.968 97.42 202.112 96.884C202.2 96.556 202.28 96.228 202.352 95.9L202.688 94.604C202.824 94.004 202.892 93.636 202.892 93.5C202.892 93.132 202.768 92.948 202.52 92.948C202.304 92.948 202.128 93.076 201.992 93.332C201.864 93.58 201.744 93.924 201.632 94.364C201.6 94.5 201.572 94.584 201.548 94.616C201.532 94.64 201.5 94.652 201.452 94.652C201.364 94.652 201.32 94.616 201.32 94.544C201.32 94.52 201.336 94.444 201.368 94.316C201.408 94.18 201.456 94.016 201.512 93.824C201.576 93.624 201.64 93.46 201.704 93.332C201.928 92.916 202.212 92.708 202.556 92.708C202.812 92.708 203.04 92.792 203.24 92.96C203.44 93.12 203.56 93.352 203.6 93.656C204.032 93.024 204.544 92.708 205.136 92.708C205.424 92.708 205.656 92.78 205.832 92.924C206.016 93.06 206.108 93.228 206.108 93.428C206.108 93.604 206.048 93.756 205.928 93.884C205.808 94.012 205.664 94.076 205.496 94.076C205.392 94.076 205.3 94.044 205.22 93.98C205.14 93.916 205.1 93.82 205.1 93.692C205.1 93.556 205.148 93.432 205.244 93.32C205.348 93.2 205.488 93.124 205.664 93.092Z" fill="black"/>
<path d="M206.698 98.642C206.698 98.662 206.682 98.716 206.65 98.804C206.622 98.892 206.58 98.996 206.524 99.116C206.468 99.232 206.386 99.336 206.278 99.428C206.174 99.516 206.058 99.56 205.93 99.56C205.79 99.56 205.676 99.514 205.588 99.422C205.5 99.33 205.456 99.214 205.456 99.074C205.456 99.002 205.48 98.902 205.528 98.774L205.948 97.658C206.032 97.426 206.074 97.264 206.074 97.172C206.074 97.04 206.022 96.974 205.918 96.974C205.798 96.974 205.684 97.038 205.576 97.166C205.468 97.29 205.38 97.474 205.312 97.718C205.3 97.766 205.288 97.796 205.276 97.808C205.268 97.82 205.252 97.826 205.228 97.826C205.184 97.826 205.162 97.808 205.162 97.772C205.162 97.748 205.176 97.692 205.204 97.604C205.236 97.516 205.28 97.414 205.336 97.298C205.396 97.182 205.478 97.08 205.582 96.992C205.69 96.9 205.808 96.854 205.936 96.854C206.076 96.854 206.19 96.902 206.278 96.998C206.366 97.09 206.41 97.202 206.41 97.334C206.41 97.406 206.39 97.496 206.35 97.604L205.93 98.72C205.838 98.972 205.792 99.146 205.792 99.242C205.792 99.374 205.844 99.44 205.948 99.44C206.06 99.44 206.17 99.382 206.278 99.266C206.386 99.146 206.476 98.96 206.548 98.708C206.56 98.668 206.568 98.642 206.572 98.63C206.58 98.618 206.588 98.608 206.596 98.6C206.604 98.592 206.618 98.588 206.638 98.588C206.678 98.588 206.698 98.606 206.698 98.642ZM206.65 95.756C206.65 95.824 206.62 95.89 206.56 95.954C206.5 96.014 206.43 96.044 206.35 96.044C206.302 96.044 206.256 96.028 206.212 95.996C206.172 95.964 206.152 95.914 206.152 95.846C206.152 95.77 206.182 95.704 206.242 95.648C206.306 95.588 206.374 95.558 206.446 95.558C206.506 95.558 206.554 95.58 206.59 95.624C206.63 95.664 206.65 95.708 206.65 95.756Z" fill="black"/>
<path d="M222.06 146.361C221.924 146.265 221.744 146.217 221.52 146.217C221.184 146.217 220.868 146.353 220.572 146.625C220.444 146.737 220.308 146.905 220.164 147.129C220.02 147.353 219.936 147.505 219.912 147.585C219.872 147.769 219.828 147.941 219.78 148.101C219.756 148.189 219.724 148.321 219.684 148.497C219.644 148.665 219.612 148.793 219.588 148.881C219.572 148.945 219.516 149.161 219.42 149.529C219.332 149.889 219.248 150.229 219.168 150.549C219.088 150.861 219.044 151.033 219.036 151.065C218.972 151.281 218.828 151.389 218.604 151.389C218.516 151.389 218.44 151.361 218.376 151.305C218.32 151.249 218.292 151.177 218.292 151.089C218.292 151.001 218.364 150.689 218.508 150.153C218.596 149.825 218.676 149.497 218.748 149.169L219.084 147.873C219.22 147.273 219.288 146.905 219.288 146.769C219.288 146.401 219.164 146.217 218.916 146.217C218.7 146.217 218.524 146.345 218.388 146.601C218.26 146.849 218.14 147.193 218.028 147.633C217.996 147.769 217.968 147.853 217.944 147.885C217.928 147.909 217.896 147.921 217.848 147.921C217.76 147.921 217.716 147.885 217.716 147.813C217.716 147.789 217.732 147.713 217.764 147.585C217.804 147.449 217.852 147.285 217.908 147.093C217.972 146.893 218.036 146.729 218.1 146.601C218.324 146.185 218.608 145.977 218.952 145.977C219.208 145.977 219.436 146.061 219.636 146.229C219.836 146.389 219.956 146.621 219.996 146.925C220.428 146.293 220.94 145.977 221.532 145.977C221.82 145.977 222.052 146.049 222.228 146.193C222.412 146.329 222.504 146.497 222.504 146.697C222.504 146.873 222.444 147.025 222.324 147.153C222.204 147.281 222.06 147.345 221.892 147.345C221.788 147.345 221.696 147.313 221.616 147.249C221.536 147.185 221.496 147.089 221.496 146.961C221.496 146.825 221.544 146.701 221.64 146.589C221.744 146.469 221.884 146.393 222.06 146.361Z" fill="black"/>
<path d="M223.495 150.867L222.937 153.087C222.865 153.367 222.719 153.587 222.499 153.747C222.279 153.911 222.055 153.993 221.827 153.993C221.691 153.993 221.571 153.963 221.467 153.903C221.367 153.847 221.317 153.761 221.317 153.645C221.317 153.557 221.347 153.483 221.407 153.423C221.467 153.363 221.537 153.333 221.617 153.333C221.681 153.333 221.731 153.351 221.767 153.387C221.803 153.427 221.821 153.473 221.821 153.525C221.821 153.597 221.795 153.659 221.743 153.711C221.695 153.763 221.635 153.797 221.563 153.813C221.639 153.853 221.727 153.873 221.827 153.873C221.987 153.873 222.133 153.799 222.265 153.651C222.397 153.507 222.493 153.321 222.553 153.093L223.123 150.831C223.151 150.707 223.165 150.603 223.165 150.519C223.165 150.335 223.101 150.243 222.973 150.243C222.845 150.243 222.713 150.305 222.577 150.429C222.441 150.549 222.317 150.743 222.205 151.011C222.169 151.063 222.141 151.091 222.121 151.095C222.081 151.095 222.061 151.077 222.061 151.041C222.061 151.029 222.073 150.993 222.097 150.933C222.121 150.869 222.159 150.791 222.211 150.699C222.267 150.607 222.329 150.519 222.397 150.435C222.469 150.347 222.557 150.273 222.661 150.213C222.769 150.153 222.879 150.123 222.991 150.123C223.135 150.123 223.259 150.173 223.363 150.273C223.467 150.369 223.519 150.499 223.519 150.663C223.519 150.735 223.511 150.803 223.495 150.867ZM223.741 149.025C223.741 149.101 223.709 149.169 223.645 149.229C223.585 149.285 223.519 149.313 223.447 149.313C223.387 149.313 223.337 149.293 223.297 149.253C223.261 149.209 223.243 149.163 223.243 149.115C223.243 149.047 223.273 148.983 223.333 148.923C223.393 148.859 223.463 148.827 223.543 148.827C223.591 148.827 223.635 148.843 223.675 148.875C223.719 148.907 223.741 148.957 223.741 149.025Z" fill="black"/>
<path d="M57.252 170.408C57.252 171.168 56.988 171.812 56.46 172.34C55.932 172.868 55.304 173.132 54.576 173.132C53.912 173.132 53.388 172.84 53.004 172.256L52.572 173H52.272V165.848C52.272 165.552 52.22 165.368 52.116 165.296C52.012 165.216 51.752 165.176 51.336 165.176V164.804L53.064 164.672V168.476C53.528 167.956 54.076 167.696 54.708 167.696C55.396 167.696 55.992 167.96 56.496 168.488C57 169.016 57.252 169.656 57.252 170.408ZM56.256 170.396C56.256 169.652 56.14 169.096 55.908 168.728C55.588 168.216 55.168 167.96 54.648 167.96C54.064 167.96 53.592 168.216 53.232 168.728C53.144 168.856 53.1 169 53.1 169.16V171.632C53.1 171.8 53.156 171.968 53.268 172.136C53.588 172.624 54.008 172.868 54.528 172.868C55.088 172.868 55.54 172.612 55.884 172.1C56.132 171.716 56.256 171.148 56.256 170.396ZM63.464 171.932C63.464 172.356 63.352 172.652 63.128 172.82C62.904 172.988 62.688 173.072 62.48 173.072C62.216 173.072 62 172.976 61.832 172.784C61.664 172.584 61.568 172.352 61.544 172.088C61.424 172.392 61.224 172.644 60.944 172.844C60.672 173.036 60.348 173.132 59.972 173.132C59.684 173.132 59.404 173.096 59.132 173.024C58.86 172.952 58.612 172.816 58.388 172.616C58.164 172.416 58.052 172.164 58.052 171.86C58.052 171.18 58.452 170.66 59.252 170.3C59.732 170.068 60.468 169.924 61.46 169.868V169.424C61.46 168.928 61.328 168.548 61.064 168.284C60.808 168.02 60.516 167.888 60.188 167.888C59.604 167.888 59.172 168.072 58.892 168.44C59.132 168.448 59.292 168.512 59.372 168.632C59.46 168.752 59.504 168.872 59.504 168.992C59.504 169.152 59.452 169.284 59.348 169.388C59.252 169.492 59.12 169.544 58.952 169.544C58.792 169.544 58.66 169.496 58.556 169.4C58.452 169.296 58.4 169.156 58.4 168.98C58.4 168.588 58.576 168.264 58.928 168.008C59.28 167.752 59.708 167.624 60.212 167.624C60.868 167.624 61.416 167.844 61.856 168.284C61.992 168.42 62.092 168.576 62.156 168.752C62.228 168.928 62.268 169.076 62.276 169.196C62.284 169.308 62.288 169.476 62.288 169.7V172.1C62.288 172.148 62.296 172.212 62.312 172.292C62.328 172.364 62.372 172.452 62.444 172.556C62.516 172.652 62.612 172.7 62.732 172.7C63.02 172.7 63.164 172.444 63.164 171.932V171.26H63.464V171.932ZM61.46 171.32V170.12C60.572 170.152 59.936 170.344 59.552 170.696C59.168 171.048 58.976 171.432 58.976 171.848C58.976 172.144 59.08 172.388 59.288 172.58C59.504 172.772 59.76 172.868 60.056 172.868C60.392 172.868 60.708 172.74 61.004 172.484C61.308 172.22 61.46 171.832 61.46 171.32ZM66.728 173L65.396 172.964L64.064 173V172.628C64.488 172.628 64.748 172.604 64.844 172.556C64.948 172.5 65 172.344 65 172.088V165.848C65 165.552 64.948 165.368 64.844 165.296C64.74 165.216 64.48 165.176 64.064 165.176V164.804L65.792 164.672V172.088C65.792 172.344 65.84 172.5 65.936 172.556C66.04 172.604 66.304 172.628 66.728 172.628V173ZM70.0678 173L68.7358 172.964L67.4038 173V172.628C67.8278 172.628 68.0878 172.604 68.1838 172.556C68.2878 172.5 68.3398 172.344 68.3398 172.088V165.848C68.3398 165.552 68.2878 165.368 68.1838 165.296C68.0798 165.216 67.8198 165.176 67.4038 165.176V164.804L69.1318 164.672V172.088C69.1318 172.344 69.1798 172.5 69.2758 172.556C69.3798 172.604 69.6438 172.628 70.0678 172.628V173ZM77.3078 173C76.4918 172.976 76.0758 172.964 76.0598 172.964L74.7397 173V172.628C75.1638 172.628 75.4238 172.604 75.5198 172.556C75.6238 172.5 75.6758 172.344 75.6758 172.088V168.86C75.6758 168.564 75.6238 168.38 75.5198 168.308C75.4238 168.236 75.1798 168.2 74.7878 168.2V167.828L76.4678 167.696V172.1C76.4678 172.34 76.5078 172.488 76.5878 172.544C76.6758 172.6 76.9158 172.628 77.3078 172.628V173ZM76.6478 165.752C76.6478 165.912 76.5878 166.06 76.4678 166.196C76.3478 166.324 76.1918 166.388 75.9998 166.388C75.8238 166.388 75.6718 166.324 75.5438 166.196C75.4238 166.068 75.3638 165.92 75.3638 165.752C75.3638 165.592 75.4238 165.448 75.5438 165.32C75.6638 165.184 75.8198 165.116 76.0118 165.116C76.1878 165.116 76.3358 165.18 76.4558 165.308C76.5838 165.436 76.6478 165.584 76.6478 165.752Z" fill="black"/>
<path d="M331.252 63.408C331.252 64.168 330.988 64.812 330.46 65.34C329.932 65.868 329.304 66.132 328.576 66.132C327.912 66.132 327.388 65.84 327.004 65.256L326.572 66H326.272V58.848C326.272 58.552 326.22 58.368 326.116 58.296C326.012 58.216 325.752 58.176 325.336 58.176V57.804L327.064 57.672V61.476C327.528 60.956 328.076 60.696 328.708 60.696C329.396 60.696 329.992 60.96 330.496 61.488C331 62.016 331.252 62.656 331.252 63.408ZM330.256 63.396C330.256 62.652 330.14 62.096 329.908 61.728C329.588 61.216 329.168 60.96 328.648 60.96C328.064 60.96 327.592 61.216 327.232 61.728C327.144 61.856 327.1 62 327.1 62.16V64.632C327.1 64.8 327.156 64.968 327.268 65.136C327.588 65.624 328.008 65.868 328.528 65.868C329.088 65.868 329.54 65.612 329.884 65.1C330.132 64.716 330.256 64.148 330.256 63.396ZM337.464 64.932C337.464 65.356 337.352 65.652 337.128 65.82C336.904 65.988 336.688 66.072 336.48 66.072C336.216 66.072 336 65.976 335.832 65.784C335.664 65.584 335.568 65.352 335.544 65.088C335.424 65.392 335.224 65.644 334.944 65.844C334.672 66.036 334.348 66.132 333.972 66.132C333.684 66.132 333.404 66.096 333.132 66.024C332.86 65.952 332.612 65.816 332.388 65.616C332.164 65.416 332.052 65.164 332.052 64.86C332.052 64.18 332.452 63.66 333.252 63.3C333.732 63.068 334.468 62.924 335.46 62.868V62.424C335.46 61.928 335.328 61.548 335.064 61.284C334.808 61.02 334.516 60.888 334.188 60.888C333.604 60.888 333.172 61.072 332.892 61.44C333.132 61.448 333.292 61.512 333.372 61.632C333.46 61.752 333.504 61.872 333.504 61.992C333.504 62.152 333.452 62.284 333.348 62.388C333.252 62.492 333.12 62.544 332.952 62.544C332.792 62.544 332.66 62.496 332.556 62.4C332.452 62.296 332.4 62.156 332.4 61.98C332.4 61.588 332.576 61.264 332.928 61.008C333.28 60.752 333.708 60.624 334.212 60.624C334.868 60.624 335.416 60.844 335.856 61.284C335.992 61.42 336.092 61.576 336.156 61.752C336.228 61.928 336.268 62.076 336.276 62.196C336.284 62.308 336.288 62.476 336.288 62.7V65.1C336.288 65.148 336.296 65.212 336.312 65.292C336.328 65.364 336.372 65.452 336.444 65.556C336.516 65.652 336.612 65.7 336.732 65.7C337.02 65.7 337.164 65.444 337.164 64.932V64.26H337.464V64.932ZM335.46 64.32V63.12C334.572 63.152 333.936 63.344 333.552 63.696C333.168 64.048 332.976 64.432 332.976 64.848C332.976 65.144 333.08 65.388 333.288 65.58C333.504 65.772 333.76 65.868 334.056 65.868C334.392 65.868 334.708 65.74 335.004 65.484C335.308 65.22 335.46 64.832 335.46 64.32ZM340.728 66L339.396 65.964L338.064 66V65.628C338.488 65.628 338.748 65.604 338.844 65.556C338.948 65.5 339 65.344 339 65.088V58.848C339 58.552 338.948 58.368 338.844 58.296C338.74 58.216 338.48 58.176 338.064 58.176V57.804L339.792 57.672V65.088C339.792 65.344 339.84 65.5 339.936 65.556C340.04 65.604 340.304 65.628 340.728 65.628V66ZM344.068 66L342.736 65.964L341.404 66V65.628C341.828 65.628 342.088 65.604 342.184 65.556C342.288 65.5 342.34 65.344 342.34 65.088V58.848C342.34 58.552 342.288 58.368 342.184 58.296C342.08 58.216 341.82 58.176 341.404 58.176V57.804L343.132 57.672V65.088C343.132 65.344 343.18 65.5 343.276 65.556C343.38 65.604 343.644 65.628 344.068 65.628V66ZM350.864 66.6C350.864 67.136 350.704 67.58 350.384 67.932C350.064 68.284 349.676 68.46 349.22 68.46C348.852 68.46 348.536 68.372 348.272 68.196C348 68.028 347.864 67.796 347.864 67.5C347.864 67.34 347.916 67.208 348.02 67.104C348.116 67 348.248 66.948 348.416 66.948C348.584 66.948 348.716 67 348.812 67.104C348.916 67.208 348.968 67.34 348.968 67.5C348.968 67.644 348.924 67.76 348.836 67.848C348.756 67.944 348.66 68.008 348.548 68.04C348.756 68.144 348.972 68.196 349.196 68.196C349.38 68.196 349.532 68.14 349.652 68.028C349.78 67.924 349.872 67.78 349.928 67.596C349.984 67.42 350.02 67.256 350.036 67.104C350.06 66.952 350.072 66.792 350.072 66.624V61.872C350.072 61.576 350.012 61.392 349.892 61.32C349.78 61.24 349.496 61.2 349.04 61.2V60.828L350.864 60.696V66.6ZM350.864 58.752C350.864 58.912 350.804 59.06 350.684 59.196C350.564 59.324 350.408 59.388 350.216 59.388C350.04 59.388 349.888 59.324 349.76 59.196C349.64 59.068 349.58 58.92 349.58 58.752C349.58 58.592 349.64 58.448 349.76 58.32C349.88 58.184 350.036 58.116 350.228 58.116C350.404 58.116 350.552 58.18 350.672 58.308C350.8 58.436 350.864 58.584 350.864 58.752Z" fill="black"/>
<path d="M118.356 148.381C118.29 148.185 118.078 148.079 117.881 148.144L114.68 149.212C114.483 149.277 114.377 149.489 114.442 149.686C114.508 149.882 114.72 149.989 114.917 149.923L117.763 148.974L118.712 151.82C118.777 152.017 118.989 152.123 119.186 152.058C119.382 151.992 119.489 151.78 119.423 151.583L118.356 148.381ZM83 170.375C90.8709 170.375 99.118 166.109 105.66 161.302C108.937 158.894 111.801 156.339 113.995 154.09C116.179 151.851 117.725 149.889 118.335 148.668L117.665 148.332C117.109 149.444 115.633 151.336 113.458 153.566C111.292 155.786 108.459 158.315 105.215 160.698C98.7153 165.474 90.6291 169.625 83 169.625V170.375Z" fill="#808080"/>
<path d="M284.644 84.6186C284.71 84.8151 284.922 84.9212 285.119 84.8558L288.32 83.7885C288.517 83.723 288.623 83.5106 288.558 83.3141C288.492 83.1177 288.28 83.0115 288.083 83.077L285.237 84.0257L284.288 81.1796C284.223 80.9831 284.011 80.8769 283.814 80.9424C283.618 81.0079 283.511 81.2203 283.577 81.4168L284.644 84.6186ZM320 62.625C312.129 62.625 303.882 66.8909 297.34 71.6978C294.063 74.1062 291.199 76.6615 289.005 78.91C286.821 81.1488 285.275 83.1106 284.665 84.3323L285.335 84.6677C285.891 83.5561 287.367 81.6637 289.542 79.4337C291.708 77.2135 294.541 74.6854 297.785 72.3022C304.285 67.5257 312.371 63.375 320 63.375V62.625Z" fill="#808080"/>
<path d="M123.5 76.5L128.24 83.7479L132.147 76.019L123.5 76.5ZM169.338 98.8307L129.862 78.8758L129.186 80.2145L168.662 100.169L169.338 98.8307Z" fill="#0000D0"/>
<path d="M123.5 99.5L127.5 101.809L127.5 97.1906L123.5 99.5ZM169 99.1L127.1 99.1L127.1 99.9L169 99.9L169 99.1Z" fill="#0000D0"/>
<path d="M169 76.5L166.691 80.5L171.309 80.5L169 76.5ZM169.4 99.5L169.4 80.1L168.6 80.1L168.6 99.5H169.4Z" fill="#0000D0"/>
<path d="M123.5 99.5L123.5 76.5" stroke="#808080" stroke-width="0.3" stroke-linecap="round"/>
<path d="M169 76.5L123.5 76.5" stroke="#808080" stroke-width="0.3" stroke-linecap="round"/>
<path d="M301.5 167L296.76 159.752L292.853 167.481L301.5 167ZM255.662 144.669L295.138 164.624L295.814 163.286L256.338 143.331L255.662 144.669Z" fill="#0000D0"/>
<path d="M301.5 144L297.5 141.691L297.5 146.309L301.5 144ZM256 144.4L297.9 144.4L297.9 143.6L256 143.6L256 144.4Z" fill="#0000D0"/>
<path d="M256 167L258.309 163L253.691 163L256 167ZM255.6 144L255.6 163.4L256.4 163.4L256.4 144H255.6Z" fill="#0000D0"/>
<path d="M301.5 144L301.5 167" stroke="#808080" stroke-width="0.3" stroke-linecap="round"/>
<path d="M256 167L301.5 167" stroke="#808080" stroke-width="0.3" stroke-linecap="round"/>
<path d="M131.564 69.088L130.796 72.148C130.764 72.26 130.748 72.34 130.748 72.388C130.748 72.46 130.76 72.512 130.784 72.544C130.816 72.576 130.904 72.604 131.048 72.628C131.192 72.644 131.416 72.652 131.72 72.652C131.864 72.652 131.956 72.66 131.996 72.676C132.036 72.684 132.056 72.72 132.056 72.784C132.056 72.928 131.972 73 131.804 73C131.716 73 131.58 72.996 131.396 72.988C131.212 72.98 131.076 72.976 130.988 72.976H129.428C129.356 72.976 129.24 72.98 129.08 72.988C128.92 72.996 128.804 73 128.732 73C128.612 73 128.552 72.956 128.552 72.868C128.552 72.772 128.576 72.712 128.624 72.688C128.672 72.664 128.764 72.652 128.9 72.652C129.292 72.652 129.536 72.62 129.632 72.556C129.736 72.492 129.816 72.344 129.872 72.112L131.492 65.632C131.524 65.512 131.54 65.432 131.54 65.392C131.54 65.336 131.532 65.296 131.516 65.272C131.5 65.248 131.432 65.228 131.312 65.212C131.2 65.188 131.028 65.176 130.796 65.176C130.676 65.176 130.596 65.172 130.556 65.164C130.524 65.148 130.508 65.108 130.508 65.044C130.508 64.948 130.532 64.888 130.58 64.864C130.628 64.84 130.72 64.828 130.856 64.828H136.544C136.672 64.828 136.756 64.836 136.796 64.852C136.844 64.86 136.868 64.896 136.868 64.96C136.868 64.968 136.864 64.996 136.856 65.044C136.848 65.092 136.844 65.124 136.844 65.14L136.592 67.24C136.576 67.416 136.524 67.504 136.436 67.504C136.348 67.504 136.304 67.46 136.304 67.372C136.304 67.3 136.316 67.216 136.34 67.12C136.364 66.912 136.376 66.696 136.376 66.472C136.376 66.008 136.264 65.676 136.04 65.476C135.824 65.276 135.364 65.176 134.66 65.176H133.052C132.812 65.176 132.66 65.2 132.596 65.248C132.54 65.288 132.484 65.416 132.428 65.632L131.648 68.74H132.74C133.252 68.74 133.604 68.664 133.796 68.512C133.988 68.36 134.148 68.052 134.276 67.588C134.3 67.476 134.32 67.408 134.336 67.384C134.36 67.352 134.396 67.336 134.444 67.336C134.524 67.336 134.564 67.376 134.564 67.456L133.868 70.252C133.844 70.356 133.824 70.424 133.808 70.456C133.792 70.48 133.76 70.492 133.712 70.492C133.624 70.492 133.58 70.448 133.58 70.36C133.58 70.32 133.592 70.276 133.616 70.228C133.672 69.98 133.7 69.784 133.7 69.64C133.7 69.44 133.64 69.3 133.52 69.22C133.408 69.132 133.14 69.088 132.716 69.088H131.564Z" fill="#0000FF"/>
<path d="M135.698 73.642C135.698 73.662 135.682 73.716 135.65 73.804C135.622 73.892 135.58 73.996 135.524 74.116C135.468 74.232 135.386 74.336 135.278 74.428C135.174 74.516 135.058 74.56 134.93 74.56C134.79 74.56 134.676 74.514 134.588 74.422C134.5 74.33 134.456 74.214 134.456 74.074C134.456 74.002 134.48 73.902 134.528 73.774L134.948 72.658C135.032 72.426 135.074 72.264 135.074 72.172C135.074 72.04 135.022 71.974 134.918 71.974C134.798 71.974 134.684 72.038 134.576 72.166C134.468 72.29 134.38 72.474 134.312 72.718C134.3 72.766 134.288 72.796 134.276 72.808C134.268 72.82 134.252 72.826 134.228 72.826C134.184 72.826 134.162 72.808 134.162 72.772C134.162 72.748 134.176 72.692 134.204 72.604C134.236 72.516 134.28 72.414 134.336 72.298C134.396 72.182 134.478 72.08 134.582 71.992C134.69 71.9 134.808 71.854 134.936 71.854C135.076 71.854 135.19 71.902 135.278 71.998C135.366 72.09 135.41 72.202 135.41 72.334C135.41 72.406 135.39 72.496 135.35 72.604L134.93 73.72C134.838 73.972 134.792 74.146 134.792 74.242C134.792 74.374 134.844 74.44 134.948 74.44C135.06 74.44 135.17 74.382 135.278 74.266C135.386 74.146 135.476 73.96 135.548 73.708C135.56 73.668 135.568 73.642 135.572 73.63C135.58 73.618 135.588 73.608 135.596 73.6C135.604 73.592 135.618 73.588 135.638 73.588C135.678 73.588 135.698 73.606 135.698 73.642ZM135.65 70.756C135.65 70.824 135.62 70.89 135.56 70.954C135.5 71.014 135.43 71.044 135.35 71.044C135.302 71.044 135.256 71.028 135.212 70.996C135.172 70.964 135.152 70.914 135.152 70.846C135.152 70.77 135.182 70.704 135.242 70.648C135.306 70.588 135.374 70.558 135.446 70.558C135.506 70.558 135.554 70.58 135.59 70.624C135.63 70.664 135.65 70.708 135.65 70.756Z" fill="#0000FF"/>
<path d="M130 62.5H137M137 62.5L135.5 61M137 62.5L135.5 64" stroke="#0000FF" stroke-width="0.6"/>
<path d="M286.564 178.088L285.796 181.148C285.764 181.26 285.748 181.34 285.748 181.388C285.748 181.46 285.76 181.512 285.784 181.544C285.816 181.576 285.904 181.604 286.048 181.628C286.192 181.644 286.416 181.652 286.72 181.652C286.864 181.652 286.956 181.66 286.996 181.676C287.036 181.684 287.056 181.72 287.056 181.784C287.056 181.928 286.972 182 286.804 182C286.716 182 286.58 181.996 286.396 181.988C286.212 181.98 286.076 181.976 285.988 181.976H284.428C284.356 181.976 284.24 181.98 284.08 181.988C283.92 181.996 283.804 182 283.732 182C283.612 182 283.552 181.956 283.552 181.868C283.552 181.772 283.576 181.712 283.624 181.688C283.672 181.664 283.764 181.652 283.9 181.652C284.292 181.652 284.536 181.62 284.632 181.556C284.736 181.492 284.816 181.344 284.872 181.112L286.492 174.632C286.524 174.512 286.54 174.432 286.54 174.392C286.54 174.336 286.532 174.296 286.516 174.272C286.5 174.248 286.432 174.228 286.312 174.212C286.2 174.188 286.028 174.176 285.796 174.176C285.676 174.176 285.596 174.172 285.556 174.164C285.524 174.148 285.508 174.108 285.508 174.044C285.508 173.948 285.532 173.888 285.58 173.864C285.628 173.84 285.72 173.828 285.856 173.828H291.544C291.672 173.828 291.756 173.836 291.796 173.852C291.844 173.86 291.868 173.896 291.868 173.96C291.868 173.968 291.864 173.996 291.856 174.044C291.848 174.092 291.844 174.124 291.844 174.14L291.592 176.24C291.576 176.416 291.524 176.504 291.436 176.504C291.348 176.504 291.304 176.46 291.304 176.372C291.304 176.3 291.316 176.216 291.34 176.12C291.364 175.912 291.376 175.696 291.376 175.472C291.376 175.008 291.264 174.676 291.04 174.476C290.824 174.276 290.364 174.176 289.66 174.176H288.052C287.812 174.176 287.66 174.2 287.596 174.248C287.54 174.288 287.484 174.416 287.428 174.632L286.648 177.74H287.74C288.252 177.74 288.604 177.664 288.796 177.512C288.988 177.36 289.148 177.052 289.276 176.588C289.3 176.476 289.32 176.408 289.336 176.384C289.36 176.352 289.396 176.336 289.444 176.336C289.524 176.336 289.564 176.376 289.564 176.456L288.868 179.252C288.844 179.356 288.824 179.424 288.808 179.456C288.792 179.48 288.76 179.492 288.712 179.492C288.624 179.492 288.58 179.448 288.58 179.36C288.58 179.32 288.592 179.276 288.616 179.228C288.672 178.98 288.7 178.784 288.7 178.64C288.7 178.44 288.64 178.3 288.52 178.22C288.408 178.132 288.14 178.088 287.716 178.088H286.564Z" fill="#0000FF"/>
<path d="M291.1 181.598L290.542 183.818C290.47 184.098 290.324 184.318 290.104 184.478C289.884 184.642 289.66 184.724 289.432 184.724C289.296 184.724 289.176 184.694 289.072 184.634C288.972 184.578 288.922 184.492 288.922 184.376C288.922 184.288 288.952 184.214 289.012 184.154C289.072 184.094 289.142 184.064 289.222 184.064C289.286 184.064 289.336 184.082 289.372 184.118C289.408 184.158 289.426 184.204 289.426 184.256C289.426 184.328 289.4 184.39 289.348 184.442C289.3 184.494 289.24 184.528 289.168 184.544C289.244 184.584 289.332 184.604 289.432 184.604C289.592 184.604 289.738 184.53 289.87 184.382C290.002 184.238 290.098 184.052 290.158 183.824L290.728 181.562C290.756 181.438 290.77 181.334 290.77 181.25C290.77 181.066 290.706 180.974 290.578 180.974C290.45 180.974 290.318 181.036 290.182 181.16C290.046 181.28 289.922 181.474 289.81 181.742C289.774 181.794 289.746 181.822 289.726 181.826C289.686 181.826 289.666 181.808 289.666 181.772C289.666 181.76 289.678 181.724 289.702 181.664C289.726 181.6 289.764 181.522 289.816 181.43C289.872 181.338 289.934 181.25 290.002 181.166C290.074 181.078 290.162 181.004 290.266 180.944C290.374 180.884 290.484 180.854 290.596 180.854C290.74 180.854 290.864 180.904 290.968 181.004C291.072 181.1 291.124 181.23 291.124 181.394C291.124 181.466 291.116 181.534 291.1 181.598ZM291.346 179.756C291.346 179.832 291.314 179.9 291.25 179.96C291.19 180.016 291.124 180.044 291.052 180.044C290.992 180.044 290.942 180.024 290.902 179.984C290.866 179.94 290.848 179.894 290.848 179.846C290.848 179.778 290.878 179.714 290.938 179.654C290.998 179.59 291.068 179.558 291.148 179.558C291.196 179.558 291.24 179.574 291.28 179.606C291.324 179.638 291.346 179.688 291.346 179.756Z" fill="#0000FF"/>
<path d="M285 171.5H292M292 171.5L290.5 170M292 171.5L290.5 173" stroke="#0000FF" stroke-width="0.6"/>
<path d="M176.564 81.088L175.796 84.148C175.764 84.26 175.748 84.34 175.748 84.388C175.748 84.46 175.76 84.512 175.784 84.544C175.816 84.576 175.904 84.604 176.048 84.628C176.192 84.644 176.416 84.652 176.72 84.652C176.864 84.652 176.956 84.66 176.996 84.676C177.036 84.684 177.056 84.72 177.056 84.784C177.056 84.928 176.972 85 176.804 85C176.716 85 176.58 84.996 176.396 84.988C176.212 84.98 176.076 84.976 175.988 84.976H174.428C174.356 84.976 174.24 84.98 174.08 84.988C173.92 84.996 173.804 85 173.732 85C173.612 85 173.552 84.956 173.552 84.868C173.552 84.772 173.576 84.712 173.624 84.688C173.672 84.664 173.764 84.652 173.9 84.652C174.292 84.652 174.536 84.62 174.632 84.556C174.736 84.492 174.816 84.344 174.872 84.112L176.492 77.632C176.524 77.512 176.54 77.432 176.54 77.392C176.54 77.336 176.532 77.296 176.516 77.272C176.5 77.248 176.432 77.228 176.312 77.212C176.2 77.188 176.028 77.176 175.796 77.176C175.676 77.176 175.596 77.172 175.556 77.164C175.524 77.148 175.508 77.108 175.508 77.044C175.508 76.948 175.532 76.888 175.58 76.864C175.628 76.84 175.72 76.828 175.856 76.828H181.544C181.672 76.828 181.756 76.836 181.796 76.852C181.844 76.86 181.868 76.896 181.868 76.96C181.868 76.968 181.864 76.996 181.856 77.044C181.848 77.092 181.844 77.124 181.844 77.14L181.592 79.24C181.576 79.416 181.524 79.504 181.436 79.504C181.348 79.504 181.304 79.46 181.304 79.372C181.304 79.3 181.316 79.216 181.34 79.12C181.364 78.912 181.376 78.696 181.376 78.472C181.376 78.008 181.264 77.676 181.04 77.476C180.824 77.276 180.364 77.176 179.66 77.176H178.052C177.812 77.176 177.66 77.2 177.596 77.248C177.54 77.288 177.484 77.416 177.428 77.632L176.648 80.74H177.74C178.252 80.74 178.604 80.664 178.796 80.512C178.988 80.36 179.148 80.052 179.276 79.588C179.3 79.476 179.32 79.408 179.336 79.384C179.36 79.352 179.396 79.336 179.444 79.336C179.524 79.336 179.564 79.376 179.564 79.456L178.868 82.252C178.844 82.356 178.824 82.424 178.808 82.456C178.792 82.48 178.76 82.492 178.712 82.492C178.624 82.492 178.58 82.448 178.58 82.36C178.58 82.32 178.592 82.276 178.616 82.228C178.672 81.98 178.7 81.784 178.7 81.64C178.7 81.44 178.64 81.3 178.52 81.22C178.408 81.132 178.14 81.088 177.716 81.088H176.564Z" fill="#0000FF"/>
<path d="M180.698 85.642C180.698 85.662 180.682 85.716 180.65 85.804C180.622 85.892 180.58 85.996 180.524 86.116C180.468 86.232 180.386 86.336 180.278 86.428C180.174 86.516 180.058 86.56 179.93 86.56C179.79 86.56 179.676 86.514 179.588 86.422C179.5 86.33 179.456 86.214 179.456 86.074C179.456 86.002 179.48 85.902 179.528 85.774L179.948 84.658C180.032 84.426 180.074 84.264 180.074 84.172C180.074 84.04 180.022 83.974 179.918 83.974C179.798 83.974 179.684 84.038 179.576 84.166C179.468 84.29 179.38 84.474 179.312 84.718C179.3 84.766 179.288 84.796 179.276 84.808C179.268 84.82 179.252 84.826 179.228 84.826C179.184 84.826 179.162 84.808 179.162 84.772C179.162 84.748 179.176 84.692 179.204 84.604C179.236 84.516 179.28 84.414 179.336 84.298C179.396 84.182 179.478 84.08 179.582 83.992C179.69 83.9 179.808 83.854 179.936 83.854C180.076 83.854 180.19 83.902 180.278 83.998C180.366 84.09 180.41 84.202 180.41 84.334C180.41 84.406 180.39 84.496 180.35 84.604L179.93 85.72C179.838 85.972 179.792 86.146 179.792 86.242C179.792 86.374 179.844 86.44 179.948 86.44C180.06 86.44 180.17 86.382 180.278 86.266C180.386 86.146 180.476 85.96 180.548 85.708C180.56 85.668 180.568 85.642 180.572 85.63C180.58 85.618 180.588 85.608 180.596 85.6C180.604 85.592 180.618 85.588 180.638 85.588C180.678 85.588 180.698 85.606 180.698 85.642ZM180.65 82.756C180.65 82.824 180.62 82.89 180.56 82.954C180.5 83.014 180.43 83.044 180.35 83.044C180.302 83.044 180.256 83.028 180.212 82.996C180.172 82.964 180.152 82.914 180.152 82.846C180.152 82.77 180.182 82.704 180.242 82.648C180.306 82.588 180.374 82.558 180.446 82.558C180.506 82.558 180.554 82.58 180.59 82.624C180.63 82.664 180.65 82.708 180.65 82.756ZM182.174 86.524C182.174 86.732 182.134 86.928 182.054 87.112C181.974 87.3 181.894 87.438 181.814 87.526C181.738 87.614 181.688 87.658 181.664 87.658C181.624 87.658 181.604 87.638 181.604 87.598C181.604 87.582 181.626 87.55 181.67 87.502C181.926 87.214 182.054 86.888 182.054 86.524C182.054 86.448 182.05 86.41 182.042 86.41C182.034 86.41 182.026 86.414 182.018 86.422C181.966 86.474 181.9 86.5 181.82 86.5C181.724 86.5 181.65 86.47 181.598 86.41C181.55 86.35 181.526 86.282 181.526 86.206C181.526 86.134 181.552 86.068 181.604 86.008C181.656 85.948 181.726 85.918 181.814 85.918C181.934 85.918 182.024 85.974 182.084 86.086C182.144 86.194 182.174 86.34 182.174 86.524ZM184.211 87.172C184.279 87.08 184.335 86.982 184.379 86.878C184.427 86.778 184.461 86.692 184.481 86.62C184.505 86.548 184.535 86.438 184.571 86.29L184.565 86.284C184.389 86.468 184.189 86.56 183.965 86.56C183.777 86.56 183.611 86.508 183.467 86.404C183.327 86.296 183.257 86.114 183.257 85.858C183.257 85.63 183.355 85.254 183.551 84.73C183.655 84.466 183.707 84.28 183.707 84.172C183.707 84.112 183.697 84.066 183.677 84.034C183.657 84.002 183.637 83.984 183.617 83.98C183.601 83.976 183.579 83.974 183.551 83.974C183.431 83.974 183.317 84.038 183.209 84.166C183.101 84.29 183.013 84.474 182.945 84.718C182.933 84.766 182.921 84.796 182.909 84.808C182.901 84.82 182.885 84.826 182.861 84.826C182.817 84.826 182.795 84.808 182.795 84.772C182.795 84.748 182.809 84.692 182.837 84.604C182.869 84.516 182.913 84.414 182.969 84.298C183.029 84.182 183.111 84.08 183.215 83.992C183.323 83.9 183.441 83.854 183.569 83.854C183.709 83.854 183.823 83.902 183.911 83.998C183.999 84.09 184.043 84.202 184.043 84.334C184.043 84.406 184.009 84.532 183.941 84.712C183.725 85.288 183.617 85.7 183.617 85.948C183.617 86.276 183.739 86.44 183.983 86.44C184.211 86.44 184.413 86.316 184.589 86.068C184.617 86.028 184.643 85.966 184.667 85.882L185.111 84.118C185.147 83.982 185.223 83.914 185.339 83.914C185.383 83.914 185.421 83.928 185.453 83.956C185.485 83.984 185.501 84.02 185.501 84.064C185.501 84.072 185.495 84.106 185.483 84.166L184.895 86.506C184.811 86.842 184.635 87.128 184.367 87.364C184.103 87.604 183.821 87.724 183.521 87.724C183.349 87.724 183.205 87.676 183.089 87.58C182.977 87.484 182.921 87.36 182.921 87.208C182.921 87.08 182.955 86.986 183.023 86.926C183.091 86.87 183.159 86.842 183.227 86.842C183.279 86.842 183.325 86.856 183.365 86.884C183.409 86.916 183.431 86.964 183.431 87.028C183.431 87.1 183.401 87.166 183.341 87.226C183.285 87.29 183.215 87.322 183.131 87.322C183.103 87.322 183.083 87.32 183.071 87.316C183.135 87.508 183.285 87.604 183.521 87.604C183.777 87.604 184.007 87.46 184.211 87.172Z" fill="#0000FF"/>
<path d="M175 74.5H182M182 74.5L180.5 73M182 74.5L180.5 76" stroke="#0000FF" stroke-width="0.6"/>
<path d="M243.564 164.088L242.796 167.148C242.764 167.26 242.748 167.34 242.748 167.388C242.748 167.46 242.76 167.512 242.784 167.544C242.816 167.576 242.904 167.604 243.048 167.628C243.192 167.644 243.416 167.652 243.72 167.652C243.864 167.652 243.956 167.66 243.996 167.676C244.036 167.684 244.056 167.72 244.056 167.784C244.056 167.928 243.972 168 243.804 168C243.716 168 243.58 167.996 243.396 167.988C243.212 167.98 243.076 167.976 242.988 167.976H241.428C241.356 167.976 241.24 167.98 241.08 167.988C240.92 167.996 240.804 168 240.732 168C240.612 168 240.552 167.956 240.552 167.868C240.552 167.772 240.576 167.712 240.624 167.688C240.672 167.664 240.764 167.652 240.9 167.652C241.292 167.652 241.536 167.62 241.632 167.556C241.736 167.492 241.816 167.344 241.872 167.112L243.492 160.632C243.524 160.512 243.54 160.432 243.54 160.392C243.54 160.336 243.532 160.296 243.516 160.272C243.5 160.248 243.432 160.228 243.312 160.212C243.2 160.188 243.028 160.176 242.796 160.176C242.676 160.176 242.596 160.172 242.556 160.164C242.524 160.148 242.508 160.108 242.508 160.044C242.508 159.948 242.532 159.888 242.58 159.864C242.628 159.84 242.72 159.828 242.856 159.828H248.544C248.672 159.828 248.756 159.836 248.796 159.852C248.844 159.86 248.868 159.896 248.868 159.96C248.868 159.968 248.864 159.996 248.856 160.044C248.848 160.092 248.844 160.124 248.844 160.14L248.592 162.24C248.576 162.416 248.524 162.504 248.436 162.504C248.348 162.504 248.304 162.46 248.304 162.372C248.304 162.3 248.316 162.216 248.34 162.12C248.364 161.912 248.376 161.696 248.376 161.472C248.376 161.008 248.264 160.676 248.04 160.476C247.824 160.276 247.364 160.176 246.66 160.176H245.052C244.812 160.176 244.66 160.2 244.596 160.248C244.54 160.288 244.484 160.416 244.428 160.632L243.648 163.74H244.74C245.252 163.74 245.604 163.664 245.796 163.512C245.988 163.36 246.148 163.052 246.276 162.588C246.3 162.476 246.32 162.408 246.336 162.384C246.36 162.352 246.396 162.336 246.444 162.336C246.524 162.336 246.564 162.376 246.564 162.456L245.868 165.252C245.844 165.356 245.824 165.424 245.808 165.456C245.792 165.48 245.76 165.492 245.712 165.492C245.624 165.492 245.58 165.448 245.58 165.36C245.58 165.32 245.592 165.276 245.616 165.228C245.672 164.98 245.7 164.784 245.7 164.64C245.7 164.44 245.64 164.3 245.52 164.22C245.408 164.132 245.14 164.088 244.716 164.088H243.564Z" fill="#0000FF"/>
<path d="M248.1 167.598L247.542 169.818C247.47 170.098 247.324 170.318 247.104 170.478C246.884 170.642 246.66 170.724 246.432 170.724C246.296 170.724 246.176 170.694 246.072 170.634C245.972 170.578 245.922 170.492 245.922 170.376C245.922 170.288 245.952 170.214 246.012 170.154C246.072 170.094 246.142 170.064 246.222 170.064C246.286 170.064 246.336 170.082 246.372 170.118C246.408 170.158 246.426 170.204 246.426 170.256C246.426 170.328 246.4 170.39 246.348 170.442C246.3 170.494 246.24 170.528 246.168 170.544C246.244 170.584 246.332 170.604 246.432 170.604C246.592 170.604 246.738 170.53 246.87 170.382C247.002 170.238 247.098 170.052 247.158 169.824L247.728 167.562C247.756 167.438 247.77 167.334 247.77 167.25C247.77 167.066 247.706 166.974 247.578 166.974C247.45 166.974 247.318 167.036 247.182 167.16C247.046 167.28 246.922 167.474 246.81 167.742C246.774 167.794 246.746 167.822 246.726 167.826C246.686 167.826 246.666 167.808 246.666 167.772C246.666 167.76 246.678 167.724 246.702 167.664C246.726 167.6 246.764 167.522 246.816 167.43C246.872 167.338 246.934 167.25 247.002 167.166C247.074 167.078 247.162 167.004 247.266 166.944C247.374 166.884 247.484 166.854 247.596 166.854C247.74 166.854 247.864 166.904 247.968 167.004C248.072 167.1 248.124 167.23 248.124 167.394C248.124 167.466 248.116 167.534 248.1 167.598ZM248.346 165.756C248.346 165.832 248.314 165.9 248.25 165.96C248.19 166.016 248.124 166.044 248.052 166.044C247.992 166.044 247.942 166.024 247.902 165.984C247.866 165.94 247.848 165.894 247.848 165.846C247.848 165.778 247.878 165.714 247.938 165.654C247.998 165.59 248.068 165.558 248.148 165.558C248.196 165.558 248.24 165.574 248.28 165.606C248.324 165.638 248.346 165.688 248.346 165.756ZM249.602 169.524C249.602 169.732 249.562 169.928 249.482 170.112C249.402 170.3 249.322 170.438 249.242 170.526C249.166 170.614 249.116 170.658 249.092 170.658C249.052 170.658 249.032 170.638 249.032 170.598C249.032 170.582 249.054 170.55 249.098 170.502C249.354 170.214 249.482 169.888 249.482 169.524C249.482 169.448 249.478 169.41 249.47 169.41C249.462 169.41 249.454 169.414 249.446 169.422C249.394 169.474 249.328 169.5 249.248 169.5C249.152 169.5 249.078 169.47 249.026 169.41C248.978 169.35 248.954 169.282 248.954 169.206C248.954 169.134 248.98 169.068 249.032 169.008C249.084 168.948 249.154 168.918 249.242 168.918C249.362 168.918 249.452 168.974 249.512 169.086C249.572 169.194 249.602 169.34 249.602 169.524ZM251.639 170.172C251.707 170.08 251.763 169.982 251.807 169.878C251.855 169.778 251.889 169.692 251.909 169.62C251.933 169.548 251.963 169.438 251.999 169.29L251.993 169.284C251.817 169.468 251.617 169.56 251.393 169.56C251.205 169.56 251.039 169.508 250.895 169.404C250.755 169.296 250.685 169.114 250.685 168.858C250.685 168.63 250.783 168.254 250.979 167.73C251.083 167.466 251.135 167.28 251.135 167.172C251.135 167.112 251.125 167.066 251.105 167.034C251.085 167.002 251.065 166.984 251.045 166.98C251.029 166.976 251.007 166.974 250.979 166.974C250.859 166.974 250.745 167.038 250.637 167.166C250.529 167.29 250.441 167.474 250.373 167.718C250.361 167.766 250.349 167.796 250.337 167.808C250.329 167.82 250.313 167.826 250.289 167.826C250.245 167.826 250.223 167.808 250.223 167.772C250.223 167.748 250.237 167.692 250.265 167.604C250.297 167.516 250.341 167.414 250.397 167.298C250.457 167.182 250.539 167.08 250.643 166.992C250.751 166.9 250.869 166.854 250.997 166.854C251.137 166.854 251.251 166.902 251.339 166.998C251.427 167.09 251.471 167.202 251.471 167.334C251.471 167.406 251.437 167.532 251.369 167.712C251.153 168.288 251.045 168.7 251.045 168.948C251.045 169.276 251.167 169.44 251.411 169.44C251.639 169.44 251.841 169.316 252.017 169.068C252.045 169.028 252.071 168.966 252.095 168.882L252.539 167.118C252.575 166.982 252.651 166.914 252.767 166.914C252.811 166.914 252.849 166.928 252.881 166.956C252.913 166.984 252.929 167.02 252.929 167.064C252.929 167.072 252.923 167.106 252.911 167.166L252.323 169.506C252.239 169.842 252.063 170.128 251.795 170.364C251.531 170.604 251.249 170.724 250.949 170.724C250.777 170.724 250.633 170.676 250.517 170.58C250.405 170.484 250.349 170.36 250.349 170.208C250.349 170.08 250.383 169.986 250.451 169.926C250.519 169.87 250.587 169.842 250.655 169.842C250.707 169.842 250.753 169.856 250.793 169.884C250.837 169.916 250.859 169.964 250.859 170.028C250.859 170.1 250.829 170.166 250.769 170.226C250.713 170.29 250.643 170.322 250.559 170.322C250.531 170.322 250.511 170.32 250.499 170.316C250.563 170.508 250.713 170.604 250.949 170.604C251.205 170.604 251.435 170.46 251.639 170.172Z" fill="#0000FF"/>
<path d="M242 157.5H249M249 157.5L247.5 156M249 157.5L247.5 159" stroke="#0000FF" stroke-width="0.6"/>
<path d="M134.564 110.088L133.796 113.148C133.764 113.26 133.748 113.34 133.748 113.388C133.748 113.46 133.76 113.512 133.784 113.544C133.816 113.576 133.904 113.604 134.048 113.628C134.192 113.644 134.416 113.652 134.72 113.652C134.864 113.652 134.956 113.66 134.996 113.676C135.036 113.684 135.056 113.72 135.056 113.784C135.056 113.928 134.972 114 134.804 114C134.716 114 134.58 113.996 134.396 113.988C134.212 113.98 134.076 113.976 133.988 113.976H132.428C132.356 113.976 132.24 113.98 132.08 113.988C131.92 113.996 131.804 114 131.732 114C131.612 114 131.552 113.956 131.552 113.868C131.552 113.772 131.576 113.712 131.624 113.688C131.672 113.664 131.764 113.652 131.9 113.652C132.292 113.652 132.536 113.62 132.632 113.556C132.736 113.492 132.816 113.344 132.872 113.112L134.492 106.632C134.524 106.512 134.54 106.432 134.54 106.392C134.54 106.336 134.532 106.296 134.516 106.272C134.5 106.248 134.432 106.228 134.312 106.212C134.2 106.188 134.028 106.176 133.796 106.176C133.676 106.176 133.596 106.172 133.556 106.164C133.524 106.148 133.508 106.108 133.508 106.044C133.508 105.948 133.532 105.888 133.58 105.864C133.628 105.84 133.72 105.828 133.856 105.828H139.544C139.672 105.828 139.756 105.836 139.796 105.852C139.844 105.86 139.868 105.896 139.868 105.96C139.868 105.968 139.864 105.996 139.856 106.044C139.848 106.092 139.844 106.124 139.844 106.14L139.592 108.24C139.576 108.416 139.524 108.504 139.436 108.504C139.348 108.504 139.304 108.46 139.304 108.372C139.304 108.3 139.316 108.216 139.34 108.12C139.364 107.912 139.376 107.696 139.376 107.472C139.376 107.008 139.264 106.676 139.04 106.476C138.824 106.276 138.364 106.176 137.66 106.176H136.052C135.812 106.176 135.66 106.2 135.596 106.248C135.54 106.288 135.484 106.416 135.428 106.632L134.648 109.74H135.74C136.252 109.74 136.604 109.664 136.796 109.512C136.988 109.36 137.148 109.052 137.276 108.588C137.3 108.476 137.32 108.408 137.336 108.384C137.36 108.352 137.396 108.336 137.444 108.336C137.524 108.336 137.564 108.376 137.564 108.456L136.868 111.252C136.844 111.356 136.824 111.424 136.808 111.456C136.792 111.48 136.76 111.492 136.712 111.492C136.624 111.492 136.58 111.448 136.58 111.36C136.58 111.32 136.592 111.276 136.616 111.228C136.672 110.98 136.7 110.784 136.7 110.64C136.7 110.44 136.64 110.3 136.52 110.22C136.408 110.132 136.14 110.088 135.716 110.088H134.564Z" fill="#0000FF"/>
<path d="M138.698 114.642C138.698 114.662 138.682 114.716 138.65 114.804C138.622 114.892 138.58 114.996 138.524 115.116C138.468 115.232 138.386 115.336 138.278 115.428C138.174 115.516 138.058 115.56 137.93 115.56C137.79 115.56 137.676 115.514 137.588 115.422C137.5 115.33 137.456 115.214 137.456 115.074C137.456 115.002 137.48 114.902 137.528 114.774L137.948 113.658C138.032 113.426 138.074 113.264 138.074 113.172C138.074 113.04 138.022 112.974 137.918 112.974C137.798 112.974 137.684 113.038 137.576 113.166C137.468 113.29 137.38 113.474 137.312 113.718C137.3 113.766 137.288 113.796 137.276 113.808C137.268 113.82 137.252 113.826 137.228 113.826C137.184 113.826 137.162 113.808 137.162 113.772C137.162 113.748 137.176 113.692 137.204 113.604C137.236 113.516 137.28 113.414 137.336 113.298C137.396 113.182 137.478 113.08 137.582 112.992C137.69 112.9 137.808 112.854 137.936 112.854C138.076 112.854 138.19 112.902 138.278 112.998C138.366 113.09 138.41 113.202 138.41 113.334C138.41 113.406 138.39 113.496 138.35 113.604L137.93 114.72C137.838 114.972 137.792 115.146 137.792 115.242C137.792 115.374 137.844 115.44 137.948 115.44C138.06 115.44 138.17 115.382 138.278 115.266C138.386 115.146 138.476 114.96 138.548 114.708C138.56 114.668 138.568 114.642 138.572 114.63C138.58 114.618 138.588 114.608 138.596 114.6C138.604 114.592 138.618 114.588 138.638 114.588C138.678 114.588 138.698 114.606 138.698 114.642ZM138.65 111.756C138.65 111.824 138.62 111.89 138.56 111.954C138.5 112.014 138.43 112.044 138.35 112.044C138.302 112.044 138.256 112.028 138.212 111.996C138.172 111.964 138.152 111.914 138.152 111.846C138.152 111.77 138.182 111.704 138.242 111.648C138.306 111.588 138.374 111.558 138.446 111.558C138.506 111.558 138.554 111.58 138.59 111.624C138.63 111.664 138.65 111.708 138.65 111.756ZM140.174 115.524C140.174 115.732 140.134 115.928 140.054 116.112C139.974 116.3 139.894 116.438 139.814 116.526C139.738 116.614 139.688 116.658 139.664 116.658C139.624 116.658 139.604 116.638 139.604 116.598C139.604 116.582 139.626 116.55 139.67 116.502C139.926 116.214 140.054 115.888 140.054 115.524C140.054 115.448 140.05 115.41 140.042 115.41C140.034 115.41 140.026 115.414 140.018 115.422C139.966 115.474 139.9 115.5 139.82 115.5C139.724 115.5 139.65 115.47 139.598 115.41C139.55 115.35 139.526 115.282 139.526 115.206C139.526 115.134 139.552 115.068 139.604 115.008C139.656 114.948 139.726 114.918 139.814 114.918C139.934 114.918 140.024 114.974 140.084 115.086C140.144 115.194 140.174 115.34 140.174 115.524ZM143.477 113.052C143.393 113 143.291 112.974 143.171 112.974C143.039 112.974 142.923 113.032 142.823 113.148C142.723 113.26 142.649 113.41 142.601 113.598L142.391 114.414C142.311 114.746 142.271 114.954 142.271 115.038C142.271 115.162 142.299 115.26 142.355 115.332C142.411 115.404 142.491 115.44 142.595 115.44C142.743 115.44 142.891 115.374 143.039 115.242C143.187 115.106 143.299 114.914 143.375 114.666C143.395 114.614 143.421 114.588 143.453 114.588C143.493 114.588 143.513 114.606 143.513 114.642C143.513 114.682 143.491 114.75 143.447 114.846C143.407 114.938 143.349 115.04 143.273 115.152C143.201 115.26 143.101 115.356 142.973 115.44C142.849 115.52 142.717 115.56 142.577 115.56C142.445 115.56 142.319 115.522 142.199 115.446C142.083 115.37 142.003 115.25 141.959 115.086C141.799 115.402 141.593 115.56 141.341 115.56C141.197 115.56 141.071 115.528 140.963 115.464C140.855 115.4 140.801 115.31 140.801 115.194C140.801 115.102 140.831 115.026 140.891 114.966C140.955 114.906 141.025 114.876 141.101 114.876C141.161 114.876 141.209 114.894 141.245 114.93C141.285 114.962 141.305 115.008 141.305 115.068C141.305 115.12 141.285 115.178 141.245 115.242C141.205 115.302 141.137 115.342 141.041 115.362C141.125 115.414 141.227 115.44 141.347 115.44C141.619 115.44 141.813 115.21 141.929 114.75L142.133 113.928C142.205 113.64 142.241 113.454 142.241 113.37C142.241 113.27 142.217 113.18 142.169 113.1C142.121 113.016 142.037 112.974 141.917 112.974C141.841 112.974 141.761 112.992 141.677 113.028C141.597 113.06 141.503 113.14 141.395 113.268C141.287 113.396 141.201 113.562 141.137 113.766C141.117 113.806 141.093 113.826 141.065 113.826C141.021 113.826 140.999 113.808 140.999 113.772C140.999 113.732 141.019 113.666 141.059 113.574C141.103 113.478 141.161 113.376 141.233 113.268C141.309 113.156 141.409 113.06 141.533 112.98C141.661 112.896 141.795 112.854 141.935 112.854C142.251 112.854 142.457 113.012 142.553 113.328C142.581 113.268 142.615 113.208 142.655 113.148C142.699 113.088 142.769 113.024 142.865 112.956C142.961 112.888 143.065 112.854 143.177 112.854C143.317 112.854 143.441 112.886 143.549 112.95C143.661 113.014 143.717 113.104 143.717 113.22C143.717 113.304 143.687 113.378 143.627 113.442C143.571 113.506 143.499 113.538 143.411 113.538C143.359 113.538 143.313 113.522 143.273 113.49C143.233 113.458 143.213 113.41 143.213 113.346C143.213 113.282 143.235 113.222 143.279 113.166C143.323 113.106 143.389 113.068 143.477 113.052Z" fill="#0000FF"/>
<path d="M133 103.5H140M140 103.5L138.5 102M140 103.5L138.5 105" stroke="#0000FF" stroke-width="0.6"/>
<path d="M285.564 134.088L284.796 137.148C284.764 137.26 284.748 137.34 284.748 137.388C284.748 137.46 284.76 137.512 284.784 137.544C284.816 137.576 284.904 137.604 285.048 137.628C285.192 137.644 285.416 137.652 285.72 137.652C285.864 137.652 285.956 137.66 285.996 137.676C286.036 137.684 286.056 137.72 286.056 137.784C286.056 137.928 285.972 138 285.804 138C285.716 138 285.58 137.996 285.396 137.988C285.212 137.98 285.076 137.976 284.988 137.976H283.428C283.356 137.976 283.24 137.98 283.08 137.988C282.92 137.996 282.804 138 282.732 138C282.612 138 282.552 137.956 282.552 137.868C282.552 137.772 282.576 137.712 282.624 137.688C282.672 137.664 282.764 137.652 282.9 137.652C283.292 137.652 283.536 137.62 283.632 137.556C283.736 137.492 283.816 137.344 283.872 137.112L285.492 130.632C285.524 130.512 285.54 130.432 285.54 130.392C285.54 130.336 285.532 130.296 285.516 130.272C285.5 130.248 285.432 130.228 285.312 130.212C285.2 130.188 285.028 130.176 284.796 130.176C284.676 130.176 284.596 130.172 284.556 130.164C284.524 130.148 284.508 130.108 284.508 130.044C284.508 129.948 284.532 129.888 284.58 129.864C284.628 129.84 284.72 129.828 284.856 129.828H290.544C290.672 129.828 290.756 129.836 290.796 129.852C290.844 129.86 290.868 129.896 290.868 129.96C290.868 129.968 290.864 129.996 290.856 130.044C290.848 130.092 290.844 130.124 290.844 130.14L290.592 132.24C290.576 132.416 290.524 132.504 290.436 132.504C290.348 132.504 290.304 132.46 290.304 132.372C290.304 132.3 290.316 132.216 290.34 132.12C290.364 131.912 290.376 131.696 290.376 131.472C290.376 131.008 290.264 130.676 290.04 130.476C289.824 130.276 289.364 130.176 288.66 130.176H287.052C286.812 130.176 286.66 130.2 286.596 130.248C286.54 130.288 286.484 130.416 286.428 130.632L285.648 133.74H286.74C287.252 133.74 287.604 133.664 287.796 133.512C287.988 133.36 288.148 133.052 288.276 132.588C288.3 132.476 288.32 132.408 288.336 132.384C288.36 132.352 288.396 132.336 288.444 132.336C288.524 132.336 288.564 132.376 288.564 132.456L287.868 135.252C287.844 135.356 287.824 135.424 287.808 135.456C287.792 135.48 287.76 135.492 287.712 135.492C287.624 135.492 287.58 135.448 287.58 135.36C287.58 135.32 287.592 135.276 287.616 135.228C287.672 134.98 287.7 134.784 287.7 134.64C287.7 134.44 287.64 134.3 287.52 134.22C287.408 134.132 287.14 134.088 286.716 134.088H285.564Z" fill="#0000FF"/>
<path d="M290.1 137.598L289.542 139.818C289.47 140.098 289.324 140.318 289.104 140.478C288.884 140.642 288.66 140.724 288.432 140.724C288.296 140.724 288.176 140.694 288.072 140.634C287.972 140.578 287.922 140.492 287.922 140.376C287.922 140.288 287.952 140.214 288.012 140.154C288.072 140.094 288.142 140.064 288.222 140.064C288.286 140.064 288.336 140.082 288.372 140.118C288.408 140.158 288.426 140.204 288.426 140.256C288.426 140.328 288.4 140.39 288.348 140.442C288.3 140.494 288.24 140.528 288.168 140.544C288.244 140.584 288.332 140.604 288.432 140.604C288.592 140.604 288.738 140.53 288.87 140.382C289.002 140.238 289.098 140.052 289.158 139.824L289.728 137.562C289.756 137.438 289.77 137.334 289.77 137.25C289.77 137.066 289.706 136.974 289.578 136.974C289.45 136.974 289.318 137.036 289.182 137.16C289.046 137.28 288.922 137.474 288.81 137.742C288.774 137.794 288.746 137.822 288.726 137.826C288.686 137.826 288.666 137.808 288.666 137.772C288.666 137.76 288.678 137.724 288.702 137.664C288.726 137.6 288.764 137.522 288.816 137.43C288.872 137.338 288.934 137.25 289.002 137.166C289.074 137.078 289.162 137.004 289.266 136.944C289.374 136.884 289.484 136.854 289.596 136.854C289.74 136.854 289.864 136.904 289.968 137.004C290.072 137.1 290.124 137.23 290.124 137.394C290.124 137.466 290.116 137.534 290.1 137.598ZM290.346 135.756C290.346 135.832 290.314 135.9 290.25 135.96C290.19 136.016 290.124 136.044 290.052 136.044C289.992 136.044 289.942 136.024 289.902 135.984C289.866 135.94 289.848 135.894 289.848 135.846C289.848 135.778 289.878 135.714 289.938 135.654C289.998 135.59 290.068 135.558 290.148 135.558C290.196 135.558 290.24 135.574 290.28 135.606C290.324 135.638 290.346 135.688 290.346 135.756ZM291.602 139.524C291.602 139.732 291.562 139.928 291.482 140.112C291.402 140.3 291.322 140.438 291.242 140.526C291.166 140.614 291.116 140.658 291.092 140.658C291.052 140.658 291.032 140.638 291.032 140.598C291.032 140.582 291.054 140.55 291.098 140.502C291.354 140.214 291.482 139.888 291.482 139.524C291.482 139.448 291.478 139.41 291.47 139.41C291.462 139.41 291.454 139.414 291.446 139.422C291.394 139.474 291.328 139.5 291.248 139.5C291.152 139.5 291.078 139.47 291.026 139.41C290.978 139.35 290.954 139.282 290.954 139.206C290.954 139.134 290.98 139.068 291.032 139.008C291.084 138.948 291.154 138.918 291.242 138.918C291.362 138.918 291.452 138.974 291.512 139.086C291.572 139.194 291.602 139.34 291.602 139.524ZM294.905 137.052C294.821 137 294.719 136.974 294.599 136.974C294.467 136.974 294.351 137.032 294.251 137.148C294.151 137.26 294.077 137.41 294.029 137.598L293.819 138.414C293.739 138.746 293.699 138.954 293.699 139.038C293.699 139.162 293.727 139.26 293.783 139.332C293.839 139.404 293.919 139.44 294.023 139.44C294.171 139.44 294.319 139.374 294.467 139.242C294.615 139.106 294.727 138.914 294.803 138.666C294.823 138.614 294.849 138.588 294.881 138.588C294.921 138.588 294.941 138.606 294.941 138.642C294.941 138.682 294.919 138.75 294.875 138.846C294.835 138.938 294.777 139.04 294.701 139.152C294.629 139.26 294.529 139.356 294.401 139.44C294.277 139.52 294.145 139.56 294.005 139.56C293.873 139.56 293.747 139.522 293.627 139.446C293.511 139.37 293.431 139.25 293.387 139.086C293.227 139.402 293.021 139.56 292.769 139.56C292.625 139.56 292.499 139.528 292.391 139.464C292.283 139.4 292.229 139.31 292.229 139.194C292.229 139.102 292.259 139.026 292.319 138.966C292.383 138.906 292.453 138.876 292.529 138.876C292.589 138.876 292.637 138.894 292.673 138.93C292.713 138.962 292.733 139.008 292.733 139.068C292.733 139.12 292.713 139.178 292.673 139.242C292.633 139.302 292.565 139.342 292.469 139.362C292.553 139.414 292.655 139.44 292.775 139.44C293.047 139.44 293.241 139.21 293.357 138.75L293.561 137.928C293.633 137.64 293.669 137.454 293.669 137.37C293.669 137.27 293.645 137.18 293.597 137.1C293.549 137.016 293.465 136.974 293.345 136.974C293.269 136.974 293.189 136.992 293.105 137.028C293.025 137.06 292.931 137.14 292.823 137.268C292.715 137.396 292.629 137.562 292.565 137.766C292.545 137.806 292.521 137.826 292.493 137.826C292.449 137.826 292.427 137.808 292.427 137.772C292.427 137.732 292.447 137.666 292.487 137.574C292.531 137.478 292.589 137.376 292.661 137.268C292.737 137.156 292.837 137.06 292.961 136.98C293.089 136.896 293.223 136.854 293.363 136.854C293.679 136.854 293.885 137.012 293.981 137.328C294.009 137.268 294.043 137.208 294.083 137.148C294.127 137.088 294.197 137.024 294.293 136.956C294.389 136.888 294.493 136.854 294.605 136.854C294.745 136.854 294.869 136.886 294.977 136.95C295.089 137.014 295.145 137.104 295.145 137.22C295.145 137.304 295.115 137.378 295.055 137.442C294.999 137.506 294.927 137.538 294.839 137.538C294.787 137.538 294.741 137.522 294.701 137.49C294.661 137.458 294.641 137.41 294.641 137.346C294.641 137.282 294.663 137.222 294.707 137.166C294.751 137.106 294.817 137.068 294.905 137.052Z" fill="#0000FF"/>
<path d="M284 127.5H291M291 127.5L289.5 126M291 127.5L289.5 129" stroke="#0000FF" stroke-width="0.6"/>
<path fill-rule="evenodd" clip-rule="evenodd" d="M204.872 119.839L201.966 116.708L206.214 117.156L205.722 118.14L219.136 124.852L219.628 123.869L222.534 127L218.286 126.551L218.778 125.568L205.364 118.855L204.872 119.839Z" fill="#BE2626"/>
<path fill-rule="evenodd" clip-rule="evenodd" d="M222.1 124H221L222.5 127L224 124H222.9V116.5H222.1V124Z" fill="#BE2626"/>
<path fill-rule="evenodd" clip-rule="evenodd" d="M219.5 115L222.5 116.5L219.5 118V116.9H202V116.1H219.5V115Z" fill="#BE2626"/>
<path d="M154.472 139.484L154.076 141.068L153.812 142.148C153.708 142.572 153.644 142.812 153.62 142.868C153.532 143.036 153.396 143.12 153.212 143.12C153.124 143.12 153.048 143.092 152.984 143.036C152.928 142.98 152.9 142.908 152.9 142.82C152.9 142.732 152.972 142.42 153.116 141.884C153.204 141.556 153.284 141.228 153.356 140.9L153.692 139.604C153.828 139.004 153.896 138.636 153.896 138.5C153.896 138.132 153.772 137.948 153.524 137.948C153.308 137.948 153.132 138.076 152.996 138.332C152.868 138.58 152.748 138.924 152.636 139.364C152.604 139.5 152.576 139.584 152.552 139.616C152.536 139.64 152.504 139.652 152.456 139.652C152.368 139.652 152.324 139.616 152.324 139.544C152.324 139.52 152.34 139.444 152.372 139.316C152.404 139.18 152.452 139.016 152.516 138.824C152.58 138.624 152.644 138.46 152.708 138.332C152.916 137.916 153.2 137.708 153.56 137.708C153.84 137.708 154.08 137.804 154.28 137.996C154.488 138.18 154.6 138.436 154.616 138.764C155.12 138.06 155.736 137.708 156.464 137.708C156.888 137.708 157.212 137.816 157.436 138.032C157.66 138.248 157.78 138.528 157.796 138.872C158.324 138.096 158.968 137.708 159.728 137.708C160.168 137.708 160.5 137.824 160.724 138.056C160.948 138.288 161.06 138.592 161.06 138.968C161.06 139.416 160.808 140.312 160.304 141.656C160.176 142.008 160.112 142.284 160.112 142.484C160.112 142.748 160.216 142.88 160.424 142.88C160.664 142.88 160.888 142.756 161.096 142.508C161.312 142.252 161.488 141.888 161.624 141.416C161.648 141.336 161.664 141.284 161.672 141.26C161.688 141.236 161.704 141.216 161.72 141.2C161.736 141.184 161.764 141.176 161.804 141.176C161.884 141.176 161.924 141.212 161.924 141.284C161.924 141.308 161.908 141.38 161.876 141.5C161.844 141.62 161.784 141.776 161.696 141.968C161.616 142.152 161.52 142.328 161.408 142.496C161.304 142.664 161.16 142.812 160.976 142.94C160.792 143.06 160.596 143.12 160.388 143.12C160.108 143.12 159.88 143.028 159.704 142.844C159.528 142.66 159.44 142.428 159.44 142.148C159.44 142.004 159.496 141.784 159.608 141.488C160.096 140.16 160.34 139.26 160.34 138.788C160.34 138.228 160.124 137.948 159.692 137.948C159.444 137.948 159.208 138 158.984 138.104C158.76 138.208 158.576 138.332 158.432 138.476C158.288 138.62 158.16 138.776 158.048 138.944C157.936 139.104 157.856 139.236 157.808 139.34C157.76 139.444 157.732 139.512 157.724 139.544L157.004 142.412C156.956 142.596 156.92 142.728 156.896 142.808C156.872 142.88 156.824 142.948 156.752 143.012C156.68 143.084 156.588 143.12 156.476 143.12C156.388 143.12 156.312 143.092 156.248 143.036C156.192 142.98 156.164 142.908 156.164 142.82C156.164 142.764 156.204 142.584 156.284 142.28C156.316 142.12 156.432 141.66 156.632 140.9L156.932 139.664C157.028 139.288 157.076 138.996 157.076 138.788C157.076 138.228 156.86 137.948 156.428 137.948C155.98 137.948 155.584 138.108 155.24 138.428C155.104 138.54 154.972 138.684 154.844 138.86C154.724 139.028 154.636 139.164 154.58 139.268C154.524 139.372 154.488 139.444 154.472 139.484Z" fill="black"/>
<path d="M164.362 143.642C164.362 143.662 164.346 143.716 164.314 143.804C164.286 143.892 164.244 143.996 164.188 144.116C164.132 144.232 164.05 144.336 163.942 144.428C163.838 144.516 163.722 144.56 163.594 144.56C163.454 144.56 163.34 144.514 163.252 144.422C163.164 144.33 163.12 144.214 163.12 144.074C163.12 144.002 163.144 143.902 163.192 143.774L163.612 142.658C163.696 142.426 163.738 142.264 163.738 142.172C163.738 142.04 163.686 141.974 163.582 141.974C163.462 141.974 163.348 142.038 163.24 142.166C163.132 142.29 163.044 142.474 162.976 142.718C162.964 142.766 162.952 142.796 162.94 142.808C162.932 142.82 162.916 142.826 162.892 142.826C162.848 142.826 162.826 142.808 162.826 142.772C162.826 142.748 162.84 142.692 162.868 142.604C162.9 142.516 162.944 142.414 163 142.298C163.06 142.182 163.142 142.08 163.246 141.992C163.354 141.9 163.472 141.854 163.6 141.854C163.74 141.854 163.854 141.902 163.942 141.998C164.03 142.09 164.074 142.202 164.074 142.334C164.074 142.406 164.054 142.496 164.014 142.604L163.594 143.72C163.502 143.972 163.456 144.146 163.456 144.242C163.456 144.374 163.508 144.44 163.612 144.44C163.724 144.44 163.834 144.382 163.942 144.266C164.05 144.146 164.14 143.96 164.212 143.708C164.224 143.668 164.232 143.642 164.236 143.63C164.244 143.618 164.252 143.608 164.26 143.6C164.268 143.592 164.282 143.588 164.302 143.588C164.342 143.588 164.362 143.606 164.362 143.642ZM164.314 140.756C164.314 140.824 164.284 140.89 164.224 140.954C164.164 141.014 164.094 141.044 164.014 141.044C163.966 141.044 163.92 141.028 163.876 140.996C163.836 140.964 163.816 140.914 163.816 140.846C163.816 140.77 163.846 140.704 163.906 140.648C163.97 140.588 164.038 140.558 164.11 140.558C164.17 140.558 164.218 140.58 164.254 140.624C164.294 140.664 164.314 140.708 164.314 140.756Z" fill="black"/>
<path d="M254.472 101.484L254.076 103.068L253.812 104.148C253.708 104.572 253.644 104.812 253.62 104.868C253.532 105.036 253.396 105.12 253.212 105.12C253.124 105.12 253.048 105.092 252.984 105.036C252.928 104.98 252.9 104.908 252.9 104.82C252.9 104.732 252.972 104.42 253.116 103.884C253.204 103.556 253.284 103.228 253.356 102.9L253.692 101.604C253.828 101.004 253.896 100.636 253.896 100.5C253.896 100.132 253.772 99.948 253.524 99.948C253.308 99.948 253.132 100.076 252.996 100.332C252.868 100.58 252.748 100.924 252.636 101.364C252.604 101.5 252.576 101.584 252.552 101.616C252.536 101.64 252.504 101.652 252.456 101.652C252.368 101.652 252.324 101.616 252.324 101.544C252.324 101.52 252.34 101.444 252.372 101.316C252.404 101.18 252.452 101.016 252.516 100.824C252.58 100.624 252.644 100.46 252.708 100.332C252.916 99.916 253.2 99.708 253.56 99.708C253.84 99.708 254.08 99.804 254.28 99.996C254.488 100.18 254.6 100.436 254.616 100.764C255.12 100.06 255.736 99.708 256.464 99.708C256.888 99.708 257.212 99.816 257.436 100.032C257.66 100.248 257.78 100.528 257.796 100.872C258.324 100.096 258.968 99.708 259.728 99.708C260.168 99.708 260.5 99.824 260.724 100.056C260.948 100.288 261.06 100.592 261.06 100.968C261.06 101.416 260.808 102.312 260.304 103.656C260.176 104.008 260.112 104.284 260.112 104.484C260.112 104.748 260.216 104.88 260.424 104.88C260.664 104.88 260.888 104.756 261.096 104.508C261.312 104.252 261.488 103.888 261.624 103.416C261.648 103.336 261.664 103.284 261.672 103.26C261.688 103.236 261.704 103.216 261.72 103.2C261.736 103.184 261.764 103.176 261.804 103.176C261.884 103.176 261.924 103.212 261.924 103.284C261.924 103.308 261.908 103.38 261.876 103.5C261.844 103.62 261.784 103.776 261.696 103.968C261.616 104.152 261.52 104.328 261.408 104.496C261.304 104.664 261.16 104.812 260.976 104.94C260.792 105.06 260.596 105.12 260.388 105.12C260.108 105.12 259.88 105.028 259.704 104.844C259.528 104.66 259.44 104.428 259.44 104.148C259.44 104.004 259.496 103.784 259.608 103.488C260.096 102.16 260.34 101.26 260.34 100.788C260.34 100.228 260.124 99.948 259.692 99.948C259.444 99.948 259.208 100 258.984 100.104C258.76 100.208 258.576 100.332 258.432 100.476C258.288 100.62 258.16 100.776 258.048 100.944C257.936 101.104 257.856 101.236 257.808 101.34C257.76 101.444 257.732 101.512 257.724 101.544L257.004 104.412C256.956 104.596 256.92 104.728 256.896 104.808C256.872 104.88 256.824 104.948 256.752 105.012C256.68 105.084 256.588 105.12 256.476 105.12C256.388 105.12 256.312 105.092 256.248 105.036C256.192 104.98 256.164 104.908 256.164 104.82C256.164 104.764 256.204 104.584 256.284 104.28C256.316 104.12 256.432 103.66 256.632 102.9L256.932 101.664C257.028 101.288 257.076 100.996 257.076 100.788C257.076 100.228 256.86 99.948 256.428 99.948C255.98 99.948 255.584 100.108 255.24 100.428C255.104 100.54 254.972 100.684 254.844 100.86C254.724 101.028 254.636 101.164 254.58 101.268C254.524 101.372 254.488 101.444 254.472 101.484Z" fill="black"/>
<path d="M264.764 104.598L264.206 106.818C264.134 107.098 263.988 107.318 263.768 107.478C263.548 107.642 263.324 107.724 263.096 107.724C262.96 107.724 262.84 107.694 262.736 107.634C262.636 107.578 262.586 107.492 262.586 107.376C262.586 107.288 262.616 107.214 262.676 107.154C262.736 107.094 262.806 107.064 262.886 107.064C262.95 107.064 263 107.082 263.036 107.118C263.072 107.158 263.09 107.204 263.09 107.256C263.09 107.328 263.064 107.39 263.012 107.442C262.964 107.494 262.904 107.528 262.832 107.544C262.908 107.584 262.996 107.604 263.096 107.604C263.256 107.604 263.402 107.53 263.534 107.382C263.666 107.238 263.762 107.052 263.822 106.824L264.392 104.562C264.42 104.438 264.434 104.334 264.434 104.25C264.434 104.066 264.37 103.974 264.242 103.974C264.114 103.974 263.982 104.036 263.846 104.16C263.71 104.28 263.586 104.474 263.474 104.742C263.438 104.794 263.41 104.822 263.39 104.826C263.35 104.826 263.33 104.808 263.33 104.772C263.33 104.76 263.342 104.724 263.366 104.664C263.39 104.6 263.428 104.522 263.48 104.43C263.536 104.338 263.598 104.25 263.666 104.166C263.738 104.078 263.826 104.004 263.93 103.944C264.038 103.884 264.148 103.854 264.26 103.854C264.404 103.854 264.528 103.904 264.632 104.004C264.736 104.1 264.788 104.23 264.788 104.394C264.788 104.466 264.78 104.534 264.764 104.598ZM265.01 102.756C265.01 102.832 264.978 102.9 264.914 102.96C264.854 103.016 264.788 103.044 264.716 103.044C264.656 103.044 264.606 103.024 264.566 102.984C264.53 102.94 264.512 102.894 264.512 102.846C264.512 102.778 264.542 102.714 264.602 102.654C264.662 102.59 264.732 102.558 264.812 102.558C264.86 102.558 264.904 102.574 264.944 102.606C264.988 102.638 265.01 102.688 265.01 102.756Z" fill="black"/>
</g>
<defs>
<filter id="filter0_d" x="0" y="0" width="406" height="239" filterUnits="userSpaceOnUse" color-interpolation-filters="sRGB">
<feFlood flood-opacity="0" result="BackgroundImageFix"/>
<feColorMatrix in="SourceAlpha" type="matrix" values="0 0 0 0 0 0 0 0 0 0 0 0 0 0 0 0 0 0 127 0"/>
<feOffset dy="4"/>
<feGaussianBlur stdDeviation="8"/>
<feColorMatrix type="matrix" values="0 0 0 0 0 0 0 0 0 0 0 0 0 0 0 0 0 0 0.25 0"/>
<feBlend mode="normal" in2="BackgroundImageFix" result="effect1_dropShadow"/>
<feBlend mode="normal" in="SourceGraphic" in2="effect1_dropShadow" result="shape"/>
</filter>
</defs>
</svg>
